<?xml version="1.0" encoding="utf-8" standalone="no"?>
<!DOCTYPE svg PUBLIC "-//W3C//DTD SVG 1.1//EN"
  "http://www.w3.org/Graphics/SVG/1.1/DTD/svg11.dtd">
<svg xmlns:xlink="http://www.w3.org/1999/xlink" width="720pt" height="504pt" viewBox="0 0 720 504" xmlns="http://www.w3.org/2000/svg" version="1.1">
 <metadata>
  <rdf:RDF xmlns:dc="http://purl.org/dc/elements/1.1/" xmlns:cc="http://creativecommons.org/ns#" xmlns:rdf="http://www.w3.org/1999/02/22-rdf-syntax-ns#">
   <cc:Work>
    <dc:type rdf:resource="http://purl.org/dc/dcmitype/StillImage"/>
    <dc:date>2025-12-18T17:34:55.894555</dc:date>
    <dc:format>image/svg+xml</dc:format>
    <dc:creator>
     <cc:Agent>
      <dc:title>Matplotlib v3.10.7, https://matplotlib.org/</dc:title>
     </cc:Agent>
    </dc:creator>
   </cc:Work>
  </rdf:RDF>
 </metadata>
 <defs>
  <style type="text/css">*{stroke-linejoin: round; stroke-linecap: butt}</style>
 </defs>
 <g id="figure_1">
  <g id="patch_1">
   <path d="M 0 504 
L 720 504 
L 720 0 
L 0 0 
z
" style="fill: #ffffff"/>
  </g>
  <g id="axes_1">
   <g id="patch_2">
    <path d="M 54.92 454.84 
L 709.2 454.84 
L 709.2 32.64 
L 54.92 32.64 
z
" style="fill: #ffffff"/>
   </g>
   <g id="matplotlib.axis_1">
    <g id="xtick_1">
     <g id="line2d_1">
      <path d="M 76.303558 454.84 
L 76.303558 32.64 
" clip-path="url(#p05249ba338)" style="fill: none; stroke-dasharray: 2.96,1.28; stroke-dashoffset: 0; stroke: #b0b0b0; stroke-opacity: 0.3; stroke-width: 0.8"/>
     </g>
     <g id="line2d_2">
      <defs>
       <path id="m4eab08be30" d="M 0 0 
L 0 3.5 
" style="stroke: #000000; stroke-width: 0.8"/>
      </defs>
      <g>
       <use xlink:href="#m4eab08be30" x="76.303558" y="454.84" style="stroke: #000000; stroke-width: 0.8"/>
      </g>
     </g>
     <g id="text_1">
      <!-- 0 -->
      <g transform="translate(73.122308 469.438437) scale(0.1 -0.1)">
       <defs>
        <path id="DejaVuSans-30" d="M 2034 4250 
Q 1547 4250 1301 3770 
Q 1056 3291 1056 2328 
Q 1056 1369 1301 889 
Q 1547 409 2034 409 
Q 2525 409 2770 889 
Q 3016 1369 3016 2328 
Q 3016 3291 2770 3770 
Q 2525 4250 2034 4250 
z
M 2034 4750 
Q 2819 4750 3233 4129 
Q 3647 3509 3647 2328 
Q 3647 1150 3233 529 
Q 2819 -91 2034 -91 
Q 1250 -91 836 529 
Q 422 1150 422 2328 
Q 422 3509 836 4129 
Q 1250 4750 2034 4750 
z
" transform="scale(0.015625)"/>
       </defs>
       <use xlink:href="#DejaVuSans-30"/>
      </g>
     </g>
    </g>
    <g id="xtick_2">
     <g id="line2d_3">
      <path d="M 149.245885 454.84 
L 149.245885 32.64 
" clip-path="url(#p05249ba338)" style="fill: none; stroke-dasharray: 2.96,1.28; stroke-dashoffset: 0; stroke: #b0b0b0; stroke-opacity: 0.3; stroke-width: 0.8"/>
     </g>
     <g id="line2d_4">
      <g>
       <use xlink:href="#m4eab08be30" x="149.245885" y="454.84" style="stroke: #000000; stroke-width: 0.8"/>
      </g>
     </g>
     <g id="text_2">
      <!-- 5 -->
      <g transform="translate(146.064635 469.438437) scale(0.1 -0.1)">
       <defs>
        <path id="DejaVuSans-35" d="M 691 4666 
L 3169 4666 
L 3169 4134 
L 1269 4134 
L 1269 2991 
Q 1406 3038 1543 3061 
Q 1681 3084 1819 3084 
Q 2600 3084 3056 2656 
Q 3513 2228 3513 1497 
Q 3513 744 3044 326 
Q 2575 -91 1722 -91 
Q 1428 -91 1123 -41 
Q 819 9 494 109 
L 494 744 
Q 775 591 1075 516 
Q 1375 441 1709 441 
Q 2250 441 2565 725 
Q 2881 1009 2881 1497 
Q 2881 1984 2565 2268 
Q 2250 2553 1709 2553 
Q 1456 2553 1204 2497 
Q 953 2441 691 2322 
L 691 4666 
z
" transform="scale(0.015625)"/>
       </defs>
       <use xlink:href="#DejaVuSans-35"/>
      </g>
     </g>
    </g>
    <g id="xtick_3">
     <g id="line2d_5">
      <path d="M 222.188213 454.84 
L 222.188213 32.64 
" clip-path="url(#p05249ba338)" style="fill: none; stroke-dasharray: 2.96,1.28; stroke-dashoffset: 0; stroke: #b0b0b0; stroke-opacity: 0.3; stroke-width: 0.8"/>
     </g>
     <g id="line2d_6">
      <g>
       <use xlink:href="#m4eab08be30" x="222.188213" y="454.84" style="stroke: #000000; stroke-width: 0.8"/>
      </g>
     </g>
     <g id="text_3">
      <!-- 10 -->
      <g transform="translate(215.825713 469.438437) scale(0.1 -0.1)">
       <defs>
        <path id="DejaVuSans-31" d="M 794 531 
L 1825 531 
L 1825 4091 
L 703 3866 
L 703 4441 
L 1819 4666 
L 2450 4666 
L 2450 531 
L 3481 531 
L 3481 0 
L 794 0 
L 794 531 
z
" transform="scale(0.015625)"/>
       </defs>
       <use xlink:href="#DejaVuSans-31"/>
       <use xlink:href="#DejaVuSans-30" transform="translate(63.623047 0)"/>
      </g>
     </g>
    </g>
    <g id="xtick_4">
     <g id="line2d_7">
      <path d="M 295.13054 454.84 
L 295.13054 32.64 
" clip-path="url(#p05249ba338)" style="fill: none; stroke-dasharray: 2.96,1.28; stroke-dashoffset: 0; stroke: #b0b0b0; stroke-opacity: 0.3; stroke-width: 0.8"/>
     </g>
     <g id="line2d_8">
      <g>
       <use xlink:href="#m4eab08be30" x="295.13054" y="454.84" style="stroke: #000000; stroke-width: 0.8"/>
      </g>
     </g>
     <g id="text_4">
      <!-- 15 -->
      <g transform="translate(288.76804 469.438437) scale(0.1 -0.1)">
       <use xlink:href="#DejaVuSans-31"/>
       <use xlink:href="#DejaVuSans-35" transform="translate(63.623047 0)"/>
      </g>
     </g>
    </g>
    <g id="xtick_5">
     <g id="line2d_9">
      <path d="M 368.072867 454.84 
L 368.072867 32.64 
" clip-path="url(#p05249ba338)" style="fill: none; stroke-dasharray: 2.96,1.28; stroke-dashoffset: 0; stroke: #b0b0b0; stroke-opacity: 0.3; stroke-width: 0.8"/>
     </g>
     <g id="line2d_10">
      <g>
       <use xlink:href="#m4eab08be30" x="368.072867" y="454.84" style="stroke: #000000; stroke-width: 0.8"/>
      </g>
     </g>
     <g id="text_5">
      <!-- 20 -->
      <g transform="translate(361.710367 469.438437) scale(0.1 -0.1)">
       <defs>
        <path id="DejaVuSans-32" d="M 1228 531 
L 3431 531 
L 3431 0 
L 469 0 
L 469 531 
Q 828 903 1448 1529 
Q 2069 2156 2228 2338 
Q 2531 2678 2651 2914 
Q 2772 3150 2772 3378 
Q 2772 3750 2511 3984 
Q 2250 4219 1831 4219 
Q 1534 4219 1204 4116 
Q 875 4013 500 3803 
L 500 4441 
Q 881 4594 1212 4672 
Q 1544 4750 1819 4750 
Q 2544 4750 2975 4387 
Q 3406 4025 3406 3419 
Q 3406 3131 3298 2873 
Q 3191 2616 2906 2266 
Q 2828 2175 2409 1742 
Q 1991 1309 1228 531 
z
" transform="scale(0.015625)"/>
       </defs>
       <use xlink:href="#DejaVuSans-32"/>
       <use xlink:href="#DejaVuSans-30" transform="translate(63.623047 0)"/>
      </g>
     </g>
    </g>
    <g id="xtick_6">
     <g id="line2d_11">
      <path d="M 441.015194 454.84 
L 441.015194 32.64 
" clip-path="url(#p05249ba338)" style="fill: none; stroke-dasharray: 2.96,1.28; stroke-dashoffset: 0; stroke: #b0b0b0; stroke-opacity: 0.3; stroke-width: 0.8"/>
     </g>
     <g id="line2d_12">
      <g>
       <use xlink:href="#m4eab08be30" x="441.015194" y="454.84" style="stroke: #000000; stroke-width: 0.8"/>
      </g>
     </g>
     <g id="text_6">
      <!-- 25 -->
      <g transform="translate(434.652694 469.438437) scale(0.1 -0.1)">
       <use xlink:href="#DejaVuSans-32"/>
       <use xlink:href="#DejaVuSans-35" transform="translate(63.623047 0)"/>
      </g>
     </g>
    </g>
    <g id="xtick_7">
     <g id="line2d_13">
      <path d="M 513.957522 454.84 
L 513.957522 32.64 
" clip-path="url(#p05249ba338)" style="fill: none; stroke-dasharray: 2.96,1.28; stroke-dashoffset: 0; stroke: #b0b0b0; stroke-opacity: 0.3; stroke-width: 0.8"/>
     </g>
     <g id="line2d_14">
      <g>
       <use xlink:href="#m4eab08be30" x="513.957522" y="454.84" style="stroke: #000000; stroke-width: 0.8"/>
      </g>
     </g>
     <g id="text_7">
      <!-- 30 -->
      <g transform="translate(507.595022 469.438437) scale(0.1 -0.1)">
       <defs>
        <path id="DejaVuSans-33" d="M 2597 2516 
Q 3050 2419 3304 2112 
Q 3559 1806 3559 1356 
Q 3559 666 3084 287 
Q 2609 -91 1734 -91 
Q 1441 -91 1130 -33 
Q 819 25 488 141 
L 488 750 
Q 750 597 1062 519 
Q 1375 441 1716 441 
Q 2309 441 2620 675 
Q 2931 909 2931 1356 
Q 2931 1769 2642 2001 
Q 2353 2234 1838 2234 
L 1294 2234 
L 1294 2753 
L 1863 2753 
Q 2328 2753 2575 2939 
Q 2822 3125 2822 3475 
Q 2822 3834 2567 4026 
Q 2313 4219 1838 4219 
Q 1578 4219 1281 4162 
Q 984 4106 628 3988 
L 628 4550 
Q 988 4650 1302 4700 
Q 1616 4750 1894 4750 
Q 2613 4750 3031 4423 
Q 3450 4097 3450 3541 
Q 3450 3153 3228 2886 
Q 3006 2619 2597 2516 
z
" transform="scale(0.015625)"/>
       </defs>
       <use xlink:href="#DejaVuSans-33"/>
       <use xlink:href="#DejaVuSans-30" transform="translate(63.623047 0)"/>
      </g>
     </g>
    </g>
    <g id="xtick_8">
     <g id="line2d_15">
      <path d="M 586.899849 454.84 
L 586.899849 32.64 
" clip-path="url(#p05249ba338)" style="fill: none; stroke-dasharray: 2.96,1.28; stroke-dashoffset: 0; stroke: #b0b0b0; stroke-opacity: 0.3; stroke-width: 0.8"/>
     </g>
     <g id="line2d_16">
      <g>
       <use xlink:href="#m4eab08be30" x="586.899849" y="454.84" style="stroke: #000000; stroke-width: 0.8"/>
      </g>
     </g>
     <g id="text_8">
      <!-- 35 -->
      <g transform="translate(580.537349 469.438437) scale(0.1 -0.1)">
       <use xlink:href="#DejaVuSans-33"/>
       <use xlink:href="#DejaVuSans-35" transform="translate(63.623047 0)"/>
      </g>
     </g>
    </g>
    <g id="xtick_9">
     <g id="line2d_17">
      <path d="M 659.842176 454.84 
L 659.842176 32.64 
" clip-path="url(#p05249ba338)" style="fill: none; stroke-dasharray: 2.96,1.28; stroke-dashoffset: 0; stroke: #b0b0b0; stroke-opacity: 0.3; stroke-width: 0.8"/>
     </g>
     <g id="line2d_18">
      <g>
       <use xlink:href="#m4eab08be30" x="659.842176" y="454.84" style="stroke: #000000; stroke-width: 0.8"/>
      </g>
     </g>
     <g id="text_9">
      <!-- 40 -->
      <g transform="translate(653.479676 469.438437) scale(0.1 -0.1)">
       <defs>
        <path id="DejaVuSans-34" d="M 2419 4116 
L 825 1625 
L 2419 1625 
L 2419 4116 
z
M 2253 4666 
L 3047 4666 
L 3047 1625 
L 3713 1625 
L 3713 1100 
L 3047 1100 
L 3047 0 
L 2419 0 
L 2419 1100 
L 313 1100 
L 313 1709 
L 2253 4666 
z
" transform="scale(0.015625)"/>
       </defs>
       <use xlink:href="#DejaVuSans-34"/>
       <use xlink:href="#DejaVuSans-30" transform="translate(63.623047 0)"/>
      </g>
     </g>
    </g>
    <g id="text_10">
     <!-- XY Error [m] -->
     <g transform="translate(326.954688 489.195312) scale(0.18 -0.18)">
      <defs>
       <path id="DejaVuSans-58" d="M 403 4666 
L 1081 4666 
L 2241 2931 
L 3406 4666 
L 4084 4666 
L 2584 2425 
L 4184 0 
L 3506 0 
L 2194 1984 
L 872 0 
L 191 0 
L 1856 2491 
L 403 4666 
z
" transform="scale(0.015625)"/>
       <path id="DejaVuSans-59" d="M -13 4666 
L 666 4666 
L 1959 2747 
L 3244 4666 
L 3922 4666 
L 2272 2222 
L 2272 0 
L 1638 0 
L 1638 2222 
L -13 4666 
z
" transform="scale(0.015625)"/>
       <path id="DejaVuSans-20" transform="scale(0.015625)"/>
       <path id="DejaVuSans-45" d="M 628 4666 
L 3578 4666 
L 3578 4134 
L 1259 4134 
L 1259 2753 
L 3481 2753 
L 3481 2222 
L 1259 2222 
L 1259 531 
L 3634 531 
L 3634 0 
L 628 0 
L 628 4666 
z
" transform="scale(0.015625)"/>
       <path id="DejaVuSans-72" d="M 2631 2963 
Q 2534 3019 2420 3045 
Q 2306 3072 2169 3072 
Q 1681 3072 1420 2755 
Q 1159 2438 1159 1844 
L 1159 0 
L 581 0 
L 581 3500 
L 1159 3500 
L 1159 2956 
Q 1341 3275 1631 3429 
Q 1922 3584 2338 3584 
Q 2397 3584 2469 3576 
Q 2541 3569 2628 3553 
L 2631 2963 
z
" transform="scale(0.015625)"/>
       <path id="DejaVuSans-6f" d="M 1959 3097 
Q 1497 3097 1228 2736 
Q 959 2375 959 1747 
Q 959 1119 1226 758 
Q 1494 397 1959 397 
Q 2419 397 2687 759 
Q 2956 1122 2956 1747 
Q 2956 2369 2687 2733 
Q 2419 3097 1959 3097 
z
M 1959 3584 
Q 2709 3584 3137 3096 
Q 3566 2609 3566 1747 
Q 3566 888 3137 398 
Q 2709 -91 1959 -91 
Q 1206 -91 779 398 
Q 353 888 353 1747 
Q 353 2609 779 3096 
Q 1206 3584 1959 3584 
z
" transform="scale(0.015625)"/>
       <path id="DejaVuSans-5b" d="M 550 4863 
L 1875 4863 
L 1875 4416 
L 1125 4416 
L 1125 -397 
L 1875 -397 
L 1875 -844 
L 550 -844 
L 550 4863 
z
" transform="scale(0.015625)"/>
       <path id="DejaVuSans-6d" d="M 3328 2828 
Q 3544 3216 3844 3400 
Q 4144 3584 4550 3584 
Q 5097 3584 5394 3201 
Q 5691 2819 5691 2113 
L 5691 0 
L 5113 0 
L 5113 2094 
Q 5113 2597 4934 2840 
Q 4756 3084 4391 3084 
Q 3944 3084 3684 2787 
Q 3425 2491 3425 1978 
L 3425 0 
L 2847 0 
L 2847 2094 
Q 2847 2600 2669 2842 
Q 2491 3084 2119 3084 
Q 1678 3084 1418 2786 
Q 1159 2488 1159 1978 
L 1159 0 
L 581 0 
L 581 3500 
L 1159 3500 
L 1159 2956 
Q 1356 3278 1631 3431 
Q 1906 3584 2284 3584 
Q 2666 3584 2933 3390 
Q 3200 3197 3328 2828 
z
" transform="scale(0.015625)"/>
       <path id="DejaVuSans-5d" d="M 1947 4863 
L 1947 -844 
L 622 -844 
L 622 -397 
L 1369 -397 
L 1369 4416 
L 622 4416 
L 622 4863 
L 1947 4863 
z
" transform="scale(0.015625)"/>
      </defs>
      <use xlink:href="#DejaVuSans-58"/>
      <use xlink:href="#DejaVuSans-59" transform="translate(68.505859 0)"/>
      <use xlink:href="#DejaVuSans-20" transform="translate(129.589844 0)"/>
      <use xlink:href="#DejaVuSans-45" transform="translate(161.376953 0)"/>
      <use xlink:href="#DejaVuSans-72" transform="translate(224.560547 0)"/>
      <use xlink:href="#DejaVuSans-72" transform="translate(263.923828 0)"/>
      <use xlink:href="#DejaVuSans-6f" transform="translate(302.787109 0)"/>
      <use xlink:href="#DejaVuSans-72" transform="translate(363.96875 0)"/>
      <use xlink:href="#DejaVuSans-20" transform="translate(405.082031 0)"/>
      <use xlink:href="#DejaVuSans-5b" transform="translate(436.869141 0)"/>
      <use xlink:href="#DejaVuSans-6d" transform="translate(475.882812 0)"/>
      <use xlink:href="#DejaVuSans-5d" transform="translate(573.294922 0)"/>
     </g>
    </g>
   </g>
   <g id="matplotlib.axis_2">
    <g id="ytick_1">
     <g id="line2d_19">
      <path d="M 54.92 435.649091 
L 709.2 435.649091 
" clip-path="url(#p05249ba338)" style="fill: none; stroke-dasharray: 2.96,1.28; stroke-dashoffset: 0; stroke: #b0b0b0; stroke-opacity: 0.3; stroke-width: 0.8"/>
     </g>
     <g id="line2d_20">
      <defs>
       <path id="m5454bbb4fd" d="M 0 0 
L -3.5 0 
" style="stroke: #000000; stroke-width: 0.8"/>
      </defs>
      <g>
       <use xlink:href="#m5454bbb4fd" x="54.92" y="435.649091" style="stroke: #000000; stroke-width: 0.8"/>
      </g>
     </g>
     <g id="text_11">
      <!-- 0.0 -->
      <g transform="translate(32.016875 439.44831) scale(0.1 -0.1)">
       <defs>
        <path id="DejaVuSans-2e" d="M 684 794 
L 1344 794 
L 1344 0 
L 684 0 
L 684 794 
z
" transform="scale(0.015625)"/>
       </defs>
       <use xlink:href="#DejaVuSans-30"/>
       <use xlink:href="#DejaVuSans-2e" transform="translate(63.623047 0)"/>
       <use xlink:href="#DejaVuSans-30" transform="translate(95.410156 0)"/>
      </g>
     </g>
    </g>
    <g id="ytick_2">
     <g id="line2d_21">
      <path d="M 54.92 358.885455 
L 709.2 358.885455 
" clip-path="url(#p05249ba338)" style="fill: none; stroke-dasharray: 2.96,1.28; stroke-dashoffset: 0; stroke: #b0b0b0; stroke-opacity: 0.3; stroke-width: 0.8"/>
     </g>
     <g id="line2d_22">
      <g>
       <use xlink:href="#m5454bbb4fd" x="54.92" y="358.885455" style="stroke: #000000; stroke-width: 0.8"/>
      </g>
     </g>
     <g id="text_12">
      <!-- 0.2 -->
      <g transform="translate(32.016875 362.684673) scale(0.1 -0.1)">
       <use xlink:href="#DejaVuSans-30"/>
       <use xlink:href="#DejaVuSans-2e" transform="translate(63.623047 0)"/>
       <use xlink:href="#DejaVuSans-32" transform="translate(95.410156 0)"/>
      </g>
     </g>
    </g>
    <g id="ytick_3">
     <g id="line2d_23">
      <path d="M 54.92 282.121818 
L 709.2 282.121818 
" clip-path="url(#p05249ba338)" style="fill: none; stroke-dasharray: 2.96,1.28; stroke-dashoffset: 0; stroke: #b0b0b0; stroke-opacity: 0.3; stroke-width: 0.8"/>
     </g>
     <g id="line2d_24">
      <g>
       <use xlink:href="#m5454bbb4fd" x="54.92" y="282.121818" style="stroke: #000000; stroke-width: 0.8"/>
      </g>
     </g>
     <g id="text_13">
      <!-- 0.4 -->
      <g transform="translate(32.016875 285.921037) scale(0.1 -0.1)">
       <use xlink:href="#DejaVuSans-30"/>
       <use xlink:href="#DejaVuSans-2e" transform="translate(63.623047 0)"/>
       <use xlink:href="#DejaVuSans-34" transform="translate(95.410156 0)"/>
      </g>
     </g>
    </g>
    <g id="ytick_4">
     <g id="line2d_25">
      <path d="M 54.92 205.358182 
L 709.2 205.358182 
" clip-path="url(#p05249ba338)" style="fill: none; stroke-dasharray: 2.96,1.28; stroke-dashoffset: 0; stroke: #b0b0b0; stroke-opacity: 0.3; stroke-width: 0.8"/>
     </g>
     <g id="line2d_26">
      <g>
       <use xlink:href="#m5454bbb4fd" x="54.92" y="205.358182" style="stroke: #000000; stroke-width: 0.8"/>
      </g>
     </g>
     <g id="text_14">
      <!-- 0.6 -->
      <g transform="translate(32.016875 209.157401) scale(0.1 -0.1)">
       <defs>
        <path id="DejaVuSans-36" d="M 2113 2584 
Q 1688 2584 1439 2293 
Q 1191 2003 1191 1497 
Q 1191 994 1439 701 
Q 1688 409 2113 409 
Q 2538 409 2786 701 
Q 3034 994 3034 1497 
Q 3034 2003 2786 2293 
Q 2538 2584 2113 2584 
z
M 3366 4563 
L 3366 3988 
Q 3128 4100 2886 4159 
Q 2644 4219 2406 4219 
Q 1781 4219 1451 3797 
Q 1122 3375 1075 2522 
Q 1259 2794 1537 2939 
Q 1816 3084 2150 3084 
Q 2853 3084 3261 2657 
Q 3669 2231 3669 1497 
Q 3669 778 3244 343 
Q 2819 -91 2113 -91 
Q 1303 -91 875 529 
Q 447 1150 447 2328 
Q 447 3434 972 4092 
Q 1497 4750 2381 4750 
Q 2619 4750 2861 4703 
Q 3103 4656 3366 4563 
z
" transform="scale(0.015625)"/>
       </defs>
       <use xlink:href="#DejaVuSans-30"/>
       <use xlink:href="#DejaVuSans-2e" transform="translate(63.623047 0)"/>
       <use xlink:href="#DejaVuSans-36" transform="translate(95.410156 0)"/>
      </g>
     </g>
    </g>
    <g id="ytick_5">
     <g id="line2d_27">
      <path d="M 54.92 128.594545 
L 709.2 128.594545 
" clip-path="url(#p05249ba338)" style="fill: none; stroke-dasharray: 2.96,1.28; stroke-dashoffset: 0; stroke: #b0b0b0; stroke-opacity: 0.3; stroke-width: 0.8"/>
     </g>
     <g id="line2d_28">
      <g>
       <use xlink:href="#m5454bbb4fd" x="54.92" y="128.594545" style="stroke: #000000; stroke-width: 0.8"/>
      </g>
     </g>
     <g id="text_15">
      <!-- 0.8 -->
      <g transform="translate(32.016875 132.393764) scale(0.1 -0.1)">
       <defs>
        <path id="DejaVuSans-38" d="M 2034 2216 
Q 1584 2216 1326 1975 
Q 1069 1734 1069 1313 
Q 1069 891 1326 650 
Q 1584 409 2034 409 
Q 2484 409 2743 651 
Q 3003 894 3003 1313 
Q 3003 1734 2745 1975 
Q 2488 2216 2034 2216 
z
M 1403 2484 
Q 997 2584 770 2862 
Q 544 3141 544 3541 
Q 544 4100 942 4425 
Q 1341 4750 2034 4750 
Q 2731 4750 3128 4425 
Q 3525 4100 3525 3541 
Q 3525 3141 3298 2862 
Q 3072 2584 2669 2484 
Q 3125 2378 3379 2068 
Q 3634 1759 3634 1313 
Q 3634 634 3220 271 
Q 2806 -91 2034 -91 
Q 1263 -91 848 271 
Q 434 634 434 1313 
Q 434 1759 690 2068 
Q 947 2378 1403 2484 
z
M 1172 3481 
Q 1172 3119 1398 2916 
Q 1625 2713 2034 2713 
Q 2441 2713 2670 2916 
Q 2900 3119 2900 3481 
Q 2900 3844 2670 4047 
Q 2441 4250 2034 4250 
Q 1625 4250 1398 4047 
Q 1172 3844 1172 3481 
z
" transform="scale(0.015625)"/>
       </defs>
       <use xlink:href="#DejaVuSans-30"/>
       <use xlink:href="#DejaVuSans-2e" transform="translate(63.623047 0)"/>
       <use xlink:href="#DejaVuSans-38" transform="translate(95.410156 0)"/>
      </g>
     </g>
    </g>
    <g id="ytick_6">
     <g id="line2d_29">
      <path d="M 54.92 51.830909 
L 709.2 51.830909 
" clip-path="url(#p05249ba338)" style="fill: none; stroke-dasharray: 2.96,1.28; stroke-dashoffset: 0; stroke: #b0b0b0; stroke-opacity: 0.3; stroke-width: 0.8"/>
     </g>
     <g id="line2d_30">
      <g>
       <use xlink:href="#m5454bbb4fd" x="54.92" y="51.830909" style="stroke: #000000; stroke-width: 0.8"/>
      </g>
     </g>
     <g id="text_16">
      <!-- 1.0 -->
      <g transform="translate(32.016875 55.630128) scale(0.1 -0.1)">
       <use xlink:href="#DejaVuSans-31"/>
       <use xlink:href="#DejaVuSans-2e" transform="translate(63.623047 0)"/>
       <use xlink:href="#DejaVuSans-30" transform="translate(95.410156 0)"/>
      </g>
     </g>
    </g>
    <g id="text_17">
     <!-- CDF -->
     <g transform="translate(24.273438 262.130938) rotate(-90) scale(0.18 -0.18)">
      <defs>
       <path id="DejaVuSans-43" d="M 4122 4306 
L 4122 3641 
Q 3803 3938 3442 4084 
Q 3081 4231 2675 4231 
Q 1875 4231 1450 3742 
Q 1025 3253 1025 2328 
Q 1025 1406 1450 917 
Q 1875 428 2675 428 
Q 3081 428 3442 575 
Q 3803 722 4122 1019 
L 4122 359 
Q 3791 134 3420 21 
Q 3050 -91 2638 -91 
Q 1578 -91 968 557 
Q 359 1206 359 2328 
Q 359 3453 968 4101 
Q 1578 4750 2638 4750 
Q 3056 4750 3426 4639 
Q 3797 4528 4122 4306 
z
" transform="scale(0.015625)"/>
       <path id="DejaVuSans-44" d="M 1259 4147 
L 1259 519 
L 2022 519 
Q 2988 519 3436 956 
Q 3884 1394 3884 2338 
Q 3884 3275 3436 3711 
Q 2988 4147 2022 4147 
L 1259 4147 
z
M 628 4666 
L 1925 4666 
Q 3281 4666 3915 4102 
Q 4550 3538 4550 2338 
Q 4550 1131 3912 565 
Q 3275 0 1925 0 
L 628 0 
L 628 4666 
z
" transform="scale(0.015625)"/>
       <path id="DejaVuSans-46" d="M 628 4666 
L 3309 4666 
L 3309 4134 
L 1259 4134 
L 1259 2759 
L 3109 2759 
L 3109 2228 
L 1259 2228 
L 1259 0 
L 628 0 
L 628 4666 
z
" transform="scale(0.015625)"/>
      </defs>
      <use xlink:href="#DejaVuSans-43"/>
      <use xlink:href="#DejaVuSans-44" transform="translate(69.824219 0)"/>
      <use xlink:href="#DejaVuSans-46" transform="translate(146.826172 0)"/>
     </g>
    </g>
   </g>
   <g id="line2d_31">
    <path d="M 84.66 435.649091 
L 84.760279 435.590662 
L 85.201617 435.469629 
L 85.316508 435.390332 
L 85.519438 435.164962 
L 85.740219 434.822733 
L 85.809656 434.647445 
L 85.94071 434.230093 
L 85.995055 434.088193 
L 86.182864 433.086547 
L 86.244042 432.927953 
L 86.419224 431.788581 
L 86.512053 431.225155 
L 86.628189 430.457226 
L 86.673108 430.261071 
L 86.854749 429.167607 
L 86.974929 428.529058 
L 87.073817 428.14092 
L 87.221814 427.402206 
L 87.266538 427.26448 
L 87.319491 427.055804 
L 87.480493 426.254487 
L 87.535082 426.09172 
L 87.660572 425.407262 
L 87.704558 425.023297 
L 87.828679 424.038346 
L 88.169338 423.224508 
L 88.397954 422.990791 
L 88.626146 422.861412 
L 88.798065 422.794635 
L 89.290023 422.665256 
L 89.37164 422.623521 
L 89.5695 422.494142 
L 89.680587 422.423192 
L 89.792826 422.264598 
L 90.420203 421.292167 
L 90.604845 420.945764 
L 90.708588 420.766302 
L 90.945022 420.332256 
L 91.194208 419.894036 
L 91.76565 419.510072 
L 94.204741 419.251313 
L 94.376397 419.050984 
L 94.700784 418.704581 
L 95.437571 418.591896 
L 95.653326 418.404088 
L 96.207154 418.166197 
L 98.34651 417.627812 
L 98.533144 417.527647 
L 99.594449 417.143683 
L 99.714275 417.085254 
L 102.114946 416.225508 
L 102.487449 416.066914 
L 102.927325 415.758073 
L 103.627212 415.620347 
L 104.063594 415.453406 
L 104.374186 415.1863 
L 104.589453 415.006839 
L 105.565327 414.585313 
L 106.31941 414.222216 
L 111.759586 412.385865 
L 112.441534 412.198057 
L 113.163742 411.793225 
L 115.114643 411.117114 
L 115.492773 411.000255 
L 116.358887 410.779058 
L 116.694926 410.549514 
L 116.990948 410.403441 
L 117.80278 410.198938 
L 118.430199 409.827495 
L 118.997418 409.693942 
L 119.71961 409.426836 
L 120.197588 409.280763 
L 120.817308 409.051219 
L 121.07399 408.980269 
L 121.904953 408.763246 
L 122.02378 408.70899 
L 123.543165 408.229035 
L 123.696257 408.1873 
L 124.858481 407.815856 
L 125.039922 407.732385 
L 125.348152 407.590486 
L 125.811784 407.444412 
L 128.213204 407.085489 
L 130.261031 406.860119 
L 130.391266 406.797516 
L 130.611404 406.634748 
L 130.808841 406.497022 
L 132.900226 405.065503 
L 133.137665 404.856827 
L 133.256705 404.785877 
L 133.411175 404.727448 
L 138.206363 403.492085 
L 138.701828 402.916138 
L 138.789482 402.786759 
L 138.910844 402.607297 
L 139.48283 402.185771 
L 139.617125 402.039698 
L 139.772462 401.826848 
L 141.420243 401.280117 
L 141.781474 401.109002 
L 141.87539 401.07144 
L 151.750497 400.432891 
L 156.631259 400.299338 
L 159.225683 400.245082 
L 168.58037 399.877812 
L 168.968418 399.844424 
L 172.084328 399.727565 
L 173.232058 399.54393 
L 173.418401 399.180834 
L 173.933157 396.071558 
L 174.156263 382.278059 
L 174.28382 375.550338 
L 174.445176 373.713987 
L 174.888851 371.614704 
L 175.124563 370.959461 
L 175.336063 369.84513 
L 175.537617 368.338488 
L 175.673595 367.825144 
L 175.788537 367.566386 
L 175.87255 367.411965 
L 176.065414 366.819325 
L 176.17852 366.205817 
L 176.252835 365.755076 
L 176.382263 365.166609 
L 176.433249 364.90785 
L 176.582909 364.331904 
L 177.452923 363.743437 
L 177.95826 363.559802 
L 178.067411 363.417902 
L 180.408112 362.291051 
L 180.841799 362.144977 
L 184.523613 360.074909 
L 184.995877 359.924662 
L 185.517409 359.557392 
L 185.629275 359.453054 
L 185.892526 359.22351 
L 186.847497 358.822852 
L 187.077922 358.459755 
L 187.410221 357.796165 
L 187.538948 357.303689 
L 187.716797 356.385513 
L 187.845348 355.438123 
L 188.486894 353.76454 
L 188.946897 353.063388 
L 189.057624 352.950703 
L 189.510577 352.441533 
L 189.617486 352.366409 
L 189.817587 352.186948 
L 191.4692 350.838899 
L 191.665928 350.688652 
L 191.895016 350.066797 
L 192.077012 349.46581 
L 193.193983 348.251314 
L 193.425074 348.088547 
L 193.563099 347.913259 
L 193.725624 347.80892 
L 194.879297 347.362353 
L 195.544201 347.007604 
L 196.501122 346.218808 
L 196.794114 345.171253 
L 197.060305 344.591133 
L 197.469877 344.223863 
L 197.571102 344.09031 
L 197.918636 343.919196 
L 198.313117 343.531058 
L 198.486585 343.380811 
L 198.601871 343.226391 
L 198.681219 343.088664 
L 198.89093 342.700526 
L 199.493443 342.153795 
L 205.830863 339.662201 
L 206.456753 339.516127 
L 207.260806 339.240675 
L 208.622672 338.919313 
L 209.214507 338.318326 
L 209.418243 338.092955 
L 209.771617 337.479447 
L 209.900567 336.932716 
L 210.141249 336.573793 
L 210.94989 336.177308 
L 211.073789 336.106358 
L 211.254335 335.964458 
L 212.083987 335.49285 
L 212.212446 335.309215 
L 212.401569 334.992027 
L 212.600505 334.862647 
L 213.034179 334.290875 
L 213.426394 334.061331 
L 213.876052 333.831787 
L 214.408244 333.68154 
L 215.263593 333.435302 
L 217.096955 332.717456 
L 217.289837 332.608944 
L 217.591004 332.442003 
L 218.697301 331.899445 
L 219.256607 331.732504 
L 220.313802 331.319325 
L 220.777774 331.060567 
L 220.930793 330.864411 
L 221.376879 330.000491 
L 221.597233 329.558098 
L 223.692746 328.001373 
L 223.940655 327.859473 
L 225.252239 327.212577 
L 225.887142 326.932951 
L 228.343362 325.943826 
L 228.888764 325.413788 
L 229.230705 325.255194 
L 229.527274 325.02565 
L 229.769226 324.266069 
L 231.441209 322.333727 
L 231.77224 322.154265 
L 231.913869 322.091662 
L 232.731634 321.711872 
L 234.209326 320.710226 
L 234.51045 320.580847 
L 234.779473 320.451467 
L 235.386079 320.142626 
L 235.76888 319.99238 
L 235.920796 319.917256 
L 236.357969 319.662671 
L 236.902124 319.324616 
L 237.050348 319.174369 
L 237.338658 318.894743 
L 237.587671 318.523299 
L 238.040431 318.093426 
L 238.341931 317.859709 
L 238.634477 317.588429 
L 238.854001 317.442356 
L 239.280955 317.2462 
L 239.577068 317.075086 
L 239.68068 316.979095 
L 239.89108 316.837195 
L 240.099501 316.670254 
L 240.320281 316.524181 
L 241.43653 315.944061 
L 241.774201 315.651914 
L 243.094236 314.942415 
L 243.600382 314.328907 
L 243.741216 314.128578 
L 243.945421 313.949116 
L 244.450189 313.627755 
L 244.929275 313.481681 
L 245.160159 313.419079 
L 245.510863 313.260485 
L 245.92037 313.030941 
L 246.229831 312.851479 
L 246.439422 312.755488 
L 247.145137 312.525944 
L 247.605993 312.279706 
L 247.756434 312.154501 
L 248.009859 311.91661 
L 248.135726 311.78723 
L 248.188442 311.653678 
L 248.30142 311.378225 
L 248.54964 311.173722 
L 248.61921 311.015128 
L 248.755895 310.54352 
L 248.906701 309.066092 
L 248.952542 308.761425 
L 249.076181 308.377461 
L 249.161243 308.231388 
L 249.443459 308.060273 
L 249.661201 307.893332 
L 250.804065 307.283997 
L 251.200352 307.075321 
L 251.92211 306.536937 
L 252.526228 303.135514 
L 252.645175 302.9644 
L 252.867806 302.451056 
L 253.065052 302.24238 
L 253.12721 302.075439 
L 253.377791 301.628872 
L 253.499329 301.411848 
L 253.701792 300.994496 
L 254.004843 300.055453 
L 254.122321 299.571324 
L 254.410674 298.511249 
L 254.507635 298.315093 
L 255.183723 297.380224 
L 255.664873 296.983739 
L 255.905014 296.699939 
L 259.88208 294.283469 
L 260.012854 294.116528 
L 260.164722 293.966281 
L 260.420068 293.832728 
L 261.051239 293.632399 
L 261.208792 293.599011 
L 263.07529 292.79352 
L 263.218346 292.714223 
L 264.532775 292.184186 
L 264.874942 292.021418 
L 266.04176 291.132458 
L 266.159262 290.978037 
L 266.355905 290.773534 
L 266.836725 289.917962 
L 267.065085 286.725216 
L 267.270938 282.24285 
L 267.529939 281.629342 
L 270.293686 280.732035 
L 271.146012 280.481623 
L 271.309971 280.41902 
L 272.593546 280.131047 
L 272.714076 280.106006 
L 274.500932 279.818033 
L 276.911802 278.979154 
L 277.763416 278.770478 
L 278.123465 278.649446 
L 280.408369 278.16949 
L 280.621804 278.102714 
L 281.039355 277.9316 
L 282.087736 277.468338 
L 284.332369 276.800574 
L 284.47189 276.758839 
L 285.03008 276.621113 
L 285.147845 276.587725 
L 285.908751 276.258016 
L 286.727278 275.736326 
L 288.416967 274.951703 
L 288.520943 274.918315 
L 290.800632 274.200469 
L 291.836034 273.837372 
L 292.633654 273.599481 
L 294.250655 272.71052 
L 294.765161 272.506018 
L 298.874353 270.832434 
L 299.310409 270.690535 
L 299.485603 270.640452 
L 299.852399 270.506899 
L 299.973345 270.37752 
L 300.099809 270.2231 
L 300.407491 269.864177 
L 301.908905 269.371701 
L 302.020484 269.313271 
L 303.478535 268.733152 
L 303.609419 268.683069 
L 305.172418 268.036173 
L 306.082761 267.61882 
L 308.440497 267.059568 
L 308.596793 266.984445 
L 308.786104 266.859239 
L 308.980703 266.650563 
L 309.35652 266.404325 
L 309.549918 266.187302 
L 309.728344 266.028708 
L 309.909762 265.78247 
L 310.349693 265.594661 
L 310.568505 265.473629 
L 310.853967 265.319208 
L 310.965924 265.235738 
L 312.208031 264.292521 
L 312.51523 264.075498 
L 312.630184 263.954466 
L 312.721108 263.795872 
L 312.980479 262.752491 
L 313.264898 262.264189 
L 313.571296 261.525475 
L 313.674082 261.35436 
L 313.797838 261.112296 
L 314.002302 260.765893 
L 314.463873 259.129872 
L 314.590318 258.73756 
L 314.713135 258.599834 
L 315.355143 257.840253 
L 317.191813 257.41038 
L 317.88138 257.222571 
L 318.55696 256.917904 
L 319.090888 256.730095 
L 319.370777 256.584022 
L 320.271755 255.273535 
L 320.715399 255.073206 
L 321.067563 254.826968 
L 321.576489 254.468045 
L 322.369451 254.159204 
L 322.688386 254.004784 
L 323.481632 253.662555 
L 323.672258 253.583258 
L 323.902859 253.495614 
L 324.950574 253.20764 
L 325.611387 252.990617 
L 325.725431 252.961402 
L 326.433161 252.781941 
L 327.924636 252.343721 
L 332.041714 251.079143 
L 332.239532 250.845425 
L 332.372684 250.716046 
L 332.662735 250.490676 
L 333.310116 250.048282 
L 333.72445 249.877168 
L 335.172658 249.409733 
L 337.414444 248.337137 
L 338.363099 248.086726 
L 339.909789 247.573382 
L 340.49838 247.385574 
L 341.03716 247.218633 
L 341.453467 247.110121 
L 343.75277 246.396448 
L 345.34397 245.13187 
L 345.54472 244.931541 
L 346.872045 244.6227 
L 348.500061 244.176133 
L 349.151328 244.050928 
L 350.020766 243.863119 
L 350.296766 243.821384 
L 355.01413 242.794697 
L 355.161016 242.702879 
L 355.615177 242.448294 
L 356.883022 241.747142 
L 357.351981 239.209639 
L 357.467993 238.813154 
L 357.847646 238.475099 
L 357.983717 238.283117 
L 358.211094 238.128696 
L 358.496459 237.982623 
L 358.86552 237.753079 
L 359.13756 237.640394 
L 359.815228 237.373288 
L 359.976945 237.289818 
L 360.27866 237.156265 
L 360.761609 236.851598 
L 360.975646 236.763954 
L 364.193914 235.641276 
L 364.317019 235.574499 
L 364.746404 235.244791 
L 366.260476 234.268186 
L 366.809912 233.921784 
L 368.291384 232.047871 
L 368.419707 231.79746 
L 368.564547 231.567916 
L 368.714907 231.459404 
L 369.427584 231.179778 
L 370.783616 230.286644 
L 370.950134 230.044579 
L 371.079809 229.794168 
L 371.225163 229.510368 
L 371.373416 229.25161 
L 371.519636 228.963636 
L 371.684139 228.759134 
L 371.833282 228.579672 
L 373.116655 227.419432 
L 374.305992 226.785057 
L 374.437386 226.601422 
L 374.60294 226.417787 
L 375.139604 225.871055 
L 379.229613 223.621525 
L 380.338841 223.487972 
L 380.869519 223.400328 
L 382.257149 223.195826 
L 382.514015 223.129049 
L 383.948343 222.770126 
L 384.668326 222.669961 
L 386.40671 222.519715 
L 388.208249 222.311038 
L 396.962887 221.885339 
L 399.366684 221.747613 
L 401.308958 221.509722 
L 402.777186 221.276004 
L 405.364098 220.353655 
L 408.834168 220.094897 
L 409.276293 219.927956 
L 409.420998 219.79023 
L 409.677229 219.656677 
L 410.058648 219.418786 
L 410.189068 219.331142 
L 410.325622 219.201763 
L 410.447033 218.759369 
L 410.897886 218.563213 
L 411.219342 217.811979 
L 411.385267 216.626698 
L 411.541542 216.067446 
L 411.839999 215.762778 
L 412.039479 215.412202 
L 412.121498 215.27865 
L 412.518459 213.321267 
L 412.694233 211.242851 
L 413.182977 210.324676 
L 413.28666 210.170256 
L 413.419528 209.986621 
L 413.560512 209.853068 
L 413.750191 209.706994 
L 414.00673 209.356418 
L 414.190912 209.147742 
L 415.026292 207.858123 
L 415.185545 207.661967 
L 415.364656 207.303044 
L 415.535573 206.568504 
L 415.708057 205.420785 
L 415.820759 204.636162 
L 416.444202 202.883282 
L 416.612562 202.674606 
L 416.769435 196.560392 
L 416.883542 189.477921 
L 417.174023 188.73086 
L 417.706072 188.204996 
L 417.873353 188.063096 
L 419.726623 186.038937 
L 419.833516 185.855302 
L 419.995287 185.567329 
L 420.17505 185.058159 
L 420.953318 182.967223 
L 421.061305 182.812802 
L 421.302664 182.433012 
L 421.412712 182.274418 
L 421.502629 182.061568 
L 421.855946 180.980625 
L 422.323897 180.387985 
L 423.224564 177.850482 
L 423.368431 177.495732 
L 423.45498 177.345485 
L 424.224859 175.555043 
L 424.76849 174.565918 
L 425.422205 174.052574 
L 425.559718 173.939889 
L 425.96206 173.543404 
L 426.128354 173.326381 
L 426.28414 173.105184 
L 426.452821 172.938243 
L 426.818967 172.558453 
L 426.93912 172.429073 
L 427.099318 172.245438 
L 427.403119 171.828086 
L 427.829226 171.268834 
L 430.200157 168.192946 
L 430.317064 168.051046 
L 430.571594 167.533529 
L 431.199397 164.737268 
L 431.402685 164.474336 
L 431.530005 164.203057 
L 431.944977 163.038643 
L 432.399307 162.779885 
L 433.490248 162.041171 
L 433.634929 161.920139 
L 434.039791 161.477745 
L 434.17143 161.289936 
L 434.285219 161.106301 
L 434.538044 160.864237 
L 434.721561 160.705643 
L 434.95347 160.442711 
L 435.107822 160.292464 
L 435.224823 160.158911 
L 435.45527 159.962756 
L 435.567958 159.825029 
L 436.467196 158.919375 
L 436.726891 158.827557 
L 437.373829 158.652269 
L 438.04071 158.410205 
L 439.258592 157.696532 
L 439.564615 157.416906 
L 439.913679 157.237444 
L 440.03366 157.116412 
L 440.247305 156.961992 
L 440.359533 156.845133 
L 440.591716 156.661498 
L 441.018936 156.310922 
L 441.276848 156.164848 
L 441.496733 156.002081 
L 443.420711 154.9587 
L 443.549399 154.812626 
L 444.661529 154.549694 
L 445.045969 154.395274 
L 445.503314 154.199118 
L 446.361921 153.648213 
L 447.09982 153.427016 
L 447.214363 153.397802 
L 457.559333 151.945415 
L 458.668698 151.803515 
L 464.88578 151.048107 
L 466.78158 150.89786 
L 469.424545 150.626581 
L 471.252757 150.501376 
L 473.656154 150.351129 
L 474.346754 150.267658 
L 476.011692 150.09237 
L 489.623891 148.690066 
L 489.759126 148.665025 
L 491.58583 148.485563 
L 492.415579 148.42296 
L 501.139816 147.83032 
L 503.837337 147.6759 
L 505.440252 147.433835 
L 507.153161 147.175077 
L 507.244616 147.158382 
L 510.517286 146.753551 
L 511.049272 146.699295 
L 527.887566 145.309511 
L 528.546882 145.238561 
L 530.442924 145.0591 
L 531.456175 144.879638 
L 531.457723 144.875465 
L 532.255714 144.741912 
L 533.090666 144.558277 
L 533.654441 144.341253 
L 533.828511 144.18266 
L 534.366904 143.807042 
L 534.472727 143.731919 
L 535.011864 143.477334 
L 535.135025 143.40221 
L 535.545344 143.059981 
L 535.655882 142.938949 
L 535.900804 142.73862 
L 536.209663 142.125112 
L 536.321598 141.93313 
L 536.84704 141.57838 
L 536.948824 141.444827 
L 537.075165 141.131813 
L 537.352291 140.693593 
L 537.547458 140.393099 
L 537.661841 140.130167 
L 539.357035 137.980802 
L 539.471497 137.688655 
L 540.713375 136.674489 
L 540.846915 136.595192 
L 541.463286 136.461639 
L 542.209287 136.286351 
L 542.338451 136.265484 
L 543.016057 136.04846 
L 543.496183 135.89404 
L 544.093462 135.756314 
L 544.635198 135.61024 
L 547.438121 134.829791 
L 548.192188 134.487562 
L 548.645017 134.316448 
L 549.67816 133.970045 
L 550.174166 133.782236 
L 550.501349 133.636163 
L 552.849554 132.926664 
L 553.15925 132.826499 
L 553.698145 132.651211 
L 554.280156 132.463403 
L 554.697687 132.300635 
L 556.305561 131.741383 
L 556.533508 131.641218 
L 557.336295 131.303163 
L 557.488226 131.244734 
L 558.018764 131.056925 
L 558.287687 130.965107 
L 559.352497 130.568623 
L 559.857954 130.401682 
L 560.319241 130.284823 
L 562.161712 129.825735 
L 562.654152 129.646274 
L 564.217797 129.27483 
L 564.300084 129.237268 
L 565.285058 129.078674 
L 570.7283 127.847485 
L 571.322877 127.576205 
L 571.836536 127.396744 
L 580.260995 125.138867 
L 580.835908 124.996967 
L 580.944188 124.946885 
L 581.796008 124.688127 
L 581.933842 124.650565 
L 583.129267 124.362592 
L 583.756048 124.212345 
L 584.168155 124.128874 
L 591.417367 122.86847 
L 591.508172 122.830908 
L 592.399844 122.651447 
L 594.468249 122.30087 
L 595.426192 122.129756 
L 595.534494 122.088021 
L 596.280397 121.908559 
L 601.37484 121.078028 
L 603.051868 120.835963 
L 603.193398 120.798402 
L 603.920201 120.664849 
L 604.382153 120.560511 
L 605.063734 120.40609 
L 606.522679 119.646509 
L 606.758751 119.512956 
L 606.927156 119.379403 
L 607.470859 119.058042 
L 608.073573 118.870233 
L 608.376539 118.761722 
L 609.180784 118.553045 
L 611.133818 118.056396 
L 612.305813 117.785117 
L 612.428393 117.730861 
L 613.555382 117.459582 
L 614.089898 117.326029 
L 614.949674 116.962933 
L 615.172734 116.891983 
L 615.620948 116.745909 
L 615.742951 116.708348 
L 616.496671 116.395333 
L 617.447449 116.136575 
L 617.901834 115.869469 
L 618.017059 115.644099 
L 618.786923 115.422902 
L 619.483015 115.114061 
L 619.586537 114.997203 
L 619.929129 114.855303 
L 620.295522 114.746791 
L 620.806353 114.609065 
L 621.170849 114.396215 
L 621.46959 114.250142 
L 621.800752 114.024771 
L 621.944254 113.782707 
L 622.770717 113.206761 
L 623.384586 112.538997 
L 623.732423 112.363709 
L 624.037235 112.234329 
L 624.205928 112.184247 
L 624.952151 111.979744 
L 625.061067 111.925489 
L 626.998063 111.044875 
L 627.132563 110.982272 
L 627.687555 110.765249 
L 628.119021 110.585787 
L 628.513633 110.402152 
L 628.802892 110.093311 
L 629.275481 109.847073 
L 629.39036 109.663438 
L 630.57097 108.920551 
L 630.739935 108.59919 
L 631.123782 108.198531 
L 631.340182 108.035764 
L 632.672852 107.514073 
L 633.237135 107.280356 
L 633.34768 107.234447 
L 634.414922 106.829615 
L 636.079759 106.358007 
L 636.184902 106.312098 
L 636.649555 106.124289 
L 636.782906 106.090901 
L 639.393213 105.302105 
L 640.220387 105.085082 
L 640.358802 105.018305 
L 641.273139 104.709465 
L 641.388995 104.663556 
L 642.123468 104.358889 
L 643.422625 104.004139 
L 644.021185 103.841372 
L 644.274457 103.741207 
L 646.197298 103.085964 
L 646.826649 102.64357 
L 646.96041 102.480803 
L 648.41841 101.253786 
L 652.874393 99.459171 
L 653.017522 99.36318 
L 653.432435 99.091901 
L 653.595587 99.016777 
L 654.222252 98.728804 
L 654.344201 98.666201 
L 655.074165 98.278063 
L 655.450949 97.965049 
L 655.80943 97.689596 
L 655.96991 97.576911 
L 656.155159 97.447532 
L 656.285107 97.33902 
L 656.562389 97.188773 
L 656.867936 97.009312 
L 657.010311 96.913321 
L 657.91441 96.504315 
L 658.063727 96.412498 
L 658.341087 96.220516 
L 658.729267 95.932543 
L 658.842692 95.857419 
L 659.211326 95.632049 
L 659.579905 95.531884 
L 660.500007 95.106185 
L 660.868201 94.947591 
L 660.992571 94.880814 
L 661.415515 94.559453 
L 661.600582 94.430074 
L 662.378944 93.858301 
L 662.500571 93.733095 
L 662.640561 93.582848 
L 662.666056 93.152975 
L 662.98348 84.238327 
L 663.270484 83.512134 
L 663.301591 83.315978 
L 663.431226 82.902799 
L 663.568097 82.727511 
L 663.7802 82.464579 
L 663.904443 82.005491 
L 664.410134 79.739268 
L 664.535151 79.184189 
L 664.840656 78.77101 
L 665.430592 78.34531 
L 665.71616 78.03647 
L 665.906147 77.90709 
L 666.329341 77.569035 
L 666.661087 77.410441 
L 666.776491 77.32697 
L 668.197478 75.866237 
L 668.337561 75.624172 
L 668.607986 75.085788 
L 668.78059 74.78112 
L 668.901236 74.635047 
L 669.160228 74.326206 
L 669.366466 74.067448 
L 669.765934 73.650095 
L 669.91095 73.520716 
L 670.095045 73.349601 
L 670.727777 72.890514 
L 670.985587 72.573326 
L 671.259 72.281179 
L 671.380885 72.026594 
L 671.513837 71.897215 
L 671.636224 71.746968 
L 671.707382 71.550812 
L 671.865509 70.807925 
L 671.914455 70.661852 
L 672.060576 70.265367 
L 672.098984 70.094252 
L 672.216582 69.74785 
L 672.285275 69.589256 
L 672.79639 68.612651 
L 672.975508 68.483272 
L 673.48688 67.961581 
L 673.936942 67.481626 
L 674.056372 67.3439 
L 674.207519 67.143571 
L 674.329116 66.97663 
L 675.671845 66.096016 
L 677.139465 65.607714 
L 677.439343 65.119411 
L 677.50267 62.83232 
L 677.672428 52.953587 
L 677.775542 52.532061 
L 678.390948 52.277476 
L 678.51236 52.164791 
L 679.060025 52.027065 
L 679.252559 51.889338 
L 679.339601 51.835083 
L 679.46 51.830909 
L 679.46 51.830909 
" clip-path="url(#p05249ba338)" style="fill: none; stroke: #0072b2; stroke-width: 2.5; stroke-linecap: square"/>
   </g>
   <g id="patch_3">
    <path d="M 54.92 454.84 
L 54.92 32.64 
" style="fill: none; stroke: #000000; stroke-width: 0.8; stroke-linejoin: miter; stroke-linecap: square"/>
   </g>
   <g id="patch_4">
    <path d="M 709.2 454.84 
L 709.2 32.64 
" style="fill: none; stroke: #000000; stroke-width: 0.8; stroke-linejoin: miter; stroke-linecap: square"/>
   </g>
   <g id="patch_5">
    <path d="M 54.92 454.84 
L 709.2 454.84 
" style="fill: none; stroke: #000000; stroke-width: 0.8; stroke-linejoin: miter; stroke-linecap: square"/>
   </g>
   <g id="patch_6">
    <path d="M 54.92 32.64 
L 709.2 32.64 
" style="fill: none; stroke: #000000; stroke-width: 0.8; stroke-linejoin: miter; stroke-linecap: square"/>
   </g>
   <g id="text_18">
    <!-- CDF Comparison -->
    <g transform="translate(289.270938 26.64) scale(0.2 -0.2)">
     <defs>
      <path id="DejaVuSans-Bold-43" d="M 4288 256 
Q 3956 84 3597 -3 
Q 3238 -91 2847 -91 
Q 1681 -91 1000 561 
Q 319 1213 319 2328 
Q 319 3447 1000 4098 
Q 1681 4750 2847 4750 
Q 3238 4750 3597 4662 
Q 3956 4575 4288 4403 
L 4288 3438 
Q 3953 3666 3628 3772 
Q 3303 3878 2944 3878 
Q 2300 3878 1931 3465 
Q 1563 3053 1563 2328 
Q 1563 1606 1931 1193 
Q 2300 781 2944 781 
Q 3303 781 3628 887 
Q 3953 994 4288 1222 
L 4288 256 
z
" transform="scale(0.015625)"/>
      <path id="DejaVuSans-Bold-44" d="M 1791 3756 
L 1791 909 
L 2222 909 
Q 2959 909 3348 1275 
Q 3738 1641 3738 2338 
Q 3738 3031 3350 3393 
Q 2963 3756 2222 3756 
L 1791 3756 
z
M 588 4666 
L 1856 4666 
Q 2919 4666 3439 4514 
Q 3959 4363 4331 4000 
Q 4659 3684 4818 3271 
Q 4978 2859 4978 2338 
Q 4978 1809 4818 1395 
Q 4659 981 4331 666 
Q 3956 303 3431 151 
Q 2906 0 1856 0 
L 588 0 
L 588 4666 
z
" transform="scale(0.015625)"/>
      <path id="DejaVuSans-Bold-46" d="M 588 4666 
L 3834 4666 
L 3834 3756 
L 1791 3756 
L 1791 2888 
L 3713 2888 
L 3713 1978 
L 1791 1978 
L 1791 0 
L 588 0 
L 588 4666 
z
" transform="scale(0.015625)"/>
      <path id="DejaVuSans-Bold-20" transform="scale(0.015625)"/>
      <path id="DejaVuSans-Bold-6f" d="M 2203 2784 
Q 1831 2784 1636 2517 
Q 1441 2250 1441 1747 
Q 1441 1244 1636 976 
Q 1831 709 2203 709 
Q 2569 709 2762 976 
Q 2956 1244 2956 1747 
Q 2956 2250 2762 2517 
Q 2569 2784 2203 2784 
z
M 2203 3584 
Q 3106 3584 3614 3096 
Q 4122 2609 4122 1747 
Q 4122 884 3614 396 
Q 3106 -91 2203 -91 
Q 1297 -91 786 396 
Q 275 884 275 1747 
Q 275 2609 786 3096 
Q 1297 3584 2203 3584 
z
" transform="scale(0.015625)"/>
      <path id="DejaVuSans-Bold-6d" d="M 3781 2919 
Q 3994 3244 4286 3414 
Q 4578 3584 4928 3584 
Q 5531 3584 5847 3212 
Q 6163 2841 6163 2131 
L 6163 0 
L 5038 0 
L 5038 1825 
Q 5041 1866 5042 1909 
Q 5044 1953 5044 2034 
Q 5044 2406 4934 2573 
Q 4825 2741 4581 2741 
Q 4263 2741 4089 2478 
Q 3916 2216 3909 1719 
L 3909 0 
L 2784 0 
L 2784 1825 
Q 2784 2406 2684 2573 
Q 2584 2741 2328 2741 
Q 2006 2741 1831 2477 
Q 1656 2213 1656 1722 
L 1656 0 
L 531 0 
L 531 3500 
L 1656 3500 
L 1656 2988 
Q 1863 3284 2130 3434 
Q 2397 3584 2719 3584 
Q 3081 3584 3359 3409 
Q 3638 3234 3781 2919 
z
" transform="scale(0.015625)"/>
      <path id="DejaVuSans-Bold-70" d="M 1656 506 
L 1656 -1331 
L 538 -1331 
L 538 3500 
L 1656 3500 
L 1656 2988 
Q 1888 3294 2169 3439 
Q 2450 3584 2816 3584 
Q 3463 3584 3878 3070 
Q 4294 2556 4294 1747 
Q 4294 938 3878 423 
Q 3463 -91 2816 -91 
Q 2450 -91 2169 54 
Q 1888 200 1656 506 
z
M 2400 2772 
Q 2041 2772 1848 2508 
Q 1656 2244 1656 1747 
Q 1656 1250 1848 986 
Q 2041 722 2400 722 
Q 2759 722 2948 984 
Q 3138 1247 3138 1747 
Q 3138 2247 2948 2509 
Q 2759 2772 2400 2772 
z
" transform="scale(0.015625)"/>
      <path id="DejaVuSans-Bold-61" d="M 2106 1575 
Q 1756 1575 1579 1456 
Q 1403 1338 1403 1106 
Q 1403 894 1545 773 
Q 1688 653 1941 653 
Q 2256 653 2472 879 
Q 2688 1106 2688 1447 
L 2688 1575 
L 2106 1575 
z
M 3816 1997 
L 3816 0 
L 2688 0 
L 2688 519 
Q 2463 200 2181 54 
Q 1900 -91 1497 -91 
Q 953 -91 614 226 
Q 275 544 275 1050 
Q 275 1666 698 1953 
Q 1122 2241 2028 2241 
L 2688 2241 
L 2688 2328 
Q 2688 2594 2478 2717 
Q 2269 2841 1825 2841 
Q 1466 2841 1156 2769 
Q 847 2697 581 2553 
L 581 3406 
Q 941 3494 1303 3539 
Q 1666 3584 2028 3584 
Q 2975 3584 3395 3211 
Q 3816 2838 3816 1997 
z
" transform="scale(0.015625)"/>
      <path id="DejaVuSans-Bold-72" d="M 3138 2547 
Q 2991 2616 2845 2648 
Q 2700 2681 2553 2681 
Q 2122 2681 1889 2404 
Q 1656 2128 1656 1613 
L 1656 0 
L 538 0 
L 538 3500 
L 1656 3500 
L 1656 2925 
Q 1872 3269 2151 3426 
Q 2431 3584 2822 3584 
Q 2878 3584 2943 3579 
Q 3009 3575 3134 3559 
L 3138 2547 
z
" transform="scale(0.015625)"/>
      <path id="DejaVuSans-Bold-69" d="M 538 3500 
L 1656 3500 
L 1656 0 
L 538 0 
L 538 3500 
z
M 538 4863 
L 1656 4863 
L 1656 3950 
L 538 3950 
L 538 4863 
z
" transform="scale(0.015625)"/>
      <path id="DejaVuSans-Bold-73" d="M 3272 3391 
L 3272 2541 
Q 2913 2691 2578 2766 
Q 2244 2841 1947 2841 
Q 1628 2841 1473 2761 
Q 1319 2681 1319 2516 
Q 1319 2381 1436 2309 
Q 1553 2238 1856 2203 
L 2053 2175 
Q 2913 2066 3209 1816 
Q 3506 1566 3506 1031 
Q 3506 472 3093 190 
Q 2681 -91 1863 -91 
Q 1516 -91 1145 -36 
Q 775 19 384 128 
L 384 978 
Q 719 816 1070 734 
Q 1422 653 1784 653 
Q 2113 653 2278 743 
Q 2444 834 2444 1013 
Q 2444 1163 2330 1236 
Q 2216 1309 1875 1350 
L 1678 1375 
Q 931 1469 631 1722 
Q 331 1975 331 2491 
Q 331 3047 712 3315 
Q 1094 3584 1881 3584 
Q 2191 3584 2531 3537 
Q 2872 3491 3272 3391 
z
" transform="scale(0.015625)"/>
      <path id="DejaVuSans-Bold-6e" d="M 4056 2131 
L 4056 0 
L 2931 0 
L 2931 347 
L 2931 1631 
Q 2931 2084 2911 2256 
Q 2891 2428 2841 2509 
Q 2775 2619 2662 2680 
Q 2550 2741 2406 2741 
Q 2056 2741 1856 2470 
Q 1656 2200 1656 1722 
L 1656 0 
L 538 0 
L 538 3500 
L 1656 3500 
L 1656 2988 
Q 1909 3294 2193 3439 
Q 2478 3584 2822 3584 
Q 3428 3584 3742 3212 
Q 4056 2841 4056 2131 
z
" transform="scale(0.015625)"/>
     </defs>
     <use xlink:href="#DejaVuSans-Bold-43"/>
     <use xlink:href="#DejaVuSans-Bold-44" transform="translate(73.388672 0)"/>
     <use xlink:href="#DejaVuSans-Bold-46" transform="translate(156.396484 0)"/>
     <use xlink:href="#DejaVuSans-Bold-20" transform="translate(224.707031 0)"/>
     <use xlink:href="#DejaVuSans-Bold-43" transform="translate(259.521484 0)"/>
     <use xlink:href="#DejaVuSans-Bold-6f" transform="translate(332.910156 0)"/>
     <use xlink:href="#DejaVuSans-Bold-6d" transform="translate(401.611328 0)"/>
     <use xlink:href="#DejaVuSans-Bold-70" transform="translate(505.810547 0)"/>
     <use xlink:href="#DejaVuSans-Bold-61" transform="translate(577.392578 0)"/>
     <use xlink:href="#DejaVuSans-Bold-72" transform="translate(644.873047 0)"/>
     <use xlink:href="#DejaVuSans-Bold-69" transform="translate(694.189453 0)"/>
     <use xlink:href="#DejaVuSans-Bold-73" transform="translate(728.466797 0)"/>
     <use xlink:href="#DejaVuSans-Bold-6f" transform="translate(787.988281 0)"/>
     <use xlink:href="#DejaVuSans-Bold-6e" transform="translate(856.689453 0)"/>
    </g>
   </g>
   <g id="legend_1">
    <g id="patch_7">
     <path d="M 61.92 55.59625 
L 274.97625 55.59625 
Q 276.97625 55.59625 276.97625 53.59625 
L 276.97625 39.64 
Q 276.97625 37.64 274.97625 37.64 
L 61.92 37.64 
Q 59.92 37.64 59.92 39.64 
L 59.92 53.59625 
Q 59.92 55.59625 61.92 55.59625 
z
" style="fill: #ffffff; opacity: 0.8; stroke: #cccccc; stroke-linejoin: miter"/>
    </g>
    <g id="line2d_32">
     <path d="M 63.92 45.738437 
L 73.92 45.738437 
L 83.92 45.738437 
" style="fill: none; stroke: #0072b2; stroke-width: 2.5; stroke-linecap: square"/>
    </g>
    <g id="text_19">
     <!-- 2025-12-16_19-06_fastlio_odometry -->
     <g transform="translate(91.92 49.238437) scale(0.1 -0.1)">
      <defs>
       <path id="DejaVuSans-2d" d="M 313 2009 
L 1997 2009 
L 1997 1497 
L 313 1497 
L 313 2009 
z
" transform="scale(0.015625)"/>
       <path id="DejaVuSans-5f" d="M 3263 -1063 
L 3263 -1509 
L -63 -1509 
L -63 -1063 
L 3263 -1063 
z
" transform="scale(0.015625)"/>
       <path id="DejaVuSans-39" d="M 703 97 
L 703 672 
Q 941 559 1184 500 
Q 1428 441 1663 441 
Q 2288 441 2617 861 
Q 2947 1281 2994 2138 
Q 2813 1869 2534 1725 
Q 2256 1581 1919 1581 
Q 1219 1581 811 2004 
Q 403 2428 403 3163 
Q 403 3881 828 4315 
Q 1253 4750 1959 4750 
Q 2769 4750 3195 4129 
Q 3622 3509 3622 2328 
Q 3622 1225 3098 567 
Q 2575 -91 1691 -91 
Q 1453 -91 1209 -44 
Q 966 3 703 97 
z
M 1959 2075 
Q 2384 2075 2632 2365 
Q 2881 2656 2881 3163 
Q 2881 3666 2632 3958 
Q 2384 4250 1959 4250 
Q 1534 4250 1286 3958 
Q 1038 3666 1038 3163 
Q 1038 2656 1286 2365 
Q 1534 2075 1959 2075 
z
" transform="scale(0.015625)"/>
       <path id="DejaVuSans-66" d="M 2375 4863 
L 2375 4384 
L 1825 4384 
Q 1516 4384 1395 4259 
Q 1275 4134 1275 3809 
L 1275 3500 
L 2222 3500 
L 2222 3053 
L 1275 3053 
L 1275 0 
L 697 0 
L 697 3053 
L 147 3053 
L 147 3500 
L 697 3500 
L 697 3744 
Q 697 4328 969 4595 
Q 1241 4863 1831 4863 
L 2375 4863 
z
" transform="scale(0.015625)"/>
       <path id="DejaVuSans-61" d="M 2194 1759 
Q 1497 1759 1228 1600 
Q 959 1441 959 1056 
Q 959 750 1161 570 
Q 1363 391 1709 391 
Q 2188 391 2477 730 
Q 2766 1069 2766 1631 
L 2766 1759 
L 2194 1759 
z
M 3341 1997 
L 3341 0 
L 2766 0 
L 2766 531 
Q 2569 213 2275 61 
Q 1981 -91 1556 -91 
Q 1019 -91 701 211 
Q 384 513 384 1019 
Q 384 1609 779 1909 
Q 1175 2209 1959 2209 
L 2766 2209 
L 2766 2266 
Q 2766 2663 2505 2880 
Q 2244 3097 1772 3097 
Q 1472 3097 1187 3025 
Q 903 2953 641 2809 
L 641 3341 
Q 956 3463 1253 3523 
Q 1550 3584 1831 3584 
Q 2591 3584 2966 3190 
Q 3341 2797 3341 1997 
z
" transform="scale(0.015625)"/>
       <path id="DejaVuSans-73" d="M 2834 3397 
L 2834 2853 
Q 2591 2978 2328 3040 
Q 2066 3103 1784 3103 
Q 1356 3103 1142 2972 
Q 928 2841 928 2578 
Q 928 2378 1081 2264 
Q 1234 2150 1697 2047 
L 1894 2003 
Q 2506 1872 2764 1633 
Q 3022 1394 3022 966 
Q 3022 478 2636 193 
Q 2250 -91 1575 -91 
Q 1294 -91 989 -36 
Q 684 19 347 128 
L 347 722 
Q 666 556 975 473 
Q 1284 391 1588 391 
Q 1994 391 2212 530 
Q 2431 669 2431 922 
Q 2431 1156 2273 1281 
Q 2116 1406 1581 1522 
L 1381 1569 
Q 847 1681 609 1914 
Q 372 2147 372 2553 
Q 372 3047 722 3315 
Q 1072 3584 1716 3584 
Q 2034 3584 2315 3537 
Q 2597 3491 2834 3397 
z
" transform="scale(0.015625)"/>
       <path id="DejaVuSans-74" d="M 1172 4494 
L 1172 3500 
L 2356 3500 
L 2356 3053 
L 1172 3053 
L 1172 1153 
Q 1172 725 1289 603 
Q 1406 481 1766 481 
L 2356 481 
L 2356 0 
L 1766 0 
Q 1100 0 847 248 
Q 594 497 594 1153 
L 594 3053 
L 172 3053 
L 172 3500 
L 594 3500 
L 594 4494 
L 1172 4494 
z
" transform="scale(0.015625)"/>
       <path id="DejaVuSans-6c" d="M 603 4863 
L 1178 4863 
L 1178 0 
L 603 0 
L 603 4863 
z
" transform="scale(0.015625)"/>
       <path id="DejaVuSans-69" d="M 603 3500 
L 1178 3500 
L 1178 0 
L 603 0 
L 603 3500 
z
M 603 4863 
L 1178 4863 
L 1178 4134 
L 603 4134 
L 603 4863 
z
" transform="scale(0.015625)"/>
       <path id="DejaVuSans-64" d="M 2906 2969 
L 2906 4863 
L 3481 4863 
L 3481 0 
L 2906 0 
L 2906 525 
Q 2725 213 2448 61 
Q 2172 -91 1784 -91 
Q 1150 -91 751 415 
Q 353 922 353 1747 
Q 353 2572 751 3078 
Q 1150 3584 1784 3584 
Q 2172 3584 2448 3432 
Q 2725 3281 2906 2969 
z
M 947 1747 
Q 947 1113 1208 752 
Q 1469 391 1925 391 
Q 2381 391 2643 752 
Q 2906 1113 2906 1747 
Q 2906 2381 2643 2742 
Q 2381 3103 1925 3103 
Q 1469 3103 1208 2742 
Q 947 2381 947 1747 
z
" transform="scale(0.015625)"/>
       <path id="DejaVuSans-65" d="M 3597 1894 
L 3597 1613 
L 953 1613 
Q 991 1019 1311 708 
Q 1631 397 2203 397 
Q 2534 397 2845 478 
Q 3156 559 3463 722 
L 3463 178 
Q 3153 47 2828 -22 
Q 2503 -91 2169 -91 
Q 1331 -91 842 396 
Q 353 884 353 1716 
Q 353 2575 817 3079 
Q 1281 3584 2069 3584 
Q 2775 3584 3186 3129 
Q 3597 2675 3597 1894 
z
M 3022 2063 
Q 3016 2534 2758 2815 
Q 2500 3097 2075 3097 
Q 1594 3097 1305 2825 
Q 1016 2553 972 2059 
L 3022 2063 
z
" transform="scale(0.015625)"/>
       <path id="DejaVuSans-79" d="M 2059 -325 
Q 1816 -950 1584 -1140 
Q 1353 -1331 966 -1331 
L 506 -1331 
L 506 -850 
L 844 -850 
Q 1081 -850 1212 -737 
Q 1344 -625 1503 -206 
L 1606 56 
L 191 3500 
L 800 3500 
L 1894 763 
L 2988 3500 
L 3597 3500 
L 2059 -325 
z
" transform="scale(0.015625)"/>
      </defs>
      <use xlink:href="#DejaVuSans-32"/>
      <use xlink:href="#DejaVuSans-30" transform="translate(63.623047 0)"/>
      <use xlink:href="#DejaVuSans-32" transform="translate(127.246094 0)"/>
      <use xlink:href="#DejaVuSans-35" transform="translate(190.869141 0)"/>
      <use xlink:href="#DejaVuSans-2d" transform="translate(254.492188 0)"/>
      <use xlink:href="#DejaVuSans-31" transform="translate(290.576172 0)"/>
      <use xlink:href="#DejaVuSans-32" transform="translate(354.199219 0)"/>
      <use xlink:href="#DejaVuSans-2d" transform="translate(417.822266 0)"/>
      <use xlink:href="#DejaVuSans-31" transform="translate(453.90625 0)"/>
      <use xlink:href="#DejaVuSans-36" transform="translate(517.529297 0)"/>
      <use xlink:href="#DejaVuSans-5f" transform="translate(581.152344 0)"/>
      <use xlink:href="#DejaVuSans-31" transform="translate(631.152344 0)"/>
      <use xlink:href="#DejaVuSans-39" transform="translate(694.775391 0)"/>
      <use xlink:href="#DejaVuSans-2d" transform="translate(758.398438 0)"/>
      <use xlink:href="#DejaVuSans-30" transform="translate(794.482422 0)"/>
      <use xlink:href="#DejaVuSans-36" transform="translate(858.105469 0)"/>
      <use xlink:href="#DejaVuSans-5f" transform="translate(921.728516 0)"/>
      <use xlink:href="#DejaVuSans-66" transform="translate(971.728516 0)"/>
      <use xlink:href="#DejaVuSans-61" transform="translate(1006.933594 0)"/>
      <use xlink:href="#DejaVuSans-73" transform="translate(1068.212891 0)"/>
      <use xlink:href="#DejaVuSans-74" transform="translate(1120.3125 0)"/>
      <use xlink:href="#DejaVuSans-6c" transform="translate(1159.521484 0)"/>
      <use xlink:href="#DejaVuSans-69" transform="translate(1187.304688 0)"/>
      <use xlink:href="#DejaVuSans-6f" transform="translate(1215.087891 0)"/>
      <use xlink:href="#DejaVuSans-5f" transform="translate(1276.269531 0)"/>
      <use xlink:href="#DejaVuSans-6f" transform="translate(1326.269531 0)"/>
      <use xlink:href="#DejaVuSans-64" transform="translate(1387.451172 0)"/>
      <use xlink:href="#DejaVuSans-6f" transform="translate(1450.927734 0)"/>
      <use xlink:href="#DejaVuSans-6d" transform="translate(1512.109375 0)"/>
      <use xlink:href="#DejaVuSans-65" transform="translate(1609.521484 0)"/>
      <use xlink:href="#DejaVuSans-74" transform="translate(1671.044922 0)"/>
      <use xlink:href="#DejaVuSans-72" transform="translate(1710.253906 0)"/>
      <use xlink:href="#DejaVuSans-79" transform="translate(1751.367188 0)"/>
     </g>
    </g>
   </g>
  </g>
 </g>
 <defs>
  <clipPath id="p05249ba338">
   <rect x="54.92" y="32.64" width="654.28" height="422.2"/>
  </clipPath>
 </defs>
</svg>
