<?xml version="1.0" encoding="utf-8" standalone="no"?>
<!DOCTYPE svg PUBLIC "-//W3C//DTD SVG 1.1//EN"
  "http://www.w3.org/Graphics/SVG/1.1/DTD/svg11.dtd">
<svg xmlns:xlink="http://www.w3.org/1999/xlink" width="720pt" height="504pt" viewBox="0 0 720 504" xmlns="http://www.w3.org/2000/svg" version="1.1">
 <metadata>
  <rdf:RDF xmlns:dc="http://purl.org/dc/elements/1.1/" xmlns:cc="http://creativecommons.org/ns#" xmlns:rdf="http://www.w3.org/1999/02/22-rdf-syntax-ns#">
   <cc:Work>
    <dc:type rdf:resource="http://purl.org/dc/dcmitype/StillImage"/>
    <dc:date>2025-12-01T21:00:44.836024</dc:date>
    <dc:format>image/svg+xml</dc:format>
    <dc:creator>
     <cc:Agent>
      <dc:title>Matplotlib v3.10.7, https://matplotlib.org/</dc:title>
     </cc:Agent>
    </dc:creator>
   </cc:Work>
  </rdf:RDF>
 </metadata>
 <defs>
  <style type="text/css">*{stroke-linejoin: round; stroke-linecap: butt}</style>
 </defs>
 <g id="figure_1">
  <g id="patch_1">
   <path d="M 0 504 
L 720 504 
L 720 0 
L 0 0 
z
" style="fill: #ffffff"/>
  </g>
  <g id="axes_1">
   <g id="patch_2">
    <path d="M 54.92 454.84 
L 709.2 454.84 
L 709.2 32.64 
L 54.92 32.64 
z
" style="fill: #ffffff"/>
   </g>
   <g id="matplotlib.axis_1">
    <g id="xtick_1">
     <g id="line2d_1">
      <path d="M 81.986399 454.84 
L 81.986399 32.64 
" clip-path="url(#pa271e11bc2)" style="fill: none; stroke-dasharray: 2.96,1.28; stroke-dashoffset: 0; stroke: #b0b0b0; stroke-opacity: 0.3; stroke-width: 0.8"/>
     </g>
     <g id="line2d_2">
      <defs>
       <path id="m612d6d4402" d="M 0 0 
L 0 3.5 
" style="stroke: #000000; stroke-width: 0.8"/>
      </defs>
      <g>
       <use xlink:href="#m612d6d4402" x="81.986399" y="454.84" style="stroke: #000000; stroke-width: 0.8"/>
      </g>
     </g>
     <g id="text_1">
      <!-- 0.0 -->
      <g transform="translate(74.034837 469.438437) scale(0.1 -0.1)">
       <defs>
        <path id="DejaVuSans-30" d="M 2034 4250 
Q 1547 4250 1301 3770 
Q 1056 3291 1056 2328 
Q 1056 1369 1301 889 
Q 1547 409 2034 409 
Q 2525 409 2770 889 
Q 3016 1369 3016 2328 
Q 3016 3291 2770 3770 
Q 2525 4250 2034 4250 
z
M 2034 4750 
Q 2819 4750 3233 4129 
Q 3647 3509 3647 2328 
Q 3647 1150 3233 529 
Q 2819 -91 2034 -91 
Q 1250 -91 836 529 
Q 422 1150 422 2328 
Q 422 3509 836 4129 
Q 1250 4750 2034 4750 
z
" transform="scale(0.015625)"/>
        <path id="DejaVuSans-2e" d="M 684 794 
L 1344 794 
L 1344 0 
L 684 0 
L 684 794 
z
" transform="scale(0.015625)"/>
       </defs>
       <use xlink:href="#DejaVuSans-30"/>
       <use xlink:href="#DejaVuSans-2e" transform="translate(63.623047 0)"/>
       <use xlink:href="#DejaVuSans-30" transform="translate(95.410156 0)"/>
      </g>
     </g>
    </g>
    <g id="xtick_2">
     <g id="line2d_3">
      <path d="M 173.809271 454.84 
L 173.809271 32.64 
" clip-path="url(#pa271e11bc2)" style="fill: none; stroke-dasharray: 2.96,1.28; stroke-dashoffset: 0; stroke: #b0b0b0; stroke-opacity: 0.3; stroke-width: 0.8"/>
     </g>
     <g id="line2d_4">
      <g>
       <use xlink:href="#m612d6d4402" x="173.809271" y="454.84" style="stroke: #000000; stroke-width: 0.8"/>
      </g>
     </g>
     <g id="text_2">
      <!-- 0.5 -->
      <g transform="translate(165.857708 469.438437) scale(0.1 -0.1)">
       <defs>
        <path id="DejaVuSans-35" d="M 691 4666 
L 3169 4666 
L 3169 4134 
L 1269 4134 
L 1269 2991 
Q 1406 3038 1543 3061 
Q 1681 3084 1819 3084 
Q 2600 3084 3056 2656 
Q 3513 2228 3513 1497 
Q 3513 744 3044 326 
Q 2575 -91 1722 -91 
Q 1428 -91 1123 -41 
Q 819 9 494 109 
L 494 744 
Q 775 591 1075 516 
Q 1375 441 1709 441 
Q 2250 441 2565 725 
Q 2881 1009 2881 1497 
Q 2881 1984 2565 2268 
Q 2250 2553 1709 2553 
Q 1456 2553 1204 2497 
Q 953 2441 691 2322 
L 691 4666 
z
" transform="scale(0.015625)"/>
       </defs>
       <use xlink:href="#DejaVuSans-30"/>
       <use xlink:href="#DejaVuSans-2e" transform="translate(63.623047 0)"/>
       <use xlink:href="#DejaVuSans-35" transform="translate(95.410156 0)"/>
      </g>
     </g>
    </g>
    <g id="xtick_3">
     <g id="line2d_5">
      <path d="M 265.632142 454.84 
L 265.632142 32.64 
" clip-path="url(#pa271e11bc2)" style="fill: none; stroke-dasharray: 2.96,1.28; stroke-dashoffset: 0; stroke: #b0b0b0; stroke-opacity: 0.3; stroke-width: 0.8"/>
     </g>
     <g id="line2d_6">
      <g>
       <use xlink:href="#m612d6d4402" x="265.632142" y="454.84" style="stroke: #000000; stroke-width: 0.8"/>
      </g>
     </g>
     <g id="text_3">
      <!-- 1.0 -->
      <g transform="translate(257.680579 469.438437) scale(0.1 -0.1)">
       <defs>
        <path id="DejaVuSans-31" d="M 794 531 
L 1825 531 
L 1825 4091 
L 703 3866 
L 703 4441 
L 1819 4666 
L 2450 4666 
L 2450 531 
L 3481 531 
L 3481 0 
L 794 0 
L 794 531 
z
" transform="scale(0.015625)"/>
       </defs>
       <use xlink:href="#DejaVuSans-31"/>
       <use xlink:href="#DejaVuSans-2e" transform="translate(63.623047 0)"/>
       <use xlink:href="#DejaVuSans-30" transform="translate(95.410156 0)"/>
      </g>
     </g>
    </g>
    <g id="xtick_4">
     <g id="line2d_7">
      <path d="M 357.455013 454.84 
L 357.455013 32.64 
" clip-path="url(#pa271e11bc2)" style="fill: none; stroke-dasharray: 2.96,1.28; stroke-dashoffset: 0; stroke: #b0b0b0; stroke-opacity: 0.3; stroke-width: 0.8"/>
     </g>
     <g id="line2d_8">
      <g>
       <use xlink:href="#m612d6d4402" x="357.455013" y="454.84" style="stroke: #000000; stroke-width: 0.8"/>
      </g>
     </g>
     <g id="text_4">
      <!-- 1.5 -->
      <g transform="translate(349.503451 469.438437) scale(0.1 -0.1)">
       <use xlink:href="#DejaVuSans-31"/>
       <use xlink:href="#DejaVuSans-2e" transform="translate(63.623047 0)"/>
       <use xlink:href="#DejaVuSans-35" transform="translate(95.410156 0)"/>
      </g>
     </g>
    </g>
    <g id="xtick_5">
     <g id="line2d_9">
      <path d="M 449.277884 454.84 
L 449.277884 32.64 
" clip-path="url(#pa271e11bc2)" style="fill: none; stroke-dasharray: 2.96,1.28; stroke-dashoffset: 0; stroke: #b0b0b0; stroke-opacity: 0.3; stroke-width: 0.8"/>
     </g>
     <g id="line2d_10">
      <g>
       <use xlink:href="#m612d6d4402" x="449.277884" y="454.84" style="stroke: #000000; stroke-width: 0.8"/>
      </g>
     </g>
     <g id="text_5">
      <!-- 2.0 -->
      <g transform="translate(441.326322 469.438437) scale(0.1 -0.1)">
       <defs>
        <path id="DejaVuSans-32" d="M 1228 531 
L 3431 531 
L 3431 0 
L 469 0 
L 469 531 
Q 828 903 1448 1529 
Q 2069 2156 2228 2338 
Q 2531 2678 2651 2914 
Q 2772 3150 2772 3378 
Q 2772 3750 2511 3984 
Q 2250 4219 1831 4219 
Q 1534 4219 1204 4116 
Q 875 4013 500 3803 
L 500 4441 
Q 881 4594 1212 4672 
Q 1544 4750 1819 4750 
Q 2544 4750 2975 4387 
Q 3406 4025 3406 3419 
Q 3406 3131 3298 2873 
Q 3191 2616 2906 2266 
Q 2828 2175 2409 1742 
Q 1991 1309 1228 531 
z
" transform="scale(0.015625)"/>
       </defs>
       <use xlink:href="#DejaVuSans-32"/>
       <use xlink:href="#DejaVuSans-2e" transform="translate(63.623047 0)"/>
       <use xlink:href="#DejaVuSans-30" transform="translate(95.410156 0)"/>
      </g>
     </g>
    </g>
    <g id="xtick_6">
     <g id="line2d_11">
      <path d="M 541.100756 454.84 
L 541.100756 32.64 
" clip-path="url(#pa271e11bc2)" style="fill: none; stroke-dasharray: 2.96,1.28; stroke-dashoffset: 0; stroke: #b0b0b0; stroke-opacity: 0.3; stroke-width: 0.8"/>
     </g>
     <g id="line2d_12">
      <g>
       <use xlink:href="#m612d6d4402" x="541.100756" y="454.84" style="stroke: #000000; stroke-width: 0.8"/>
      </g>
     </g>
     <g id="text_6">
      <!-- 2.5 -->
      <g transform="translate(533.149193 469.438437) scale(0.1 -0.1)">
       <use xlink:href="#DejaVuSans-32"/>
       <use xlink:href="#DejaVuSans-2e" transform="translate(63.623047 0)"/>
       <use xlink:href="#DejaVuSans-35" transform="translate(95.410156 0)"/>
      </g>
     </g>
    </g>
    <g id="xtick_7">
     <g id="line2d_13">
      <path d="M 632.923627 454.84 
L 632.923627 32.64 
" clip-path="url(#pa271e11bc2)" style="fill: none; stroke-dasharray: 2.96,1.28; stroke-dashoffset: 0; stroke: #b0b0b0; stroke-opacity: 0.3; stroke-width: 0.8"/>
     </g>
     <g id="line2d_14">
      <g>
       <use xlink:href="#m612d6d4402" x="632.923627" y="454.84" style="stroke: #000000; stroke-width: 0.8"/>
      </g>
     </g>
     <g id="text_7">
      <!-- 3.0 -->
      <g transform="translate(624.972064 469.438437) scale(0.1 -0.1)">
       <defs>
        <path id="DejaVuSans-33" d="M 2597 2516 
Q 3050 2419 3304 2112 
Q 3559 1806 3559 1356 
Q 3559 666 3084 287 
Q 2609 -91 1734 -91 
Q 1441 -91 1130 -33 
Q 819 25 488 141 
L 488 750 
Q 750 597 1062 519 
Q 1375 441 1716 441 
Q 2309 441 2620 675 
Q 2931 909 2931 1356 
Q 2931 1769 2642 2001 
Q 2353 2234 1838 2234 
L 1294 2234 
L 1294 2753 
L 1863 2753 
Q 2328 2753 2575 2939 
Q 2822 3125 2822 3475 
Q 2822 3834 2567 4026 
Q 2313 4219 1838 4219 
Q 1578 4219 1281 4162 
Q 984 4106 628 3988 
L 628 4550 
Q 988 4650 1302 4700 
Q 1616 4750 1894 4750 
Q 2613 4750 3031 4423 
Q 3450 4097 3450 3541 
Q 3450 3153 3228 2886 
Q 3006 2619 2597 2516 
z
" transform="scale(0.015625)"/>
       </defs>
       <use xlink:href="#DejaVuSans-33"/>
       <use xlink:href="#DejaVuSans-2e" transform="translate(63.623047 0)"/>
       <use xlink:href="#DejaVuSans-30" transform="translate(95.410156 0)"/>
      </g>
     </g>
    </g>
    <g id="text_8">
     <!-- XY Error [m] -->
     <g transform="translate(326.954688 489.195312) scale(0.18 -0.18)">
      <defs>
       <path id="DejaVuSans-58" d="M 403 4666 
L 1081 4666 
L 2241 2931 
L 3406 4666 
L 4084 4666 
L 2584 2425 
L 4184 0 
L 3506 0 
L 2194 1984 
L 872 0 
L 191 0 
L 1856 2491 
L 403 4666 
z
" transform="scale(0.015625)"/>
       <path id="DejaVuSans-59" d="M -13 4666 
L 666 4666 
L 1959 2747 
L 3244 4666 
L 3922 4666 
L 2272 2222 
L 2272 0 
L 1638 0 
L 1638 2222 
L -13 4666 
z
" transform="scale(0.015625)"/>
       <path id="DejaVuSans-20" transform="scale(0.015625)"/>
       <path id="DejaVuSans-45" d="M 628 4666 
L 3578 4666 
L 3578 4134 
L 1259 4134 
L 1259 2753 
L 3481 2753 
L 3481 2222 
L 1259 2222 
L 1259 531 
L 3634 531 
L 3634 0 
L 628 0 
L 628 4666 
z
" transform="scale(0.015625)"/>
       <path id="DejaVuSans-72" d="M 2631 2963 
Q 2534 3019 2420 3045 
Q 2306 3072 2169 3072 
Q 1681 3072 1420 2755 
Q 1159 2438 1159 1844 
L 1159 0 
L 581 0 
L 581 3500 
L 1159 3500 
L 1159 2956 
Q 1341 3275 1631 3429 
Q 1922 3584 2338 3584 
Q 2397 3584 2469 3576 
Q 2541 3569 2628 3553 
L 2631 2963 
z
" transform="scale(0.015625)"/>
       <path id="DejaVuSans-6f" d="M 1959 3097 
Q 1497 3097 1228 2736 
Q 959 2375 959 1747 
Q 959 1119 1226 758 
Q 1494 397 1959 397 
Q 2419 397 2687 759 
Q 2956 1122 2956 1747 
Q 2956 2369 2687 2733 
Q 2419 3097 1959 3097 
z
M 1959 3584 
Q 2709 3584 3137 3096 
Q 3566 2609 3566 1747 
Q 3566 888 3137 398 
Q 2709 -91 1959 -91 
Q 1206 -91 779 398 
Q 353 888 353 1747 
Q 353 2609 779 3096 
Q 1206 3584 1959 3584 
z
" transform="scale(0.015625)"/>
       <path id="DejaVuSans-5b" d="M 550 4863 
L 1875 4863 
L 1875 4416 
L 1125 4416 
L 1125 -397 
L 1875 -397 
L 1875 -844 
L 550 -844 
L 550 4863 
z
" transform="scale(0.015625)"/>
       <path id="DejaVuSans-6d" d="M 3328 2828 
Q 3544 3216 3844 3400 
Q 4144 3584 4550 3584 
Q 5097 3584 5394 3201 
Q 5691 2819 5691 2113 
L 5691 0 
L 5113 0 
L 5113 2094 
Q 5113 2597 4934 2840 
Q 4756 3084 4391 3084 
Q 3944 3084 3684 2787 
Q 3425 2491 3425 1978 
L 3425 0 
L 2847 0 
L 2847 2094 
Q 2847 2600 2669 2842 
Q 2491 3084 2119 3084 
Q 1678 3084 1418 2786 
Q 1159 2488 1159 1978 
L 1159 0 
L 581 0 
L 581 3500 
L 1159 3500 
L 1159 2956 
Q 1356 3278 1631 3431 
Q 1906 3584 2284 3584 
Q 2666 3584 2933 3390 
Q 3200 3197 3328 2828 
z
" transform="scale(0.015625)"/>
       <path id="DejaVuSans-5d" d="M 1947 4863 
L 1947 -844 
L 622 -844 
L 622 -397 
L 1369 -397 
L 1369 4416 
L 622 4416 
L 622 4863 
L 1947 4863 
z
" transform="scale(0.015625)"/>
      </defs>
      <use xlink:href="#DejaVuSans-58"/>
      <use xlink:href="#DejaVuSans-59" transform="translate(68.505859 0)"/>
      <use xlink:href="#DejaVuSans-20" transform="translate(129.589844 0)"/>
      <use xlink:href="#DejaVuSans-45" transform="translate(161.376953 0)"/>
      <use xlink:href="#DejaVuSans-72" transform="translate(224.560547 0)"/>
      <use xlink:href="#DejaVuSans-72" transform="translate(263.923828 0)"/>
      <use xlink:href="#DejaVuSans-6f" transform="translate(302.787109 0)"/>
      <use xlink:href="#DejaVuSans-72" transform="translate(363.96875 0)"/>
      <use xlink:href="#DejaVuSans-20" transform="translate(405.082031 0)"/>
      <use xlink:href="#DejaVuSans-5b" transform="translate(436.869141 0)"/>
      <use xlink:href="#DejaVuSans-6d" transform="translate(475.882812 0)"/>
      <use xlink:href="#DejaVuSans-5d" transform="translate(573.294922 0)"/>
     </g>
    </g>
   </g>
   <g id="matplotlib.axis_2">
    <g id="ytick_1">
     <g id="line2d_15">
      <path d="M 54.92 435.649091 
L 709.2 435.649091 
" clip-path="url(#pa271e11bc2)" style="fill: none; stroke-dasharray: 2.96,1.28; stroke-dashoffset: 0; stroke: #b0b0b0; stroke-opacity: 0.3; stroke-width: 0.8"/>
     </g>
     <g id="line2d_16">
      <defs>
       <path id="m9ffbcf46dc" d="M 0 0 
L -3.5 0 
" style="stroke: #000000; stroke-width: 0.8"/>
      </defs>
      <g>
       <use xlink:href="#m9ffbcf46dc" x="54.92" y="435.649091" style="stroke: #000000; stroke-width: 0.8"/>
      </g>
     </g>
     <g id="text_9">
      <!-- 0.0 -->
      <g transform="translate(32.016875 439.44831) scale(0.1 -0.1)">
       <use xlink:href="#DejaVuSans-30"/>
       <use xlink:href="#DejaVuSans-2e" transform="translate(63.623047 0)"/>
       <use xlink:href="#DejaVuSans-30" transform="translate(95.410156 0)"/>
      </g>
     </g>
    </g>
    <g id="ytick_2">
     <g id="line2d_17">
      <path d="M 54.92 358.885455 
L 709.2 358.885455 
" clip-path="url(#pa271e11bc2)" style="fill: none; stroke-dasharray: 2.96,1.28; stroke-dashoffset: 0; stroke: #b0b0b0; stroke-opacity: 0.3; stroke-width: 0.8"/>
     </g>
     <g id="line2d_18">
      <g>
       <use xlink:href="#m9ffbcf46dc" x="54.92" y="358.885455" style="stroke: #000000; stroke-width: 0.8"/>
      </g>
     </g>
     <g id="text_10">
      <!-- 0.2 -->
      <g transform="translate(32.016875 362.684673) scale(0.1 -0.1)">
       <use xlink:href="#DejaVuSans-30"/>
       <use xlink:href="#DejaVuSans-2e" transform="translate(63.623047 0)"/>
       <use xlink:href="#DejaVuSans-32" transform="translate(95.410156 0)"/>
      </g>
     </g>
    </g>
    <g id="ytick_3">
     <g id="line2d_19">
      <path d="M 54.92 282.121818 
L 709.2 282.121818 
" clip-path="url(#pa271e11bc2)" style="fill: none; stroke-dasharray: 2.96,1.28; stroke-dashoffset: 0; stroke: #b0b0b0; stroke-opacity: 0.3; stroke-width: 0.8"/>
     </g>
     <g id="line2d_20">
      <g>
       <use xlink:href="#m9ffbcf46dc" x="54.92" y="282.121818" style="stroke: #000000; stroke-width: 0.8"/>
      </g>
     </g>
     <g id="text_11">
      <!-- 0.4 -->
      <g transform="translate(32.016875 285.921037) scale(0.1 -0.1)">
       <defs>
        <path id="DejaVuSans-34" d="M 2419 4116 
L 825 1625 
L 2419 1625 
L 2419 4116 
z
M 2253 4666 
L 3047 4666 
L 3047 1625 
L 3713 1625 
L 3713 1100 
L 3047 1100 
L 3047 0 
L 2419 0 
L 2419 1100 
L 313 1100 
L 313 1709 
L 2253 4666 
z
" transform="scale(0.015625)"/>
       </defs>
       <use xlink:href="#DejaVuSans-30"/>
       <use xlink:href="#DejaVuSans-2e" transform="translate(63.623047 0)"/>
       <use xlink:href="#DejaVuSans-34" transform="translate(95.410156 0)"/>
      </g>
     </g>
    </g>
    <g id="ytick_4">
     <g id="line2d_21">
      <path d="M 54.92 205.358182 
L 709.2 205.358182 
" clip-path="url(#pa271e11bc2)" style="fill: none; stroke-dasharray: 2.96,1.28; stroke-dashoffset: 0; stroke: #b0b0b0; stroke-opacity: 0.3; stroke-width: 0.8"/>
     </g>
     <g id="line2d_22">
      <g>
       <use xlink:href="#m9ffbcf46dc" x="54.92" y="205.358182" style="stroke: #000000; stroke-width: 0.8"/>
      </g>
     </g>
     <g id="text_12">
      <!-- 0.6 -->
      <g transform="translate(32.016875 209.157401) scale(0.1 -0.1)">
       <defs>
        <path id="DejaVuSans-36" d="M 2113 2584 
Q 1688 2584 1439 2293 
Q 1191 2003 1191 1497 
Q 1191 994 1439 701 
Q 1688 409 2113 409 
Q 2538 409 2786 701 
Q 3034 994 3034 1497 
Q 3034 2003 2786 2293 
Q 2538 2584 2113 2584 
z
M 3366 4563 
L 3366 3988 
Q 3128 4100 2886 4159 
Q 2644 4219 2406 4219 
Q 1781 4219 1451 3797 
Q 1122 3375 1075 2522 
Q 1259 2794 1537 2939 
Q 1816 3084 2150 3084 
Q 2853 3084 3261 2657 
Q 3669 2231 3669 1497 
Q 3669 778 3244 343 
Q 2819 -91 2113 -91 
Q 1303 -91 875 529 
Q 447 1150 447 2328 
Q 447 3434 972 4092 
Q 1497 4750 2381 4750 
Q 2619 4750 2861 4703 
Q 3103 4656 3366 4563 
z
" transform="scale(0.015625)"/>
       </defs>
       <use xlink:href="#DejaVuSans-30"/>
       <use xlink:href="#DejaVuSans-2e" transform="translate(63.623047 0)"/>
       <use xlink:href="#DejaVuSans-36" transform="translate(95.410156 0)"/>
      </g>
     </g>
    </g>
    <g id="ytick_5">
     <g id="line2d_23">
      <path d="M 54.92 128.594545 
L 709.2 128.594545 
" clip-path="url(#pa271e11bc2)" style="fill: none; stroke-dasharray: 2.96,1.28; stroke-dashoffset: 0; stroke: #b0b0b0; stroke-opacity: 0.3; stroke-width: 0.8"/>
     </g>
     <g id="line2d_24">
      <g>
       <use xlink:href="#m9ffbcf46dc" x="54.92" y="128.594545" style="stroke: #000000; stroke-width: 0.8"/>
      </g>
     </g>
     <g id="text_13">
      <!-- 0.8 -->
      <g transform="translate(32.016875 132.393764) scale(0.1 -0.1)">
       <defs>
        <path id="DejaVuSans-38" d="M 2034 2216 
Q 1584 2216 1326 1975 
Q 1069 1734 1069 1313 
Q 1069 891 1326 650 
Q 1584 409 2034 409 
Q 2484 409 2743 651 
Q 3003 894 3003 1313 
Q 3003 1734 2745 1975 
Q 2488 2216 2034 2216 
z
M 1403 2484 
Q 997 2584 770 2862 
Q 544 3141 544 3541 
Q 544 4100 942 4425 
Q 1341 4750 2034 4750 
Q 2731 4750 3128 4425 
Q 3525 4100 3525 3541 
Q 3525 3141 3298 2862 
Q 3072 2584 2669 2484 
Q 3125 2378 3379 2068 
Q 3634 1759 3634 1313 
Q 3634 634 3220 271 
Q 2806 -91 2034 -91 
Q 1263 -91 848 271 
Q 434 634 434 1313 
Q 434 1759 690 2068 
Q 947 2378 1403 2484 
z
M 1172 3481 
Q 1172 3119 1398 2916 
Q 1625 2713 2034 2713 
Q 2441 2713 2670 2916 
Q 2900 3119 2900 3481 
Q 2900 3844 2670 4047 
Q 2441 4250 2034 4250 
Q 1625 4250 1398 4047 
Q 1172 3844 1172 3481 
z
" transform="scale(0.015625)"/>
       </defs>
       <use xlink:href="#DejaVuSans-30"/>
       <use xlink:href="#DejaVuSans-2e" transform="translate(63.623047 0)"/>
       <use xlink:href="#DejaVuSans-38" transform="translate(95.410156 0)"/>
      </g>
     </g>
    </g>
    <g id="ytick_6">
     <g id="line2d_25">
      <path d="M 54.92 51.830909 
L 709.2 51.830909 
" clip-path="url(#pa271e11bc2)" style="fill: none; stroke-dasharray: 2.96,1.28; stroke-dashoffset: 0; stroke: #b0b0b0; stroke-opacity: 0.3; stroke-width: 0.8"/>
     </g>
     <g id="line2d_26">
      <g>
       <use xlink:href="#m9ffbcf46dc" x="54.92" y="51.830909" style="stroke: #000000; stroke-width: 0.8"/>
      </g>
     </g>
     <g id="text_14">
      <!-- 1.0 -->
      <g transform="translate(32.016875 55.630128) scale(0.1 -0.1)">
       <use xlink:href="#DejaVuSans-31"/>
       <use xlink:href="#DejaVuSans-2e" transform="translate(63.623047 0)"/>
       <use xlink:href="#DejaVuSans-30" transform="translate(95.410156 0)"/>
      </g>
     </g>
    </g>
    <g id="text_15">
     <!-- CDF -->
     <g transform="translate(24.273438 262.130938) rotate(-90) scale(0.18 -0.18)">
      <defs>
       <path id="DejaVuSans-43" d="M 4122 4306 
L 4122 3641 
Q 3803 3938 3442 4084 
Q 3081 4231 2675 4231 
Q 1875 4231 1450 3742 
Q 1025 3253 1025 2328 
Q 1025 1406 1450 917 
Q 1875 428 2675 428 
Q 3081 428 3442 575 
Q 3803 722 4122 1019 
L 4122 359 
Q 3791 134 3420 21 
Q 3050 -91 2638 -91 
Q 1578 -91 968 557 
Q 359 1206 359 2328 
Q 359 3453 968 4101 
Q 1578 4750 2638 4750 
Q 3056 4750 3426 4639 
Q 3797 4528 4122 4306 
z
" transform="scale(0.015625)"/>
       <path id="DejaVuSans-44" d="M 1259 4147 
L 1259 519 
L 2022 519 
Q 2988 519 3436 956 
Q 3884 1394 3884 2338 
Q 3884 3275 3436 3711 
Q 2988 4147 2022 4147 
L 1259 4147 
z
M 628 4666 
L 1925 4666 
Q 3281 4666 3915 4102 
Q 4550 3538 4550 2338 
Q 4550 1131 3912 565 
Q 3275 0 1925 0 
L 628 0 
L 628 4666 
z
" transform="scale(0.015625)"/>
       <path id="DejaVuSans-46" d="M 628 4666 
L 3309 4666 
L 3309 4134 
L 1259 4134 
L 1259 2759 
L 3109 2759 
L 3109 2228 
L 1259 2228 
L 1259 0 
L 628 0 
L 628 4666 
z
" transform="scale(0.015625)"/>
      </defs>
      <use xlink:href="#DejaVuSans-43"/>
      <use xlink:href="#DejaVuSans-44" transform="translate(69.824219 0)"/>
      <use xlink:href="#DejaVuSans-46" transform="translate(146.826172 0)"/>
     </g>
    </g>
   </g>
   <g id="line2d_27">
    <path d="M 84.66 435.649091 
L 91.440138 435.599009 
L 97.197293 435.48215 
L 108.465788 435.190003 
L 108.652148 435.181656 
L 112.840067 435.052277 
L 126.233216 434.484678 
L 140.167803 433.328611 
L 142.078334 433.207579 
L 143.609709 433.003076 
L 147.891286 432.648327 
L 149.86785 432.439651 
L 149.898275 432.42713 
L 152.570647 432.260189 
L 158.720278 431.821969 
L 159.291373 431.771887 
L 164.71601 431.158379 
L 165.865673 431.058214 
L 170.293535 430.67425 
L 172.617706 430.549044 
L 174.800873 430.369582 
L 175.676887 430.286112 
L 179.737962 429.897974 
L 179.887824 429.885454 
L 181.210916 429.705992 
L 182.583336 429.568266 
L 184.301375 429.380457 
L 186.374676 428.900502 
L 187.437122 428.741908 
L 187.518434 428.716867 
L 188.290882 428.549926 
L 189.810309 428.324555 
L 190.90402 428.1284 
L 191.150493 428.074144 
L 196.730273 427.581668 
L 200.273263 427.32291 
L 206.320881 426.75531 
L 206.755082 426.705228 
L 209.704836 426.471511 
L 211.508795 426.225273 
L 211.870118 426.196058 
L 213.243636 426.062505 
L 214.219915 425.995729 
L 216.477095 425.849655 
L 220.667625 425.565856 
L 221.918312 425.248668 
L 225.327964 424.459872 
L 226.010681 424.305451 
L 227.487268 424.050866 
L 229.610569 423.750373 
L 230.831582 423.579258 
L 231.079804 423.462399 
L 231.434909 423.337194 
L 232.028937 423.195294 
L 232.161991 423.157732 
L 233.457055 422.919841 
L 235.254081 422.744553 
L 235.25598 422.74038 
L 236.212667 422.606827 
L 237.812862 422.323027 
L 247.23911 420.720394 
L 247.392911 420.670311 
L 249.348134 420.311388 
L 249.753882 420.215397 
L 250.613477 420.048456 
L 252.228754 419.651971 
L 252.777508 419.55598 
L 253.495763 419.422428 
L 254.900263 419.096893 
L 255.278425 418.996728 
L 256.05711 418.833961 
L 260.377506 417.932479 
L 260.677062 417.828141 
L 261.227971 417.64868 
L 261.341907 417.606944 
L 261.815653 417.444177 
L 264.806592 416.421663 
L 264.935827 416.375755 
L 266.747569 415.612 
L 266.965593 415.449232 
L 267.464646 415.148739 
L 267.731707 415.002665 
L 268.245899 414.810683 
L 268.475718 414.685477 
L 268.844335 414.53523 
L 268.996774 414.480975 
L 269.38617 414.263951 
L 269.658933 414.138746 
L 269.879308 413.996846 
L 270.048529 413.854946 
L 270.291879 413.71722 
L 270.413765 413.637923 
L 272.774924 412.819912 
L 272.883914 412.774003 
L 273.178411 412.623756 
L 273.794998 412.239792 
L 275.649559 411.421781 
L 276.197796 411.250667 
L 276.312809 411.200584 
L 276.928663 410.979388 
L 277.172878 410.895917 
L 277.721522 410.683067 
L 278.167348 410.482738 
L 279.018589 410.16555 
L 279.260067 410.069559 
L 279.938937 409.802454 
L 280.232453 409.668901 
L 282.539017 409.001137 
L 283.3104 408.804981 
L 283.914844 408.633867 
L 284.782555 408.370935 
L 285.065991 408.295811 
L 285.629413 408.153911 
L 287.7263 407.344248 
L 288.193282 407.210695 
L 289.293073 406.851772 
L 289.517398 406.751607 
L 290.237963 406.538757 
L 290.353687 406.51789 
L 290.794679 406.346775 
L 290.92239 406.296693 
L 291.446918 406.100537 
L 291.605267 406.025414 
L 292.260949 405.766655 
L 292.524995 405.649797 
L 293.521165 405.361824 
L 293.649128 405.295047 
L 294.187715 405.128106 
L 294.292866 405.078024 
L 294.953167 404.856827 
L 295.085863 404.806745 
L 295.401709 404.669018 
L 296.021654 404.451995 
L 296.767857 404.214104 
L 296.876719 404.159848 
L 297.321425 403.988734 
L 297.518019 403.930305 
L 297.936092 403.750843 
L 298.549957 403.504605 
L 298.703688 403.433655 
L 299.130866 403.212458 
L 299.487996 403.074732 
L 299.822617 402.799279 
L 300.051668 402.640686 
L 300.214847 402.578083 
L 300.583353 402.319324 
L 301.493225 401.776766 
L 301.75662 401.605651 
L 301.867592 401.513834 
L 305.019652 399.147446 
L 305.204072 398.955463 
L 305.796708 398.458814 
L 306.325539 397.912082 
L 306.441819 397.803571 
L 307.575275 396.705934 
L 307.748867 396.543166 
L 308.138296 396.142508 
L 309.140424 395.307803 
L 309.583869 394.957227 
L 309.833642 394.781939 
L 309.96801 394.677601 
L 310.200474 394.498139 
L 310.516712 394.260248 
L 310.786252 394.097481 
L 311.490201 393.625873 
L 311.670485 393.500667 
L 311.95534 393.321205 
L 312.119442 393.225214 
L 312.48242 393.0541 
L 312.722485 392.887159 
L 312.982746 392.728565 
L 314.277438 391.672663 
L 314.603434 391.484855 
L 315.096847 391.188534 
L 315.338107 391.050808 
L 315.480203 390.963164 
L 315.864286 390.771182 
L 315.989213 390.696058 
L 316.486471 390.362176 
L 316.602737 390.278706 
L 316.791433 390.124286 
L 317.127611 389.907262 
L 317.42394 389.757015 
L 317.620559 389.627636 
L 317.992565 389.435654 
L 318.142472 389.327142 
L 318.592488 389.060037 
L 318.780457 388.918137 
L 319.435548 388.580081 
L 319.60116 388.488264 
L 319.875395 388.350538 
L 320.122446 388.212811 
L 320.483082 387.966573 
L 320.604228 387.853888 
L 320.763871 387.699468 
L 320.873283 387.582609 
L 321.137816 387.353065 
L 321.250861 387.248727 
L 321.481813 387.048398 
L 321.739809 386.818854 
L 321.931943 386.66026 
L 322.099451 386.484972 
L 322.279853 386.29299 
L 322.496563 386.06762 
L 322.608142 385.971629 
L 323.650858 385.107709 
L 323.968096 384.861471 
L 324.503871 384.448292 
L 324.619468 384.385689 
L 325.358102 383.830611 
L 325.598048 383.684537 
L 325.907829 383.480034 
L 326.175109 383.279705 
L 326.370605 383.1545 
L 326.80266 382.937476 
L 327.003746 382.833138 
L 327.844873 382.428306 
L 327.992522 382.336489 
L 328.502937 382.13616 
L 328.943573 381.914963 
L 329.391348 381.693766 
L 329.778521 381.539346 
L 330.176847 381.297281 
L 333.641603 379.314857 
L 333.795966 379.172957 
L 334.056467 378.905852 
L 334.438316 378.592837 
L 334.871726 378.367467 
L 335.380373 377.954288 
L 336.028701 377.428424 
L 336.218993 377.265656 
L 336.511899 377.040286 
L 336.862381 376.802395 
L 336.971475 376.706404 
L 337.219275 376.510249 
L 337.658384 376.130458 
L 337.776629 376.03864 
L 337.994865 375.863352 
L 338.120762 375.721452 
L 338.491447 375.450173 
L 338.642794 375.316621 
L 342.086433 372.274121 
L 342.366489 372.048751 
L 342.510895 371.948586 
L 342.719354 371.73991 
L 342.862966 371.614704 
L 343.303503 371.218219 
L 343.546697 370.959461 
L 344.006812 370.550456 
L 344.115483 370.433597 
L 344.376627 370.199879 
L 344.558407 369.991203 
L 345.307543 369.427777 
L 345.441004 369.281704 
L 345.620458 369.139804 
L 346.232858 368.597246 
L 346.734934 368.133985 
L 346.911704 367.95035 
L 347.05933 367.762541 
L 347.246615 367.5956 
L 347.474728 367.336842 
L 347.879123 366.973745 
L 348.594809 366.239205 
L 348.869109 366.05557 
L 349.028303 365.930364 
L 349.302571 365.721688 
L 350.429913 364.82438 
L 350.573024 364.678307 
L 350.940017 364.361119 
L 351.079823 364.194178 
L 351.265152 364.035584 
L 351.410225 363.897857 
L 351.743907 363.59319 
L 351.863134 363.488852 
L 352.109496 363.313564 
L 352.235499 363.22592 
L 352.410174 363.075673 
L 352.671432 362.887865 
L 352.919391 362.662494 
L 353.227571 362.399562 
L 353.411298 362.261836 
L 353.544334 362.132457 
L 353.761945 361.894566 
L 353.876912 361.781881 
L 354.006929 361.635807 
L 357.918927 358.267773 
L 358.459191 357.892156 
L 358.617077 357.733562 
L 363.843671 353.368055 
L 364.012708 353.176073 
L 364.65548 352.458227 
L 364.952626 352.170254 
L 365.072533 352.028354 
L 365.428412 351.560919 
L 365.575412 351.352243 
L 365.790128 351.06427 
L 365.919473 350.876461 
L 366.032852 350.747082 
L 367.081905 348.848128 
L 367.241255 348.505899 
L 367.524069 347.87987 
L 367.671136 347.541815 
L 368.381598 345.713811 
L 368.462816 345.517656 
L 368.58828 345.171253 
L 368.663294 345.004312 
L 370.437539 340.82244 
L 370.492053 340.680541 
L 371.061271 339.674721 
L 371.409283 338.714811 
L 371.531551 338.372582 
L 372.63803 334.265833 
L 372.77045 333.706581 
L 372.888101 333.310096 
L 373.969219 330.34272 
L 374.058693 330.179953 
L 375.858856 328.172488 
L 376.038206 328.026414 
L 376.522505 327.671665 
L 376.742596 327.521418 
L 376.875363 327.383692 
L 377.097123 327.216751 
L 377.230182 327.091545 
L 377.651962 326.757663 
L 377.832742 326.603242 
L 378.758594 325.847835 
L 379.124861 325.622464 
L 379.253522 325.543167 
L 385.708181 320.994025 
L 385.966438 320.839605 
L 386.232033 320.614235 
L 386.565338 320.376344 
L 386.768747 320.234444 
L 386.972794 320.084197 
L 387.887541 319.462342 
L 389.120802 318.423134 
L 389.326756 318.277061 
L 389.728139 317.880576 
L 389.906138 317.680247 
L 390.621549 317.033351 
L 391.252423 316.323852 
L 391.500551 316.090134 
L 391.717033 315.86059 
L 391.92534 315.631046 
L 392.05858 315.489147 
L 392.287248 315.276297 
L 392.42075 315.171959 
L 392.542165 315.013365 
L 393.763971 313.794696 
L 393.976238 313.602714 
L 394.092282 313.498375 
L 394.247071 313.343955 
L 394.542281 313.081023 
L 395.086647 312.559332 
L 395.283144 312.384044 
L 396.178635 311.332316 
L 396.991546 310.535173 
L 397.136925 310.405794 
L 397.359328 310.197118 
L 397.89998 309.629518 
L 398.014549 309.541874 
L 398.277378 309.333198 
L 398.854508 308.711343 
L 399.017622 308.548575 
L 399.228712 308.277296 
L 399.389234 308.102008 
L 399.552738 307.951761 
L 399.716451 307.7723 
L 399.907898 307.563624 
L 400.040116 307.388336 
L 400.160243 307.208874 
L 401.610527 305.410085 
L 401.744719 305.259838 
L 401.891526 305.072029 
L 402.43749 304.174722 
L 402.572202 303.966045 
L 402.738796 303.749022 
L 402.873744 303.573734 
L 403.155 303.177249 
L 403.303173 302.922664 
L 403.616761 302.355065 
L 403.899619 301.929366 
L 404.001334 301.799986 
L 404.172432 301.524534 
L 404.365401 301.269949 
L 404.507611 301.057099 
L 405.184751 300.001197 
L 405.463258 299.613059 
L 405.657306 299.325086 
L 405.770622 299.179013 
L 408.326062 295.251726 
L 408.526196 295.013835 
L 408.841568 294.567268 
L 408.949644 294.408674 
L 409.093919 294.212519 
L 410.841354 291.962989 
L 411.446175 291.299399 
L 411.655218 291.099069 
L 411.907563 290.844484 
L 412.292703 290.410438 
L 412.433132 290.214282 
L 412.60609 290.026474 
L 412.829685 289.767715 
L 412.958111 289.613295 
L 413.631828 288.79111 
L 413.750337 288.670078 
L 413.929291 288.394626 
L 414.154801 288.085785 
L 414.447301 287.593309 
L 414.556265 287.413847 
L 415.033524 286.474804 
L 415.151445 286.282822 
L 415.312148 285.999022 
L 415.433513 285.756958 
L 415.901486 284.822089 
L 416.415903 283.999904 
L 416.526816 283.774534 
L 416.643933 283.603419 
L 417.200348 282.785409 
L 417.313724 282.618468 
L 417.460011 282.351362 
L 417.790805 281.871407 
L 417.883005 281.73368 
L 418.246073 281.191122 
L 418.728649 280.389806 
L 418.866633 280.151915 
L 418.993102 279.9808 
L 419.166276 279.776297 
L 419.295606 279.588489 
L 419.633066 279.146095 
L 420.050711 278.645272 
L 420.395772 278.165317 
L 421.526071 276.800574 
L 421.672749 276.616939 
L 421.851645 276.383222 
L 422.518654 275.535997 
L 422.775422 275.168726 
L 422.949419 274.926662 
L 423.510667 274.267245 
L 423.621523 274.121172 
L 423.714137 273.987619 
L 423.93616 273.712166 
L 424.077768 273.520184 
L 424.206151 273.369937 
L 424.333242 273.211343 
L 424.866586 272.62705 
L 425.05258 272.426721 
L 425.263593 272.205524 
L 425.381174 272.088665 
L 425.688068 271.75061 
L 425.8039 271.600363 
L 426.072476 271.304043 
L 426.201019 271.124581 
L 426.617651 270.669667 
L 427.206957 270.147976 
L 427.422091 269.943474 
L 427.53909 269.7974 
L 427.707258 269.597071 
L 427.872315 269.413436 
L 428.254223 269.000257 
L 428.39841 268.820796 
L 428.939752 268.182246 
L 429.105763 267.981917 
L 429.77052 267.284939 
L 429.901783 267.134692 
L 430.099012 266.888454 
L 430.693874 266.166434 
L 430.873354 265.995319 
L 431.213415 265.598835 
L 431.422666 265.327556 
L 431.687715 265.027062 
L 432.301641 264.342604 
L 432.483598 264.138101 
L 432.689133 263.921078 
L 432.84529 263.724922 
L 433.395256 263.136455 
L 433.515995 262.969514 
L 433.626583 262.823441 
L 433.778954 262.652326 
L 434.024485 262.264189 
L 434.451999 261.583904 
L 434.640151 261.34184 
L 434.75498 261.229154 
L 436.591405 259.367763 
L 436.727517 259.109004 
L 436.821746 258.971278 
L 436.932794 258.80851 
L 437.517654 258.207523 
L 437.629714 258.069796 
L 439.812492 255.273535 
L 440.075432 254.789406 
L 440.184795 254.622465 
L 440.290969 254.417962 
L 440.44731 254.238501 
L 440.58329 254.013131 
L 440.711142 253.808628 
L 441.864806 251.905501 
L 442.038623 251.659263 
L 442.224852 251.367116 
L 442.354887 251.187654 
L 442.462479 251.024887 
L 442.606402 250.782823 
L 442.738448 250.544932 
L 442.882661 250.373817 
L 443.114361 250.023241 
L 443.47091 249.534939 
L 443.617781 249.259486 
L 443.849466 248.971513 
L 444.032322 248.750316 
L 448.76866 241.008428 
L 448.919185 240.737149 
L 449.039458 240.520126 
L 450.188857 238.162084 
L 450.29707 237.999317 
L 450.42481 237.786467 
L 450.498872 237.627873 
L 450.881869 236.939242 
L 451.068894 236.622054 
L 451.717694 235.111238 
L 451.84973 234.773183 
L 452.123247 234.088725 
L 452.195308 233.888395 
L 452.48985 233.128814 
L 452.543772 232.941005 
L 452.701319 232.419315 
L 452.791555 232.206465 
L 452.902364 231.843368 
L 453.087979 231.259075 
L 453.293258 230.361767 
L 453.364775 230.119703 
L 453.762144 228.450293 
L 453.870398 228.016246 
L 454.884879 224.176604 
L 454.978135 223.942886 
L 455.157951 223.483799 
L 456.970622 219.548165 
L 457.061418 219.410439 
L 457.262955 219.055689 
L 457.361285 218.917963 
L 457.435283 218.78441 
L 457.605689 218.450528 
L 457.772653 218.175076 
L 458.190432 217.569915 
L 458.326332 217.373759 
L 458.42473 217.231859 
L 458.524615 217.094133 
L 458.790923 216.697648 
L 458.929271 216.438889 
L 459.044862 216.22604 
L 459.364884 215.579143 
L 459.638859 214.99485 
L 459.786656 214.602539 
L 460.51172 213.02912 
L 460.639379 212.657676 
L 460.805898 212.131812 
L 460.940155 211.681071 
L 461.126924 210.959052 
L 461.373421 209.944885 
L 461.429397 209.694474 
L 461.54048 209.106007 
L 461.80624 207.449118 
L 461.848872 207.123583 
L 462.062795 205.54599 
L 462.120529 205.174547 
L 462.281957 204.139513 
L 462.340075 203.818151 
L 462.589378 202.394979 
L 462.755273 201.468457 
L 462.804292 201.180484 
L 464.139418 194.198177 
L 464.547855 192.6498 
L 464.947459 191.27671 
L 464.980144 191.130637 
L 465.189153 190.358535 
L 465.442805 189.519656 
L 466.239528 186.785998 
L 466.37539 186.214225 
L 466.471326 185.826087 
L 466.687167 184.882871 
L 467.535946 181.23521 
L 467.592883 181.030707 
L 468.345941 178.059158 
L 468.519001 177.474865 
L 468.724126 176.848836 
L 468.816297 176.523301 
L 468.938736 176.13099 
L 468.991735 175.976569 
L 469.200799 175.459052 
L 469.298128 175.208641 
L 469.637301 174.323854 
L 469.724894 174.156913 
L 470.319344 172.992499 
L 470.402406 172.833905 
L 471.041534 172.061803 
L 471.217778 171.873995 
L 471.586756 171.435775 
L 471.734399 171.273007 
L 471.850875 171.189537 
L 472.018044 171.030943 
L 472.727251 170.567681 
L 473.014753 170.413261 
L 475.943547 168.940007 
L 476.085067 168.852363 
L 476.543719 168.614472 
L 476.652574 168.556043 
L 477.239981 168.234681 
L 477.544174 168.000964 
L 477.723274 167.859064 
L 477.937175 167.696297 
L 478.343644 167.283118 
L 478.554659 167.086962 
L 479.237799 166.423372 
L 481.831265 164.165495 
L 482.032925 163.98186 
L 482.38133 163.668845 
L 482.795787 163.289055 
L 482.987458 163.122114 
L 483.175139 162.980214 
L 483.342765 162.796579 
L 483.887079 162.145509 
L 484.064227 161.970221 
L 484.4346 161.557042 
L 484.578513 161.410969 
L 484.747312 161.256548 
L 488.621225 156.824265 
L 488.778712 156.598895 
L 488.929735 156.381872 
L 489.078761 156.227451 
L 489.277203 155.98956 
L 489.390294 155.876875 
L 491.997576 152.446238 
L 492.334798 151.799342 
L 492.567611 151.427898 
L 492.723379 151.127404 
L 493.005901 150.693358 
L 493.135369 150.413732 
L 493.27602 150.134105 
L 493.539547 149.645803 
L 494.633011 147.738502 
L 494.779938 147.550694 
L 495.017682 147.062391 
L 497.513078 142.972337 
L 497.663815 142.759488 
L 497.804723 142.538291 
L 498.088761 142.100071 
L 498.227544 141.949824 
L 498.354345 141.732801 
L 498.593643 141.273713 
L 498.895024 140.668552 
L 499.11986 140.272067 
L 499.478198 139.61265 
L 499.596589 139.445709 
L 499.730417 139.249554 
L 500.23132 138.552575 
L 500.405565 138.252081 
L 500.537264 138.030884 
L 500.89682 137.538408 
L 501.016337 137.371468 
L 501.594518 136.687009 
L 501.960248 136.336433 
L 502.164195 136.152798 
L 502.448605 135.810569 
L 502.624507 135.530943 
L 502.852791 135.247144 
L 503.069333 135.067682 
L 503.263733 134.838138 
L 503.396687 134.679544 
L 503.621013 134.408265 
L 503.840985 134.174548 
L 503.953979 134.066036 
L 505.141098 132.772243 
L 505.302168 132.617823 
L 505.611956 132.371585 
L 505.80163 132.233859 
L 506.072219 131.929192 
L 506.216763 131.799812 
L 506.431849 131.637045 
L 506.618009 131.520186 
L 507.076249 131.261428 
L 507.509407 130.889984 
L 507.834155 130.622878 
L 508.160606 130.401682 
L 508.288502 130.297343 
L 508.450854 130.163791 
L 508.565515 130.08032 
L 508.87089 129.892512 
L 510.093629 129.028592 
L 510.32436 128.861651 
L 510.480729 128.698884 
L 510.925004 128.352481 
L 511.215359 128.218928 
L 511.629428 127.981037 
L 512.201458 127.609594 
L 512.694001 127.346662 
L 518.678784 124.5504 
L 519.140254 124.224865 
L 520.719122 123.577969 
L 521.055613 123.481978 
L 521.621565 123.227393 
L 521.766035 123.118881 
L 521.949044 123.031237 
L 522.318109 122.88099 
L 522.521584 122.730744 
L 523.146256 122.334259 
L 523.332395 122.225747 
L 524.54509 121.741618 
L 525.973382 120.936128 
L 526.08597 120.865178 
L 527.051821 120.364355 
L 527.274001 120.234976 
L 527.578663 120.084729 
L 527.810494 119.976217 
L 528.014283 119.846838 
L 528.251865 119.667377 
L 528.467825 119.525477 
L 528.617693 119.408618 
L 528.977674 119.145686 
L 529.094507 119.062215 
L 529.586181 118.711639 
L 530.167302 118.265072 
L 535.019472 115.260135 
L 535.158397 115.151623 
L 535.399357 114.988856 
L 535.520594 114.926253 
L 536.11312 114.5089 
L 536.383897 114.308571 
L 536.916289 113.70341 
L 537.54194 112.751846 
L 537.663171 112.526476 
L 538.463161 110.965578 
L 538.57618 110.731861 
L 538.801955 110.285293 
L 539.111601 109.605009 
L 539.173872 109.483977 
L 539.310887 109.196004 
L 539.560259 108.595016 
L 539.683936 108.307043 
L 539.945865 107.797873 
L 540.094862 107.497379 
L 540.217626 107.246968 
L 540.344594 106.975688 
L 540.432877 106.792053 
L 540.810504 105.915613 
L 540.964564 105.694416 
L 542.200681 102.526711 
L 542.343626 102.242912 
L 542.546259 101.883989 
L 542.628945 101.712874 
L 543.953487 100.189538 
L 544.202641 99.997555 
L 544.419236 99.797226 
L 544.622332 99.626112 
L 545.048303 99.296403 
L 545.264519 99.141983 
L 545.403345 99.045992 
L 545.618143 98.895745 
L 545.977072 98.620292 
L 546.384971 98.290584 
L 546.621096 98.073561 
L 546.903299 97.814802 
L 547.326666 97.426664 
L 547.441837 97.305632 
L 548.349861 96.366589 
L 548.485813 96.233036 
L 548.722534 96.036881 
L 549.014553 95.86994 
L 549.153704 95.761428 
L 549.42692 95.57362 
L 549.555873 95.469281 
L 549.788323 95.310687 
L 550.729985 94.688832 
L 551.366954 94.375818 
L 551.596353 94.238092 
L 551.832338 94.079498 
L 552.000909 93.979333 
L 552.687389 93.520245 
L 552.928743 93.361652 
L 554.753434 92.155503 
L 554.91239 92.067859 
L 555.176512 91.913439 
L 555.737099 91.621292 
L 555.880621 91.57121 
L 556.500962 91.316625 
L 557.624673 90.928487 
L 557.737523 90.890925 
L 558.064518 90.694769 
L 558.904673 90.302458 
L 559.41213 90.027005 
L 559.874204 89.809982 
L 559.986384 89.776594 
L 560.37157 89.605479 
L 560.465827 89.567918 
L 560.858969 89.430191 
L 561.030861 89.346721 
L 561.526509 89.146392 
L 563.000527 88.549578 
L 563.676157 88.278299 
L 563.894247 88.219869 
L 564.48966 88.036234 
L 566.175196 87.739914 
L 567.008078 87.572973 
L 567.194444 87.552105 
L 568.25341 87.360123 
L 570.372053 86.84678 
L 570.596738 86.78835 
L 572.741416 86.466989 
L 573.888767 86.275007 
L 574.005421 86.241619 
L 576.612553 85.790878 
L 579.615969 85.436128 
L 579.892031 85.411087 
L 580.833402 85.26084 
L 588.452951 84.421962 
L 589.717853 84.263368 
L 589.933961 84.238327 
L 592.665945 83.795933 
L 593.450891 83.654034 
L 597.300532 83.082261 
L 597.467371 83.053046 
L 597.750528 82.98627 
L 598.427738 82.852717 
L 598.915731 82.735858 
L 599.475914 82.606479 
L 599.753663 82.531355 
L 600.57175 82.3352 
L 601.466207 82.143218 
L 605.625046 81.31686 
L 606.382336 81.191654 
L 609.299145 80.686658 
L 610.077701 80.532237 
L 610.130967 80.51137 
L 611.061978 80.344429 
L 611.429025 80.277652 
L 612.400483 80.08567 
L 614.954693 79.634929 
L 615.154241 79.580674 
L 615.804673 79.417906 
L 616.530159 79.180015 
L 617.04364 78.99638 
L 617.144433 78.967165 
L 617.953875 78.745969 
L 618.064057 78.71258 
L 618.610838 78.566507 
L 619.724946 78.278534 
L 620.422983 78.086552 
L 620.857066 77.919611 
L 621.478833 77.723455 
L 621.5926 77.69424 
L 622.057202 77.498085 
L 622.806339 77.089079 
L 623.158438 76.88875 
L 624.362761 76.15421 
L 624.492475 76.070739 
L 624.769888 75.903798 
L 624.961136 75.778593 
L 625.586237 75.478099 
L 626.687414 74.973103 
L 626.93148 74.860417 
L 627.209488 74.689303 
L 627.33495 74.539056 
L 627.532003 74.380462 
L 627.687296 74.201 
L 628.017971 73.766954 
L 628.171532 73.487328 
L 628.385176 73.145099 
L 628.521464 72.877993 
L 628.597152 72.736093 
L 628.710525 72.523244 
L 629.112412 71.638456 
L 631.227233 66.204528 
L 631.312478 66.037587 
L 631.514408 65.60354 
L 631.785276 65.17784 
L 632.139303 64.785529 
L 632.471476 64.510077 
L 632.687635 64.309747 
L 633.495133 63.92161 
L 633.837811 63.763016 
L 634.336731 63.554339 
L 634.562844 63.48339 
L 634.977688 63.34149 
L 635.203826 63.262193 
L 635.533602 63.12864 
L 635.682173 63.066037 
L 636.552341 62.719635 
L 637.024565 62.561041 
L 638.630773 61.893277 
L 638.791252 61.839021 
L 639.146016 61.688774 
L 640.165717 61.225513 
L 640.284162 61.183778 
L 640.690632 60.983448 
L 640.928386 60.86659 
L 641.3777 60.645393 
L 642.136553 60.319858 
L 642.440221 60.173785 
L 642.653403 60.094488 
L 643.047671 59.906679 
L 643.151238 59.864944 
L 645.439847 58.575325 
L 645.58305 58.491854 
L 647.261987 57.66967 
L 647.572097 57.531944 
L 648.312235 57.147979 
L 648.423139 57.068682 
L 648.8668 56.86418 
L 648.999809 56.797403 
L 649.996662 56.288233 
L 650.430082 56.083731 
L 650.563572 56.012781 
L 650.931551 55.837493 
L 651.341665 55.662205 
L 651.464055 55.612122 
L 652.129943 55.319976 
L 652.391081 55.253199 
L 652.755263 55.119646 
L 652.859649 55.077911 
L 653.456613 54.902623 
L 653.559518 54.869235 
L 653.925821 54.735682 
L 656.389619 54.042877 
L 656.9454 53.888457 
L 658.101849 53.617178 
L 659.608642 53.429369 
L 659.852286 53.395981 
L 661.251449 53.22904 
L 663.047567 53.053752 
L 667.745399 52.615532 
L 667.866561 52.603011 
L 672.142147 52.256609 
L 678.236859 51.84343 
L 679.46 51.830909 
L 679.46 51.830909 
" clip-path="url(#pa271e11bc2)" style="fill: none; stroke: #0072b2; stroke-width: 2.5; stroke-linecap: square"/>
   </g>
   <g id="patch_3">
    <path d="M 54.92 454.84 
L 54.92 32.64 
" style="fill: none; stroke: #000000; stroke-width: 0.8; stroke-linejoin: miter; stroke-linecap: square"/>
   </g>
   <g id="patch_4">
    <path d="M 709.2 454.84 
L 709.2 32.64 
" style="fill: none; stroke: #000000; stroke-width: 0.8; stroke-linejoin: miter; stroke-linecap: square"/>
   </g>
   <g id="patch_5">
    <path d="M 54.92 454.84 
L 709.2 454.84 
" style="fill: none; stroke: #000000; stroke-width: 0.8; stroke-linejoin: miter; stroke-linecap: square"/>
   </g>
   <g id="patch_6">
    <path d="M 54.92 32.64 
L 709.2 32.64 
" style="fill: none; stroke: #000000; stroke-width: 0.8; stroke-linejoin: miter; stroke-linecap: square"/>
   </g>
   <g id="text_16">
    <!-- CDF Comparison -->
    <g transform="translate(289.270938 26.64) scale(0.2 -0.2)">
     <defs>
      <path id="DejaVuSans-Bold-43" d="M 4288 256 
Q 3956 84 3597 -3 
Q 3238 -91 2847 -91 
Q 1681 -91 1000 561 
Q 319 1213 319 2328 
Q 319 3447 1000 4098 
Q 1681 4750 2847 4750 
Q 3238 4750 3597 4662 
Q 3956 4575 4288 4403 
L 4288 3438 
Q 3953 3666 3628 3772 
Q 3303 3878 2944 3878 
Q 2300 3878 1931 3465 
Q 1563 3053 1563 2328 
Q 1563 1606 1931 1193 
Q 2300 781 2944 781 
Q 3303 781 3628 887 
Q 3953 994 4288 1222 
L 4288 256 
z
" transform="scale(0.015625)"/>
      <path id="DejaVuSans-Bold-44" d="M 1791 3756 
L 1791 909 
L 2222 909 
Q 2959 909 3348 1275 
Q 3738 1641 3738 2338 
Q 3738 3031 3350 3393 
Q 2963 3756 2222 3756 
L 1791 3756 
z
M 588 4666 
L 1856 4666 
Q 2919 4666 3439 4514 
Q 3959 4363 4331 4000 
Q 4659 3684 4818 3271 
Q 4978 2859 4978 2338 
Q 4978 1809 4818 1395 
Q 4659 981 4331 666 
Q 3956 303 3431 151 
Q 2906 0 1856 0 
L 588 0 
L 588 4666 
z
" transform="scale(0.015625)"/>
      <path id="DejaVuSans-Bold-46" d="M 588 4666 
L 3834 4666 
L 3834 3756 
L 1791 3756 
L 1791 2888 
L 3713 2888 
L 3713 1978 
L 1791 1978 
L 1791 0 
L 588 0 
L 588 4666 
z
" transform="scale(0.015625)"/>
      <path id="DejaVuSans-Bold-20" transform="scale(0.015625)"/>
      <path id="DejaVuSans-Bold-6f" d="M 2203 2784 
Q 1831 2784 1636 2517 
Q 1441 2250 1441 1747 
Q 1441 1244 1636 976 
Q 1831 709 2203 709 
Q 2569 709 2762 976 
Q 2956 1244 2956 1747 
Q 2956 2250 2762 2517 
Q 2569 2784 2203 2784 
z
M 2203 3584 
Q 3106 3584 3614 3096 
Q 4122 2609 4122 1747 
Q 4122 884 3614 396 
Q 3106 -91 2203 -91 
Q 1297 -91 786 396 
Q 275 884 275 1747 
Q 275 2609 786 3096 
Q 1297 3584 2203 3584 
z
" transform="scale(0.015625)"/>
      <path id="DejaVuSans-Bold-6d" d="M 3781 2919 
Q 3994 3244 4286 3414 
Q 4578 3584 4928 3584 
Q 5531 3584 5847 3212 
Q 6163 2841 6163 2131 
L 6163 0 
L 5038 0 
L 5038 1825 
Q 5041 1866 5042 1909 
Q 5044 1953 5044 2034 
Q 5044 2406 4934 2573 
Q 4825 2741 4581 2741 
Q 4263 2741 4089 2478 
Q 3916 2216 3909 1719 
L 3909 0 
L 2784 0 
L 2784 1825 
Q 2784 2406 2684 2573 
Q 2584 2741 2328 2741 
Q 2006 2741 1831 2477 
Q 1656 2213 1656 1722 
L 1656 0 
L 531 0 
L 531 3500 
L 1656 3500 
L 1656 2988 
Q 1863 3284 2130 3434 
Q 2397 3584 2719 3584 
Q 3081 3584 3359 3409 
Q 3638 3234 3781 2919 
z
" transform="scale(0.015625)"/>
      <path id="DejaVuSans-Bold-70" d="M 1656 506 
L 1656 -1331 
L 538 -1331 
L 538 3500 
L 1656 3500 
L 1656 2988 
Q 1888 3294 2169 3439 
Q 2450 3584 2816 3584 
Q 3463 3584 3878 3070 
Q 4294 2556 4294 1747 
Q 4294 938 3878 423 
Q 3463 -91 2816 -91 
Q 2450 -91 2169 54 
Q 1888 200 1656 506 
z
M 2400 2772 
Q 2041 2772 1848 2508 
Q 1656 2244 1656 1747 
Q 1656 1250 1848 986 
Q 2041 722 2400 722 
Q 2759 722 2948 984 
Q 3138 1247 3138 1747 
Q 3138 2247 2948 2509 
Q 2759 2772 2400 2772 
z
" transform="scale(0.015625)"/>
      <path id="DejaVuSans-Bold-61" d="M 2106 1575 
Q 1756 1575 1579 1456 
Q 1403 1338 1403 1106 
Q 1403 894 1545 773 
Q 1688 653 1941 653 
Q 2256 653 2472 879 
Q 2688 1106 2688 1447 
L 2688 1575 
L 2106 1575 
z
M 3816 1997 
L 3816 0 
L 2688 0 
L 2688 519 
Q 2463 200 2181 54 
Q 1900 -91 1497 -91 
Q 953 -91 614 226 
Q 275 544 275 1050 
Q 275 1666 698 1953 
Q 1122 2241 2028 2241 
L 2688 2241 
L 2688 2328 
Q 2688 2594 2478 2717 
Q 2269 2841 1825 2841 
Q 1466 2841 1156 2769 
Q 847 2697 581 2553 
L 581 3406 
Q 941 3494 1303 3539 
Q 1666 3584 2028 3584 
Q 2975 3584 3395 3211 
Q 3816 2838 3816 1997 
z
" transform="scale(0.015625)"/>
      <path id="DejaVuSans-Bold-72" d="M 3138 2547 
Q 2991 2616 2845 2648 
Q 2700 2681 2553 2681 
Q 2122 2681 1889 2404 
Q 1656 2128 1656 1613 
L 1656 0 
L 538 0 
L 538 3500 
L 1656 3500 
L 1656 2925 
Q 1872 3269 2151 3426 
Q 2431 3584 2822 3584 
Q 2878 3584 2943 3579 
Q 3009 3575 3134 3559 
L 3138 2547 
z
" transform="scale(0.015625)"/>
      <path id="DejaVuSans-Bold-69" d="M 538 3500 
L 1656 3500 
L 1656 0 
L 538 0 
L 538 3500 
z
M 538 4863 
L 1656 4863 
L 1656 3950 
L 538 3950 
L 538 4863 
z
" transform="scale(0.015625)"/>
      <path id="DejaVuSans-Bold-73" d="M 3272 3391 
L 3272 2541 
Q 2913 2691 2578 2766 
Q 2244 2841 1947 2841 
Q 1628 2841 1473 2761 
Q 1319 2681 1319 2516 
Q 1319 2381 1436 2309 
Q 1553 2238 1856 2203 
L 2053 2175 
Q 2913 2066 3209 1816 
Q 3506 1566 3506 1031 
Q 3506 472 3093 190 
Q 2681 -91 1863 -91 
Q 1516 -91 1145 -36 
Q 775 19 384 128 
L 384 978 
Q 719 816 1070 734 
Q 1422 653 1784 653 
Q 2113 653 2278 743 
Q 2444 834 2444 1013 
Q 2444 1163 2330 1236 
Q 2216 1309 1875 1350 
L 1678 1375 
Q 931 1469 631 1722 
Q 331 1975 331 2491 
Q 331 3047 712 3315 
Q 1094 3584 1881 3584 
Q 2191 3584 2531 3537 
Q 2872 3491 3272 3391 
z
" transform="scale(0.015625)"/>
      <path id="DejaVuSans-Bold-6e" d="M 4056 2131 
L 4056 0 
L 2931 0 
L 2931 347 
L 2931 1631 
Q 2931 2084 2911 2256 
Q 2891 2428 2841 2509 
Q 2775 2619 2662 2680 
Q 2550 2741 2406 2741 
Q 2056 2741 1856 2470 
Q 1656 2200 1656 1722 
L 1656 0 
L 538 0 
L 538 3500 
L 1656 3500 
L 1656 2988 
Q 1909 3294 2193 3439 
Q 2478 3584 2822 3584 
Q 3428 3584 3742 3212 
Q 4056 2841 4056 2131 
z
" transform="scale(0.015625)"/>
     </defs>
     <use xlink:href="#DejaVuSans-Bold-43"/>
     <use xlink:href="#DejaVuSans-Bold-44" transform="translate(73.388672 0)"/>
     <use xlink:href="#DejaVuSans-Bold-46" transform="translate(156.396484 0)"/>
     <use xlink:href="#DejaVuSans-Bold-20" transform="translate(224.707031 0)"/>
     <use xlink:href="#DejaVuSans-Bold-43" transform="translate(259.521484 0)"/>
     <use xlink:href="#DejaVuSans-Bold-6f" transform="translate(332.910156 0)"/>
     <use xlink:href="#DejaVuSans-Bold-6d" transform="translate(401.611328 0)"/>
     <use xlink:href="#DejaVuSans-Bold-70" transform="translate(505.810547 0)"/>
     <use xlink:href="#DejaVuSans-Bold-61" transform="translate(577.392578 0)"/>
     <use xlink:href="#DejaVuSans-Bold-72" transform="translate(644.873047 0)"/>
     <use xlink:href="#DejaVuSans-Bold-69" transform="translate(694.189453 0)"/>
     <use xlink:href="#DejaVuSans-Bold-73" transform="translate(728.466797 0)"/>
     <use xlink:href="#DejaVuSans-Bold-6f" transform="translate(787.988281 0)"/>
     <use xlink:href="#DejaVuSans-Bold-6e" transform="translate(856.689453 0)"/>
    </g>
   </g>
   <g id="legend_1">
    <g id="patch_7">
     <path d="M 61.92 55.59625 
L 129.224688 55.59625 
Q 131.224688 55.59625 131.224688 53.59625 
L 131.224688 39.64 
Q 131.224688 37.64 129.224688 37.64 
L 61.92 37.64 
Q 59.92 37.64 59.92 39.64 
L 59.92 53.59625 
Q 59.92 55.59625 61.92 55.59625 
z
" style="fill: #ffffff; opacity: 0.8; stroke: #cccccc; stroke-linejoin: miter"/>
    </g>
    <g id="line2d_28">
     <path d="M 63.92 45.738437 
L 73.92 45.738437 
L 83.92 45.738437 
" style="fill: none; stroke: #0072b2; stroke-width: 2.5; stroke-linecap: square"/>
    </g>
    <g id="text_17">
     <!-- dlio_v3 -->
     <g transform="translate(91.92 49.238437) scale(0.1 -0.1)">
      <defs>
       <path id="DejaVuSans-64" d="M 2906 2969 
L 2906 4863 
L 3481 4863 
L 3481 0 
L 2906 0 
L 2906 525 
Q 2725 213 2448 61 
Q 2172 -91 1784 -91 
Q 1150 -91 751 415 
Q 353 922 353 1747 
Q 353 2572 751 3078 
Q 1150 3584 1784 3584 
Q 2172 3584 2448 3432 
Q 2725 3281 2906 2969 
z
M 947 1747 
Q 947 1113 1208 752 
Q 1469 391 1925 391 
Q 2381 391 2643 752 
Q 2906 1113 2906 1747 
Q 2906 2381 2643 2742 
Q 2381 3103 1925 3103 
Q 1469 3103 1208 2742 
Q 947 2381 947 1747 
z
" transform="scale(0.015625)"/>
       <path id="DejaVuSans-6c" d="M 603 4863 
L 1178 4863 
L 1178 0 
L 603 0 
L 603 4863 
z
" transform="scale(0.015625)"/>
       <path id="DejaVuSans-69" d="M 603 3500 
L 1178 3500 
L 1178 0 
L 603 0 
L 603 3500 
z
M 603 4863 
L 1178 4863 
L 1178 4134 
L 603 4134 
L 603 4863 
z
" transform="scale(0.015625)"/>
       <path id="DejaVuSans-5f" d="M 3263 -1063 
L 3263 -1509 
L -63 -1509 
L -63 -1063 
L 3263 -1063 
z
" transform="scale(0.015625)"/>
       <path id="DejaVuSans-76" d="M 191 3500 
L 800 3500 
L 1894 563 
L 2988 3500 
L 3597 3500 
L 2284 0 
L 1503 0 
L 191 3500 
z
" transform="scale(0.015625)"/>
      </defs>
      <use xlink:href="#DejaVuSans-64"/>
      <use xlink:href="#DejaVuSans-6c" transform="translate(63.476562 0)"/>
      <use xlink:href="#DejaVuSans-69" transform="translate(91.259766 0)"/>
      <use xlink:href="#DejaVuSans-6f" transform="translate(119.042969 0)"/>
      <use xlink:href="#DejaVuSans-5f" transform="translate(180.224609 0)"/>
      <use xlink:href="#DejaVuSans-76" transform="translate(230.224609 0)"/>
      <use xlink:href="#DejaVuSans-33" transform="translate(289.404297 0)"/>
     </g>
    </g>
   </g>
  </g>
 </g>
 <defs>
  <clipPath id="pa271e11bc2">
   <rect x="54.92" y="32.64" width="654.28" height="422.2"/>
  </clipPath>
 </defs>
</svg>
