<?xml version="1.0" encoding="utf-8" standalone="no"?>
<!DOCTYPE svg PUBLIC "-//W3C//DTD SVG 1.1//EN"
  "http://www.w3.org/Graphics/SVG/1.1/DTD/svg11.dtd">
<svg xmlns:xlink="http://www.w3.org/1999/xlink" width="720pt" height="504pt" viewBox="0 0 720 504" xmlns="http://www.w3.org/2000/svg" version="1.1">
 <metadata>
  <rdf:RDF xmlns:dc="http://purl.org/dc/elements/1.1/" xmlns:cc="http://creativecommons.org/ns#" xmlns:rdf="http://www.w3.org/1999/02/22-rdf-syntax-ns#">
   <cc:Work>
    <dc:type rdf:resource="http://purl.org/dc/dcmitype/StillImage"/>
    <dc:date>2026-01-08T19:44:26.876399</dc:date>
    <dc:format>image/svg+xml</dc:format>
    <dc:creator>
     <cc:Agent>
      <dc:title>Matplotlib v3.10.7, https://matplotlib.org/</dc:title>
     </cc:Agent>
    </dc:creator>
   </cc:Work>
  </rdf:RDF>
 </metadata>
 <defs>
  <style type="text/css">*{stroke-linejoin: round; stroke-linecap: butt}</style>
 </defs>
 <g id="figure_1">
  <g id="patch_1">
   <path d="M 0 504 
L 720 504 
L 720 0 
L 0 0 
z
" style="fill: #ffffff"/>
  </g>
  <g id="axes_1">
   <g id="patch_2">
    <path d="M 54.92 454.84 
L 709.2 454.84 
L 709.2 32.64 
L 54.92 32.64 
z
" style="fill: #ffffff"/>
   </g>
   <g id="matplotlib.axis_1">
    <g id="xtick_1">
     <g id="line2d_1">
      <path d="M 84.443108 454.84 
L 84.443108 32.64 
" clip-path="url(#p5959398782)" style="fill: none; stroke-dasharray: 2.96,1.28; stroke-dashoffset: 0; stroke: #b0b0b0; stroke-opacity: 0.3; stroke-width: 0.8"/>
     </g>
     <g id="line2d_2">
      <defs>
       <path id="m699087a1f7" d="M 0 0 
L 0 3.5 
" style="stroke: #000000; stroke-width: 0.8"/>
      </defs>
      <g>
       <use xlink:href="#m699087a1f7" x="84.443108" y="454.84" style="stroke: #000000; stroke-width: 0.8"/>
      </g>
     </g>
     <g id="text_1">
      <!-- 0 -->
      <g transform="translate(81.261858 469.438437) scale(0.1 -0.1)">
       <defs>
        <path id="DejaVuSans-30" d="M 2034 4250 
Q 1547 4250 1301 3770 
Q 1056 3291 1056 2328 
Q 1056 1369 1301 889 
Q 1547 409 2034 409 
Q 2525 409 2770 889 
Q 3016 1369 3016 2328 
Q 3016 3291 2770 3770 
Q 2525 4250 2034 4250 
z
M 2034 4750 
Q 2819 4750 3233 4129 
Q 3647 3509 3647 2328 
Q 3647 1150 3233 529 
Q 2819 -91 2034 -91 
Q 1250 -91 836 529 
Q 422 1150 422 2328 
Q 422 3509 836 4129 
Q 1250 4750 2034 4750 
z
" transform="scale(0.015625)"/>
       </defs>
       <use xlink:href="#DejaVuSans-30"/>
      </g>
     </g>
    </g>
    <g id="xtick_2">
     <g id="line2d_3">
      <path d="M 177.086478 454.84 
L 177.086478 32.64 
" clip-path="url(#p5959398782)" style="fill: none; stroke-dasharray: 2.96,1.28; stroke-dashoffset: 0; stroke: #b0b0b0; stroke-opacity: 0.3; stroke-width: 0.8"/>
     </g>
     <g id="line2d_4">
      <g>
       <use xlink:href="#m699087a1f7" x="177.086478" y="454.84" style="stroke: #000000; stroke-width: 0.8"/>
      </g>
     </g>
     <g id="text_2">
      <!-- 5 -->
      <g transform="translate(173.905228 469.438437) scale(0.1 -0.1)">
       <defs>
        <path id="DejaVuSans-35" d="M 691 4666 
L 3169 4666 
L 3169 4134 
L 1269 4134 
L 1269 2991 
Q 1406 3038 1543 3061 
Q 1681 3084 1819 3084 
Q 2600 3084 3056 2656 
Q 3513 2228 3513 1497 
Q 3513 744 3044 326 
Q 2575 -91 1722 -91 
Q 1428 -91 1123 -41 
Q 819 9 494 109 
L 494 744 
Q 775 591 1075 516 
Q 1375 441 1709 441 
Q 2250 441 2565 725 
Q 2881 1009 2881 1497 
Q 2881 1984 2565 2268 
Q 2250 2553 1709 2553 
Q 1456 2553 1204 2497 
Q 953 2441 691 2322 
L 691 4666 
z
" transform="scale(0.015625)"/>
       </defs>
       <use xlink:href="#DejaVuSans-35"/>
      </g>
     </g>
    </g>
    <g id="xtick_3">
     <g id="line2d_5">
      <path d="M 269.729848 454.84 
L 269.729848 32.64 
" clip-path="url(#p5959398782)" style="fill: none; stroke-dasharray: 2.96,1.28; stroke-dashoffset: 0; stroke: #b0b0b0; stroke-opacity: 0.3; stroke-width: 0.8"/>
     </g>
     <g id="line2d_6">
      <g>
       <use xlink:href="#m699087a1f7" x="269.729848" y="454.84" style="stroke: #000000; stroke-width: 0.8"/>
      </g>
     </g>
     <g id="text_3">
      <!-- 10 -->
      <g transform="translate(263.367348 469.438437) scale(0.1 -0.1)">
       <defs>
        <path id="DejaVuSans-31" d="M 794 531 
L 1825 531 
L 1825 4091 
L 703 3866 
L 703 4441 
L 1819 4666 
L 2450 4666 
L 2450 531 
L 3481 531 
L 3481 0 
L 794 0 
L 794 531 
z
" transform="scale(0.015625)"/>
       </defs>
       <use xlink:href="#DejaVuSans-31"/>
       <use xlink:href="#DejaVuSans-30" transform="translate(63.623047 0)"/>
      </g>
     </g>
    </g>
    <g id="xtick_4">
     <g id="line2d_7">
      <path d="M 362.373218 454.84 
L 362.373218 32.64 
" clip-path="url(#p5959398782)" style="fill: none; stroke-dasharray: 2.96,1.28; stroke-dashoffset: 0; stroke: #b0b0b0; stroke-opacity: 0.3; stroke-width: 0.8"/>
     </g>
     <g id="line2d_8">
      <g>
       <use xlink:href="#m699087a1f7" x="362.373218" y="454.84" style="stroke: #000000; stroke-width: 0.8"/>
      </g>
     </g>
     <g id="text_4">
      <!-- 15 -->
      <g transform="translate(356.010718 469.438437) scale(0.1 -0.1)">
       <use xlink:href="#DejaVuSans-31"/>
       <use xlink:href="#DejaVuSans-35" transform="translate(63.623047 0)"/>
      </g>
     </g>
    </g>
    <g id="xtick_5">
     <g id="line2d_9">
      <path d="M 455.016588 454.84 
L 455.016588 32.64 
" clip-path="url(#p5959398782)" style="fill: none; stroke-dasharray: 2.96,1.28; stroke-dashoffset: 0; stroke: #b0b0b0; stroke-opacity: 0.3; stroke-width: 0.8"/>
     </g>
     <g id="line2d_10">
      <g>
       <use xlink:href="#m699087a1f7" x="455.016588" y="454.84" style="stroke: #000000; stroke-width: 0.8"/>
      </g>
     </g>
     <g id="text_5">
      <!-- 20 -->
      <g transform="translate(448.654088 469.438437) scale(0.1 -0.1)">
       <defs>
        <path id="DejaVuSans-32" d="M 1228 531 
L 3431 531 
L 3431 0 
L 469 0 
L 469 531 
Q 828 903 1448 1529 
Q 2069 2156 2228 2338 
Q 2531 2678 2651 2914 
Q 2772 3150 2772 3378 
Q 2772 3750 2511 3984 
Q 2250 4219 1831 4219 
Q 1534 4219 1204 4116 
Q 875 4013 500 3803 
L 500 4441 
Q 881 4594 1212 4672 
Q 1544 4750 1819 4750 
Q 2544 4750 2975 4387 
Q 3406 4025 3406 3419 
Q 3406 3131 3298 2873 
Q 3191 2616 2906 2266 
Q 2828 2175 2409 1742 
Q 1991 1309 1228 531 
z
" transform="scale(0.015625)"/>
       </defs>
       <use xlink:href="#DejaVuSans-32"/>
       <use xlink:href="#DejaVuSans-30" transform="translate(63.623047 0)"/>
      </g>
     </g>
    </g>
    <g id="xtick_6">
     <g id="line2d_11">
      <path d="M 547.659957 454.84 
L 547.659957 32.64 
" clip-path="url(#p5959398782)" style="fill: none; stroke-dasharray: 2.96,1.28; stroke-dashoffset: 0; stroke: #b0b0b0; stroke-opacity: 0.3; stroke-width: 0.8"/>
     </g>
     <g id="line2d_12">
      <g>
       <use xlink:href="#m699087a1f7" x="547.659957" y="454.84" style="stroke: #000000; stroke-width: 0.8"/>
      </g>
     </g>
     <g id="text_6">
      <!-- 25 -->
      <g transform="translate(541.297457 469.438437) scale(0.1 -0.1)">
       <use xlink:href="#DejaVuSans-32"/>
       <use xlink:href="#DejaVuSans-35" transform="translate(63.623047 0)"/>
      </g>
     </g>
    </g>
    <g id="xtick_7">
     <g id="line2d_13">
      <path d="M 640.303327 454.84 
L 640.303327 32.64 
" clip-path="url(#p5959398782)" style="fill: none; stroke-dasharray: 2.96,1.28; stroke-dashoffset: 0; stroke: #b0b0b0; stroke-opacity: 0.3; stroke-width: 0.8"/>
     </g>
     <g id="line2d_14">
      <g>
       <use xlink:href="#m699087a1f7" x="640.303327" y="454.84" style="stroke: #000000; stroke-width: 0.8"/>
      </g>
     </g>
     <g id="text_7">
      <!-- 30 -->
      <g transform="translate(633.940827 469.438437) scale(0.1 -0.1)">
       <defs>
        <path id="DejaVuSans-33" d="M 2597 2516 
Q 3050 2419 3304 2112 
Q 3559 1806 3559 1356 
Q 3559 666 3084 287 
Q 2609 -91 1734 -91 
Q 1441 -91 1130 -33 
Q 819 25 488 141 
L 488 750 
Q 750 597 1062 519 
Q 1375 441 1716 441 
Q 2309 441 2620 675 
Q 2931 909 2931 1356 
Q 2931 1769 2642 2001 
Q 2353 2234 1838 2234 
L 1294 2234 
L 1294 2753 
L 1863 2753 
Q 2328 2753 2575 2939 
Q 2822 3125 2822 3475 
Q 2822 3834 2567 4026 
Q 2313 4219 1838 4219 
Q 1578 4219 1281 4162 
Q 984 4106 628 3988 
L 628 4550 
Q 988 4650 1302 4700 
Q 1616 4750 1894 4750 
Q 2613 4750 3031 4423 
Q 3450 4097 3450 3541 
Q 3450 3153 3228 2886 
Q 3006 2619 2597 2516 
z
" transform="scale(0.015625)"/>
       </defs>
       <use xlink:href="#DejaVuSans-33"/>
       <use xlink:href="#DejaVuSans-30" transform="translate(63.623047 0)"/>
      </g>
     </g>
    </g>
    <g id="text_8">
     <!-- XY Error [m] -->
     <g transform="translate(326.954688 489.195312) scale(0.18 -0.18)">
      <defs>
       <path id="DejaVuSans-58" d="M 403 4666 
L 1081 4666 
L 2241 2931 
L 3406 4666 
L 4084 4666 
L 2584 2425 
L 4184 0 
L 3506 0 
L 2194 1984 
L 872 0 
L 191 0 
L 1856 2491 
L 403 4666 
z
" transform="scale(0.015625)"/>
       <path id="DejaVuSans-59" d="M -13 4666 
L 666 4666 
L 1959 2747 
L 3244 4666 
L 3922 4666 
L 2272 2222 
L 2272 0 
L 1638 0 
L 1638 2222 
L -13 4666 
z
" transform="scale(0.015625)"/>
       <path id="DejaVuSans-20" transform="scale(0.015625)"/>
       <path id="DejaVuSans-45" d="M 628 4666 
L 3578 4666 
L 3578 4134 
L 1259 4134 
L 1259 2753 
L 3481 2753 
L 3481 2222 
L 1259 2222 
L 1259 531 
L 3634 531 
L 3634 0 
L 628 0 
L 628 4666 
z
" transform="scale(0.015625)"/>
       <path id="DejaVuSans-72" d="M 2631 2963 
Q 2534 3019 2420 3045 
Q 2306 3072 2169 3072 
Q 1681 3072 1420 2755 
Q 1159 2438 1159 1844 
L 1159 0 
L 581 0 
L 581 3500 
L 1159 3500 
L 1159 2956 
Q 1341 3275 1631 3429 
Q 1922 3584 2338 3584 
Q 2397 3584 2469 3576 
Q 2541 3569 2628 3553 
L 2631 2963 
z
" transform="scale(0.015625)"/>
       <path id="DejaVuSans-6f" d="M 1959 3097 
Q 1497 3097 1228 2736 
Q 959 2375 959 1747 
Q 959 1119 1226 758 
Q 1494 397 1959 397 
Q 2419 397 2687 759 
Q 2956 1122 2956 1747 
Q 2956 2369 2687 2733 
Q 2419 3097 1959 3097 
z
M 1959 3584 
Q 2709 3584 3137 3096 
Q 3566 2609 3566 1747 
Q 3566 888 3137 398 
Q 2709 -91 1959 -91 
Q 1206 -91 779 398 
Q 353 888 353 1747 
Q 353 2609 779 3096 
Q 1206 3584 1959 3584 
z
" transform="scale(0.015625)"/>
       <path id="DejaVuSans-5b" d="M 550 4863 
L 1875 4863 
L 1875 4416 
L 1125 4416 
L 1125 -397 
L 1875 -397 
L 1875 -844 
L 550 -844 
L 550 4863 
z
" transform="scale(0.015625)"/>
       <path id="DejaVuSans-6d" d="M 3328 2828 
Q 3544 3216 3844 3400 
Q 4144 3584 4550 3584 
Q 5097 3584 5394 3201 
Q 5691 2819 5691 2113 
L 5691 0 
L 5113 0 
L 5113 2094 
Q 5113 2597 4934 2840 
Q 4756 3084 4391 3084 
Q 3944 3084 3684 2787 
Q 3425 2491 3425 1978 
L 3425 0 
L 2847 0 
L 2847 2094 
Q 2847 2600 2669 2842 
Q 2491 3084 2119 3084 
Q 1678 3084 1418 2786 
Q 1159 2488 1159 1978 
L 1159 0 
L 581 0 
L 581 3500 
L 1159 3500 
L 1159 2956 
Q 1356 3278 1631 3431 
Q 1906 3584 2284 3584 
Q 2666 3584 2933 3390 
Q 3200 3197 3328 2828 
z
" transform="scale(0.015625)"/>
       <path id="DejaVuSans-5d" d="M 1947 4863 
L 1947 -844 
L 622 -844 
L 622 -397 
L 1369 -397 
L 1369 4416 
L 622 4416 
L 622 4863 
L 1947 4863 
z
" transform="scale(0.015625)"/>
      </defs>
      <use xlink:href="#DejaVuSans-58"/>
      <use xlink:href="#DejaVuSans-59" transform="translate(68.505859 0)"/>
      <use xlink:href="#DejaVuSans-20" transform="translate(129.589844 0)"/>
      <use xlink:href="#DejaVuSans-45" transform="translate(161.376953 0)"/>
      <use xlink:href="#DejaVuSans-72" transform="translate(224.560547 0)"/>
      <use xlink:href="#DejaVuSans-72" transform="translate(263.923828 0)"/>
      <use xlink:href="#DejaVuSans-6f" transform="translate(302.787109 0)"/>
      <use xlink:href="#DejaVuSans-72" transform="translate(363.96875 0)"/>
      <use xlink:href="#DejaVuSans-20" transform="translate(405.082031 0)"/>
      <use xlink:href="#DejaVuSans-5b" transform="translate(436.869141 0)"/>
      <use xlink:href="#DejaVuSans-6d" transform="translate(475.882812 0)"/>
      <use xlink:href="#DejaVuSans-5d" transform="translate(573.294922 0)"/>
     </g>
    </g>
   </g>
   <g id="matplotlib.axis_2">
    <g id="ytick_1">
     <g id="line2d_15">
      <path d="M 54.92 435.649091 
L 709.2 435.649091 
" clip-path="url(#p5959398782)" style="fill: none; stroke-dasharray: 2.96,1.28; stroke-dashoffset: 0; stroke: #b0b0b0; stroke-opacity: 0.3; stroke-width: 0.8"/>
     </g>
     <g id="line2d_16">
      <defs>
       <path id="m966cddd96e" d="M 0 0 
L -3.5 0 
" style="stroke: #000000; stroke-width: 0.8"/>
      </defs>
      <g>
       <use xlink:href="#m966cddd96e" x="54.92" y="435.649091" style="stroke: #000000; stroke-width: 0.8"/>
      </g>
     </g>
     <g id="text_9">
      <!-- 0.0 -->
      <g transform="translate(32.016875 439.44831) scale(0.1 -0.1)">
       <defs>
        <path id="DejaVuSans-2e" d="M 684 794 
L 1344 794 
L 1344 0 
L 684 0 
L 684 794 
z
" transform="scale(0.015625)"/>
       </defs>
       <use xlink:href="#DejaVuSans-30"/>
       <use xlink:href="#DejaVuSans-2e" transform="translate(63.623047 0)"/>
       <use xlink:href="#DejaVuSans-30" transform="translate(95.410156 0)"/>
      </g>
     </g>
    </g>
    <g id="ytick_2">
     <g id="line2d_17">
      <path d="M 54.92 358.885455 
L 709.2 358.885455 
" clip-path="url(#p5959398782)" style="fill: none; stroke-dasharray: 2.96,1.28; stroke-dashoffset: 0; stroke: #b0b0b0; stroke-opacity: 0.3; stroke-width: 0.8"/>
     </g>
     <g id="line2d_18">
      <g>
       <use xlink:href="#m966cddd96e" x="54.92" y="358.885455" style="stroke: #000000; stroke-width: 0.8"/>
      </g>
     </g>
     <g id="text_10">
      <!-- 0.2 -->
      <g transform="translate(32.016875 362.684673) scale(0.1 -0.1)">
       <use xlink:href="#DejaVuSans-30"/>
       <use xlink:href="#DejaVuSans-2e" transform="translate(63.623047 0)"/>
       <use xlink:href="#DejaVuSans-32" transform="translate(95.410156 0)"/>
      </g>
     </g>
    </g>
    <g id="ytick_3">
     <g id="line2d_19">
      <path d="M 54.92 282.121818 
L 709.2 282.121818 
" clip-path="url(#p5959398782)" style="fill: none; stroke-dasharray: 2.96,1.28; stroke-dashoffset: 0; stroke: #b0b0b0; stroke-opacity: 0.3; stroke-width: 0.8"/>
     </g>
     <g id="line2d_20">
      <g>
       <use xlink:href="#m966cddd96e" x="54.92" y="282.121818" style="stroke: #000000; stroke-width: 0.8"/>
      </g>
     </g>
     <g id="text_11">
      <!-- 0.4 -->
      <g transform="translate(32.016875 285.921037) scale(0.1 -0.1)">
       <defs>
        <path id="DejaVuSans-34" d="M 2419 4116 
L 825 1625 
L 2419 1625 
L 2419 4116 
z
M 2253 4666 
L 3047 4666 
L 3047 1625 
L 3713 1625 
L 3713 1100 
L 3047 1100 
L 3047 0 
L 2419 0 
L 2419 1100 
L 313 1100 
L 313 1709 
L 2253 4666 
z
" transform="scale(0.015625)"/>
       </defs>
       <use xlink:href="#DejaVuSans-30"/>
       <use xlink:href="#DejaVuSans-2e" transform="translate(63.623047 0)"/>
       <use xlink:href="#DejaVuSans-34" transform="translate(95.410156 0)"/>
      </g>
     </g>
    </g>
    <g id="ytick_4">
     <g id="line2d_21">
      <path d="M 54.92 205.358182 
L 709.2 205.358182 
" clip-path="url(#p5959398782)" style="fill: none; stroke-dasharray: 2.96,1.28; stroke-dashoffset: 0; stroke: #b0b0b0; stroke-opacity: 0.3; stroke-width: 0.8"/>
     </g>
     <g id="line2d_22">
      <g>
       <use xlink:href="#m966cddd96e" x="54.92" y="205.358182" style="stroke: #000000; stroke-width: 0.8"/>
      </g>
     </g>
     <g id="text_12">
      <!-- 0.6 -->
      <g transform="translate(32.016875 209.157401) scale(0.1 -0.1)">
       <defs>
        <path id="DejaVuSans-36" d="M 2113 2584 
Q 1688 2584 1439 2293 
Q 1191 2003 1191 1497 
Q 1191 994 1439 701 
Q 1688 409 2113 409 
Q 2538 409 2786 701 
Q 3034 994 3034 1497 
Q 3034 2003 2786 2293 
Q 2538 2584 2113 2584 
z
M 3366 4563 
L 3366 3988 
Q 3128 4100 2886 4159 
Q 2644 4219 2406 4219 
Q 1781 4219 1451 3797 
Q 1122 3375 1075 2522 
Q 1259 2794 1537 2939 
Q 1816 3084 2150 3084 
Q 2853 3084 3261 2657 
Q 3669 2231 3669 1497 
Q 3669 778 3244 343 
Q 2819 -91 2113 -91 
Q 1303 -91 875 529 
Q 447 1150 447 2328 
Q 447 3434 972 4092 
Q 1497 4750 2381 4750 
Q 2619 4750 2861 4703 
Q 3103 4656 3366 4563 
z
" transform="scale(0.015625)"/>
       </defs>
       <use xlink:href="#DejaVuSans-30"/>
       <use xlink:href="#DejaVuSans-2e" transform="translate(63.623047 0)"/>
       <use xlink:href="#DejaVuSans-36" transform="translate(95.410156 0)"/>
      </g>
     </g>
    </g>
    <g id="ytick_5">
     <g id="line2d_23">
      <path d="M 54.92 128.594545 
L 709.2 128.594545 
" clip-path="url(#p5959398782)" style="fill: none; stroke-dasharray: 2.96,1.28; stroke-dashoffset: 0; stroke: #b0b0b0; stroke-opacity: 0.3; stroke-width: 0.8"/>
     </g>
     <g id="line2d_24">
      <g>
       <use xlink:href="#m966cddd96e" x="54.92" y="128.594545" style="stroke: #000000; stroke-width: 0.8"/>
      </g>
     </g>
     <g id="text_13">
      <!-- 0.8 -->
      <g transform="translate(32.016875 132.393764) scale(0.1 -0.1)">
       <defs>
        <path id="DejaVuSans-38" d="M 2034 2216 
Q 1584 2216 1326 1975 
Q 1069 1734 1069 1313 
Q 1069 891 1326 650 
Q 1584 409 2034 409 
Q 2484 409 2743 651 
Q 3003 894 3003 1313 
Q 3003 1734 2745 1975 
Q 2488 2216 2034 2216 
z
M 1403 2484 
Q 997 2584 770 2862 
Q 544 3141 544 3541 
Q 544 4100 942 4425 
Q 1341 4750 2034 4750 
Q 2731 4750 3128 4425 
Q 3525 4100 3525 3541 
Q 3525 3141 3298 2862 
Q 3072 2584 2669 2484 
Q 3125 2378 3379 2068 
Q 3634 1759 3634 1313 
Q 3634 634 3220 271 
Q 2806 -91 2034 -91 
Q 1263 -91 848 271 
Q 434 634 434 1313 
Q 434 1759 690 2068 
Q 947 2378 1403 2484 
z
M 1172 3481 
Q 1172 3119 1398 2916 
Q 1625 2713 2034 2713 
Q 2441 2713 2670 2916 
Q 2900 3119 2900 3481 
Q 2900 3844 2670 4047 
Q 2441 4250 2034 4250 
Q 1625 4250 1398 4047 
Q 1172 3844 1172 3481 
z
" transform="scale(0.015625)"/>
       </defs>
       <use xlink:href="#DejaVuSans-30"/>
       <use xlink:href="#DejaVuSans-2e" transform="translate(63.623047 0)"/>
       <use xlink:href="#DejaVuSans-38" transform="translate(95.410156 0)"/>
      </g>
     </g>
    </g>
    <g id="ytick_6">
     <g id="line2d_25">
      <path d="M 54.92 51.830909 
L 709.2 51.830909 
" clip-path="url(#p5959398782)" style="fill: none; stroke-dasharray: 2.96,1.28; stroke-dashoffset: 0; stroke: #b0b0b0; stroke-opacity: 0.3; stroke-width: 0.8"/>
     </g>
     <g id="line2d_26">
      <g>
       <use xlink:href="#m966cddd96e" x="54.92" y="51.830909" style="stroke: #000000; stroke-width: 0.8"/>
      </g>
     </g>
     <g id="text_14">
      <!-- 1.0 -->
      <g transform="translate(32.016875 55.630128) scale(0.1 -0.1)">
       <use xlink:href="#DejaVuSans-31"/>
       <use xlink:href="#DejaVuSans-2e" transform="translate(63.623047 0)"/>
       <use xlink:href="#DejaVuSans-30" transform="translate(95.410156 0)"/>
      </g>
     </g>
    </g>
    <g id="text_15">
     <!-- CDF -->
     <g transform="translate(24.273438 262.130938) rotate(-90) scale(0.18 -0.18)">
      <defs>
       <path id="DejaVuSans-43" d="M 4122 4306 
L 4122 3641 
Q 3803 3938 3442 4084 
Q 3081 4231 2675 4231 
Q 1875 4231 1450 3742 
Q 1025 3253 1025 2328 
Q 1025 1406 1450 917 
Q 1875 428 2675 428 
Q 3081 428 3442 575 
Q 3803 722 4122 1019 
L 4122 359 
Q 3791 134 3420 21 
Q 3050 -91 2638 -91 
Q 1578 -91 968 557 
Q 359 1206 359 2328 
Q 359 3453 968 4101 
Q 1578 4750 2638 4750 
Q 3056 4750 3426 4639 
Q 3797 4528 4122 4306 
z
" transform="scale(0.015625)"/>
       <path id="DejaVuSans-44" d="M 1259 4147 
L 1259 519 
L 2022 519 
Q 2988 519 3436 956 
Q 3884 1394 3884 2338 
Q 3884 3275 3436 3711 
Q 2988 4147 2022 4147 
L 1259 4147 
z
M 628 4666 
L 1925 4666 
Q 3281 4666 3915 4102 
Q 4550 3538 4550 2338 
Q 4550 1131 3912 565 
Q 3275 0 1925 0 
L 628 0 
L 628 4666 
z
" transform="scale(0.015625)"/>
       <path id="DejaVuSans-46" d="M 628 4666 
L 3309 4666 
L 3309 4134 
L 1259 4134 
L 1259 2759 
L 3109 2759 
L 3109 2228 
L 1259 2228 
L 1259 0 
L 628 0 
L 628 4666 
z
" transform="scale(0.015625)"/>
      </defs>
      <use xlink:href="#DejaVuSans-43"/>
      <use xlink:href="#DejaVuSans-44" transform="translate(69.824219 0)"/>
      <use xlink:href="#DejaVuSans-46" transform="translate(146.826172 0)"/>
     </g>
    </g>
   </g>
   <g id="line2d_27">
    <path d="M 98.531383 435.649091 
L 99.183095 435.438318 
L 99.29876 434.173678 
L 100.137102 433.962904 
L 112.765329 432.487491 
L 133.579194 431.433625 
L 137.274074 431.222852 
L 138.91578 431.012078 
L 139.444522 430.590532 
L 139.512338 430.168985 
L 140.206762 429.958212 
L 140.241395 429.747438 
L 141.497558 429.325892 
L 142.018961 429.115119 
L 142.02387 428.904345 
L 144.749485 428.061252 
L 145.111626 427.639705 
L 145.542633 427.428932 
L 148.322994 426.585839 
L 148.671208 426.375066 
L 148.79732 425.953519 
L 148.850932 425.321199 
L 149.164364 425.110426 
L 149.394105 424.478106 
L 149.450731 424.056559 
L 149.643399 423.845786 
L 150.127539 421.105733 
L 150.257249 420.89496 
L 150.55446 420.684187 
L 150.560019 420.473413 
L 151.120751 420.051867 
L 151.352864 419.841093 
L 151.993368 419.63032 
L 152.547061 419.208773 
L 154.580558 418.154907 
L 155.573631 417.944134 
L 155.665505 417.73336 
L 156.918374 417.522587 
L 157.381224 416.890267 
L 158.532032 416.679494 
L 159.025114 416.46872 
L 160.454508 416.257947 
L 160.778752 416.047174 
L 160.861051 415.836401 
L 162.182072 415.414854 
L 163.819986 415.204081 
L 163.916422 414.993307 
L 164.767179 414.782534 
L 165.501101 414.360987 
L 168.624065 413.517894 
L 168.783875 413.096348 
L 169.842496 412.885574 
L 171.702215 412.674801 
L 173.137468 412.042481 
L 174.813436 411.831708 
L 174.938159 411.620935 
L 176.609713 411.199388 
L 177.551576 410.988615 
L 177.739714 410.777841 
L 180.454135 410.356295 
L 180.918548 409.934748 
L 183.92009 409.302428 
L 184.311793 409.091655 
L 184.413812 408.880882 
L 187.707826 408.248562 
L 187.730733 408.037788 
L 188.815976 407.616242 
L 190.721307 407.405469 
L 190.82337 407.194695 
L 192.133998 406.983922 
L 192.395246 406.773149 
L 194.42632 406.562375 
L 194.770403 406.351602 
L 195.776687 406.140829 
L 195.864272 405.930055 
L 198.123385 405.719282 
L 199.75149 405.086962 
L 201.451958 404.876189 
L 202.600371 404.454642 
L 205.171135 403.822322 
L 205.921918 403.611549 
L 208.400026 403.190002 
L 209.358279 402.768456 
L 210.974735 402.557683 
L 212.857395 401.925363 
L 214.410348 401.714589 
L 215.327355 401.293043 
L 218.043682 400.871496 
L 218.220401 400.660723 
L 218.878324 400.44995 
L 220.527877 400.239176 
L 220.655679 400.028403 
L 222.446142 399.606856 
L 223.964278 399.396083 
L 224.187064 399.18531 
L 225.787396 398.763763 
L 227.862477 398.55299 
L 228.774675 398.131443 
L 229.278959 397.92067 
L 232.12677 397.499123 
L 232.495597 397.28835 
L 234.239479 397.077577 
L 234.561194 396.866803 
L 234.604215 396.65603 
L 235.844969 396.445257 
L 237.796809 396.234484 
L 237.866839 396.02371 
L 241.553143 395.180617 
L 241.579398 394.969844 
L 242.03912 394.548297 
L 243.836455 394.126751 
L 245.383225 393.915977 
L 245.38473 393.705204 
L 245.991452 393.494431 
L 247.971415 393.283657 
L 248.139842 393.072884 
L 248.770451 392.862111 
L 252.819194 392.019018 
L 253.049884 391.808244 
L 253.706725 391.597471 
L 256.487562 391.175924 
L 256.819465 390.965151 
L 263.482461 389.278965 
L 263.604412 389.068191 
L 266.058675 388.857418 
L 266.215927 388.435871 
L 266.761409 388.225098 
L 269.236557 387.803551 
L 269.788204 387.592778 
L 269.820566 387.382005 
L 270.097976 387.171232 
L 270.876178 386.960458 
L 270.969028 386.749685 
L 271.506831 386.328138 
L 272.783935 386.117365 
L 272.900335 385.695818 
L 273.02858 385.485045 
L 275.151953 385.274272 
L 276.120997 384.641952 
L 277.468073 384.431179 
L 279.850546 383.377312 
L 280.717276 383.166539 
L 280.852074 382.955766 
L 281.865441 382.744992 
L 281.938275 382.534219 
L 282.937997 382.323446 
L 283.143437 382.112672 
L 283.865194 381.901899 
L 283.881478 381.691126 
L 284.899648 381.480352 
L 285.249389 381.058806 
L 285.752297 380.848033 
L 285.932725 380.426486 
L 286.931674 379.583393 
L 287.043533 378.951073 
L 287.228526 378.529526 
L 288.060409 375.789473 
L 288.303241 375.5787 
L 288.358648 375.367927 
L 288.585339 374.94638 
L 289.391022 373.260194 
L 289.672346 372.4171 
L 289.951005 372.206327 
L 289.992866 371.784781 
L 290.422548 371.363234 
L 290.577811 370.941687 
L 291.053051 370.520141 
L 291.063203 370.309367 
L 291.625225 369.466274 
L 292.21083 367.780088 
L 293.225689 366.936995 
L 293.62483 366.515448 
L 293.87469 366.304675 
L 294.380073 366.093901 
L 294.389871 365.883128 
L 295.997629 364.196942 
L 296.118495 363.564622 
L 296.316321 363.353849 
L 296.424421 362.510755 
L 296.538524 362.089209 
L 296.651749 361.035342 
L 296.746055 360.613796 
L 296.834747 359.770702 
L 296.922881 359.349156 
L 297.101403 358.295289 
L 297.363505 356.609103 
L 297.507919 356.187556 
L 297.833101 354.079823 
L 298.062474 353.86905 
L 298.126998 353.447503 
L 298.621584 353.23673 
L 298.899477 352.60441 
L 299.349552 352.393637 
L 299.351732 351.97209 
L 299.532984 351.761317 
L 299.620188 351.33977 
L 300.144733 350.70745 
L 300.50126 350.496677 
L 301.445935 348.599717 
L 301.655158 347.545851 
L 301.761118 347.335078 
L 302.76993 346.491984 
L 303.150931 346.281211 
L 303.165952 346.070438 
L 303.460466 345.859665 
L 303.517692 345.648891 
L 303.831734 345.227345 
L 304.020388 344.595025 
L 304.423811 344.173478 
L 304.881732 343.751932 
L 305.122638 343.330385 
L 305.471671 343.119612 
L 305.495742 342.908838 
L 305.860703 342.487292 
L 306.129329 341.854972 
L 306.384778 341.644198 
L 306.690987 341.011879 
L 307.445594 340.168785 
L 307.68434 339.747239 
L 307.799863 339.325692 
L 308.371567 338.693372 
L 308.540331 338.061052 
L 308.79439 337.639506 
L 308.876615 337.217959 
L 309.253019 336.585639 
L 309.259577 336.374866 
L 309.431326 336.164093 
L 309.45035 335.953319 
L 309.614666 335.742546 
L 310.248913 335.531773 
L 310.512395 335.320999 
L 310.593624 334.899453 
L 310.705852 334.05636 
L 310.814288 333.213266 
L 310.933224 331.948627 
L 311.139334 331.737853 
L 311.751409 331.52708 
L 312.178804 330.051667 
L 312.287316 329.419347 
L 312.518095 328.9978 
L 312.943373 325.836201 
L 313.062923 325.414654 
L 313.166286 323.728468 
L 313.405468 322.674601 
L 313.71042 319.723775 
L 313.858291 319.091455 
L 313.876413 318.669909 
L 314.156558 318.459135 
L 314.517097 316.983722 
L 314.609252 316.772949 
L 314.859798 316.562176 
L 316.796537 316.140629 
L 317.806506 315.929856 
L 317.817157 315.719082 
L 319.280175 315.508309 
L 320.322972 315.086763 
L 322.004797 314.665216 
L 322.463814 314.454443 
L 323.652293 314.243669 
L 324.028566 314.032896 
L 325.510875 313.822123 
L 325.736171 313.611349 
L 329.171161 312.97903 
L 329.236139 312.768256 
L 330.665428 312.557483 
L 331.00164 312.34671 
L 332.860934 312.135936 
L 333.11538 311.925163 
L 335.710029 311.503616 
L 336.515364 311.292843 
L 338.303677 311.08207 
L 338.985707 310.871296 
L 345.593432 309.606657 
L 345.912208 309.395883 
L 347.80188 309.18511 
L 349.626488 308.763563 
L 351.365105 308.55279 
L 351.378993 308.342017 
L 354.244358 307.92047 
L 354.914676 307.709697 
L 356.484826 307.498924 
L 356.746488 307.28815 
L 358.795949 307.077377 
L 359.115388 306.866604 
L 362.269396 306.445057 
L 362.385948 306.234284 
L 364.438158 306.023511 
L 364.731539 305.812737 
L 367.55292 305.391191 
L 368.185672 305.180417 
L 370.050082 304.969644 
L 370.402608 304.758871 
L 373.23019 304.337324 
L 376.305312 303.705004 
L 378.174317 303.494231 
L 378.760569 303.283458 
L 380.669136 303.072684 
L 381.020326 302.861911 
L 384.650893 302.440364 
L 385.001816 302.229591 
L 386.907012 302.018818 
L 387.196098 301.808045 
L 387.287371 301.597271 
L 387.781148 301.386498 
L 387.955255 301.175725 
L 388.461583 300.964951 
L 393.914387 299.911085 
L 397.731362 299.278765 
L 398.308861 299.067992 
L 400.254468 298.857218 
L 400.364682 298.646445 
L 402.493415 298.435672 
L 403.145979 298.224898 
L 405.781898 297.803352 
L 412.200453 296.538712 
L 412.348443 295.906392 
L 412.570847 295.695619 
L 412.582607 295.484845 
L 412.739979 295.274072 
L 412.84901 294.641752 
L 413.002151 294.220206 
L 413.340146 293.798659 
L 413.493011 293.377112 
L 413.66011 292.534019 
L 414.130607 291.480153 
L 414.517584 291.269379 
L 414.96544 290.426286 
L 415.002478 290.215513 
L 415.196252 290.00474 
L 415.310464 289.37242 
L 415.480802 288.950873 
L 415.714398 287.686233 
L 415.888315 287.47546 
L 416.092271 286.21082 
L 416.500755 283.892314 
L 416.751104 283.259994 
L 416.825789 282.838447 
L 417.039592 282.627674 
L 417.047283 282.206128 
L 424.737147 280.730714 
L 426.321553 280.519941 
L 426.561723 280.309168 
L 428.603431 280.098394 
L 428.871663 279.887621 
L 431.250427 279.676848 
L 432.945632 279.255301 
L 434.644896 279.044528 
L 434.996142 278.833755 
L 437.38246 278.412208 
L 438.306001 278.201435 
L 440.042467 277.990661 
L 440.108647 277.779888 
L 447.638441 276.093702 
L 447.72934 275.882928 
L 449.66439 275.461382 
L 450.275899 275.250609 
L 451.251168 275.039835 
L 451.499831 274.829062 
L 452.734257 274.618289 
L 452.81453 274.407515 
L 454.140267 273.985969 
L 454.334603 273.775195 
L 454.7083 273.564422 
L 454.816952 273.142876 
L 455.061816 272.932102 
L 455.200326 272.299782 
L 455.651212 271.667462 
L 455.73376 271.245916 
L 456.11933 271.035143 
L 456.148257 270.824369 
L 456.711354 269.981276 
L 457.043784 268.716636 
L 457.372947 267.66277 
L 457.562881 266.608903 
L 457.805018 266.187357 
L 457.983677 265.344263 
L 458.211431 264.922717 
L 458.319348 263.86885 
L 458.626599 263.447304 
L 459.375184 262.393437 
L 459.405659 262.182664 
L 459.678841 261.971891 
L 460.358331 261.550344 
L 460.570888 261.339571 
L 460.574992 261.128797 
L 460.736092 260.918024 
L 461.157739 260.707251 
L 461.296962 260.496477 
L 462.219817 260.285704 
L 462.282625 259.864158 
L 462.999646 259.653384 
L 463.500848 259.231838 
L 463.532853 259.021064 
L 463.917445 258.599518 
L 464.031647 258.177971 
L 464.051016 257.756425 
L 464.19007 257.334878 
L 464.26943 256.913331 
L 464.555638 256.491785 
L 464.672434 255.859465 
L 464.901283 255.437918 
L 465.042098 254.594825 
L 465.452211 254.173278 
L 465.602502 253.751732 
L 465.726335 253.330185 
L 466.119303 252.908639 
L 466.86694 252.487092 
L 467.236342 252.065545 
L 467.297546 251.854772 
L 468.150941 251.643999 
L 468.271369 251.222452 
L 469.260723 251.011679 
L 469.541665 250.590132 
L 470.861299 250.379359 
L 471.621893 249.957812 
L 472.911596 249.325492 
L 472.931971 249.114719 
L 473.245992 248.903946 
L 473.361751 248.482399 
L 473.604718 247.217759 
L 474.147317 246.374666 
L 474.169766 246.163893 
L 474.648913 245.531573 
L 474.717433 245.110026 
L 475.145282 244.266933 
L 475.40176 243.213067 
L 475.528332 242.580747 
L 476.370756 237.522188 
L 476.571138 237.100641 
L 476.769749 236.046774 
L 476.856937 235.625228 
L 476.87306 235.414455 
L 477.121362 234.992908 
L 477.25236 234.360588 
L 477.34683 234.149815 
L 477.826278 233.939041 
L 478.06171 233.517495 
L 478.250398 232.885175 
L 478.531323 232.042082 
L 478.786002 231.831308 
L 478.979138 230.988215 
L 479.233072 230.145122 
L 481.499268 227.194296 
L 481.732576 226.561976 
L 481.742922 226.351203 
L 482.148647 226.140429 
L 482.343896 225.508109 
L 482.783602 225.297336 
L 482.84686 225.086563 
L 483.039348 224.87579 
L 483.075264 224.454243 
L 483.203544 224.032696 
L 483.604527 223.821923 
L 483.810158 223.400376 
L 484.672179 222.97883 
L 484.808279 222.768057 
L 485.502874 222.557283 
L 485.837702 221.71419 
L 486.27584 221.292643 
L 486.450052 220.44955 
L 486.765813 220.238777 
L 487.035035 219.18491 
L 487.987915 218.55259 
L 488.010438 218.341817 
L 488.35937 218.131044 
L 489.178936 217.920271 
L 489.246072 217.709497 
L 489.937072 217.287951 
L 489.969668 217.077177 
L 490.996213 216.444857 
L 491.911546 216.234084 
L 492.451487 215.812538 
L 492.461523 215.601764 
L 494.306032 214.969444 
L 494.572683 214.758671 
L 495.267668 214.547898 
L 495.330239 214.126351 
L 495.936963 213.915578 
L 496.020897 213.283258 
L 496.335577 213.072485 
L 496.383746 212.861711 
L 496.792381 212.440165 
L 496.820938 212.229391 
L 497.539859 211.175525 
L 497.97724 210.964752 
L 498.003059 210.753978 
L 498.649735 210.332432 
L 498.875849 209.910885 
L 499.030722 209.489339 
L 499.673755 209.067792 
L 499.674321 208.857019 
L 500.35446 208.646245 
L 501.016614 207.803152 
L 501.138189 207.592379 
L 502.486931 206.538512 
L 502.929838 206.327739 
L 503.004746 205.906192 
L 503.303189 205.695419 
L 503.404809 205.273872 
L 503.604268 204.641553 
L 504.361254 203.798459 
L 504.390137 203.587686 
L 504.897517 202.744593 
L 504.923358 202.53382 
L 505.144165 202.323046 
L 505.265057 201.9015 
L 505.694676 201.690726 
L 505.75926 201.26918 
L 506.204565 200.847633 
L 506.521258 200.215313 
L 506.88181 199.793767 
L 506.898826 199.582993 
L 507.266352 199.37222 
L 509.138722 198.7399 
L 509.469692 198.318354 
L 509.923768 198.10758 
L 509.94697 197.896807 
L 511.329464 197.686034 
L 511.597363 197.053714 
L 511.828246 196.84294 
L 513.146567 196.632167 
L 513.552353 196.210621 
L 513.562546 195.999847 
L 515.043174 195.789074 
L 515.044771 195.578301 
L 515.718982 195.156754 
L 515.828551 194.945981 
L 516.145248 194.735207 
L 517.203551 194.524434 
L 517.779795 193.681341 
L 518.478763 193.470568 
L 518.742744 193.049021 
L 520.073571 192.627474 
L 520.080074 192.416701 
L 522.092501 191.573608 
L 522.35842 191.362835 
L 523.166744 191.152061 
L 523.263477 190.941288 
L 526.417966 189.044328 
L 527.318371 188.833555 
L 528.76675 187.990462 
L 529.024113 187.779688 
L 530.009784 187.358142 
L 530.481727 186.936595 
L 531.359715 186.725822 
L 531.719453 186.515049 
L 531.772109 186.304275 
L 532.719073 186.093502 
L 532.946181 185.882729 
L 532.957166 185.671955 
L 534.615901 185.250409 
L 535.156721 184.828862 
L 535.199662 184.407316 
L 535.494881 183.985769 
L 537.058346 183.564222 
L 537.26687 183.142676 
L 538.358448 182.931903 
L 538.397344 182.721129 
L 538.56943 182.510356 
L 539.742508 182.088809 
L 539.851219 181.878036 
L 540.809627 181.667263 
L 541.142101 181.456489 
L 541.252588 181.245716 
L 542.169888 180.613396 
L 542.94787 180.402623 
L 542.953995 180.19185 
L 545.429932 178.92721 
L 545.870899 178.29489 
L 546.410715 178.084117 
L 546.577201 177.873343 
L 548.113946 177.451797 
L 548.303191 177.241023 
L 548.398459 176.819477 
L 549.297974 176.608704 
L 550.784814 175.76561 
L 553.880976 174.922517 
L 553.946937 174.711744 
L 555.545588 174.290197 
L 556.025601 173.868651 
L 556.538535 172.393237 
L 557.478076 171.971691 
L 557.649606 171.760918 
L 559.804898 171.339371 
L 560.557917 171.128598 
L 561.817114 170.917824 
L 562.519315 170.496278 
L 563.5286 170.285504 
L 563.769186 170.074731 
L 563.858906 169.653185 
L 564.101036 169.442411 
L 564.219119 168.810091 
L 564.345779 168.388545 
L 564.753116 168.177771 
L 567.149975 167.756225 
L 568.264215 167.334678 
L 568.48175 166.913132 
L 568.855935 166.702358 
L 569.596757 166.491585 
L 569.943582 166.070038 
L 570.051041 164.805399 
L 570.423179 164.594625 
L 571.254367 164.383852 
L 573.24784 163.119212 
L 573.749377 162.276119 
L 573.997125 162.065346 
L 574.101646 161.643799 
L 574.298036 159.536066 
L 574.835312 158.692973 
L 574.844027 158.4822 
L 575.200957 158.060653 
L 575.657656 157.006786 
L 576.132901 156.374467 
L 576.172495 156.163693 
L 576.325297 155.95292 
L 576.61688 155.742147 
L 576.646061 155.531373 
L 577.420457 154.68828 
L 577.44483 154.477507 
L 577.712031 154.05596 
L 577.765949 153.634414 
L 578.252382 153.212867 
L 578.267362 153.002094 
L 578.790193 152.159001 
L 578.807352 151.948227 
L 579.886557 150.683587 
L 579.943499 150.472814 
L 580.403778 150.051268 
L 580.615656 149.418948 
L 581.218107 148.575854 
L 581.222428 148.365081 
L 581.339443 148.154308 
L 581.603051 147.943535 
L 581.772501 147.311215 
L 581.954678 147.100441 
L 582.036055 146.468121 
L 582.275259 145.625028 
L 582.348384 145.203482 
L 582.652427 144.781935 
L 583.094202 144.571162 
L 583.164015 144.360388 
L 583.795672 144.149615 
L 583.95849 143.938842 
L 584.556201 143.728068 
L 584.799969 142.041882 
L 585.098683 139.723376 
L 585.316171 136.983323 
L 585.460354 135.929456 
L 586.006151 132.557084 
L 586.06581 132.135537 
L 586.201121 131.71399 
L 586.258518 131.292444 
L 586.435166 130.870897 
L 586.745318 129.606257 
L 586.987026 128.341617 
L 587.183444 127.076978 
L 587.378764 126.655431 
L 587.534608 125.601565 
L 587.770116 125.390791 
L 587.851398 124.969245 
L 587.938853 124.547698 
L 588.451192 121.386099 
L 588.647258 120.964552 
L 589.171194 118.224499 
L 589.248433 117.802952 
L 589.400054 113.16594 
L 589.565325 108.7397 
L 589.67633 107.475061 
L 589.725147 106.842741 
L 589.883784 106.631967 
L 589.943749 105.788874 
L 590.051173 105.367328 
L 590.223571 103.470368 
L 590.363319 102.416501 
L 590.381835 101.994955 
L 590.673785 101.784182 
L 590.683693 101.573408 
L 591.10267 100.941088 
L 591.424592 100.097995 
L 591.654084 99.887222 
L 591.869343 99.044129 
L 592.758837 97.357942 
L 593.232888 97.147169 
L 593.463322 96.093302 
L 593.633255 95.671756 
L 593.685481 95.250209 
L 593.859939 94.828663 
L 594.30855 91.877836 
L 594.373048 91.45629 
L 594.507943 91.034743 
L 594.581095 90.19165 
L 594.641358 89.55933 
L 594.72001 88.505464 
L 595.335771 85.765411 
L 595.40358 84.711544 
L 595.569306 84.289998 
L 595.892663 82.603811 
L 596.004458 82.182264 
L 596.400919 79.652985 
L 596.465149 79.231438 
L 596.570783 78.599118 
L 596.987713 76.912932 
L 597.219563 76.069839 
L 597.322555 75.437519 
L 597.352871 75.015972 
L 597.543686 74.594426 
L 597.735464 73.329786 
L 597.819706 72.908239 
L 597.857077 72.065146 
L 597.982704 71.643599 
L 598.067211 71.222053 
L 598.240334 69.957413 
L 598.549803 67.638907 
L 598.866307 66.374267 
L 599.058141 66.163494 
L 599.176316 65.3204 
L 599.269197 64.898854 
L 599.509332 63.423441 
L 600.651194 57.943335 
L 600.756925 57.732562 
L 602.942799 56.467922 
L 603.116158 56.257148 
L 603.460988 56.046375 
L 603.539573 55.835602 
L 604.648491 54.570962 
L 604.721357 54.149415 
L 605.115979 52.463229 
L 605.234194 52.041682 
L 605.234801 51.830909 
L 605.234801 51.830909 
" clip-path="url(#p5959398782)" style="fill: none; stroke: #0072b2; stroke-width: 2.8; stroke-linecap: square"/>
   </g>
   <g id="line2d_28">
    <path d="M 98.445861 435.649091 
L 98.542483 433.644818 
L 98.594803 427.632001 
L 98.962507 427.130933 
L 99.227098 413.602094 
L 100.31051 412.599957 
L 101.822444 410.595685 
L 102.473021 409.593549 
L 103.103167 409.09248 
L 104.890852 406.086072 
L 105.919822 405.585004 
L 106.871423 404.081799 
L 108.912242 401.576459 
L 109.174838 401.07539 
L 109.646514 400.574322 
L 110.888362 400.073254 
L 112.817308 397.567914 
L 113.619827 397.066845 
L 114.720667 396.565777 
L 118.192171 396.064709 
L 121.236603 394.561505 
L 126.169914 391.555096 
L 127.918851 390.55296 
L 128.615391 390.051892 
L 130.410523 389.049756 
L 131.902047 388.047619 
L 133.918618 387.546551 
L 134.447645 387.045483 
L 140.530299 383.036938 
L 142.172549 382.034802 
L 142.720961 381.533734 
L 144.407465 380.531597 
L 147.355503 378.527325 
L 152.596588 375.520916 
L 155.041069 375.019848 
L 157.334483 373.516644 
L 159.10787 372.514507 
L 160.38582 371.512371 
L 163.541568 369.508099 
L 166.046992 368.004894 
L 168.632864 366.50169 
L 170.943757 364.998486 
L 177.994108 360.488873 
L 180.368094 359.987804 
L 181.892952 358.985668 
L 185.114791 356.981396 
L 187.345957 355.478191 
L 188.130429 354.977123 
L 190.451425 354.476055 
L 193.364137 352.471783 
L 194.15074 351.970714 
L 196.34457 351.469646 
L 200.7098 348.463238 
L 203.08932 347.962169 
L 205.594953 346.458965 
L 209.478672 343.953624 
L 210.880086 342.951488 
L 212.014238 341.949352 
L 214.206737 341.448284 
L 215.770348 340.446148 
L 218.047549 339.94508 
L 219.364071 338.942943 
L 220.693667 337.940807 
L 222.784086 336.437603 
L 223.906765 335.435466 
L 224.722119 334.934398 
L 225.843805 333.932262 
L 227.071944 332.930126 
L 229.110718 332.429058 
L 230.92237 330.925853 
L 234.155965 330.424785 
L 238.272149 327.418376 
L 240.389657 326.917308 
L 244.198955 324.411968 
L 246.498446 323.9109 
L 248.008517 322.908763 
L 250.239887 322.407695 
L 253.735201 319.902355 
L 256.017264 319.401286 
L 256.978894 318.39915 
L 258.278432 317.397014 
L 261.268995 315.392742 
L 263.526294 314.891673 
L 264.999013 313.889537 
L 266.985464 313.388469 
L 267.916599 312.386333 
L 270.518638 310.38206 
L 273.532017 307.87672 
L 276.119375 305.872447 
L 280.390043 302.36497 
L 281.147216 301.863902 
L 282.823667 300.360698 
L 285.1813 298.356425 
L 286.316451 297.354289 
L 288.137117 296.853221 
L 288.661065 296.352153 
L 290.282368 295.851085 
L 290.771971 295.350017 
L 291.087154 294.848948 
L 292.441116 293.846812 
L 293.648325 292.844676 
L 295.42934 291.341472 
L 297.05486 290.840404 
L 298.91988 288.836131 
L 301.140966 288.335063 
L 303.181731 286.33079 
L 305.733044 285.829722 
L 309.144046 284.827586 
L 313.625236 280.819041 
L 314.599934 279.816905 
L 316.459305 279.315837 
L 317.208457 278.3137 
L 318.10363 277.311564 
L 319.774803 276.810496 
L 320.133975 276.309428 
L 320.890924 273.804087 
L 321.343663 272.801951 
L 322.124502 272.300883 
L 322.401267 271.799815 
L 322.439741 271.298747 
L 322.760605 270.797679 
L 323.023929 269.795542 
L 323.600424 268.793406 
L 324.462769 267.79127 
L 325.043372 266.789134 
L 326.363273 266.288066 
L 327.475567 265.285929 
L 327.877335 264.784861 
L 329.180038 264.283793 
L 329.810523 263.782725 
L 330.419081 262.780589 
L 330.520199 262.279521 
L 331.474871 260.776316 
L 332.479321 259.77418 
L 335.746482 255.765635 
L 338.322772 255.264567 
L 338.85744 254.262431 
L 339.236558 253.761362 
L 341.253317 253.260294 
L 341.495253 252.759226 
L 342.261979 252.258158 
L 344.208794 251.75709 
L 344.520883 251.256022 
L 345.299912 250.253886 
L 346.127039 249.251749 
L 347.430145 248.750681 
L 349.58196 248.249613 
L 350.387315 247.247477 
L 351.413682 246.245341 
L 352.501388 244.742136 
L 353.432122 243.238932 
L 353.782054 242.737864 
L 354.506423 242.236796 
L 357.853737 237.727183 
L 359.651702 237.226114 
L 359.993255 236.725046 
L 361.471782 236.223978 
L 362.32261 235.221842 
L 363.646742 234.720774 
L 364.374317 234.219706 
L 364.775034 233.718638 
L 365.863002 233.217569 
L 366.535844 232.215433 
L 367.803839 230.712229 
L 368.264711 230.211161 
L 369.636479 229.710093 
L 369.943158 229.209024 
L 370.980876 228.707956 
L 371.621317 227.70582 
L 372.063655 227.204752 
L 372.787123 226.703684 
L 373.239026 226.202616 
L 374.525263 225.701548 
L 375.113796 224.699411 
L 375.961244 223.697275 
L 378.258081 221.191934 
L 379.013454 220.189798 
L 381.451969 217.684458 
L 383.348493 217.18339 
L 383.758805 216.682321 
L 384.018844 216.181253 
L 385.818991 214.176981 
L 386.608056 213.174845 
L 387.922298 212.673776 
L 389.170134 211.170572 
L 390.619964 210.669504 
L 391.613826 209.667368 
L 394.092311 207.162027 
L 394.963097 206.159891 
L 395.627345 205.658823 
L 397.474299 203.65455 
L 398.758588 203.153482 
L 399.552988 202.151346 
L 400.990903 201.650278 
L 402.617344 199.646005 
L 403.048013 199.144937 
L 405.445823 198.643869 
L 405.683588 198.142801 
L 406.210827 197.641733 
L 407.436611 197.140665 
L 408.260487 196.138528 
L 409.067847 195.136392 
L 411.299342 194.635324 
L 411.80049 194.134256 
L 412.135298 193.633188 
L 413.529052 193.13212 
L 414.527185 192.129983 
L 415.472342 190.626779 
L 417.559246 188.121438 
L 418.950155 187.62037 
L 420.824226 185.11503 
L 421.42806 184.613962 
L 421.802018 184.112893 
L 424.308611 183.611825 
L 424.754721 183.110757 
L 427.354076 182.108621 
L 427.638443 181.607553 
L 428.558271 180.605417 
L 429.381635 179.102212 
L 429.483051 178.601144 
L 429.981 177.599008 
L 430.75098 177.09794 
L 432.04987 175.594735 
L 432.627304 175.093667 
L 432.908119 174.592599 
L 433.515315 174.091531 
L 433.894016 173.590463 
L 434.926408 172.588327 
L 438.227395 171.58619 
L 438.568058 171.085122 
L 438.628304 170.584054 
L 439.502908 170.082986 
L 439.509002 169.581918 
L 439.821945 169.08085 
L 439.976439 168.579782 
L 439.995948 168.078714 
L 440.243842 167.577645 
L 440.661983 167.076577 
L 441.372588 166.575509 
L 442.77858 166.074441 
L 443.122844 163.5691 
L 447.085556 162.566964 
L 448.481428 161.06376 
L 448.809222 160.562692 
L 448.97373 160.061624 
L 450.676198 159.560555 
L 451.410476 159.059487 
L 452.821956 158.558419 
L 454.575613 158.057351 
L 460.746391 157.556283 
L 461.416165 157.055215 
L 462.368334 156.554147 
L 463.573039 155.55201 
L 464.090041 155.050942 
L 464.991903 154.549874 
L 465.664581 154.048806 
L 466.135797 153.547738 
L 466.391844 152.044534 
L 466.676039 149.539193 
L 466.730266 148.537057 
L 467.459321 148.035989 
L 467.816548 147.53492 
L 468.434281 147.033852 
L 471.567755 146.031716 
L 472.419289 145.530648 
L 475.211417 145.02958 
L 478.382687 143.025307 
L 480.414319 142.023171 
L 485.666292 141.522103 
L 485.687577 141.021035 
L 489.400751 140.018899 
L 489.748547 139.517831 
L 491.408979 139.016762 
L 493.594951 138.515694 
L 494.0874 138.014626 
L 495.136336 137.513558 
L 497.308989 136.010354 
L 497.97125 135.509286 
L 502.352386 135.008217 
L 503.009209 134.006081 
L 503.192559 133.003945 
L 503.468002 132.502877 
L 503.87512 132.001809 
L 504.506786 128.9954 
L 505.274934 127.993264 
L 505.501688 127.492196 
L 505.504037 126.991127 
L 505.831909 126.490059 
L 505.99788 125.988991 
L 512.251801 125.487923 
L 513.131998 124.485787 
L 513.812119 123.984719 
L 514.266307 123.483651 
L 515.53055 121.479378 
L 516.41669 120.477242 
L 517.236422 117.971901 
L 517.378956 115.967629 
L 517.843173 115.466561 
L 518.279244 114.464424 
L 518.339624 113.462288 
L 518.596335 112.96122 
L 519.341749 108.952675 
L 523.22388 108.451607 
L 523.487518 107.449471 
L 523.80204 106.948403 
L 527.023534 106.447334 
L 527.875029 105.946266 
L 528.085004 105.445198 
L 530.002129 104.94413 
L 530.877861 103.941994 
L 531.534164 102.939858 
L 533.741701 102.438789 
L 533.815955 101.937721 
L 534.508549 100.935585 
L 535.479526 99.933449 
L 537.747491 99.432381 
L 537.904421 98.931313 
L 539.009284 98.430244 
L 539.468846 97.929176 
L 539.51531 97.428108 
L 539.76003 96.92704 
L 545.193765 96.425972 
L 546.880892 95.924904 
L 547.842273 95.423836 
L 551.896129 93.920631 
L 553.420643 93.419563 
L 554.248298 92.918495 
L 557.112036 91.916359 
L 559.842724 90.914223 
L 560.595737 90.413155 
L 561.955437 89.912086 
L 562.656646 89.411018 
L 563.655503 88.90995 
L 564.881936 87.907814 
L 567.159976 87.406746 
L 570.234875 86.905678 
L 570.868889 86.40461 
L 571.805283 85.402473 
L 573.139147 84.400337 
L 573.659737 83.899269 
L 574.375126 82.897133 
L 575.003759 82.396065 
L 586.46674 81.894996 
L 586.783934 81.393928 
L 587.580593 80.89286 
L 596.789265 80.391792 
L 603.729724 79.890724 
L 604.697028 79.389656 
L 619.551491 78.888588 
L 620.14189 78.38752 
L 621.327271 77.886451 
L 622.895045 76.884315 
L 623.441325 76.383247 
L 624.224595 75.882179 
L 624.675571 75.381111 
L 624.952597 74.880043 
L 626.759814 72.87577 
L 628.954249 72.374702 
L 629.897059 71.372566 
L 630.934404 70.871498 
L 632.01226 69.368293 
L 633.742644 67.865089 
L 634.792069 66.862953 
L 636.875756 66.361885 
L 636.931277 65.860817 
L 637.801474 64.85868 
L 638.997108 63.856544 
L 640.066439 63.355476 
L 645.661691 62.854408 
L 646.820402 62.35334 
L 650.227799 61.852272 
L 654.473942 59.847999 
L 656.349077 58.845863 
L 658.451812 57.843727 
L 668.435269 57.342658 
L 669.619428 56.340522 
L 670.74489 55.338386 
L 671.468368 54.837318 
L 674.266988 54.33625 
L 674.286117 53.835182 
L 674.691961 53.334113 
L 677.47726 52.833045 
L 678.342192 52.331977 
L 679.46 51.830909 
L 679.46 51.830909 
" clip-path="url(#p5959398782)" style="fill: none; stroke-dasharray: 10.36,4.48; stroke-dashoffset: 0; stroke: #d55e00; stroke-width: 2.8"/>
   </g>
   <g id="line2d_29">
    <path d="M 84.66 435.649091 
L 85.295778 435.598579 
L 85.932536 435.480718 
L 86.018904 435.451253 
L 86.82878 435.299718 
L 87.498578 434.996647 
L 87.591218 434.929298 
L 88.055873 434.79039 
L 88.350644 434.706204 
L 88.626687 434.579924 
L 88.838863 434.36104 
L 89.068774 434.192667 
L 89.737856 433.447618 
L 90.007257 433.207687 
L 90.150771 433.047733 
L 91.124795 431.991194 
L 91.45442 431.679705 
L 91.897855 431.334541 
L 92.04596 431.183005 
L 92.292051 430.900981 
L 92.581999 430.564236 
L 92.732431 430.345351 
L 92.863945 430.22749 
L 94.751892 428.354344 
L 94.875839 428.004971 
L 95.034304 427.727156 
L 95.288035 427.247294 
L 95.353933 427.104177 
L 95.464403 426.910548 
L 95.767378 426.670617 
L 95.886084 426.544338 
L 96.184831 426.312825 
L 96.328545 426.144452 
L 96.59849 425.879265 
L 97.746728 424.633307 
L 98.308626 424.267097 
L 98.490476 423.968235 
L 98.65898 423.458908 
L 98.730782 423.26107 
L 98.899962 422.920115 
L 99.014497 422.654928 
L 99.137715 422.4613 
L 100.166697 420.655503 
L 100.387188 420.272455 
L 100.596293 419.944128 
L 101.983625 417.4017 
L 102.11336 417.170188 
L 102.350183 416.795559 
L 102.460845 416.513534 
L 102.728345 415.705345 
L 102.808897 415.448577 
L 103.60897 411.904332 
L 103.72866 411.491819 
L 103.935439 410.578397 
L 103.99914 410.414234 
L 104.230376 409.723905 
L 104.297994 409.547114 
L 104.421717 409.037787 
L 104.612764 408.545297 
L 104.844247 407.939155 
L 104.985183 407.53927 
L 105.041369 407.383525 
L 105.193125 406.865779 
L 105.260654 406.61322 
L 105.389048 406.137567 
L 105.46439 405.910264 
L 105.718845 405.156796 
L 105.824275 404.883191 
L 105.957395 404.462259 
L 106.016373 404.27284 
L 106.163687 403.822443 
L 106.224656 403.607767 
L 106.412919 402.610159 
L 106.507061 401.970343 
L 106.617123 401.263178 
L 106.68309 400.808571 
L 107.640772 393.151823 
L 107.698724 392.903473 
L 107.939745 391.548073 
L 107.989704 391.274468 
L 108.110482 390.76935 
L 108.551526 388.643644 
L 108.755038 387.204058 
L 108.878152 386.437962 
L 109.09722 385.246725 
L 109.75084 382.472785 
L 110.793849 374.912851 
L 110.923279 373.927871 
L 110.974941 373.603754 
L 112.511009 361.257826 
L 112.913656 357.890372 
L 113.039825 356.379227 
L 113.095818 355.697318 
L 113.269304 352.313026 
L 113.29618 351.631117 
L 113.755589 339.605097 
L 113.893856 335.096919 
L 114.592137 328.538802 
L 115.534959 321.307195 
L 115.980055 316.95897 
L 116.148402 315.102661 
L 116.268993 313.839866 
L 116.606788 309.920992 
L 116.751858 307.972078 
L 116.884087 305.905303 
L 117.65503 294.531728 
L 117.725197 293.782469 
L 118.403262 283.263385 
L 118.519919 281.596495 
L 118.620284 280.21163 
L 118.787669 278.098553 
L 118.833447 277.513458 
L 118.967397 275.741335 
L 119.396662 270.711201 
L 119.49411 269.574685 
L 120.325417 259.935348 
L 120.371423 259.388137 
L 120.496978 257.738085 
L 120.544603 257.009873 
L 120.681701 254.837865 
L 120.724699 254.122281 
L 121.503834 241.713214 
L 121.637347 239.116065 
L 121.666701 238.610947 
L 121.815061 235.251912 
L 121.962622 229.981846 
L 122.126612 224.526571 
L 122.697276 212.538435 
L 123.023607 194.623581 
L 123.230008 187.236229 
L 123.425025 179.284828 
L 123.457651 178.261964 
L 123.961255 171.207148 
L 124.000823 171.064032 
L 124.0558 170.782007 
L 124.228949 169.877004 
L 124.437483 168.479511 
L 124.523669 167.704996 
L 124.760272 165.625594 
L 125.008551 163.3694 
L 125.155554 161.807743 
L 125.354595 159.463153 
L 125.477412 157.956218 
L 126.924344 136.947515 
L 127.013586 136.126698 
L 127.321946 133.356967 
L 127.422885 132.645592 
L 127.659687 130.890307 
L 127.796393 129.917955 
L 128.036462 128.625694 
L 128.155186 128.276321 
L 128.467156 127.085084 
L 128.809592 125.367683 
L 129.052313 123.961771 
L 129.17719 123.195675 
L 129.379956 122.071787 
L 129.434081 121.777135 
L 129.557601 120.800573 
L 130.003114 117.757237 
L 130.058249 117.353143 
L 130.441277 113.383756 
L 130.56636 111.110725 
L 130.64296 109.591161 
L 130.99054 102.317461 
L 132.333411 92.543426 
L 132.408659 92.328751 
L 133.521765 90.089394 
L 133.677266 89.887347 
L 134.084963 89.50009 
L 134.24713 89.331717 
L 134.406568 89.175972 
L 135.075761 88.889739 
L 136.593068 88.068922 
L 136.694321 87.925805 
L 136.831116 87.757432 
L 137.05527 87.479618 
L 137.389451 87.151291 
L 137.554227 87.016593 
L 137.762688 86.91136 
L 138.389422 86.650382 
L 138.513992 86.570405 
L 138.808333 86.385195 
L 138.960608 86.124217 
L 139.394946 84.175303 
L 139.479506 83.70386 
L 139.687868 80.315359 
L 139.73434 79.267239 
L 139.927594 75.50411 
L 139.991378 74.847456 
L 140.131614 74.08557 
L 140.32567 73.660429 
L 141.716284 71.395816 
L 141.794258 71.227443 
L 142.0839 70.654976 
L 142.170547 70.503441 
L 145.178211 63.469671 
L 145.26594 63.297089 
L 145.383046 63.04453 
L 145.762047 62.177411 
L 145.996136 61.840666 
L 146.12788 61.625991 
L 147.936339 58.738399 
L 148.407765 58.519514 
L 148.528636 58.36377 
L 148.814385 58.085955 
L 149.094262 57.846024 
L 149.292536 57.639767 
L 149.435547 57.492441 
L 149.941843 57.12623 
L 150.059565 56.999951 
L 150.425903 56.536926 
L 150.565633 56.393809 
L 150.939582 56.065482 
L 152.525398 53.935568 
L 152.640938 53.750358 
L 152.746099 53.598822 
L 152.887497 53.342054 
L 152.96112 53.198937 
L 153.742958 52.167654 
L 154.461151 51.868793 
L 155.033071 51.830909 
L 155.033071 51.830909 
" clip-path="url(#p5959398782)" style="fill: none; stroke-dasharray: 17.92,4.48,2.8,4.48; stroke-dashoffset: 0; stroke: #009e73; stroke-width: 2.8"/>
   </g>
   <g id="patch_3">
    <path d="M 54.92 454.84 
L 54.92 32.64 
" style="fill: none; stroke: #000000; stroke-width: 0.8; stroke-linejoin: miter; stroke-linecap: square"/>
   </g>
   <g id="patch_4">
    <path d="M 709.2 454.84 
L 709.2 32.64 
" style="fill: none; stroke: #000000; stroke-width: 0.8; stroke-linejoin: miter; stroke-linecap: square"/>
   </g>
   <g id="patch_5">
    <path d="M 54.92 454.84 
L 709.2 454.84 
" style="fill: none; stroke: #000000; stroke-width: 0.8; stroke-linejoin: miter; stroke-linecap: square"/>
   </g>
   <g id="patch_6">
    <path d="M 54.92 32.64 
L 709.2 32.64 
" style="fill: none; stroke: #000000; stroke-width: 0.8; stroke-linejoin: miter; stroke-linecap: square"/>
   </g>
   <g id="text_16">
    <!-- CDF Comparison -->
    <g transform="translate(289.270938 26.64) scale(0.2 -0.2)">
     <defs>
      <path id="DejaVuSans-Bold-43" d="M 4288 256 
Q 3956 84 3597 -3 
Q 3238 -91 2847 -91 
Q 1681 -91 1000 561 
Q 319 1213 319 2328 
Q 319 3447 1000 4098 
Q 1681 4750 2847 4750 
Q 3238 4750 3597 4662 
Q 3956 4575 4288 4403 
L 4288 3438 
Q 3953 3666 3628 3772 
Q 3303 3878 2944 3878 
Q 2300 3878 1931 3465 
Q 1563 3053 1563 2328 
Q 1563 1606 1931 1193 
Q 2300 781 2944 781 
Q 3303 781 3628 887 
Q 3953 994 4288 1222 
L 4288 256 
z
" transform="scale(0.015625)"/>
      <path id="DejaVuSans-Bold-44" d="M 1791 3756 
L 1791 909 
L 2222 909 
Q 2959 909 3348 1275 
Q 3738 1641 3738 2338 
Q 3738 3031 3350 3393 
Q 2963 3756 2222 3756 
L 1791 3756 
z
M 588 4666 
L 1856 4666 
Q 2919 4666 3439 4514 
Q 3959 4363 4331 4000 
Q 4659 3684 4818 3271 
Q 4978 2859 4978 2338 
Q 4978 1809 4818 1395 
Q 4659 981 4331 666 
Q 3956 303 3431 151 
Q 2906 0 1856 0 
L 588 0 
L 588 4666 
z
" transform="scale(0.015625)"/>
      <path id="DejaVuSans-Bold-46" d="M 588 4666 
L 3834 4666 
L 3834 3756 
L 1791 3756 
L 1791 2888 
L 3713 2888 
L 3713 1978 
L 1791 1978 
L 1791 0 
L 588 0 
L 588 4666 
z
" transform="scale(0.015625)"/>
      <path id="DejaVuSans-Bold-20" transform="scale(0.015625)"/>
      <path id="DejaVuSans-Bold-6f" d="M 2203 2784 
Q 1831 2784 1636 2517 
Q 1441 2250 1441 1747 
Q 1441 1244 1636 976 
Q 1831 709 2203 709 
Q 2569 709 2762 976 
Q 2956 1244 2956 1747 
Q 2956 2250 2762 2517 
Q 2569 2784 2203 2784 
z
M 2203 3584 
Q 3106 3584 3614 3096 
Q 4122 2609 4122 1747 
Q 4122 884 3614 396 
Q 3106 -91 2203 -91 
Q 1297 -91 786 396 
Q 275 884 275 1747 
Q 275 2609 786 3096 
Q 1297 3584 2203 3584 
z
" transform="scale(0.015625)"/>
      <path id="DejaVuSans-Bold-6d" d="M 3781 2919 
Q 3994 3244 4286 3414 
Q 4578 3584 4928 3584 
Q 5531 3584 5847 3212 
Q 6163 2841 6163 2131 
L 6163 0 
L 5038 0 
L 5038 1825 
Q 5041 1866 5042 1909 
Q 5044 1953 5044 2034 
Q 5044 2406 4934 2573 
Q 4825 2741 4581 2741 
Q 4263 2741 4089 2478 
Q 3916 2216 3909 1719 
L 3909 0 
L 2784 0 
L 2784 1825 
Q 2784 2406 2684 2573 
Q 2584 2741 2328 2741 
Q 2006 2741 1831 2477 
Q 1656 2213 1656 1722 
L 1656 0 
L 531 0 
L 531 3500 
L 1656 3500 
L 1656 2988 
Q 1863 3284 2130 3434 
Q 2397 3584 2719 3584 
Q 3081 3584 3359 3409 
Q 3638 3234 3781 2919 
z
" transform="scale(0.015625)"/>
      <path id="DejaVuSans-Bold-70" d="M 1656 506 
L 1656 -1331 
L 538 -1331 
L 538 3500 
L 1656 3500 
L 1656 2988 
Q 1888 3294 2169 3439 
Q 2450 3584 2816 3584 
Q 3463 3584 3878 3070 
Q 4294 2556 4294 1747 
Q 4294 938 3878 423 
Q 3463 -91 2816 -91 
Q 2450 -91 2169 54 
Q 1888 200 1656 506 
z
M 2400 2772 
Q 2041 2772 1848 2508 
Q 1656 2244 1656 1747 
Q 1656 1250 1848 986 
Q 2041 722 2400 722 
Q 2759 722 2948 984 
Q 3138 1247 3138 1747 
Q 3138 2247 2948 2509 
Q 2759 2772 2400 2772 
z
" transform="scale(0.015625)"/>
      <path id="DejaVuSans-Bold-61" d="M 2106 1575 
Q 1756 1575 1579 1456 
Q 1403 1338 1403 1106 
Q 1403 894 1545 773 
Q 1688 653 1941 653 
Q 2256 653 2472 879 
Q 2688 1106 2688 1447 
L 2688 1575 
L 2106 1575 
z
M 3816 1997 
L 3816 0 
L 2688 0 
L 2688 519 
Q 2463 200 2181 54 
Q 1900 -91 1497 -91 
Q 953 -91 614 226 
Q 275 544 275 1050 
Q 275 1666 698 1953 
Q 1122 2241 2028 2241 
L 2688 2241 
L 2688 2328 
Q 2688 2594 2478 2717 
Q 2269 2841 1825 2841 
Q 1466 2841 1156 2769 
Q 847 2697 581 2553 
L 581 3406 
Q 941 3494 1303 3539 
Q 1666 3584 2028 3584 
Q 2975 3584 3395 3211 
Q 3816 2838 3816 1997 
z
" transform="scale(0.015625)"/>
      <path id="DejaVuSans-Bold-72" d="M 3138 2547 
Q 2991 2616 2845 2648 
Q 2700 2681 2553 2681 
Q 2122 2681 1889 2404 
Q 1656 2128 1656 1613 
L 1656 0 
L 538 0 
L 538 3500 
L 1656 3500 
L 1656 2925 
Q 1872 3269 2151 3426 
Q 2431 3584 2822 3584 
Q 2878 3584 2943 3579 
Q 3009 3575 3134 3559 
L 3138 2547 
z
" transform="scale(0.015625)"/>
      <path id="DejaVuSans-Bold-69" d="M 538 3500 
L 1656 3500 
L 1656 0 
L 538 0 
L 538 3500 
z
M 538 4863 
L 1656 4863 
L 1656 3950 
L 538 3950 
L 538 4863 
z
" transform="scale(0.015625)"/>
      <path id="DejaVuSans-Bold-73" d="M 3272 3391 
L 3272 2541 
Q 2913 2691 2578 2766 
Q 2244 2841 1947 2841 
Q 1628 2841 1473 2761 
Q 1319 2681 1319 2516 
Q 1319 2381 1436 2309 
Q 1553 2238 1856 2203 
L 2053 2175 
Q 2913 2066 3209 1816 
Q 3506 1566 3506 1031 
Q 3506 472 3093 190 
Q 2681 -91 1863 -91 
Q 1516 -91 1145 -36 
Q 775 19 384 128 
L 384 978 
Q 719 816 1070 734 
Q 1422 653 1784 653 
Q 2113 653 2278 743 
Q 2444 834 2444 1013 
Q 2444 1163 2330 1236 
Q 2216 1309 1875 1350 
L 1678 1375 
Q 931 1469 631 1722 
Q 331 1975 331 2491 
Q 331 3047 712 3315 
Q 1094 3584 1881 3584 
Q 2191 3584 2531 3537 
Q 2872 3491 3272 3391 
z
" transform="scale(0.015625)"/>
      <path id="DejaVuSans-Bold-6e" d="M 4056 2131 
L 4056 0 
L 2931 0 
L 2931 347 
L 2931 1631 
Q 2931 2084 2911 2256 
Q 2891 2428 2841 2509 
Q 2775 2619 2662 2680 
Q 2550 2741 2406 2741 
Q 2056 2741 1856 2470 
Q 1656 2200 1656 1722 
L 1656 0 
L 538 0 
L 538 3500 
L 1656 3500 
L 1656 2988 
Q 1909 3294 2193 3439 
Q 2478 3584 2822 3584 
Q 3428 3584 3742 3212 
Q 4056 2841 4056 2131 
z
" transform="scale(0.015625)"/>
     </defs>
     <use xlink:href="#DejaVuSans-Bold-43"/>
     <use xlink:href="#DejaVuSans-Bold-44" transform="translate(73.388672 0)"/>
     <use xlink:href="#DejaVuSans-Bold-46" transform="translate(156.396484 0)"/>
     <use xlink:href="#DejaVuSans-Bold-20" transform="translate(224.707031 0)"/>
     <use xlink:href="#DejaVuSans-Bold-43" transform="translate(259.521484 0)"/>
     <use xlink:href="#DejaVuSans-Bold-6f" transform="translate(332.910156 0)"/>
     <use xlink:href="#DejaVuSans-Bold-6d" transform="translate(401.611328 0)"/>
     <use xlink:href="#DejaVuSans-Bold-70" transform="translate(505.810547 0)"/>
     <use xlink:href="#DejaVuSans-Bold-61" transform="translate(577.392578 0)"/>
     <use xlink:href="#DejaVuSans-Bold-72" transform="translate(644.873047 0)"/>
     <use xlink:href="#DejaVuSans-Bold-69" transform="translate(694.189453 0)"/>
     <use xlink:href="#DejaVuSans-Bold-73" transform="translate(728.466797 0)"/>
     <use xlink:href="#DejaVuSans-Bold-6f" transform="translate(787.988281 0)"/>
     <use xlink:href="#DejaVuSans-Bold-6e" transform="translate(856.689453 0)"/>
    </g>
   </g>
   <g id="legend_1">
    <g id="patch_7">
     <path d="M 582.970312 447.84 
L 699.4 447.84 
Q 702.2 447.84 702.2 445.04 
L 702.2 384.4025 
Q 702.2 381.6025 699.4 381.6025 
L 582.970312 381.6025 
Q 580.170313 381.6025 580.170313 384.4025 
L 580.170313 445.04 
Q 580.170313 447.84 582.970312 447.84 
z
" style="fill: #ffffff; opacity: 0.95; stroke: #000000; stroke-linejoin: miter"/>
    </g>
    <g id="line2d_30">
     <path d="M 585.770313 392.940313 
L 599.770313 392.940313 
L 613.770313 392.940313 
" style="fill: none; stroke: #0072b2; stroke-width: 2.8; stroke-linecap: square"/>
    </g>
    <g id="text_17">
     <!-- lego_loam -->
     <g transform="translate(624.970313 397.840312) scale(0.14 -0.14)">
      <defs>
       <path id="DejaVuSans-6c" d="M 603 4863 
L 1178 4863 
L 1178 0 
L 603 0 
L 603 4863 
z
" transform="scale(0.015625)"/>
       <path id="DejaVuSans-65" d="M 3597 1894 
L 3597 1613 
L 953 1613 
Q 991 1019 1311 708 
Q 1631 397 2203 397 
Q 2534 397 2845 478 
Q 3156 559 3463 722 
L 3463 178 
Q 3153 47 2828 -22 
Q 2503 -91 2169 -91 
Q 1331 -91 842 396 
Q 353 884 353 1716 
Q 353 2575 817 3079 
Q 1281 3584 2069 3584 
Q 2775 3584 3186 3129 
Q 3597 2675 3597 1894 
z
M 3022 2063 
Q 3016 2534 2758 2815 
Q 2500 3097 2075 3097 
Q 1594 3097 1305 2825 
Q 1016 2553 972 2059 
L 3022 2063 
z
" transform="scale(0.015625)"/>
       <path id="DejaVuSans-67" d="M 2906 1791 
Q 2906 2416 2648 2759 
Q 2391 3103 1925 3103 
Q 1463 3103 1205 2759 
Q 947 2416 947 1791 
Q 947 1169 1205 825 
Q 1463 481 1925 481 
Q 2391 481 2648 825 
Q 2906 1169 2906 1791 
z
M 3481 434 
Q 3481 -459 3084 -895 
Q 2688 -1331 1869 -1331 
Q 1566 -1331 1297 -1286 
Q 1028 -1241 775 -1147 
L 775 -588 
Q 1028 -725 1275 -790 
Q 1522 -856 1778 -856 
Q 2344 -856 2625 -561 
Q 2906 -266 2906 331 
L 2906 616 
Q 2728 306 2450 153 
Q 2172 0 1784 0 
Q 1141 0 747 490 
Q 353 981 353 1791 
Q 353 2603 747 3093 
Q 1141 3584 1784 3584 
Q 2172 3584 2450 3431 
Q 2728 3278 2906 2969 
L 2906 3500 
L 3481 3500 
L 3481 434 
z
" transform="scale(0.015625)"/>
       <path id="DejaVuSans-5f" d="M 3263 -1063 
L 3263 -1509 
L -63 -1509 
L -63 -1063 
L 3263 -1063 
z
" transform="scale(0.015625)"/>
       <path id="DejaVuSans-61" d="M 2194 1759 
Q 1497 1759 1228 1600 
Q 959 1441 959 1056 
Q 959 750 1161 570 
Q 1363 391 1709 391 
Q 2188 391 2477 730 
Q 2766 1069 2766 1631 
L 2766 1759 
L 2194 1759 
z
M 3341 1997 
L 3341 0 
L 2766 0 
L 2766 531 
Q 2569 213 2275 61 
Q 1981 -91 1556 -91 
Q 1019 -91 701 211 
Q 384 513 384 1019 
Q 384 1609 779 1909 
Q 1175 2209 1959 2209 
L 2766 2209 
L 2766 2266 
Q 2766 2663 2505 2880 
Q 2244 3097 1772 3097 
Q 1472 3097 1187 3025 
Q 903 2953 641 2809 
L 641 3341 
Q 956 3463 1253 3523 
Q 1550 3584 1831 3584 
Q 2591 3584 2966 3190 
Q 3341 2797 3341 1997 
z
" transform="scale(0.015625)"/>
      </defs>
      <use xlink:href="#DejaVuSans-6c"/>
      <use xlink:href="#DejaVuSans-65" transform="translate(27.783203 0)"/>
      <use xlink:href="#DejaVuSans-67" transform="translate(89.306641 0)"/>
      <use xlink:href="#DejaVuSans-6f" transform="translate(152.783203 0)"/>
      <use xlink:href="#DejaVuSans-5f" transform="translate(213.964844 0)"/>
      <use xlink:href="#DejaVuSans-6c" transform="translate(263.964844 0)"/>
      <use xlink:href="#DejaVuSans-6f" transform="translate(291.748047 0)"/>
      <use xlink:href="#DejaVuSans-61" transform="translate(352.929688 0)"/>
      <use xlink:href="#DejaVuSans-6d" transform="translate(414.208984 0)"/>
     </g>
    </g>
    <g id="line2d_31">
     <path d="M 585.770313 413.879063 
L 599.770313 413.879063 
L 613.770313 413.879063 
" style="fill: none; stroke-dasharray: 10.36,4.48; stroke-dashoffset: 0; stroke: #d55e00; stroke-width: 2.8"/>
    </g>
    <g id="text_18">
     <!-- fastlio -->
     <g transform="translate(624.970313 418.779063) scale(0.14 -0.14)">
      <defs>
       <path id="DejaVuSans-66" d="M 2375 4863 
L 2375 4384 
L 1825 4384 
Q 1516 4384 1395 4259 
Q 1275 4134 1275 3809 
L 1275 3500 
L 2222 3500 
L 2222 3053 
L 1275 3053 
L 1275 0 
L 697 0 
L 697 3053 
L 147 3053 
L 147 3500 
L 697 3500 
L 697 3744 
Q 697 4328 969 4595 
Q 1241 4863 1831 4863 
L 2375 4863 
z
" transform="scale(0.015625)"/>
       <path id="DejaVuSans-73" d="M 2834 3397 
L 2834 2853 
Q 2591 2978 2328 3040 
Q 2066 3103 1784 3103 
Q 1356 3103 1142 2972 
Q 928 2841 928 2578 
Q 928 2378 1081 2264 
Q 1234 2150 1697 2047 
L 1894 2003 
Q 2506 1872 2764 1633 
Q 3022 1394 3022 966 
Q 3022 478 2636 193 
Q 2250 -91 1575 -91 
Q 1294 -91 989 -36 
Q 684 19 347 128 
L 347 722 
Q 666 556 975 473 
Q 1284 391 1588 391 
Q 1994 391 2212 530 
Q 2431 669 2431 922 
Q 2431 1156 2273 1281 
Q 2116 1406 1581 1522 
L 1381 1569 
Q 847 1681 609 1914 
Q 372 2147 372 2553 
Q 372 3047 722 3315 
Q 1072 3584 1716 3584 
Q 2034 3584 2315 3537 
Q 2597 3491 2834 3397 
z
" transform="scale(0.015625)"/>
       <path id="DejaVuSans-74" d="M 1172 4494 
L 1172 3500 
L 2356 3500 
L 2356 3053 
L 1172 3053 
L 1172 1153 
Q 1172 725 1289 603 
Q 1406 481 1766 481 
L 2356 481 
L 2356 0 
L 1766 0 
Q 1100 0 847 248 
Q 594 497 594 1153 
L 594 3053 
L 172 3053 
L 172 3500 
L 594 3500 
L 594 4494 
L 1172 4494 
z
" transform="scale(0.015625)"/>
       <path id="DejaVuSans-69" d="M 603 3500 
L 1178 3500 
L 1178 0 
L 603 0 
L 603 3500 
z
M 603 4863 
L 1178 4863 
L 1178 4134 
L 603 4134 
L 603 4863 
z
" transform="scale(0.015625)"/>
      </defs>
      <use xlink:href="#DejaVuSans-66"/>
      <use xlink:href="#DejaVuSans-61" transform="translate(35.205078 0)"/>
      <use xlink:href="#DejaVuSans-73" transform="translate(96.484375 0)"/>
      <use xlink:href="#DejaVuSans-74" transform="translate(148.583984 0)"/>
      <use xlink:href="#DejaVuSans-6c" transform="translate(187.792969 0)"/>
      <use xlink:href="#DejaVuSans-69" transform="translate(215.576172 0)"/>
      <use xlink:href="#DejaVuSans-6f" transform="translate(243.359375 0)"/>
     </g>
    </g>
    <g id="line2d_32">
     <path d="M 585.770313 434.428437 
L 599.770313 434.428437 
L 613.770313 434.428437 
" style="fill: none; stroke-dasharray: 17.92,4.48,2.8,4.48; stroke-dashoffset: 0; stroke: #009e73; stroke-width: 2.8"/>
    </g>
    <g id="text_19">
     <!-- dlio -->
     <g transform="translate(624.970313 439.328437) scale(0.14 -0.14)">
      <defs>
       <path id="DejaVuSans-64" d="M 2906 2969 
L 2906 4863 
L 3481 4863 
L 3481 0 
L 2906 0 
L 2906 525 
Q 2725 213 2448 61 
Q 2172 -91 1784 -91 
Q 1150 -91 751 415 
Q 353 922 353 1747 
Q 353 2572 751 3078 
Q 1150 3584 1784 3584 
Q 2172 3584 2448 3432 
Q 2725 3281 2906 2969 
z
M 947 1747 
Q 947 1113 1208 752 
Q 1469 391 1925 391 
Q 2381 391 2643 752 
Q 2906 1113 2906 1747 
Q 2906 2381 2643 2742 
Q 2381 3103 1925 3103 
Q 1469 3103 1208 2742 
Q 947 2381 947 1747 
z
" transform="scale(0.015625)"/>
      </defs>
      <use xlink:href="#DejaVuSans-64"/>
      <use xlink:href="#DejaVuSans-6c" transform="translate(63.476562 0)"/>
      <use xlink:href="#DejaVuSans-69" transform="translate(91.259766 0)"/>
      <use xlink:href="#DejaVuSans-6f" transform="translate(119.042969 0)"/>
     </g>
    </g>
   </g>
  </g>
 </g>
 <defs>
  <clipPath id="p5959398782">
   <rect x="54.92" y="32.64" width="654.28" height="422.2"/>
  </clipPath>
 </defs>
</svg>
