<?xml version="1.0" encoding="utf-8" standalone="no"?>
<!DOCTYPE svg PUBLIC "-//W3C//DTD SVG 1.1//EN"
  "http://www.w3.org/Graphics/SVG/1.1/DTD/svg11.dtd">
<svg xmlns:xlink="http://www.w3.org/1999/xlink" width="720pt" height="504pt" viewBox="0 0 720 504" xmlns="http://www.w3.org/2000/svg" version="1.1">
 <metadata>
  <rdf:RDF xmlns:dc="http://purl.org/dc/elements/1.1/" xmlns:cc="http://creativecommons.org/ns#" xmlns:rdf="http://www.w3.org/1999/02/22-rdf-syntax-ns#">
   <cc:Work>
    <dc:type rdf:resource="http://purl.org/dc/dcmitype/StillImage"/>
    <dc:date>2026-01-11T17:17:51.145300</dc:date>
    <dc:format>image/svg+xml</dc:format>
    <dc:creator>
     <cc:Agent>
      <dc:title>Matplotlib v3.10.8, https://matplotlib.org/</dc:title>
     </cc:Agent>
    </dc:creator>
   </cc:Work>
  </rdf:RDF>
 </metadata>
 <defs>
  <style type="text/css">*{stroke-linejoin: round; stroke-linecap: butt}</style>
 </defs>
 <g id="figure_1">
  <g id="patch_1">
   <path d="M 0 504 
L 720 504 
L 720 0 
L 0 0 
z
" style="fill: #ffffff"/>
  </g>
  <g id="axes_1">
   <g id="patch_2">
    <path d="M 55.055 454.84 
L 709.2 454.84 
L 709.2 31.92 
L 55.055 31.92 
z
" style="fill: #ffffff"/>
   </g>
   <g id="matplotlib.axis_1">
    <g id="xtick_1">
     <g id="line2d_1">
      <path d="M 55.055 454.84 
L 55.055 31.92 
" clip-path="url(#p044981f204)" style="fill: none; stroke-dasharray: 2.96,1.28; stroke-dashoffset: 0; stroke: #b0b0b0; stroke-opacity: 0.3; stroke-width: 0.8"/>
     </g>
     <g id="line2d_2">
      <defs>
       <path id="m55155bfff5" d="M 0 0 
L 0 3.5 
" style="stroke: #000000; stroke-width: 0.8"/>
      </defs>
      <g>
       <use xlink:href="#m55155bfff5" x="55.055" y="454.84" style="stroke: #000000; stroke-width: 0.8"/>
      </g>
     </g>
     <g id="text_1">
      <!-- 0.0 -->
      <g transform="translate(47.103438 469.438437) scale(0.1 -0.1)">
       <defs>
        <path id="DejaVuSans-30" d="M 2034 4250 
Q 1547 4250 1301 3770 
Q 1056 3291 1056 2328 
Q 1056 1369 1301 889 
Q 1547 409 2034 409 
Q 2525 409 2770 889 
Q 3016 1369 3016 2328 
Q 3016 3291 2770 3770 
Q 2525 4250 2034 4250 
z
M 2034 4750 
Q 2819 4750 3233 4129 
Q 3647 3509 3647 2328 
Q 3647 1150 3233 529 
Q 2819 -91 2034 -91 
Q 1250 -91 836 529 
Q 422 1150 422 2328 
Q 422 3509 836 4129 
Q 1250 4750 2034 4750 
z
" transform="scale(0.015625)"/>
        <path id="DejaVuSans-2e" d="M 684 794 
L 1344 794 
L 1344 0 
L 684 0 
L 684 794 
z
" transform="scale(0.015625)"/>
       </defs>
       <use xlink:href="#DejaVuSans-30"/>
       <use xlink:href="#DejaVuSans-2e" transform="translate(63.623047 0)"/>
       <use xlink:href="#DejaVuSans-30" transform="translate(95.410156 0)"/>
      </g>
     </g>
    </g>
    <g id="xtick_2">
     <g id="line2d_3">
      <path d="M 133.109706 454.84 
L 133.109706 31.92 
" clip-path="url(#p044981f204)" style="fill: none; stroke-dasharray: 2.96,1.28; stroke-dashoffset: 0; stroke: #b0b0b0; stroke-opacity: 0.3; stroke-width: 0.8"/>
     </g>
     <g id="line2d_4">
      <g>
       <use xlink:href="#m55155bfff5" x="133.109706" y="454.84" style="stroke: #000000; stroke-width: 0.8"/>
      </g>
     </g>
     <g id="text_2">
      <!-- 2.5 -->
      <g transform="translate(125.158144 469.438437) scale(0.1 -0.1)">
       <defs>
        <path id="DejaVuSans-32" d="M 1228 531 
L 3431 531 
L 3431 0 
L 469 0 
L 469 531 
Q 828 903 1448 1529 
Q 2069 2156 2228 2338 
Q 2531 2678 2651 2914 
Q 2772 3150 2772 3378 
Q 2772 3750 2511 3984 
Q 2250 4219 1831 4219 
Q 1534 4219 1204 4116 
Q 875 4013 500 3803 
L 500 4441 
Q 881 4594 1212 4672 
Q 1544 4750 1819 4750 
Q 2544 4750 2975 4387 
Q 3406 4025 3406 3419 
Q 3406 3131 3298 2873 
Q 3191 2616 2906 2266 
Q 2828 2175 2409 1742 
Q 1991 1309 1228 531 
z
" transform="scale(0.015625)"/>
        <path id="DejaVuSans-35" d="M 691 4666 
L 3169 4666 
L 3169 4134 
L 1269 4134 
L 1269 2991 
Q 1406 3038 1543 3061 
Q 1681 3084 1819 3084 
Q 2600 3084 3056 2656 
Q 3513 2228 3513 1497 
Q 3513 744 3044 326 
Q 2575 -91 1722 -91 
Q 1428 -91 1123 -41 
Q 819 9 494 109 
L 494 744 
Q 775 591 1075 516 
Q 1375 441 1709 441 
Q 2250 441 2565 725 
Q 2881 1009 2881 1497 
Q 2881 1984 2565 2268 
Q 2250 2553 1709 2553 
Q 1456 2553 1204 2497 
Q 953 2441 691 2322 
L 691 4666 
z
" transform="scale(0.015625)"/>
       </defs>
       <use xlink:href="#DejaVuSans-32"/>
       <use xlink:href="#DejaVuSans-2e" transform="translate(63.623047 0)"/>
       <use xlink:href="#DejaVuSans-35" transform="translate(95.410156 0)"/>
      </g>
     </g>
    </g>
    <g id="xtick_3">
     <g id="line2d_5">
      <path d="M 211.164412 454.84 
L 211.164412 31.92 
" clip-path="url(#p044981f204)" style="fill: none; stroke-dasharray: 2.96,1.28; stroke-dashoffset: 0; stroke: #b0b0b0; stroke-opacity: 0.3; stroke-width: 0.8"/>
     </g>
     <g id="line2d_6">
      <g>
       <use xlink:href="#m55155bfff5" x="211.164412" y="454.84" style="stroke: #000000; stroke-width: 0.8"/>
      </g>
     </g>
     <g id="text_3">
      <!-- 5.0 -->
      <g transform="translate(203.21285 469.438437) scale(0.1 -0.1)">
       <use xlink:href="#DejaVuSans-35"/>
       <use xlink:href="#DejaVuSans-2e" transform="translate(63.623047 0)"/>
       <use xlink:href="#DejaVuSans-30" transform="translate(95.410156 0)"/>
      </g>
     </g>
    </g>
    <g id="xtick_4">
     <g id="line2d_7">
      <path d="M 289.219118 454.84 
L 289.219118 31.92 
" clip-path="url(#p044981f204)" style="fill: none; stroke-dasharray: 2.96,1.28; stroke-dashoffset: 0; stroke: #b0b0b0; stroke-opacity: 0.3; stroke-width: 0.8"/>
     </g>
     <g id="line2d_8">
      <g>
       <use xlink:href="#m55155bfff5" x="289.219118" y="454.84" style="stroke: #000000; stroke-width: 0.8"/>
      </g>
     </g>
     <g id="text_4">
      <!-- 7.5 -->
      <g transform="translate(281.267556 469.438437) scale(0.1 -0.1)">
       <defs>
        <path id="DejaVuSans-37" d="M 525 4666 
L 3525 4666 
L 3525 4397 
L 1831 0 
L 1172 0 
L 2766 4134 
L 525 4134 
L 525 4666 
z
" transform="scale(0.015625)"/>
       </defs>
       <use xlink:href="#DejaVuSans-37"/>
       <use xlink:href="#DejaVuSans-2e" transform="translate(63.623047 0)"/>
       <use xlink:href="#DejaVuSans-35" transform="translate(95.410156 0)"/>
      </g>
     </g>
    </g>
    <g id="xtick_5">
     <g id="line2d_9">
      <path d="M 367.273825 454.84 
L 367.273825 31.92 
" clip-path="url(#p044981f204)" style="fill: none; stroke-dasharray: 2.96,1.28; stroke-dashoffset: 0; stroke: #b0b0b0; stroke-opacity: 0.3; stroke-width: 0.8"/>
     </g>
     <g id="line2d_10">
      <g>
       <use xlink:href="#m55155bfff5" x="367.273825" y="454.84" style="stroke: #000000; stroke-width: 0.8"/>
      </g>
     </g>
     <g id="text_5">
      <!-- 10.0 -->
      <g transform="translate(356.141012 469.438437) scale(0.1 -0.1)">
       <defs>
        <path id="DejaVuSans-31" d="M 794 531 
L 1825 531 
L 1825 4091 
L 703 3866 
L 703 4441 
L 1819 4666 
L 2450 4666 
L 2450 531 
L 3481 531 
L 3481 0 
L 794 0 
L 794 531 
z
" transform="scale(0.015625)"/>
       </defs>
       <use xlink:href="#DejaVuSans-31"/>
       <use xlink:href="#DejaVuSans-30" transform="translate(63.623047 0)"/>
       <use xlink:href="#DejaVuSans-2e" transform="translate(127.246094 0)"/>
       <use xlink:href="#DejaVuSans-30" transform="translate(159.033203 0)"/>
      </g>
     </g>
    </g>
    <g id="xtick_6">
     <g id="line2d_11">
      <path d="M 445.328531 454.84 
L 445.328531 31.92 
" clip-path="url(#p044981f204)" style="fill: none; stroke-dasharray: 2.96,1.28; stroke-dashoffset: 0; stroke: #b0b0b0; stroke-opacity: 0.3; stroke-width: 0.8"/>
     </g>
     <g id="line2d_12">
      <g>
       <use xlink:href="#m55155bfff5" x="445.328531" y="454.84" style="stroke: #000000; stroke-width: 0.8"/>
      </g>
     </g>
     <g id="text_6">
      <!-- 12.5 -->
      <g transform="translate(434.195718 469.438437) scale(0.1 -0.1)">
       <use xlink:href="#DejaVuSans-31"/>
       <use xlink:href="#DejaVuSans-32" transform="translate(63.623047 0)"/>
       <use xlink:href="#DejaVuSans-2e" transform="translate(127.246094 0)"/>
       <use xlink:href="#DejaVuSans-35" transform="translate(159.033203 0)"/>
      </g>
     </g>
    </g>
    <g id="xtick_7">
     <g id="line2d_13">
      <path d="M 523.383237 454.84 
L 523.383237 31.92 
" clip-path="url(#p044981f204)" style="fill: none; stroke-dasharray: 2.96,1.28; stroke-dashoffset: 0; stroke: #b0b0b0; stroke-opacity: 0.3; stroke-width: 0.8"/>
     </g>
     <g id="line2d_14">
      <g>
       <use xlink:href="#m55155bfff5" x="523.383237" y="454.84" style="stroke: #000000; stroke-width: 0.8"/>
      </g>
     </g>
     <g id="text_7">
      <!-- 15.0 -->
      <g transform="translate(512.250424 469.438437) scale(0.1 -0.1)">
       <use xlink:href="#DejaVuSans-31"/>
       <use xlink:href="#DejaVuSans-35" transform="translate(63.623047 0)"/>
       <use xlink:href="#DejaVuSans-2e" transform="translate(127.246094 0)"/>
       <use xlink:href="#DejaVuSans-30" transform="translate(159.033203 0)"/>
      </g>
     </g>
    </g>
    <g id="xtick_8">
     <g id="line2d_15">
      <path d="M 601.437943 454.84 
L 601.437943 31.92 
" clip-path="url(#p044981f204)" style="fill: none; stroke-dasharray: 2.96,1.28; stroke-dashoffset: 0; stroke: #b0b0b0; stroke-opacity: 0.3; stroke-width: 0.8"/>
     </g>
     <g id="line2d_16">
      <g>
       <use xlink:href="#m55155bfff5" x="601.437943" y="454.84" style="stroke: #000000; stroke-width: 0.8"/>
      </g>
     </g>
     <g id="text_8">
      <!-- 17.5 -->
      <g transform="translate(590.305131 469.438437) scale(0.1 -0.1)">
       <use xlink:href="#DejaVuSans-31"/>
       <use xlink:href="#DejaVuSans-37" transform="translate(63.623047 0)"/>
       <use xlink:href="#DejaVuSans-2e" transform="translate(127.246094 0)"/>
       <use xlink:href="#DejaVuSans-35" transform="translate(159.033203 0)"/>
      </g>
     </g>
    </g>
    <g id="xtick_9">
     <g id="line2d_17">
      <path d="M 679.492649 454.84 
L 679.492649 31.92 
" clip-path="url(#p044981f204)" style="fill: none; stroke-dasharray: 2.96,1.28; stroke-dashoffset: 0; stroke: #b0b0b0; stroke-opacity: 0.3; stroke-width: 0.8"/>
     </g>
     <g id="line2d_18">
      <g>
       <use xlink:href="#m55155bfff5" x="679.492649" y="454.84" style="stroke: #000000; stroke-width: 0.8"/>
      </g>
     </g>
     <g id="text_9">
      <!-- 20.0 -->
      <g transform="translate(668.359837 469.438437) scale(0.1 -0.1)">
       <use xlink:href="#DejaVuSans-32"/>
       <use xlink:href="#DejaVuSans-30" transform="translate(63.623047 0)"/>
       <use xlink:href="#DejaVuSans-2e" transform="translate(127.246094 0)"/>
       <use xlink:href="#DejaVuSans-30" transform="translate(159.033203 0)"/>
      </g>
     </g>
    </g>
    <g id="text_10">
     <!-- XY Error [m] -->
     <g transform="translate(327.022187 489.195312) scale(0.18 -0.18)">
      <defs>
       <path id="DejaVuSans-58" d="M 403 4666 
L 1081 4666 
L 2241 2931 
L 3406 4666 
L 4084 4666 
L 2584 2425 
L 4184 0 
L 3506 0 
L 2194 1984 
L 872 0 
L 191 0 
L 1856 2491 
L 403 4666 
z
" transform="scale(0.015625)"/>
       <path id="DejaVuSans-59" d="M -13 4666 
L 666 4666 
L 1959 2747 
L 3244 4666 
L 3922 4666 
L 2272 2222 
L 2272 0 
L 1638 0 
L 1638 2222 
L -13 4666 
z
" transform="scale(0.015625)"/>
       <path id="DejaVuSans-20" transform="scale(0.015625)"/>
       <path id="DejaVuSans-45" d="M 628 4666 
L 3578 4666 
L 3578 4134 
L 1259 4134 
L 1259 2753 
L 3481 2753 
L 3481 2222 
L 1259 2222 
L 1259 531 
L 3634 531 
L 3634 0 
L 628 0 
L 628 4666 
z
" transform="scale(0.015625)"/>
       <path id="DejaVuSans-72" d="M 2631 2963 
Q 2534 3019 2420 3045 
Q 2306 3072 2169 3072 
Q 1681 3072 1420 2755 
Q 1159 2438 1159 1844 
L 1159 0 
L 581 0 
L 581 3500 
L 1159 3500 
L 1159 2956 
Q 1341 3275 1631 3429 
Q 1922 3584 2338 3584 
Q 2397 3584 2469 3576 
Q 2541 3569 2628 3553 
L 2631 2963 
z
" transform="scale(0.015625)"/>
       <path id="DejaVuSans-6f" d="M 1959 3097 
Q 1497 3097 1228 2736 
Q 959 2375 959 1747 
Q 959 1119 1226 758 
Q 1494 397 1959 397 
Q 2419 397 2687 759 
Q 2956 1122 2956 1747 
Q 2956 2369 2687 2733 
Q 2419 3097 1959 3097 
z
M 1959 3584 
Q 2709 3584 3137 3096 
Q 3566 2609 3566 1747 
Q 3566 888 3137 398 
Q 2709 -91 1959 -91 
Q 1206 -91 779 398 
Q 353 888 353 1747 
Q 353 2609 779 3096 
Q 1206 3584 1959 3584 
z
" transform="scale(0.015625)"/>
       <path id="DejaVuSans-5b" d="M 550 4863 
L 1875 4863 
L 1875 4416 
L 1125 4416 
L 1125 -397 
L 1875 -397 
L 1875 -844 
L 550 -844 
L 550 4863 
z
" transform="scale(0.015625)"/>
       <path id="DejaVuSans-6d" d="M 3328 2828 
Q 3544 3216 3844 3400 
Q 4144 3584 4550 3584 
Q 5097 3584 5394 3201 
Q 5691 2819 5691 2113 
L 5691 0 
L 5113 0 
L 5113 2094 
Q 5113 2597 4934 2840 
Q 4756 3084 4391 3084 
Q 3944 3084 3684 2787 
Q 3425 2491 3425 1978 
L 3425 0 
L 2847 0 
L 2847 2094 
Q 2847 2600 2669 2842 
Q 2491 3084 2119 3084 
Q 1678 3084 1418 2786 
Q 1159 2488 1159 1978 
L 1159 0 
L 581 0 
L 581 3500 
L 1159 3500 
L 1159 2956 
Q 1356 3278 1631 3431 
Q 1906 3584 2284 3584 
Q 2666 3584 2933 3390 
Q 3200 3197 3328 2828 
z
" transform="scale(0.015625)"/>
       <path id="DejaVuSans-5d" d="M 1947 4863 
L 1947 -844 
L 622 -844 
L 622 -397 
L 1369 -397 
L 1369 4416 
L 622 4416 
L 622 4863 
L 1947 4863 
z
" transform="scale(0.015625)"/>
      </defs>
      <use xlink:href="#DejaVuSans-58"/>
      <use xlink:href="#DejaVuSans-59" transform="translate(68.505859 0)"/>
      <use xlink:href="#DejaVuSans-20" transform="translate(129.589844 0)"/>
      <use xlink:href="#DejaVuSans-45" transform="translate(161.376953 0)"/>
      <use xlink:href="#DejaVuSans-72" transform="translate(224.560547 0)"/>
      <use xlink:href="#DejaVuSans-72" transform="translate(263.923828 0)"/>
      <use xlink:href="#DejaVuSans-6f" transform="translate(302.787109 0)"/>
      <use xlink:href="#DejaVuSans-72" transform="translate(363.96875 0)"/>
      <use xlink:href="#DejaVuSans-20" transform="translate(405.082031 0)"/>
      <use xlink:href="#DejaVuSans-5b" transform="translate(436.869141 0)"/>
      <use xlink:href="#DejaVuSans-6d" transform="translate(475.882812 0)"/>
      <use xlink:href="#DejaVuSans-5d" transform="translate(573.294922 0)"/>
     </g>
    </g>
   </g>
   <g id="matplotlib.axis_2">
    <g id="ytick_1">
     <g id="line2d_19">
      <path d="M 55.055 454.84 
L 709.2 454.84 
" clip-path="url(#p044981f204)" style="fill: none; stroke-dasharray: 2.96,1.28; stroke-dashoffset: 0; stroke: #b0b0b0; stroke-opacity: 0.3; stroke-width: 0.8"/>
     </g>
     <g id="line2d_20">
      <defs>
       <path id="m4930dcf958" d="M 0 0 
L -3.5 0 
" style="stroke: #000000; stroke-width: 0.8"/>
      </defs>
      <g>
       <use xlink:href="#m4930dcf958" x="55.055" y="454.84" style="stroke: #000000; stroke-width: 0.8"/>
      </g>
     </g>
     <g id="text_11">
      <!-- 0.0 -->
      <g transform="translate(32.151875 458.639219) scale(0.1 -0.1)">
       <use xlink:href="#DejaVuSans-30"/>
       <use xlink:href="#DejaVuSans-2e" transform="translate(63.623047 0)"/>
       <use xlink:href="#DejaVuSans-30" transform="translate(95.410156 0)"/>
      </g>
     </g>
    </g>
    <g id="ytick_2">
     <g id="line2d_21">
      <path d="M 55.055 374.28381 
L 709.2 374.28381 
" clip-path="url(#p044981f204)" style="fill: none; stroke-dasharray: 2.96,1.28; stroke-dashoffset: 0; stroke: #b0b0b0; stroke-opacity: 0.3; stroke-width: 0.8"/>
     </g>
     <g id="line2d_22">
      <g>
       <use xlink:href="#m4930dcf958" x="55.055" y="374.28381" style="stroke: #000000; stroke-width: 0.8"/>
      </g>
     </g>
     <g id="text_12">
      <!-- 0.2 -->
      <g transform="translate(32.151875 378.083028) scale(0.1 -0.1)">
       <use xlink:href="#DejaVuSans-30"/>
       <use xlink:href="#DejaVuSans-2e" transform="translate(63.623047 0)"/>
       <use xlink:href="#DejaVuSans-32" transform="translate(95.410156 0)"/>
      </g>
     </g>
    </g>
    <g id="ytick_3">
     <g id="line2d_23">
      <path d="M 55.055 293.727619 
L 709.2 293.727619 
" clip-path="url(#p044981f204)" style="fill: none; stroke-dasharray: 2.96,1.28; stroke-dashoffset: 0; stroke: #b0b0b0; stroke-opacity: 0.3; stroke-width: 0.8"/>
     </g>
     <g id="line2d_24">
      <g>
       <use xlink:href="#m4930dcf958" x="55.055" y="293.727619" style="stroke: #000000; stroke-width: 0.8"/>
      </g>
     </g>
     <g id="text_13">
      <!-- 0.4 -->
      <g transform="translate(32.151875 297.526838) scale(0.1 -0.1)">
       <defs>
        <path id="DejaVuSans-34" d="M 2419 4116 
L 825 1625 
L 2419 1625 
L 2419 4116 
z
M 2253 4666 
L 3047 4666 
L 3047 1625 
L 3713 1625 
L 3713 1100 
L 3047 1100 
L 3047 0 
L 2419 0 
L 2419 1100 
L 313 1100 
L 313 1709 
L 2253 4666 
z
" transform="scale(0.015625)"/>
       </defs>
       <use xlink:href="#DejaVuSans-30"/>
       <use xlink:href="#DejaVuSans-2e" transform="translate(63.623047 0)"/>
       <use xlink:href="#DejaVuSans-34" transform="translate(95.410156 0)"/>
      </g>
     </g>
    </g>
    <g id="ytick_4">
     <g id="line2d_25">
      <path d="M 55.055 213.171429 
L 709.2 213.171429 
" clip-path="url(#p044981f204)" style="fill: none; stroke-dasharray: 2.96,1.28; stroke-dashoffset: 0; stroke: #b0b0b0; stroke-opacity: 0.3; stroke-width: 0.8"/>
     </g>
     <g id="line2d_26">
      <g>
       <use xlink:href="#m4930dcf958" x="55.055" y="213.171429" style="stroke: #000000; stroke-width: 0.8"/>
      </g>
     </g>
     <g id="text_14">
      <!-- 0.6 -->
      <g transform="translate(32.151875 216.970647) scale(0.1 -0.1)">
       <defs>
        <path id="DejaVuSans-36" d="M 2113 2584 
Q 1688 2584 1439 2293 
Q 1191 2003 1191 1497 
Q 1191 994 1439 701 
Q 1688 409 2113 409 
Q 2538 409 2786 701 
Q 3034 994 3034 1497 
Q 3034 2003 2786 2293 
Q 2538 2584 2113 2584 
z
M 3366 4563 
L 3366 3988 
Q 3128 4100 2886 4159 
Q 2644 4219 2406 4219 
Q 1781 4219 1451 3797 
Q 1122 3375 1075 2522 
Q 1259 2794 1537 2939 
Q 1816 3084 2150 3084 
Q 2853 3084 3261 2657 
Q 3669 2231 3669 1497 
Q 3669 778 3244 343 
Q 2819 -91 2113 -91 
Q 1303 -91 875 529 
Q 447 1150 447 2328 
Q 447 3434 972 4092 
Q 1497 4750 2381 4750 
Q 2619 4750 2861 4703 
Q 3103 4656 3366 4563 
z
" transform="scale(0.015625)"/>
       </defs>
       <use xlink:href="#DejaVuSans-30"/>
       <use xlink:href="#DejaVuSans-2e" transform="translate(63.623047 0)"/>
       <use xlink:href="#DejaVuSans-36" transform="translate(95.410156 0)"/>
      </g>
     </g>
    </g>
    <g id="ytick_5">
     <g id="line2d_27">
      <path d="M 55.055 132.615238 
L 709.2 132.615238 
" clip-path="url(#p044981f204)" style="fill: none; stroke-dasharray: 2.96,1.28; stroke-dashoffset: 0; stroke: #b0b0b0; stroke-opacity: 0.3; stroke-width: 0.8"/>
     </g>
     <g id="line2d_28">
      <g>
       <use xlink:href="#m4930dcf958" x="55.055" y="132.615238" style="stroke: #000000; stroke-width: 0.8"/>
      </g>
     </g>
     <g id="text_15">
      <!-- 0.8 -->
      <g transform="translate(32.151875 136.414457) scale(0.1 -0.1)">
       <defs>
        <path id="DejaVuSans-38" d="M 2034 2216 
Q 1584 2216 1326 1975 
Q 1069 1734 1069 1313 
Q 1069 891 1326 650 
Q 1584 409 2034 409 
Q 2484 409 2743 651 
Q 3003 894 3003 1313 
Q 3003 1734 2745 1975 
Q 2488 2216 2034 2216 
z
M 1403 2484 
Q 997 2584 770 2862 
Q 544 3141 544 3541 
Q 544 4100 942 4425 
Q 1341 4750 2034 4750 
Q 2731 4750 3128 4425 
Q 3525 4100 3525 3541 
Q 3525 3141 3298 2862 
Q 3072 2584 2669 2484 
Q 3125 2378 3379 2068 
Q 3634 1759 3634 1313 
Q 3634 634 3220 271 
Q 2806 -91 2034 -91 
Q 1263 -91 848 271 
Q 434 634 434 1313 
Q 434 1759 690 2068 
Q 947 2378 1403 2484 
z
M 1172 3481 
Q 1172 3119 1398 2916 
Q 1625 2713 2034 2713 
Q 2441 2713 2670 2916 
Q 2900 3119 2900 3481 
Q 2900 3844 2670 4047 
Q 2441 4250 2034 4250 
Q 1625 4250 1398 4047 
Q 1172 3844 1172 3481 
z
" transform="scale(0.015625)"/>
       </defs>
       <use xlink:href="#DejaVuSans-30"/>
       <use xlink:href="#DejaVuSans-2e" transform="translate(63.623047 0)"/>
       <use xlink:href="#DejaVuSans-38" transform="translate(95.410156 0)"/>
      </g>
     </g>
    </g>
    <g id="ytick_6">
     <g id="line2d_29">
      <path d="M 55.055 52.059048 
L 709.2 52.059048 
" clip-path="url(#p044981f204)" style="fill: none; stroke-dasharray: 2.96,1.28; stroke-dashoffset: 0; stroke: #b0b0b0; stroke-opacity: 0.3; stroke-width: 0.8"/>
     </g>
     <g id="line2d_30">
      <g>
       <use xlink:href="#m4930dcf958" x="55.055" y="52.059048" style="stroke: #000000; stroke-width: 0.8"/>
      </g>
     </g>
     <g id="text_16">
      <!-- 1.0 -->
      <g transform="translate(32.151875 55.858266) scale(0.1 -0.1)">
       <use xlink:href="#DejaVuSans-31"/>
       <use xlink:href="#DejaVuSans-2e" transform="translate(63.623047 0)"/>
       <use xlink:href="#DejaVuSans-30" transform="translate(95.410156 0)"/>
      </g>
     </g>
    </g>
    <g id="text_17">
     <!-- CDF -->
     <g transform="translate(24.408438 261.770938) rotate(-90) scale(0.18 -0.18)">
      <defs>
       <path id="DejaVuSans-43" d="M 4122 4306 
L 4122 3641 
Q 3803 3938 3442 4084 
Q 3081 4231 2675 4231 
Q 1875 4231 1450 3742 
Q 1025 3253 1025 2328 
Q 1025 1406 1450 917 
Q 1875 428 2675 428 
Q 3081 428 3442 575 
Q 3803 722 4122 1019 
L 4122 359 
Q 3791 134 3420 21 
Q 3050 -91 2638 -91 
Q 1578 -91 968 557 
Q 359 1206 359 2328 
Q 359 3453 968 4101 
Q 1578 4750 2638 4750 
Q 3056 4750 3426 4639 
Q 3797 4528 4122 4306 
z
" transform="scale(0.015625)"/>
       <path id="DejaVuSans-44" d="M 1259 4147 
L 1259 519 
L 2022 519 
Q 2988 519 3436 956 
Q 3884 1394 3884 2338 
Q 3884 3275 3436 3711 
Q 2988 4147 2022 4147 
L 1259 4147 
z
M 628 4666 
L 1925 4666 
Q 3281 4666 3915 4102 
Q 4550 3538 4550 2338 
Q 4550 1131 3912 565 
Q 3275 0 1925 0 
L 628 0 
L 628 4666 
z
" transform="scale(0.015625)"/>
       <path id="DejaVuSans-46" d="M 628 4666 
L 3309 4666 
L 3309 4134 
L 1259 4134 
L 1259 2759 
L 3109 2759 
L 3109 2228 
L 1259 2228 
L 1259 0 
L 628 0 
L 628 4666 
z
" transform="scale(0.015625)"/>
      </defs>
      <use xlink:href="#DejaVuSans-43"/>
      <use xlink:href="#DejaVuSans-44" transform="translate(69.824219 0)"/>
      <use xlink:href="#DejaVuSans-46" transform="translate(146.826172 0)"/>
     </g>
    </g>
   </g>
   <g id="line2d_31">
    <path d="M 55.055 454.84 
L 55.530942 454.629053 
L 55.711903 454.422501 
L 56.658438 454.062134 
L 57.727548 453.890739 
L 58.195628 453.649029 
L 58.92212 453.253504 
L 60.405581 452.638243 
L 60.861264 452.502006 
L 61.018372 452.475638 
L 62.220406 452.132849 
L 63.840255 451.478035 
L 63.996639 451.376957 
L 67.079383 449.768487 
L 67.474095 449.597093 
L 67.583616 449.544356 
L 67.99625 449.377357 
L 68.082786 449.333409 
L 68.366042 449.170805 
L 68.832507 448.929095 
L 68.969618 448.836805 
L 70.058036 448.287465 
L 70.584869 448.116071 
L 70.698851 448.076518 
L 71.195455 447.856782 
L 71.5577 447.689782 
L 72.093539 447.456862 
L 72.258262 447.355783 
L 72.614889 447.232731 
L 74.996101 446.314233 
L 75.335206 446.173602 
L 75.443779 446.13405 
L 75.746846 445.945076 
L 75.982289 445.804445 
L 76.442228 445.347394 
L 79.534576 440.891142 
L 79.648595 440.719748 
L 80.82926 438.267492 
L 80.986103 437.832414 
L 81.159684 437.357783 
L 81.370357 436.716154 
L 81.469697 436.443681 
L 81.621991 435.995419 
L 81.842885 435.25271 
L 82.346334 433.468452 
L 83.374353 429.601094 
L 83.455455 429.376963 
L 83.829638 428.225545 
L 83.970575 427.909124 
L 84.42616 426.700575 
L 84.526155 426.476444 
L 85.050415 425.153632 
L 85.225647 424.687791 
L 85.537953 423.514399 
L 85.668473 423.02219 
L 85.806883 422.635454 
L 86.146149 421.598299 
L 86.298765 421.079722 
L 86.390421 420.820433 
L 86.511203 420.486434 
L 86.830783 419.510805 
L 86.909276 419.242726 
L 87.711416 416.755312 
L 87.762787 416.62347 
L 88.036339 415.82363 
L 88.117906 415.586315 
L 88.528804 414.210766 
L 88.607741 413.982241 
L 88.915625 412.967059 
L 89.075513 412.580323 
L 90.065647 410.387355 
L 91.502104 407.803257 
L 92.301445 405.544368 
L 92.384632 405.329027 
L 92.585348 404.889554 
L 92.701763 404.617081 
L 92.819093 404.225951 
L 92.934073 403.966662 
L 93.112853 403.606294 
L 93.821126 401.83522 
L 94.155953 401.066143 
L 94.388307 400.565145 
L 94.710388 399.91912 
L 94.900313 399.492832 
L 94.989827 399.242332 
L 95.119676 398.838018 
L 95.196991 398.618281 
L 95.359421 398.073336 
L 95.449714 397.796468 
L 95.769967 396.952681 
L 96.280065 395.546369 
L 96.394249 395.291475 
L 97.293623 393.116086 
L 97.464624 392.083325 
L 97.780985 389.925515 
L 97.855684 389.389359 
L 98.029481 388.110494 
L 98.082801 387.640258 
L 98.454131 384.585924 
L 98.492946 384.287083 
L 98.637703 383.05656 
L 98.726125 382.612693 
L 99.152267 377.273102 
L 99.329856 373.845216 
L 99.762785 371.630274 
L 99.909528 371.265512 
L 100.209889 370.34262 
L 100.347588 369.78449 
L 100.419873 369.503228 
L 100.822828 367.837627 
L 101.225663 365.78529 
L 101.428591 364.82724 
L 102.138182 361.46967 
L 102.17439 361.31146 
L 102.333894 360.691804 
L 102.420697 360.331436 
L 102.672207 358.942703 
L 102.803697 358.125284 
L 102.975745 357.07934 
L 103.027127 356.692604 
L 103.202132 355.655449 
L 103.238601 355.365397 
L 103.362766 354.688609 
L 103.405463 354.389768 
L 103.637604 352.640667 
L 103.782236 351.533196 
L 104.427361 346.549578 
L 104.454758 346.351816 
L 104.499345 346.009027 
L 104.656893 344.822451 
L 107.022239 325.516424 
L 107.136352 324.057375 
L 107.260595 323.015825 
L 107.377591 322.150064 
L 107.544867 320.805278 
L 107.659456 319.803281 
L 107.717094 319.209993 
L 108.336122 310.420543 
L 108.366746 310.139281 
L 108.926615 304.720584 
L 109.088002 303.103326 
L 109.289961 301.771724 
L 109.364593 301.314673 
L 109.571833 300.321465 
L 109.687375 299.552388 
L 109.952004 297.974681 
L 109.990061 297.636288 
L 110.121637 296.568369 
L 110.302098 295.267531 
L 110.420808 294.291902 
L 110.631057 292.591143 
L 111.096778 288.794101 
L 111.132391 288.499654 
L 111.320392 286.882395 
L 111.567336 284.715796 
L 111.696133 283.617114 
L 111.72358 283.327063 
L 111.815984 282.40417 
L 111.970109 280.492465 
L 112.178047 277.84684 
L 112.256235 276.858027 
L 112.416112 274.704612 
L 112.449395 274.203613 
L 112.592319 272.41496 
L 112.817422 270.050598 
L 112.86336 269.69902 
L 112.959181 269.149679 
L 113.359723 267.435737 
L 113.389866 267.259948 
L 113.517098 266.728186 
L 113.629475 266.275529 
L 113.659287 266.112924 
L 113.804559 265.480084 
L 116.037887 254.941533 
L 116.273796 253.693431 
L 116.337117 253.412169 
L 116.491306 252.616723 
L 116.584124 252.172856 
L 116.771987 251.192832 
L 117.402541 247.338659 
L 117.467163 246.91237 
L 117.640221 245.725794 
L 117.715811 245.255559 
L 119.460139 231.192438 
L 119.565184 230.396993 
L 119.683227 229.553206 
L 119.895053 228.344657 
L 119.960453 227.905184 
L 120.080237 227.105344 
L 120.222009 226.270346 
L 120.373256 225.202428 
L 120.441409 224.771745 
L 120.595198 223.81809 
L 120.678127 223.347854 
L 121.233692 220.658282 
L 121.360076 220.025442 
L 121.422501 219.792521 
L 122.327813 215.402191 
L 122.449898 214.769351 
L 122.583537 214.083774 
L 123.418953 210.357047 
L 123.552261 209.649496 
L 123.592338 209.451733 
L 123.761081 208.383815 
L 123.836224 207.852053 
L 124.035854 206.37982 
L 124.383215 202.987093 
L 124.923232 197.849659 
L 124.950863 197.577186 
L 125.078259 196.496084 
L 125.491417 192.63312 
L 125.666242 190.659889 
L 125.690624 190.361047 
L 125.986198 186.555215 
L 126.060445 185.452139 
L 126.20232 182.991093 
L 126.452141 177.317503 
L 126.497619 176.32869 
L 126.68785 172.839278 
L 127.163765 168.541237 
L 127.202113 168.286343 
L 127.563575 166.41419 
L 127.69515 165.807718 
L 128.001229 163.948749 
L 128.138189 163.263172 
L 128.819602 156.706242 
L 129.499036 141.197257 
L 129.544509 140.687469 
L 129.664348 139.149315 
L 130.039569 135.299536 
L 131.124243 127.771372 
L 131.19185 127.494504 
L 131.325351 127.147321 
L 131.38449 126.918795 
L 131.475303 126.628744 
L 131.631984 125.903614 
L 131.950918 123.460147 
L 132.334868 120.36626 
L 132.458316 119.737815 
L 132.663045 118.344687 
L 132.80065 117.347084 
L 132.972888 115.958351 
L 133.016223 115.694667 
L 133.250976 113.699462 
L 133.414486 112.095388 
L 133.571333 110.671497 
L 133.806625 108.707054 
L 133.96772 107.454558 
L 134.405797 104.725434 
L 134.595296 103.196069 
L 134.668565 102.690676 
L 135.025399 99.838499 
L 135.100978 99.254001 
L 135.239672 98.124556 
L 135.360026 97.078612 
L 135.653843 94.758197 
L 135.677024 94.538461 
L 136.009737 89.343896 
L 136.246118 77.570427 
L 136.686568 68.376662 
L 137.095639 59.626764 
L 137.164 58.81374 
L 137.372713 57.21406 
L 137.410067 56.941587 
L 137.829109 54.73983 
L 138.629418 53.408228 
L 138.803949 53.267597 
L 138.919684 53.179703 
L 139.336743 52.98194 
L 139.664335 52.872072 
L 140.882393 52.66552 
L 141.303533 52.608388 
L 142.642928 52.450178 
L 142.953138 52.410626 
L 147.803077 52.138153 
L 147.900396 52.120574 
L 149.579176 52.059048 
L 149.579176 52.059048 
" clip-path="url(#p044981f204)" style="fill: none; stroke-dasharray: 10.36,4.48; stroke-dashoffset: 0; stroke: #0072b2; stroke-width: 2.8"/>
   </g>
   <g id="line2d_32">
    <path d="M 55.055 454.84 
L 55.187971 454.61306 
L 55.400827 450.376844 
L 55.58601 446.481038 
L 55.647178 445.49763 
L 56.132576 438.992012 
L 56.632541 437.554725 
L 57.299128 437.365608 
L 58.169957 436.155261 
L 58.247765 436.003967 
L 58.320263 435.852674 
L 58.782689 434.188446 
L 58.91581 433.696742 
L 59.067807 433.091568 
L 59.210874 432.372925 
L 59.277306 432.070338 
L 59.381858 431.692104 
L 59.429637 431.502987 
L 59.608548 430.557403 
L 59.974075 429.157939 
L 60.044686 428.968822 
L 60.495673 426.737244 
L 60.740373 426.321187 
L 60.832294 425.67819 
L 61.057315 425.262133 
L 61.178938 424.581313 
L 61.272887 424.240902 
L 61.475171 423.597905 
L 61.595669 423.295318 
L 61.709804 422.765791 
L 61.790076 422.311911 
L 61.868092 422.009324 
L 61.96664 421.858031 
L 62.071638 421.441974 
L 62.130931 421.215034 
L 62.374819 420.345096 
L 62.462477 420.193803 
L 62.988006 417.546168 
L 63.061627 417.243581 
L 63.186751 416.676231 
L 63.491815 415.31459 
L 64.831805 407.447331 
L 64.975104 406.53957 
L 65.152777 405.140106 
L 65.38197 403.967582 
L 65.463194 403.627172 
L 65.633413 402.643764 
L 66.532143 398.067138 
L 66.663455 397.878021 
L 66.887997 396.592027 
L 66.969521 396.28944 
L 67.152294 396.138146 
L 67.289537 395.306033 
L 67.425863 394.398272 
L 67.966894 391.750637 
L 68.119432 391.145463 
L 68.307174 390.086409 
L 68.433348 389.367765 
L 68.662203 388.649121 
L 68.746001 388.157418 
L 68.922723 387.968301 
L 68.999875 387.514421 
L 69.177869 386.757953 
L 69.331582 386.60666 
L 69.710667 385.736723 
L 69.828135 385.396312 
L 69.88948 385.169372 
L 71.570124 379.382398 
L 71.697249 379.193282 
L 71.817378 378.474638 
L 71.887935 378.172051 
L 73.246325 372.990251 
L 73.438999 372.460724 
L 73.687962 371.85555 
L 73.866133 371.704256 
L 74.012896 371.099083 
L 74.656451 369.472678 
L 74.738117 369.245738 
L 74.941788 368.640564 
L 75.055576 368.451448 
L 75.909588 364.858228 
L 76.295512 363.118354 
L 76.373103 362.929237 
L 76.453604 362.475357 
L 76.571044 362.28624 
L 76.828451 361.000246 
L 76.965827 360.622012 
L 77.107308 360.016838 
L 77.286203 359.033431 
L 77.593102 357.10444 
L 77.775361 355.856269 
L 77.982269 354.759391 
L 78.042919 354.532451 
L 78.147909 353.738161 
L 78.25826 353.208634 
L 78.341039 352.94387 
L 78.541029 351.809169 
L 78.672291 351.582229 
L 78.769373 351.166172 
L 78.931441 351.014879 
L 79.110819 350.598822 
L 79.634131 350.182765 
L 79.822942 350.031472 
L 79.927087 349.615415 
L 80.029682 349.350651 
L 80.209388 348.480714 
L 80.83874 345.417022 
L 81.082565 344.282321 
L 81.16447 343.904087 
L 81.339657 342.655917 
L 81.464174 341.710333 
L 81.569341 341.559039 
L 82.978034 334.296954 
L 83.087039 333.956544 
L 83.6787 331.876259 
L 83.777058 331.611496 
L 83.887869 331.195439 
L 83.975896 330.855028 
L 84.076457 330.476795 
L 84.152496 330.325501 
L 85.504151 323.744237 
L 85.628267 323.025593 
L 86.330053 318.108556 
L 86.594648 317.200796 
L 86.770369 316.709092 
L 87.351599 315.498745 
L 87.464906 314.742277 
L 88.036806 312.245936 
L 88.14045 311.829879 
L 88.978362 308.69054 
L 89.301121 308.4636 
L 89.537704 308.274483 
L 90.040934 308.009719 
L 90.148541 307.896249 
L 91.063745 307.253252 
L 91.60701 306.912842 
L 91.998561 305.475554 
L 92.454344 305.324261 
L 92.799432 304.870381 
L 94.060431 303.886973 
L 94.518821 303.433093 
L 94.802979 303.16833 
L 95.309835 302.638802 
L 95.475385 302.411862 
L 95.588986 302.033629 
L 95.958479 301.579748 
L 96.123565 301.277162 
L 96.237262 301.012398 
L 97.010155 298.818643 
L 97.539213 298.402586 
L 99.294627 297.343532 
L 99.624293 297.116592 
L 99.946915 296.965299 
L 99.983142 296.927475 
L 100.508371 296.738358 
L 100.96413 296.246655 
L 101.028227 296.171008 
L 101.718884 295.981891 
L 101.897978 295.868421 
L 102.584199 295.679304 
L 102.752118 295.528011 
L 103.054539 295.376718 
L 103.174394 295.225424 
L 103.238803 295.149777 
L 103.545329 294.998484 
L 103.645554 294.544604 
L 103.824033 294.27984 
L 103.914008 293.901607 
L 104.019824 293.296433 
L 104.241563 292.275202 
L 104.463611 291.670028 
L 104.635314 291.329618 
L 104.726799 290.989208 
L 104.803199 290.610974 
L 104.966412 290.346211 
L 105.068954 289.930154 
L 105.239208 289.77886 
L 105.306155 289.589744 
L 105.524377 289.43845 
L 105.572381 289.32498 
L 105.856582 289.173687 
L 106.664485 288.341573 
L 106.922165 288.190279 
L 107.018513 287.963339 
L 107.255384 287.812046 
L 107.472371 287.509459 
L 107.589204 287.244695 
L 107.702656 287.017755 
L 107.921632 286.374758 
L 108.27795 285.240057 
L 108.623452 284.294473 
L 108.874355 283.840593 
L 109.114329 283.613653 
L 109.23756 283.348889 
L 109.48276 283.197596 
L 110.56349 281.609015 
L 111.723033 280.776901 
L 112.103035 280.323021 
L 112.21732 280.09608 
L 112.361449 279.944787 
L 113.962704 276.351568 
L 114.073804 276.162451 
L 114.22928 275.897688 
L 114.379739 275.746394 
L 114.683732 275.443807 
L 115.233679 274.649517 
L 116.767994 271.245414 
L 116.977405 270.715887 
L 117.176193 270.18636 
L 117.509341 269.316423 
L 118.194773 267.879135 
L 118.414388 267.727842 
L 118.547149 267.463078 
L 119.159333 267.160492 
L 119.277985 267.009198 
L 119.942026 265.836674 
L 120.093794 265.307147 
L 120.312199 264.512856 
L 120.551815 263.642919 
L 121.089964 262.319102 
L 121.669469 261.373518 
L 121.822233 261.146577 
L 121.863898 261.070931 
L 122.412979 260.881814 
L 122.541645 260.768344 
L 123.043757 260.579227 
L 123.121279 260.465757 
L 123.39811 260.314464 
L 123.409349 260.27664 
L 123.633799 260.125347 
L 123.7694 259.70929 
L 123.916884 259.557996 
L 124.068926 258.914999 
L 124.286752 258.536766 
L 124.430885 258.082885 
L 124.565294 257.666828 
L 124.677618 257.326418 
L 124.80705 256.948185 
L 125.371248 255.20831 
L 125.480425 254.905723 
L 125.655141 254.565313 
L 126.468445 253.279319 
L 126.674855 253.128025 
L 128.006843 251.615091 
L 128.122465 251.161211 
L 128.275721 251.009917 
L 128.586351 249.950863 
L 129.496313 247.794932 
L 129.72029 247.643638 
L 129.818206 247.454521 
L 130.026689 247.265405 
L 130.107781 247.151934 
L 130.279829 247.000641 
L 130.453261 246.849348 
L 130.804448 246.698054 
L 130.885098 246.546761 
L 131.082872 246.395467 
L 131.121068 246.281997 
L 131.326157 246.130704 
L 131.438272 245.941587 
L 131.636044 245.75247 
L 131.708802 245.639 
L 132.195284 245.374237 
L 132.237273 245.29859 
L 132.476988 245.147296 
L 132.557288 244.996003 
L 132.799919 244.84471 
L 133.5548 243.974772 
L 133.639996 243.596539 
L 133.823845 243.256128 
L 133.969612 242.726601 
L 134.150367 242.272721 
L 134.241907 241.970134 
L 134.458163 241.629724 
L 134.652287 241.25149 
L 134.774038 241.062374 
L 135.222734 240.34373 
L 135.832772 239.738556 
L 135.944401 239.625086 
L 136.822783 238.301268 
L 137.027548 237.885211 
L 137.211863 237.620448 
L 137.32665 237.506978 
L 137.467725 237.242214 
L 137.706841 236.901804 
L 138.298958 235.84275 
L 138.424621 235.464516 
L 138.585178 235.124106 
L 138.926236 234.594579 
L 139.289258 234.140699 
L 139.352045 234.027229 
L 139.477186 233.875935 
L 140.341852 232.665588 
L 140.497894 232.514294 
L 140.778053 232.363001 
L 142.019011 231.266124 
L 142.236937 231.11483 
L 142.668653 230.509656 
L 142.885464 229.904483 
L 142.96613 229.564072 
L 143.064428 229.412779 
L 143.372957 228.467195 
L 143.980944 227.219024 
L 144.314422 226.954261 
L 145.018653 226.122147 
L 145.406831 225.857383 
L 145.425191 225.81956 
L 145.820616 225.630443 
L 145.887426 225.516973 
L 146.246422 225.327856 
L 147.235642 223.096278 
L 148.206845 219.767822 
L 148.324732 219.465236 
L 148.503967 219.200472 
L 149.387991 217.914478 
L 150.775588 216.666307 
L 151.358341 215.493783 
L 151.553181 214.964256 
L 151.608422 214.812962 
L 151.780559 214.661669 
L 151.882973 214.396905 
L 152.263925 213.791732 
L 152.508293 213.413498 
L 152.743781 213.110911 
L 152.966103 212.770501 
L 153.206374 212.354444 
L 154.219654 211.6358 
L 154.304475 211.446683 
L 154.498682 211.29539 
L 154.789597 210.803686 
L 155.222499 210.274159 
L 155.508004 209.895926 
L 155.626252 209.631162 
L 156.114404 208.799048 
L 156.29704 208.118228 
L 156.417765 207.588701 
L 156.610443 206.832234 
L 156.727285 206.454 
L 156.818528 206.11359 
L 157.014299 205.470593 
L 157.110134 205.243652 
L 157.275569 204.676302 
L 157.481436 204.487185 
L 157.677581 203.882012 
L 158.099455 203.049898 
L 158.952271 201.007436 
L 159.053095 200.818319 
L 159.192444 200.591379 
L 159.315411 200.515733 
L 159.368572 200.326616 
L 159.695522 198.397624 
L 159.776909 198.170684 
L 159.888712 197.527687 
L 160.040851 197.300747 
L 160.794583 194.766582 
L 160.93653 194.388348 
L 161.047379 194.161408 
L 161.975418 191.173363 
L 162.184629 190.568189 
L 162.507438 190.114309 
L 162.640426 189.736075 
L 162.781318 189.282195 
L 163.147655 188.487904 
L 163.607174 186.596736 
L 163.696253 186.331973 
L 163.824731 185.991563 
L 163.904852 185.575506 
L 164.027538 184.894685 
L 164.180857 184.667745 
L 164.467195 184.516452 
L 164.741539 182.965694 
L 164.825641 182.776577 
L 164.955648 182.398344 
L 165.102053 182.02011 
L 165.369611 181.112349 
L 165.763831 180.696292 
L 166.025988 180.166765 
L 166.422395 179.826355 
L 166.644382 179.334651 
L 166.791671 179.107711 
L 166.972133 178.767301 
L 167.082807 178.351244 
L 167.412048 177.6326 
L 167.559468 177.29219 
L 168.44259 176.157489 
L 168.526282 176.044019 
L 168.741838 175.817079 
L 169.191541 174.909318 
L 169.353778 174.720202 
L 169.757965 173.888088 
L 169.892134 173.698971 
L 169.995282 173.585501 
L 170.244823 173.396384 
L 170.604389 173.055974 
L 170.742685 172.866857 
L 171.071417 172.639917 
L 171.189632 172.526447 
L 171.579939 172.261683 
L 172.195181 171.959096 
L 172.31175 171.807803 
L 172.529668 171.618686 
L 172.657551 171.429569 
L 173.171542 171.164806 
L 173.652382 170.635279 
L 173.780452 170.521809 
L 174.354133 170.105752 
L 174.604593 169.878812 
L 174.848144 169.689695 
L 175.313501 169.500578 
L 175.428861 169.349285 
L 176.217536 168.971051 
L 176.48267 168.630641 
L 177.085088 168.214584 
L 177.257161 167.987644 
L 177.599786 167.685057 
L 177.704452 167.533763 
L 178.169937 167.269 
L 178.294674 167.079883 
L 178.503594 166.890766 
L 178.654538 166.663826 
L 179.047588 166.399063 
L 179.125925 166.323416 
L 180.090674 165.907359 
L 180.226294 165.680419 
L 180.509255 165.491302 
L 180.620835 165.415655 
L 180.877357 165.226538 
L 181.322977 164.886128 
L 181.692776 164.545718 
L 183.752243 163.10843 
L 184.469735 162.919314 
L 184.908794 162.692373 
L 185.449687 162.42761 
L 185.504966 162.351963 
L 185.845004 162.125023 
L 187.621729 160.990322 
L 187.899991 159.704328 
L 188.023278 158.26704 
L 188.224038 157.24581 
L 188.437306 157.018869 
L 188.879758 155.392465 
L 188.99763 154.862938 
L 189.103242 154.711645 
L 189.14868 154.522528 
L 189.251472 154.371234 
L 189.743038 152.74483 
L 189.859303 152.101833 
L 190.783024 149.983725 
L 191.025191 149.756784 
L 191.473402 149.075964 
L 191.582407 148.735554 
L 191.633884 148.508614 
L 191.750725 147.44956 
L 192.279431 146.087919 
L 192.489127 145.255805 
L 192.788226 143.40246 
L 192.903096 142.305583 
L 193.274353 140.452238 
L 193.382114 140.225298 
L 193.566714 139.431007 
L 193.922867 138.523247 
L 194.053433 138.371953 
L 194.148551 138.10719 
L 194.712145 137.728956 
L 194.80947 137.65331 
L 195.024094 137.502016 
L 195.455922 137.275076 
L 196.198076 137.048136 
L 197.000496 136.934666 
L 197.651056 136.859019 
L 200.603549 136.707726 
L 201.408917 136.594255 
L 207.501402 135.799965 
L 208.329969 135.686495 
L 208.822697 135.610848 
L 212.143921 135.459555 
L 219.051093 134.589617 
L 220.060524 134.438324 
L 223.352363 134.135737 
L 225.92868 133.94662 
L 236.586951 132.698449 
L 239.573261 132.017629 
L 240.86082 131.866336 
L 241.15361 131.790689 
L 242.235105 131.525925 
L 246.559119 131.374632 
L 247.270869 131.072045 
L 247.671474 130.882928 
L 248.713434 130.580341 
L 251.822314 129.672581 
L 252.691559 129.294347 
L 252.96783 129.180877 
L 253.451377 128.87829 
L 253.585029 128.65135 
L 253.845285 128.273116 
L 254.881705 127.819236 
L 256.723142 127.667943 
L 257.742672 126.949299 
L 258.84693 126.457595 
L 259.138989 124.831191 
L 259.49629 122.750906 
L 259.606435 122.486142 
L 259.749451 122.372672 
L 260.982977 120.670621 
L 261.201813 120.254564 
L 261.305587 120.103271 
L 261.429658 119.876331 
L 261.535785 119.725037 
L 261.698438 119.42245 
L 261.925632 119.19551 
L 262.077324 119.006393 
L 263.523587 118.40122 
L 265.041547 117.720399 
L 265.196404 117.606929 
L 265.680816 117.342166 
L 266.140254 116.736992 
L 267.095059 116.283112 
L 269.874462 116.131818 
L 270.042613 116.018348 
L 272.098465 115.450998 
L 272.098856 115.413174 
L 273.483908 114.997117 
L 277.62571 113.635476 
L 277.864659 113.33289 
L 278.685892 113.181596 
L 278.944634 112.992479 
L 280.921415 112.500776 
L 280.957107 112.462952 
L 283.546525 111.895602 
L 283.565284 111.857779 
L 283.737218 111.819955 
L 284.948443 111.668662 
L 285.641085 111.403898 
L 289.839164 110.004434 
L 291.364367 109.853141 
L 293.367701 109.361437 
L 293.73293 109.134497 
L 293.922057 108.794086 
L 294.290607 108.567146 
L 295.205934 108.415853 
L 295.705808 108.188913 
L 296.336058 107.924149 
L 297.393385 107.318975 
L 304.948006 105.995158 
L 305.712022 105.843864 
L 309.0122 105.200867 
L 309.979772 104.822634 
L 310.832811 104.4444 
L 311.716226 104.21746 
L 314.002472 104.066167 
L 323.720425 102.666702 
L 323.982807 102.628879 
L 325.811853 102.477585 
L 334.111714 101.380708 
L 337.200853 101.229415 
L 344.781616 100.132537 
L 348.126096 99.754304 
L 350.0494 99.451717 
L 353.85375 98.884366 
L 357.426249 98.468309 
L 364.689345 97.711842 
L 372.0349 96.652788 
L 375.963707 95.934144 
L 384.340358 94.799444 
L 386.416232 94.496857 
L 401.716773 92.719159 
L 411.662706 91.168401 
L 414.159643 90.827991 
L 415.631343 90.411934 
L 415.991493 90.336287 
L 417.227065 90.0337 
L 419.374515 89.768937 
L 425.116417 89.163763 
L 425.585789 89.050293 
L 426.943205 88.823353 
L 426.972885 88.785529 
L 428.16752 88.672059 
L 454.795502 86.175718 
L 454.812098 86.137894 
L 455.534584 85.948777 
L 455.544066 85.910954 
L 457.287257 85.608367 
L 459.867279 85.41925 
L 491.688542 82.658145 
L 491.758635 82.620322 
L 501.123187 81.939501 
L 504.654127 81.674738 
L 507.547999 81.372151 
L 512.469949 81.031741 
L 515.932136 80.615684 
L 526.445711 79.972687 
L 534.780697 79.480983 
L 540.890468 78.951456 
L 540.929168 78.913633 
L 544.63882 78.648869 
L 547.163537 78.308459 
L 550.729559 77.968049 
L 552.850713 77.589815 
L 552.855052 77.551992 
L 554.031832 77.098111 
L 555.75751 76.492938 
L 557.368846 76.265998 
L 558.558723 76.039057 
L 559.851532 75.812117 
L 560.265622 75.660824 
L 562.463164 75.017827 
L 563.879293 74.790887 
L 564.972083 74.526123 
L 566.185557 74.337006 
L 567.442535 73.845303 
L 568.47152 73.618362 
L 570.235605 73.391422 
L 573.824484 72.408015 
L 575.166329 72.218898 
L 575.597158 72.105428 
L 576.616677 71.954135 
L 577.36657 71.802841 
L 579.051153 71.348961 
L 580.601845 71.159844 
L 580.898274 71.084197 
L 582.135605 70.895081 
L 582.830273 70.743787 
L 583.054175 70.66814 
L 584.708709 70.21426 
L 585.119522 69.911673 
L 587.258711 69.382146 
L 589.160289 69.155206 
L 597.302398 67.415331 
L 597.732645 67.301861 
L 599.726948 66.734511 
L 602.429546 66.015867 
L 603.913297 65.637634 
L 603.923921 65.59981 
L 606.186138 65.37287 
L 607.984265 65.14593 
L 610.255624 64.91899 
L 612.65689 64.427286 
L 612.692395 64.389463 
L 613.62105 64.124699 
L 613.641201 64.086876 
L 616.770764 63.481702 
L 618.964302 63.254762 
L 620.626464 63.027822 
L 622.914187 62.800882 
L 624.70081 62.611765 
L 626.653351 62.271355 
L 626.679562 62.233531 
L 629.541939 61.704004 
L 631.08334 61.514887 
L 633.489797 61.287947 
L 636.958471 60.682774 
L 638.181332 60.41801 
L 639.089423 60.19107 
L 641.058741 59.548073 
L 644.883042 58.980722 
L 649.068363 58.337725 
L 649.074815 58.299902 
L 649.995747 58.072962 
L 650.302476 57.997315 
L 652.557497 57.619081 
L 652.694932 57.505611 
L 653.487014 57.013908 
L 653.488756 56.976084 
L 653.942746 56.711321 
L 655.956768 55.727913 
L 664.457833 53.950216 
L 669.502998 53.458512 
L 672.735836 52.966808 
L 673.776782 52.853338 
L 675.96851 52.475105 
L 678.050238 52.059048 
L 678.050238 52.059048 
" clip-path="url(#p044981f204)" style="fill: none; stroke-dasharray: 17.92,4.48,2.8,4.48; stroke-dashoffset: 0; stroke: #d55e00; stroke-width: 2.8"/>
   </g>
   <g id="line2d_33">
    <path d="M 55.055 454.84 
L 55.894259 454.46279 
L 56.909388 452.822367 
L 57.398685 452.537267 
L 57.821762 452.383751 
L 58.509502 452.116195 
L 58.5852 452.059175 
L 58.888715 451.936363 
L 59.166726 451.813551 
L 59.370808 451.690738 
L 60.107561 451.304756 
L 60.205115 451.256508 
L 60.60185 451.116151 
L 60.755133 450.997725 
L 61.282018 450.747714 
L 61.383905 450.69508 
L 61.726085 450.506475 
L 61.869926 450.405594 
L 62.297476 450.181899 
L 62.711754 449.905571 
L 63.506346 449.344143 
L 63.750028 449.181855 
L 63.86473 449.089746 
L 64.147316 448.918686 
L 64.481365 448.703764 
L 65.106965 448.431822 
L 65.192916 448.383574 
L 65.571884 448.225673 
L 65.704337 448.168653 
L 66.027109 447.98882 
L 66.694127 447.602838 
L 69.050575 446.563319 
L 69.633785 446.335238 
L 69.762273 446.304535 
L 69.987935 446.155406 
L 74.342865 444.414101 
L 74.453558 444.348308 
L 74.800138 444.137773 
L 76.015905 443.383354 
L 76.947759 443.058778 
L 77.104439 442.984213 
L 77.463288 442.848242 
L 77.581793 442.813153 
L 77.885372 442.655251 
L 78.058475 442.563142 
L 78.454842 442.378923 
L 78.648659 442.278042 
L 79.954881 441.413968 
L 80.062858 441.313087 
L 80.460461 441.098165 
L 80.572661 441.036759 
L 80.933193 440.764817 
L 81.516113 440.352518 
L 81.733098 440.172685 
L 81.804034 440.023556 
L 81.944065 439.808634 
L 82.145163 439.409494 
L 82.260287 439.07176 
L 82.339452 438.856838 
L 82.478236 438.453311 
L 82.606025 438.181369 
L 82.8006 437.646258 
L 82.910503 437.352385 
L 82.992075 437.146236 
L 84.005514 434.979473 
L 84.119167 434.685601 
L 84.294774 434.238213 
L 84.578789 433.360981 
L 84.706755 433.062722 
L 87.193202 425.395717 
L 87.361067 425.10623 
L 87.520742 424.584277 
L 87.610184 424.360583 
L 87.7291 423.978987 
L 88.172113 422.755249 
L 88.286791 422.562258 
L 88.365168 422.39997 
L 88.487757 422.075395 
L 88.573123 421.908721 
L 88.685793 421.693799 
L 88.754948 421.553442 
L 89.167758 420.478833 
L 89.271296 420.342862 
L 91.165561 415.395275 
L 91.459737 414.197854 
L 91.594291 413.750465 
L 91.683621 413.412731 
L 91.896327 412.680243 
L 92.013325 412.368825 
L 92.143714 411.851259 
L 92.305033 411.430187 
L 92.597644 410.430143 
L 92.667976 410.118726 
L 92.83168 409.526595 
L 92.897316 409.289742 
L 93.175497 407.991439 
L 93.335569 407.364218 
L 93.457339 406.903672 
L 94.886275 401.420973 
L 95.000414 400.837614 
L 95.202512 399.767392 
L 95.363096 398.83314 
L 95.843935 396.631288 
L 95.960383 396.01284 
L 96.149241 395.061043 
L 96.324909 394.280307 
L 96.444786 393.635542 
L 96.957745 391.139817 
L 97.189585 389.907307 
L 97.265535 389.5608 
L 97.463614 388.530053 
L 97.590304 387.946694 
L 97.710088 387.301929 
L 97.806449 386.744886 
L 98.208407 384.600055 
L 98.30592 384.214073 
L 98.453141 383.323683 
L 98.612021 382.455223 
L 98.810285 381.178851 
L 98.886909 380.784097 
L 99.007329 380.227055 
L 99.13692 379.591062 
L 99.523851 377.494478 
L 100.451275 372.98112 
L 100.631064 369.108142 
L 100.746339 363.441225 
L 100.790559 361.682376 
L 100.909744 358.383984 
L 100.990282 357.177791 
L 101.105162 356.256697 
L 101.324639 354.699611 
L 101.518784 353.414466 
L 101.595177 352.8969 
L 102.232273 349.866064 
L 102.290895 349.607281 
L 102.489759 348.348453 
L 102.599301 347.944927 
L 102.918559 346.607148 
L 102.963232 346.370296 
L 103.190001 345.036903 
L 103.301192 344.392138 
L 103.527617 342.96225 
L 104.013726 340.054227 
L 104.204459 338.970846 
L 104.312923 338.172565 
L 104.433357 337.606751 
L 104.84476 335.554028 
L 104.889056 335.418057 
L 105.185292 334.374152 
L 105.217361 334.198705 
L 105.4508 333.404811 
L 105.504557 333.255681 
L 105.64832 332.760045 
L 105.777169 332.374063 
L 105.903529 331.96615 
L 106.421075 329.707279 
L 106.602306 328.641442 
L 108.556611 313.496036 
L 108.618989 313.009173 
L 108.823889 311.583671 
L 108.974233 310.469587 
L 109.031817 309.873069 
L 109.173931 308.938817 
L 109.491129 306.916798 
L 109.624795 305.381643 
L 109.693729 304.355282 
L 109.823401 302.355193 
L 110.209623 296.920743 
L 110.395523 294.797842 
L 110.548146 292.898635 
L 110.622118 291.999473 
L 111.155979 285.477255 
L 111.359653 283.35874 
L 111.427489 282.744678 
L 111.681619 280.827926 
L 112.269018 276.845294 
L 112.388451 275.867181 
L 112.478153 275.248732 
L 112.75427 273.678488 
L 112.868467 272.862662 
L 113.063288 271.121357 
L 113.188838 270.20465 
L 113.300767 269.1432 
L 113.657908 261.037578 
L 113.78975 255.809277 
L 113.921364 254.309211 
L 113.964551 254.050428 
L 114.10705 253.050383 
L 114.358834 251.769625 
L 114.584717 250.234469 
L 114.696711 249.357238 
L 115.15118 246.54571 
L 115.582333 243.66839 
L 115.869841 241.782342 
L 115.918419 241.558648 
L 116.012705 240.997219 
L 117.485851 228.575618 
L 118.088874 219.741894 
L 118.674615 201.175285 
L 118.752617 200.23226 
L 118.944072 198.061112 
L 119.731883 188.832634 
L 119.880724 186.841318 
L 119.900075 186.591307 
L 120.025401 185.319321 
L 120.090369 184.57806 
L 121.216125 171.981012 
L 121.430357 169.007197 
L 121.512307 167.801003 
L 121.622888 165.95443 
L 121.651809 165.634241 
L 121.884294 161.95864 
L 121.995103 160.147156 
L 122.236095 156.550506 
L 122.287796 155.616254 
L 122.663517 146.624629 
L 122.793497 143.922755 
L 123.106779 140.299788 
L 123.157723 139.615547 
L 123.263604 138.519008 
L 123.461804 136.378562 
L 123.50187 135.970649 
L 123.621311 134.742525 
L 123.66529 134.347771 
L 123.780154 133.290707 
L 123.81801 133.014379 
L 123.880346 132.575763 
L 124.130762 130.154603 
L 124.343621 128.215921 
L 124.47814 127.005341 
L 125.243114 121.601594 
L 126.16324 111.811687 
L 126.477268 108.329077 
L 127.025813 102.311268 
L 127.22309 101.069985 
L 127.363911 100.289249 
L 127.685843 97.504038 
L 127.799501 94.775847 
L 127.907585 89.271218 
L 128.070729 77.191737 
L 128.472104 68.257132 
L 128.521297 67.616752 
L 129.204707 59.423408 
L 129.447239 58.936544 
L 129.567474 58.813732 
L 129.669876 58.629513 
L 130.188754 58.024223 
L 130.326911 57.853163 
L 130.47394 57.484726 
L 130.605305 57.21717 
L 131.670674 55.383756 
L 131.976984 55.190765 
L 132.270137 54.980229 
L 132.884754 54.721446 
L 133.004318 54.677584 
L 136.549602 53.33542 
L 137.087615 53.195063 
L 137.427805 53.076636 
L 137.858236 52.945052 
L 138.300827 52.822239 
L 138.923521 52.686268 
L 139.034144 52.668724 
L 139.497736 52.563456 
L 139.942851 52.431871 
L 140.398611 52.361693 
L 141.355178 52.230108 
L 141.470874 52.199405 
L 144.588791 52.059048 
L 144.588791 52.059048 
" clip-path="url(#p044981f204)" style="fill: none; stroke-dasharray: 2.8,4.62; stroke-dashoffset: 0; stroke: #cc79a7; stroke-width: 2.8"/>
   </g>
   <g id="patch_3">
    <path d="M 55.055 454.84 
L 55.055 31.92 
" style="fill: none; stroke: #000000; stroke-width: 0.8; stroke-linejoin: miter; stroke-linecap: square"/>
   </g>
   <g id="patch_4">
    <path d="M 709.2 454.84 
L 709.2 31.92 
" style="fill: none; stroke: #000000; stroke-width: 0.8; stroke-linejoin: miter; stroke-linecap: square"/>
   </g>
   <g id="patch_5">
    <path d="M 55.055 454.84 
L 709.2 454.84 
" style="fill: none; stroke: #000000; stroke-width: 0.8; stroke-linejoin: miter; stroke-linecap: square"/>
   </g>
   <g id="patch_6">
    <path d="M 55.055 31.92 
L 709.2 31.92 
" style="fill: none; stroke: #000000; stroke-width: 0.8; stroke-linejoin: miter; stroke-linecap: square"/>
   </g>
   <g id="text_18">
    <!-- CDF Comparison -->
    <g transform="translate(289.338437 25.92) scale(0.2 -0.2)">
     <defs>
      <path id="DejaVuSans-Bold-43" d="M 4288 256 
Q 3956 84 3597 -3 
Q 3238 -91 2847 -91 
Q 1681 -91 1000 561 
Q 319 1213 319 2328 
Q 319 3447 1000 4098 
Q 1681 4750 2847 4750 
Q 3238 4750 3597 4662 
Q 3956 4575 4288 4403 
L 4288 3438 
Q 3953 3666 3628 3772 
Q 3303 3878 2944 3878 
Q 2300 3878 1931 3465 
Q 1563 3053 1563 2328 
Q 1563 1606 1931 1193 
Q 2300 781 2944 781 
Q 3303 781 3628 887 
Q 3953 994 4288 1222 
L 4288 256 
z
" transform="scale(0.015625)"/>
      <path id="DejaVuSans-Bold-44" d="M 1791 3756 
L 1791 909 
L 2222 909 
Q 2959 909 3348 1275 
Q 3738 1641 3738 2338 
Q 3738 3031 3350 3393 
Q 2963 3756 2222 3756 
L 1791 3756 
z
M 588 4666 
L 1856 4666 
Q 2919 4666 3439 4514 
Q 3959 4363 4331 4000 
Q 4659 3684 4818 3271 
Q 4978 2859 4978 2338 
Q 4978 1809 4818 1395 
Q 4659 981 4331 666 
Q 3956 303 3431 151 
Q 2906 0 1856 0 
L 588 0 
L 588 4666 
z
" transform="scale(0.015625)"/>
      <path id="DejaVuSans-Bold-46" d="M 588 4666 
L 3834 4666 
L 3834 3756 
L 1791 3756 
L 1791 2888 
L 3713 2888 
L 3713 1978 
L 1791 1978 
L 1791 0 
L 588 0 
L 588 4666 
z
" transform="scale(0.015625)"/>
      <path id="DejaVuSans-Bold-20" transform="scale(0.015625)"/>
      <path id="DejaVuSans-Bold-6f" d="M 2203 2784 
Q 1831 2784 1636 2517 
Q 1441 2250 1441 1747 
Q 1441 1244 1636 976 
Q 1831 709 2203 709 
Q 2569 709 2762 976 
Q 2956 1244 2956 1747 
Q 2956 2250 2762 2517 
Q 2569 2784 2203 2784 
z
M 2203 3584 
Q 3106 3584 3614 3096 
Q 4122 2609 4122 1747 
Q 4122 884 3614 396 
Q 3106 -91 2203 -91 
Q 1297 -91 786 396 
Q 275 884 275 1747 
Q 275 2609 786 3096 
Q 1297 3584 2203 3584 
z
" transform="scale(0.015625)"/>
      <path id="DejaVuSans-Bold-6d" d="M 3781 2919 
Q 3994 3244 4286 3414 
Q 4578 3584 4928 3584 
Q 5531 3584 5847 3212 
Q 6163 2841 6163 2131 
L 6163 0 
L 5038 0 
L 5038 1825 
Q 5041 1866 5042 1909 
Q 5044 1953 5044 2034 
Q 5044 2406 4934 2573 
Q 4825 2741 4581 2741 
Q 4263 2741 4089 2478 
Q 3916 2216 3909 1719 
L 3909 0 
L 2784 0 
L 2784 1825 
Q 2784 2406 2684 2573 
Q 2584 2741 2328 2741 
Q 2006 2741 1831 2477 
Q 1656 2213 1656 1722 
L 1656 0 
L 531 0 
L 531 3500 
L 1656 3500 
L 1656 2988 
Q 1863 3284 2130 3434 
Q 2397 3584 2719 3584 
Q 3081 3584 3359 3409 
Q 3638 3234 3781 2919 
z
" transform="scale(0.015625)"/>
      <path id="DejaVuSans-Bold-70" d="M 1656 506 
L 1656 -1331 
L 538 -1331 
L 538 3500 
L 1656 3500 
L 1656 2988 
Q 1888 3294 2169 3439 
Q 2450 3584 2816 3584 
Q 3463 3584 3878 3070 
Q 4294 2556 4294 1747 
Q 4294 938 3878 423 
Q 3463 -91 2816 -91 
Q 2450 -91 2169 54 
Q 1888 200 1656 506 
z
M 2400 2772 
Q 2041 2772 1848 2508 
Q 1656 2244 1656 1747 
Q 1656 1250 1848 986 
Q 2041 722 2400 722 
Q 2759 722 2948 984 
Q 3138 1247 3138 1747 
Q 3138 2247 2948 2509 
Q 2759 2772 2400 2772 
z
" transform="scale(0.015625)"/>
      <path id="DejaVuSans-Bold-61" d="M 2106 1575 
Q 1756 1575 1579 1456 
Q 1403 1338 1403 1106 
Q 1403 894 1545 773 
Q 1688 653 1941 653 
Q 2256 653 2472 879 
Q 2688 1106 2688 1447 
L 2688 1575 
L 2106 1575 
z
M 3816 1997 
L 3816 0 
L 2688 0 
L 2688 519 
Q 2463 200 2181 54 
Q 1900 -91 1497 -91 
Q 953 -91 614 226 
Q 275 544 275 1050 
Q 275 1666 698 1953 
Q 1122 2241 2028 2241 
L 2688 2241 
L 2688 2328 
Q 2688 2594 2478 2717 
Q 2269 2841 1825 2841 
Q 1466 2841 1156 2769 
Q 847 2697 581 2553 
L 581 3406 
Q 941 3494 1303 3539 
Q 1666 3584 2028 3584 
Q 2975 3584 3395 3211 
Q 3816 2838 3816 1997 
z
" transform="scale(0.015625)"/>
      <path id="DejaVuSans-Bold-72" d="M 3138 2547 
Q 2991 2616 2845 2648 
Q 2700 2681 2553 2681 
Q 2122 2681 1889 2404 
Q 1656 2128 1656 1613 
L 1656 0 
L 538 0 
L 538 3500 
L 1656 3500 
L 1656 2925 
Q 1872 3269 2151 3426 
Q 2431 3584 2822 3584 
Q 2878 3584 2943 3579 
Q 3009 3575 3134 3559 
L 3138 2547 
z
" transform="scale(0.015625)"/>
      <path id="DejaVuSans-Bold-69" d="M 538 3500 
L 1656 3500 
L 1656 0 
L 538 0 
L 538 3500 
z
M 538 4863 
L 1656 4863 
L 1656 3950 
L 538 3950 
L 538 4863 
z
" transform="scale(0.015625)"/>
      <path id="DejaVuSans-Bold-73" d="M 3272 3391 
L 3272 2541 
Q 2913 2691 2578 2766 
Q 2244 2841 1947 2841 
Q 1628 2841 1473 2761 
Q 1319 2681 1319 2516 
Q 1319 2381 1436 2309 
Q 1553 2238 1856 2203 
L 2053 2175 
Q 2913 2066 3209 1816 
Q 3506 1566 3506 1031 
Q 3506 472 3093 190 
Q 2681 -91 1863 -91 
Q 1516 -91 1145 -36 
Q 775 19 384 128 
L 384 978 
Q 719 816 1070 734 
Q 1422 653 1784 653 
Q 2113 653 2278 743 
Q 2444 834 2444 1013 
Q 2444 1163 2330 1236 
Q 2216 1309 1875 1350 
L 1678 1375 
Q 931 1469 631 1722 
Q 331 1975 331 2491 
Q 331 3047 712 3315 
Q 1094 3584 1881 3584 
Q 2191 3584 2531 3537 
Q 2872 3491 3272 3391 
z
" transform="scale(0.015625)"/>
      <path id="DejaVuSans-Bold-6e" d="M 4056 2131 
L 4056 0 
L 2931 0 
L 2931 347 
L 2931 1631 
Q 2931 2084 2911 2256 
Q 2891 2428 2841 2509 
Q 2775 2619 2662 2680 
Q 2550 2741 2406 2741 
Q 2056 2741 1856 2470 
Q 1656 2200 1656 1722 
L 1656 0 
L 538 0 
L 538 3500 
L 1656 3500 
L 1656 2988 
Q 1909 3294 2193 3439 
Q 2478 3584 2822 3584 
Q 3428 3584 3742 3212 
Q 4056 2841 4056 2131 
z
" transform="scale(0.015625)"/>
     </defs>
     <use xlink:href="#DejaVuSans-Bold-43"/>
     <use xlink:href="#DejaVuSans-Bold-44" transform="translate(73.388672 0)"/>
     <use xlink:href="#DejaVuSans-Bold-46" transform="translate(156.396484 0)"/>
     <use xlink:href="#DejaVuSans-Bold-20" transform="translate(224.707031 0)"/>
     <use xlink:href="#DejaVuSans-Bold-43" transform="translate(259.521484 0)"/>
     <use xlink:href="#DejaVuSans-Bold-6f" transform="translate(332.910156 0)"/>
     <use xlink:href="#DejaVuSans-Bold-6d" transform="translate(401.611328 0)"/>
     <use xlink:href="#DejaVuSans-Bold-70" transform="translate(505.810547 0)"/>
     <use xlink:href="#DejaVuSans-Bold-61" transform="translate(577.392578 0)"/>
     <use xlink:href="#DejaVuSans-Bold-72" transform="translate(644.873047 0)"/>
     <use xlink:href="#DejaVuSans-Bold-69" transform="translate(694.189453 0)"/>
     <use xlink:href="#DejaVuSans-Bold-73" transform="translate(728.466797 0)"/>
     <use xlink:href="#DejaVuSans-Bold-6f" transform="translate(787.988281 0)"/>
     <use xlink:href="#DejaVuSans-Bold-6e" transform="translate(856.689453 0)"/>
    </g>
   </g>
   <g id="legend_1">
    <g id="patch_7">
     <path d="M 582.970312 447.84 
L 699.4 447.84 
Q 702.2 447.84 702.2 445.04 
L 702.2 384.4025 
Q 702.2 381.6025 699.4 381.6025 
L 582.970312 381.6025 
Q 580.170312 381.6025 580.170312 384.4025 
L 580.170312 445.04 
Q 580.170312 447.84 582.970312 447.84 
z
" style="fill: #ffffff; opacity: 0.95; stroke: #000000; stroke-linejoin: miter"/>
    </g>
    <g id="line2d_34">
     <path d="M 585.770312 392.940313 
L 599.770312 392.940313 
L 613.770312 392.940313 
" style="fill: none; stroke-dasharray: 10.36,4.48; stroke-dashoffset: 0; stroke: #0072b2; stroke-width: 2.8"/>
    </g>
    <g id="text_19">
     <!-- dlio -->
     <g transform="translate(624.970312 397.840312) scale(0.14 -0.14)">
      <defs>
       <path id="DejaVuSans-64" d="M 2906 2969 
L 2906 4863 
L 3481 4863 
L 3481 0 
L 2906 0 
L 2906 525 
Q 2725 213 2448 61 
Q 2172 -91 1784 -91 
Q 1150 -91 751 415 
Q 353 922 353 1747 
Q 353 2572 751 3078 
Q 1150 3584 1784 3584 
Q 2172 3584 2448 3432 
Q 2725 3281 2906 2969 
z
M 947 1747 
Q 947 1113 1208 752 
Q 1469 391 1925 391 
Q 2381 391 2643 752 
Q 2906 1113 2906 1747 
Q 2906 2381 2643 2742 
Q 2381 3103 1925 3103 
Q 1469 3103 1208 2742 
Q 947 2381 947 1747 
z
" transform="scale(0.015625)"/>
       <path id="DejaVuSans-6c" d="M 603 4863 
L 1178 4863 
L 1178 0 
L 603 0 
L 603 4863 
z
" transform="scale(0.015625)"/>
       <path id="DejaVuSans-69" d="M 603 3500 
L 1178 3500 
L 1178 0 
L 603 0 
L 603 3500 
z
M 603 4863 
L 1178 4863 
L 1178 4134 
L 603 4134 
L 603 4863 
z
" transform="scale(0.015625)"/>
      </defs>
      <use xlink:href="#DejaVuSans-64"/>
      <use xlink:href="#DejaVuSans-6c" transform="translate(63.476562 0)"/>
      <use xlink:href="#DejaVuSans-69" transform="translate(91.259766 0)"/>
      <use xlink:href="#DejaVuSans-6f" transform="translate(119.042969 0)"/>
     </g>
    </g>
    <g id="line2d_35">
     <path d="M 585.770312 413.489688 
L 599.770312 413.489688 
L 613.770312 413.489688 
" style="fill: none; stroke-dasharray: 17.92,4.48,2.8,4.48; stroke-dashoffset: 0; stroke: #d55e00; stroke-width: 2.8"/>
    </g>
    <g id="text_20">
     <!-- fastlio -->
     <g transform="translate(624.970312 418.389687) scale(0.14 -0.14)">
      <defs>
       <path id="DejaVuSans-66" d="M 2375 4863 
L 2375 4384 
L 1825 4384 
Q 1516 4384 1395 4259 
Q 1275 4134 1275 3809 
L 1275 3500 
L 2222 3500 
L 2222 3053 
L 1275 3053 
L 1275 0 
L 697 0 
L 697 3053 
L 147 3053 
L 147 3500 
L 697 3500 
L 697 3744 
Q 697 4328 969 4595 
Q 1241 4863 1831 4863 
L 2375 4863 
z
" transform="scale(0.015625)"/>
       <path id="DejaVuSans-61" d="M 2194 1759 
Q 1497 1759 1228 1600 
Q 959 1441 959 1056 
Q 959 750 1161 570 
Q 1363 391 1709 391 
Q 2188 391 2477 730 
Q 2766 1069 2766 1631 
L 2766 1759 
L 2194 1759 
z
M 3341 1997 
L 3341 0 
L 2766 0 
L 2766 531 
Q 2569 213 2275 61 
Q 1981 -91 1556 -91 
Q 1019 -91 701 211 
Q 384 513 384 1019 
Q 384 1609 779 1909 
Q 1175 2209 1959 2209 
L 2766 2209 
L 2766 2266 
Q 2766 2663 2505 2880 
Q 2244 3097 1772 3097 
Q 1472 3097 1187 3025 
Q 903 2953 641 2809 
L 641 3341 
Q 956 3463 1253 3523 
Q 1550 3584 1831 3584 
Q 2591 3584 2966 3190 
Q 3341 2797 3341 1997 
z
" transform="scale(0.015625)"/>
       <path id="DejaVuSans-73" d="M 2834 3397 
L 2834 2853 
Q 2591 2978 2328 3040 
Q 2066 3103 1784 3103 
Q 1356 3103 1142 2972 
Q 928 2841 928 2578 
Q 928 2378 1081 2264 
Q 1234 2150 1697 2047 
L 1894 2003 
Q 2506 1872 2764 1633 
Q 3022 1394 3022 966 
Q 3022 478 2636 193 
Q 2250 -91 1575 -91 
Q 1294 -91 989 -36 
Q 684 19 347 128 
L 347 722 
Q 666 556 975 473 
Q 1284 391 1588 391 
Q 1994 391 2212 530 
Q 2431 669 2431 922 
Q 2431 1156 2273 1281 
Q 2116 1406 1581 1522 
L 1381 1569 
Q 847 1681 609 1914 
Q 372 2147 372 2553 
Q 372 3047 722 3315 
Q 1072 3584 1716 3584 
Q 2034 3584 2315 3537 
Q 2597 3491 2834 3397 
z
" transform="scale(0.015625)"/>
       <path id="DejaVuSans-74" d="M 1172 4494 
L 1172 3500 
L 2356 3500 
L 2356 3053 
L 1172 3053 
L 1172 1153 
Q 1172 725 1289 603 
Q 1406 481 1766 481 
L 2356 481 
L 2356 0 
L 1766 0 
Q 1100 0 847 248 
Q 594 497 594 1153 
L 594 3053 
L 172 3053 
L 172 3500 
L 594 3500 
L 594 4494 
L 1172 4494 
z
" transform="scale(0.015625)"/>
      </defs>
      <use xlink:href="#DejaVuSans-66"/>
      <use xlink:href="#DejaVuSans-61" transform="translate(35.205078 0)"/>
      <use xlink:href="#DejaVuSans-73" transform="translate(96.484375 0)"/>
      <use xlink:href="#DejaVuSans-74" transform="translate(148.583984 0)"/>
      <use xlink:href="#DejaVuSans-6c" transform="translate(187.792969 0)"/>
      <use xlink:href="#DejaVuSans-69" transform="translate(215.576172 0)"/>
      <use xlink:href="#DejaVuSans-6f" transform="translate(243.359375 0)"/>
     </g>
    </g>
    <g id="line2d_36">
     <path d="M 585.770312 434.039062 
L 599.770312 434.039062 
L 613.770312 434.039062 
" style="fill: none; stroke-dasharray: 2.8,4.62; stroke-dashoffset: 0; stroke: #cc79a7; stroke-width: 2.8"/>
    </g>
    <g id="text_21">
     <!-- lego_loam -->
     <g transform="translate(624.970312 438.939062) scale(0.14 -0.14)">
      <defs>
       <path id="DejaVuSans-65" d="M 3597 1894 
L 3597 1613 
L 953 1613 
Q 991 1019 1311 708 
Q 1631 397 2203 397 
Q 2534 397 2845 478 
Q 3156 559 3463 722 
L 3463 178 
Q 3153 47 2828 -22 
Q 2503 -91 2169 -91 
Q 1331 -91 842 396 
Q 353 884 353 1716 
Q 353 2575 817 3079 
Q 1281 3584 2069 3584 
Q 2775 3584 3186 3129 
Q 3597 2675 3597 1894 
z
M 3022 2063 
Q 3016 2534 2758 2815 
Q 2500 3097 2075 3097 
Q 1594 3097 1305 2825 
Q 1016 2553 972 2059 
L 3022 2063 
z
" transform="scale(0.015625)"/>
       <path id="DejaVuSans-67" d="M 2906 1791 
Q 2906 2416 2648 2759 
Q 2391 3103 1925 3103 
Q 1463 3103 1205 2759 
Q 947 2416 947 1791 
Q 947 1169 1205 825 
Q 1463 481 1925 481 
Q 2391 481 2648 825 
Q 2906 1169 2906 1791 
z
M 3481 434 
Q 3481 -459 3084 -895 
Q 2688 -1331 1869 -1331 
Q 1566 -1331 1297 -1286 
Q 1028 -1241 775 -1147 
L 775 -588 
Q 1028 -725 1275 -790 
Q 1522 -856 1778 -856 
Q 2344 -856 2625 -561 
Q 2906 -266 2906 331 
L 2906 616 
Q 2728 306 2450 153 
Q 2172 0 1784 0 
Q 1141 0 747 490 
Q 353 981 353 1791 
Q 353 2603 747 3093 
Q 1141 3584 1784 3584 
Q 2172 3584 2450 3431 
Q 2728 3278 2906 2969 
L 2906 3500 
L 3481 3500 
L 3481 434 
z
" transform="scale(0.015625)"/>
       <path id="DejaVuSans-5f" d="M 3263 -1063 
L 3263 -1509 
L -63 -1509 
L -63 -1063 
L 3263 -1063 
z
" transform="scale(0.015625)"/>
      </defs>
      <use xlink:href="#DejaVuSans-6c"/>
      <use xlink:href="#DejaVuSans-65" transform="translate(27.783203 0)"/>
      <use xlink:href="#DejaVuSans-67" transform="translate(89.306641 0)"/>
      <use xlink:href="#DejaVuSans-6f" transform="translate(152.783203 0)"/>
      <use xlink:href="#DejaVuSans-5f" transform="translate(213.964844 0)"/>
      <use xlink:href="#DejaVuSans-6c" transform="translate(263.964844 0)"/>
      <use xlink:href="#DejaVuSans-6f" transform="translate(291.748047 0)"/>
      <use xlink:href="#DejaVuSans-61" transform="translate(352.929688 0)"/>
      <use xlink:href="#DejaVuSans-6d" transform="translate(414.208984 0)"/>
     </g>
    </g>
   </g>
  </g>
 </g>
 <defs>
  <clipPath id="p044981f204">
   <rect x="55.055" y="31.92" width="654.145" height="422.92"/>
  </clipPath>
 </defs>
</svg>
