<?xml version="1.0" encoding="utf-8" standalone="no"?>
<!DOCTYPE svg PUBLIC "-//W3C//DTD SVG 1.1//EN"
  "http://www.w3.org/Graphics/SVG/1.1/DTD/svg11.dtd">
<svg xmlns:xlink="http://www.w3.org/1999/xlink" width="720pt" height="504pt" viewBox="0 0 720 504" xmlns="http://www.w3.org/2000/svg" version="1.1">
 <metadata>
  <rdf:RDF xmlns:dc="http://purl.org/dc/elements/1.1/" xmlns:cc="http://creativecommons.org/ns#" xmlns:rdf="http://www.w3.org/1999/02/22-rdf-syntax-ns#">
   <cc:Work>
    <dc:type rdf:resource="http://purl.org/dc/dcmitype/StillImage"/>
    <dc:date>2025-12-01T21:25:20.465712</dc:date>
    <dc:format>image/svg+xml</dc:format>
    <dc:creator>
     <cc:Agent>
      <dc:title>Matplotlib v3.10.7, https://matplotlib.org/</dc:title>
     </cc:Agent>
    </dc:creator>
   </cc:Work>
  </rdf:RDF>
 </metadata>
 <defs>
  <style type="text/css">*{stroke-linejoin: round; stroke-linecap: butt}</style>
 </defs>
 <g id="figure_1">
  <g id="patch_1">
   <path d="M 0 504 
L 720 504 
L 720 0 
L 0 0 
z
" style="fill: #ffffff"/>
  </g>
  <g id="axes_1">
   <g id="patch_2">
    <path d="M 54.92 454.84 
L 709.2 454.84 
L 709.2 32.64 
L 54.92 32.64 
z
" style="fill: #ffffff"/>
   </g>
   <g id="matplotlib.axis_1">
    <g id="xtick_1">
     <g id="line2d_1">
      <path d="M 83.129254 454.84 
L 83.129254 32.64 
" clip-path="url(#p0851f6286b)" style="fill: none; stroke-dasharray: 2.96,1.28; stroke-dashoffset: 0; stroke: #b0b0b0; stroke-opacity: 0.3; stroke-width: 0.8"/>
     </g>
     <g id="line2d_2">
      <defs>
       <path id="mf993346269" d="M 0 0 
L 0 3.5 
" style="stroke: #000000; stroke-width: 0.8"/>
      </defs>
      <g>
       <use xlink:href="#mf993346269" x="83.129254" y="454.84" style="stroke: #000000; stroke-width: 0.8"/>
      </g>
     </g>
     <g id="text_1">
      <!-- 0 -->
      <g transform="translate(79.948004 469.438437) scale(0.1 -0.1)">
       <defs>
        <path id="DejaVuSans-30" d="M 2034 4250 
Q 1547 4250 1301 3770 
Q 1056 3291 1056 2328 
Q 1056 1369 1301 889 
Q 1547 409 2034 409 
Q 2525 409 2770 889 
Q 3016 1369 3016 2328 
Q 3016 3291 2770 3770 
Q 2525 4250 2034 4250 
z
M 2034 4750 
Q 2819 4750 3233 4129 
Q 3647 3509 3647 2328 
Q 3647 1150 3233 529 
Q 2819 -91 2034 -91 
Q 1250 -91 836 529 
Q 422 1150 422 2328 
Q 422 3509 836 4129 
Q 1250 4750 2034 4750 
z
" transform="scale(0.015625)"/>
       </defs>
       <use xlink:href="#DejaVuSans-30"/>
      </g>
     </g>
    </g>
    <g id="xtick_2">
     <g id="line2d_3">
      <path d="M 189.736761 454.84 
L 189.736761 32.64 
" clip-path="url(#p0851f6286b)" style="fill: none; stroke-dasharray: 2.96,1.28; stroke-dashoffset: 0; stroke: #b0b0b0; stroke-opacity: 0.3; stroke-width: 0.8"/>
     </g>
     <g id="line2d_4">
      <g>
       <use xlink:href="#mf993346269" x="189.736761" y="454.84" style="stroke: #000000; stroke-width: 0.8"/>
      </g>
     </g>
     <g id="text_2">
      <!-- 5 -->
      <g transform="translate(186.555511 469.438437) scale(0.1 -0.1)">
       <defs>
        <path id="DejaVuSans-35" d="M 691 4666 
L 3169 4666 
L 3169 4134 
L 1269 4134 
L 1269 2991 
Q 1406 3038 1543 3061 
Q 1681 3084 1819 3084 
Q 2600 3084 3056 2656 
Q 3513 2228 3513 1497 
Q 3513 744 3044 326 
Q 2575 -91 1722 -91 
Q 1428 -91 1123 -41 
Q 819 9 494 109 
L 494 744 
Q 775 591 1075 516 
Q 1375 441 1709 441 
Q 2250 441 2565 725 
Q 2881 1009 2881 1497 
Q 2881 1984 2565 2268 
Q 2250 2553 1709 2553 
Q 1456 2553 1204 2497 
Q 953 2441 691 2322 
L 691 4666 
z
" transform="scale(0.015625)"/>
       </defs>
       <use xlink:href="#DejaVuSans-35"/>
      </g>
     </g>
    </g>
    <g id="xtick_3">
     <g id="line2d_5">
      <path d="M 296.344268 454.84 
L 296.344268 32.64 
" clip-path="url(#p0851f6286b)" style="fill: none; stroke-dasharray: 2.96,1.28; stroke-dashoffset: 0; stroke: #b0b0b0; stroke-opacity: 0.3; stroke-width: 0.8"/>
     </g>
     <g id="line2d_6">
      <g>
       <use xlink:href="#mf993346269" x="296.344268" y="454.84" style="stroke: #000000; stroke-width: 0.8"/>
      </g>
     </g>
     <g id="text_3">
      <!-- 10 -->
      <g transform="translate(289.981768 469.438437) scale(0.1 -0.1)">
       <defs>
        <path id="DejaVuSans-31" d="M 794 531 
L 1825 531 
L 1825 4091 
L 703 3866 
L 703 4441 
L 1819 4666 
L 2450 4666 
L 2450 531 
L 3481 531 
L 3481 0 
L 794 0 
L 794 531 
z
" transform="scale(0.015625)"/>
       </defs>
       <use xlink:href="#DejaVuSans-31"/>
       <use xlink:href="#DejaVuSans-30" transform="translate(63.623047 0)"/>
      </g>
     </g>
    </g>
    <g id="xtick_4">
     <g id="line2d_7">
      <path d="M 402.951776 454.84 
L 402.951776 32.64 
" clip-path="url(#p0851f6286b)" style="fill: none; stroke-dasharray: 2.96,1.28; stroke-dashoffset: 0; stroke: #b0b0b0; stroke-opacity: 0.3; stroke-width: 0.8"/>
     </g>
     <g id="line2d_8">
      <g>
       <use xlink:href="#mf993346269" x="402.951776" y="454.84" style="stroke: #000000; stroke-width: 0.8"/>
      </g>
     </g>
     <g id="text_4">
      <!-- 15 -->
      <g transform="translate(396.589276 469.438437) scale(0.1 -0.1)">
       <use xlink:href="#DejaVuSans-31"/>
       <use xlink:href="#DejaVuSans-35" transform="translate(63.623047 0)"/>
      </g>
     </g>
    </g>
    <g id="xtick_5">
     <g id="line2d_9">
      <path d="M 509.559283 454.84 
L 509.559283 32.64 
" clip-path="url(#p0851f6286b)" style="fill: none; stroke-dasharray: 2.96,1.28; stroke-dashoffset: 0; stroke: #b0b0b0; stroke-opacity: 0.3; stroke-width: 0.8"/>
     </g>
     <g id="line2d_10">
      <g>
       <use xlink:href="#mf993346269" x="509.559283" y="454.84" style="stroke: #000000; stroke-width: 0.8"/>
      </g>
     </g>
     <g id="text_5">
      <!-- 20 -->
      <g transform="translate(503.196783 469.438437) scale(0.1 -0.1)">
       <defs>
        <path id="DejaVuSans-32" d="M 1228 531 
L 3431 531 
L 3431 0 
L 469 0 
L 469 531 
Q 828 903 1448 1529 
Q 2069 2156 2228 2338 
Q 2531 2678 2651 2914 
Q 2772 3150 2772 3378 
Q 2772 3750 2511 3984 
Q 2250 4219 1831 4219 
Q 1534 4219 1204 4116 
Q 875 4013 500 3803 
L 500 4441 
Q 881 4594 1212 4672 
Q 1544 4750 1819 4750 
Q 2544 4750 2975 4387 
Q 3406 4025 3406 3419 
Q 3406 3131 3298 2873 
Q 3191 2616 2906 2266 
Q 2828 2175 2409 1742 
Q 1991 1309 1228 531 
z
" transform="scale(0.015625)"/>
       </defs>
       <use xlink:href="#DejaVuSans-32"/>
       <use xlink:href="#DejaVuSans-30" transform="translate(63.623047 0)"/>
      </g>
     </g>
    </g>
    <g id="xtick_6">
     <g id="line2d_11">
      <path d="M 616.166791 454.84 
L 616.166791 32.64 
" clip-path="url(#p0851f6286b)" style="fill: none; stroke-dasharray: 2.96,1.28; stroke-dashoffset: 0; stroke: #b0b0b0; stroke-opacity: 0.3; stroke-width: 0.8"/>
     </g>
     <g id="line2d_12">
      <g>
       <use xlink:href="#mf993346269" x="616.166791" y="454.84" style="stroke: #000000; stroke-width: 0.8"/>
      </g>
     </g>
     <g id="text_6">
      <!-- 25 -->
      <g transform="translate(609.804291 469.438437) scale(0.1 -0.1)">
       <use xlink:href="#DejaVuSans-32"/>
       <use xlink:href="#DejaVuSans-35" transform="translate(63.623047 0)"/>
      </g>
     </g>
    </g>
    <g id="text_7">
     <!-- XY Error [m] -->
     <g transform="translate(326.954688 489.195312) scale(0.18 -0.18)">
      <defs>
       <path id="DejaVuSans-58" d="M 403 4666 
L 1081 4666 
L 2241 2931 
L 3406 4666 
L 4084 4666 
L 2584 2425 
L 4184 0 
L 3506 0 
L 2194 1984 
L 872 0 
L 191 0 
L 1856 2491 
L 403 4666 
z
" transform="scale(0.015625)"/>
       <path id="DejaVuSans-59" d="M -13 4666 
L 666 4666 
L 1959 2747 
L 3244 4666 
L 3922 4666 
L 2272 2222 
L 2272 0 
L 1638 0 
L 1638 2222 
L -13 4666 
z
" transform="scale(0.015625)"/>
       <path id="DejaVuSans-20" transform="scale(0.015625)"/>
       <path id="DejaVuSans-45" d="M 628 4666 
L 3578 4666 
L 3578 4134 
L 1259 4134 
L 1259 2753 
L 3481 2753 
L 3481 2222 
L 1259 2222 
L 1259 531 
L 3634 531 
L 3634 0 
L 628 0 
L 628 4666 
z
" transform="scale(0.015625)"/>
       <path id="DejaVuSans-72" d="M 2631 2963 
Q 2534 3019 2420 3045 
Q 2306 3072 2169 3072 
Q 1681 3072 1420 2755 
Q 1159 2438 1159 1844 
L 1159 0 
L 581 0 
L 581 3500 
L 1159 3500 
L 1159 2956 
Q 1341 3275 1631 3429 
Q 1922 3584 2338 3584 
Q 2397 3584 2469 3576 
Q 2541 3569 2628 3553 
L 2631 2963 
z
" transform="scale(0.015625)"/>
       <path id="DejaVuSans-6f" d="M 1959 3097 
Q 1497 3097 1228 2736 
Q 959 2375 959 1747 
Q 959 1119 1226 758 
Q 1494 397 1959 397 
Q 2419 397 2687 759 
Q 2956 1122 2956 1747 
Q 2956 2369 2687 2733 
Q 2419 3097 1959 3097 
z
M 1959 3584 
Q 2709 3584 3137 3096 
Q 3566 2609 3566 1747 
Q 3566 888 3137 398 
Q 2709 -91 1959 -91 
Q 1206 -91 779 398 
Q 353 888 353 1747 
Q 353 2609 779 3096 
Q 1206 3584 1959 3584 
z
" transform="scale(0.015625)"/>
       <path id="DejaVuSans-5b" d="M 550 4863 
L 1875 4863 
L 1875 4416 
L 1125 4416 
L 1125 -397 
L 1875 -397 
L 1875 -844 
L 550 -844 
L 550 4863 
z
" transform="scale(0.015625)"/>
       <path id="DejaVuSans-6d" d="M 3328 2828 
Q 3544 3216 3844 3400 
Q 4144 3584 4550 3584 
Q 5097 3584 5394 3201 
Q 5691 2819 5691 2113 
L 5691 0 
L 5113 0 
L 5113 2094 
Q 5113 2597 4934 2840 
Q 4756 3084 4391 3084 
Q 3944 3084 3684 2787 
Q 3425 2491 3425 1978 
L 3425 0 
L 2847 0 
L 2847 2094 
Q 2847 2600 2669 2842 
Q 2491 3084 2119 3084 
Q 1678 3084 1418 2786 
Q 1159 2488 1159 1978 
L 1159 0 
L 581 0 
L 581 3500 
L 1159 3500 
L 1159 2956 
Q 1356 3278 1631 3431 
Q 1906 3584 2284 3584 
Q 2666 3584 2933 3390 
Q 3200 3197 3328 2828 
z
" transform="scale(0.015625)"/>
       <path id="DejaVuSans-5d" d="M 1947 4863 
L 1947 -844 
L 622 -844 
L 622 -397 
L 1369 -397 
L 1369 4416 
L 622 4416 
L 622 4863 
L 1947 4863 
z
" transform="scale(0.015625)"/>
      </defs>
      <use xlink:href="#DejaVuSans-58"/>
      <use xlink:href="#DejaVuSans-59" transform="translate(68.505859 0)"/>
      <use xlink:href="#DejaVuSans-20" transform="translate(129.589844 0)"/>
      <use xlink:href="#DejaVuSans-45" transform="translate(161.376953 0)"/>
      <use xlink:href="#DejaVuSans-72" transform="translate(224.560547 0)"/>
      <use xlink:href="#DejaVuSans-72" transform="translate(263.923828 0)"/>
      <use xlink:href="#DejaVuSans-6f" transform="translate(302.787109 0)"/>
      <use xlink:href="#DejaVuSans-72" transform="translate(363.96875 0)"/>
      <use xlink:href="#DejaVuSans-20" transform="translate(405.082031 0)"/>
      <use xlink:href="#DejaVuSans-5b" transform="translate(436.869141 0)"/>
      <use xlink:href="#DejaVuSans-6d" transform="translate(475.882812 0)"/>
      <use xlink:href="#DejaVuSans-5d" transform="translate(573.294922 0)"/>
     </g>
    </g>
   </g>
   <g id="matplotlib.axis_2">
    <g id="ytick_1">
     <g id="line2d_13">
      <path d="M 54.92 435.649091 
L 709.2 435.649091 
" clip-path="url(#p0851f6286b)" style="fill: none; stroke-dasharray: 2.96,1.28; stroke-dashoffset: 0; stroke: #b0b0b0; stroke-opacity: 0.3; stroke-width: 0.8"/>
     </g>
     <g id="line2d_14">
      <defs>
       <path id="m625aaa1581" d="M 0 0 
L -3.5 0 
" style="stroke: #000000; stroke-width: 0.8"/>
      </defs>
      <g>
       <use xlink:href="#m625aaa1581" x="54.92" y="435.649091" style="stroke: #000000; stroke-width: 0.8"/>
      </g>
     </g>
     <g id="text_8">
      <!-- 0.0 -->
      <g transform="translate(32.016875 439.44831) scale(0.1 -0.1)">
       <defs>
        <path id="DejaVuSans-2e" d="M 684 794 
L 1344 794 
L 1344 0 
L 684 0 
L 684 794 
z
" transform="scale(0.015625)"/>
       </defs>
       <use xlink:href="#DejaVuSans-30"/>
       <use xlink:href="#DejaVuSans-2e" transform="translate(63.623047 0)"/>
       <use xlink:href="#DejaVuSans-30" transform="translate(95.410156 0)"/>
      </g>
     </g>
    </g>
    <g id="ytick_2">
     <g id="line2d_15">
      <path d="M 54.92 358.885455 
L 709.2 358.885455 
" clip-path="url(#p0851f6286b)" style="fill: none; stroke-dasharray: 2.96,1.28; stroke-dashoffset: 0; stroke: #b0b0b0; stroke-opacity: 0.3; stroke-width: 0.8"/>
     </g>
     <g id="line2d_16">
      <g>
       <use xlink:href="#m625aaa1581" x="54.92" y="358.885455" style="stroke: #000000; stroke-width: 0.8"/>
      </g>
     </g>
     <g id="text_9">
      <!-- 0.2 -->
      <g transform="translate(32.016875 362.684673) scale(0.1 -0.1)">
       <use xlink:href="#DejaVuSans-30"/>
       <use xlink:href="#DejaVuSans-2e" transform="translate(63.623047 0)"/>
       <use xlink:href="#DejaVuSans-32" transform="translate(95.410156 0)"/>
      </g>
     </g>
    </g>
    <g id="ytick_3">
     <g id="line2d_17">
      <path d="M 54.92 282.121818 
L 709.2 282.121818 
" clip-path="url(#p0851f6286b)" style="fill: none; stroke-dasharray: 2.96,1.28; stroke-dashoffset: 0; stroke: #b0b0b0; stroke-opacity: 0.3; stroke-width: 0.8"/>
     </g>
     <g id="line2d_18">
      <g>
       <use xlink:href="#m625aaa1581" x="54.92" y="282.121818" style="stroke: #000000; stroke-width: 0.8"/>
      </g>
     </g>
     <g id="text_10">
      <!-- 0.4 -->
      <g transform="translate(32.016875 285.921037) scale(0.1 -0.1)">
       <defs>
        <path id="DejaVuSans-34" d="M 2419 4116 
L 825 1625 
L 2419 1625 
L 2419 4116 
z
M 2253 4666 
L 3047 4666 
L 3047 1625 
L 3713 1625 
L 3713 1100 
L 3047 1100 
L 3047 0 
L 2419 0 
L 2419 1100 
L 313 1100 
L 313 1709 
L 2253 4666 
z
" transform="scale(0.015625)"/>
       </defs>
       <use xlink:href="#DejaVuSans-30"/>
       <use xlink:href="#DejaVuSans-2e" transform="translate(63.623047 0)"/>
       <use xlink:href="#DejaVuSans-34" transform="translate(95.410156 0)"/>
      </g>
     </g>
    </g>
    <g id="ytick_4">
     <g id="line2d_19">
      <path d="M 54.92 205.358182 
L 709.2 205.358182 
" clip-path="url(#p0851f6286b)" style="fill: none; stroke-dasharray: 2.96,1.28; stroke-dashoffset: 0; stroke: #b0b0b0; stroke-opacity: 0.3; stroke-width: 0.8"/>
     </g>
     <g id="line2d_20">
      <g>
       <use xlink:href="#m625aaa1581" x="54.92" y="205.358182" style="stroke: #000000; stroke-width: 0.8"/>
      </g>
     </g>
     <g id="text_11">
      <!-- 0.6 -->
      <g transform="translate(32.016875 209.157401) scale(0.1 -0.1)">
       <defs>
        <path id="DejaVuSans-36" d="M 2113 2584 
Q 1688 2584 1439 2293 
Q 1191 2003 1191 1497 
Q 1191 994 1439 701 
Q 1688 409 2113 409 
Q 2538 409 2786 701 
Q 3034 994 3034 1497 
Q 3034 2003 2786 2293 
Q 2538 2584 2113 2584 
z
M 3366 4563 
L 3366 3988 
Q 3128 4100 2886 4159 
Q 2644 4219 2406 4219 
Q 1781 4219 1451 3797 
Q 1122 3375 1075 2522 
Q 1259 2794 1537 2939 
Q 1816 3084 2150 3084 
Q 2853 3084 3261 2657 
Q 3669 2231 3669 1497 
Q 3669 778 3244 343 
Q 2819 -91 2113 -91 
Q 1303 -91 875 529 
Q 447 1150 447 2328 
Q 447 3434 972 4092 
Q 1497 4750 2381 4750 
Q 2619 4750 2861 4703 
Q 3103 4656 3366 4563 
z
" transform="scale(0.015625)"/>
       </defs>
       <use xlink:href="#DejaVuSans-30"/>
       <use xlink:href="#DejaVuSans-2e" transform="translate(63.623047 0)"/>
       <use xlink:href="#DejaVuSans-36" transform="translate(95.410156 0)"/>
      </g>
     </g>
    </g>
    <g id="ytick_5">
     <g id="line2d_21">
      <path d="M 54.92 128.594545 
L 709.2 128.594545 
" clip-path="url(#p0851f6286b)" style="fill: none; stroke-dasharray: 2.96,1.28; stroke-dashoffset: 0; stroke: #b0b0b0; stroke-opacity: 0.3; stroke-width: 0.8"/>
     </g>
     <g id="line2d_22">
      <g>
       <use xlink:href="#m625aaa1581" x="54.92" y="128.594545" style="stroke: #000000; stroke-width: 0.8"/>
      </g>
     </g>
     <g id="text_12">
      <!-- 0.8 -->
      <g transform="translate(32.016875 132.393764) scale(0.1 -0.1)">
       <defs>
        <path id="DejaVuSans-38" d="M 2034 2216 
Q 1584 2216 1326 1975 
Q 1069 1734 1069 1313 
Q 1069 891 1326 650 
Q 1584 409 2034 409 
Q 2484 409 2743 651 
Q 3003 894 3003 1313 
Q 3003 1734 2745 1975 
Q 2488 2216 2034 2216 
z
M 1403 2484 
Q 997 2584 770 2862 
Q 544 3141 544 3541 
Q 544 4100 942 4425 
Q 1341 4750 2034 4750 
Q 2731 4750 3128 4425 
Q 3525 4100 3525 3541 
Q 3525 3141 3298 2862 
Q 3072 2584 2669 2484 
Q 3125 2378 3379 2068 
Q 3634 1759 3634 1313 
Q 3634 634 3220 271 
Q 2806 -91 2034 -91 
Q 1263 -91 848 271 
Q 434 634 434 1313 
Q 434 1759 690 2068 
Q 947 2378 1403 2484 
z
M 1172 3481 
Q 1172 3119 1398 2916 
Q 1625 2713 2034 2713 
Q 2441 2713 2670 2916 
Q 2900 3119 2900 3481 
Q 2900 3844 2670 4047 
Q 2441 4250 2034 4250 
Q 1625 4250 1398 4047 
Q 1172 3844 1172 3481 
z
" transform="scale(0.015625)"/>
       </defs>
       <use xlink:href="#DejaVuSans-30"/>
       <use xlink:href="#DejaVuSans-2e" transform="translate(63.623047 0)"/>
       <use xlink:href="#DejaVuSans-38" transform="translate(95.410156 0)"/>
      </g>
     </g>
    </g>
    <g id="ytick_6">
     <g id="line2d_23">
      <path d="M 54.92 51.830909 
L 709.2 51.830909 
" clip-path="url(#p0851f6286b)" style="fill: none; stroke-dasharray: 2.96,1.28; stroke-dashoffset: 0; stroke: #b0b0b0; stroke-opacity: 0.3; stroke-width: 0.8"/>
     </g>
     <g id="line2d_24">
      <g>
       <use xlink:href="#m625aaa1581" x="54.92" y="51.830909" style="stroke: #000000; stroke-width: 0.8"/>
      </g>
     </g>
     <g id="text_13">
      <!-- 1.0 -->
      <g transform="translate(32.016875 55.630128) scale(0.1 -0.1)">
       <use xlink:href="#DejaVuSans-31"/>
       <use xlink:href="#DejaVuSans-2e" transform="translate(63.623047 0)"/>
       <use xlink:href="#DejaVuSans-30" transform="translate(95.410156 0)"/>
      </g>
     </g>
    </g>
    <g id="text_14">
     <!-- CDF -->
     <g transform="translate(24.273438 262.130938) rotate(-90) scale(0.18 -0.18)">
      <defs>
       <path id="DejaVuSans-43" d="M 4122 4306 
L 4122 3641 
Q 3803 3938 3442 4084 
Q 3081 4231 2675 4231 
Q 1875 4231 1450 3742 
Q 1025 3253 1025 2328 
Q 1025 1406 1450 917 
Q 1875 428 2675 428 
Q 3081 428 3442 575 
Q 3803 722 4122 1019 
L 4122 359 
Q 3791 134 3420 21 
Q 3050 -91 2638 -91 
Q 1578 -91 968 557 
Q 359 1206 359 2328 
Q 359 3453 968 4101 
Q 1578 4750 2638 4750 
Q 3056 4750 3426 4639 
Q 3797 4528 4122 4306 
z
" transform="scale(0.015625)"/>
       <path id="DejaVuSans-44" d="M 1259 4147 
L 1259 519 
L 2022 519 
Q 2988 519 3436 956 
Q 3884 1394 3884 2338 
Q 3884 3275 3436 3711 
Q 2988 4147 2022 4147 
L 1259 4147 
z
M 628 4666 
L 1925 4666 
Q 3281 4666 3915 4102 
Q 4550 3538 4550 2338 
Q 4550 1131 3912 565 
Q 3275 0 1925 0 
L 628 0 
L 628 4666 
z
" transform="scale(0.015625)"/>
       <path id="DejaVuSans-46" d="M 628 4666 
L 3309 4666 
L 3309 4134 
L 1259 4134 
L 1259 2759 
L 3109 2759 
L 3109 2228 
L 1259 2228 
L 1259 0 
L 628 0 
L 628 4666 
z
" transform="scale(0.015625)"/>
      </defs>
      <use xlink:href="#DejaVuSans-43"/>
      <use xlink:href="#DejaVuSans-44" transform="translate(69.824219 0)"/>
      <use xlink:href="#DejaVuSans-46" transform="translate(146.826172 0)"/>
     </g>
    </g>
   </g>
   <g id="line2d_25">
    <path d="M 84.66 435.649091 
L 85.127548 435.490497 
L 85.233811 435.461282 
L 86.258201 435.290168 
L 87.924623 434.985501 
L 88.522756 434.856121 
L 94.982367 434.092366 
L 95.858534 433.946293 
L 96.279401 433.871169 
L 97.808013 433.675014 
L 97.994024 433.637452 
L 99.078236 433.341132 
L 99.290347 432.998903 
L 99.383514 432.790227 
L 99.536296 432.134983 
L 99.661602 431.751019 
L 99.846663 431.504781 
L 100.436589 431.392096 
L 100.938214 431.25437 
L 101.33904 431.079082 
L 101.490846 431.024826 
L 101.885219 430.845364 
L 103.160494 430.256897 
L 103.40432 430.131692 
L 103.604494 429.918842 
L 103.92262 429.789462 
L 104.584917 429.309507 
L 105.359573 429.167607 
L 105.446003 428.787817 
L 105.456853 428.766949 
L 106.168681 428.633396 
L 106.281412 428.583314 
L 107.453149 428.257779 
L 107.554887 428.21187 
L 110.46134 427.531586 
L 110.682917 427.33543 
L 111.118923 427.072498 
L 111.771258 426.680187 
L 112.709291 426.517419 
L 112.826002 426.413081 
L 114.971508 426.221099 
L 115.151557 426.087546 
L 116.067367 425.745317 
L 117.957479 425.565856 
L 119.882068 425.432303 
L 121.435758 425.035818 
L 121.69733 424.969042 
L 122.207088 424.843836 
L 123.069292 424.639333 
L 123.208398 424.618466 
L 123.807545 424.459872 
L 128.77666 423.716984 
L 137.84978 423.065915 
L 142.652253 422.661083 
L 144.362483 422.494142 
L 145.64096 422.393977 
L 147.363496 422.214516 
L 147.534259 422.17278 
L 148.815837 421.997492 
L 149.456322 421.897328 
L 158.044668 421.358943 
L 158.151051 421.350596 
L 161.906732 421.091837 
L 170.870896 420.273827 
L 173.459265 420.140274 
L 173.550177 420.131927 
L 175.571029 419.923251 
L 175.795697 419.798045 
L 177.269485 418.612764 
L 177.511395 418.458343 
L 177.703514 418.303923 
L 178.19245 418.061859 
L 178.356891 417.982562 
L 179.332177 417.640333 
L 184.435426 415.933361 
L 185.598088 415.69547 
L 186.358636 415.490968 
L 186.606082 415.415844 
L 187.269345 415.269771 
L 188.453852 415.002665 
L 188.623192 414.965103 
L 189.093522 414.789815 
L 189.226567 414.697998 
L 189.701791 414.547751 
L 193.437238 413.354123 
L 193.560559 413.270652 
L 196.082763 412.256486 
L 196.556727 412.127107 
L 196.758856 412.089545 
L 198.386816 411.663846 
L 198.56878 411.605416 
L 199.290062 411.438475 
L 199.573643 411.350831 
L 201.10201 410.883396 
L 202.444186 410.470218 
L 202.886095 410.30745 
L 203.430626 410.148856 
L 203.994961 409.990262 
L 204.086793 409.956874 
L 205.034764 409.72733 
L 205.465584 409.597951 
L 207.563485 409.109649 
L 209.469017 408.671428 
L 210.14864 408.537876 
L 210.23713 408.517008 
L 211.238851 408.333373 
L 211.310005 408.312505 
L 211.99064 408.170606 
L 213.816696 407.799162 
L 214.56108 407.653088 
L 214.788188 407.60718 
L 215.838813 407.427718 
L 216.153345 407.381809 
L 217.602332 407.18148 
L 220.1821 406.793342 
L 220.769332 406.680657 
L 221.68817 406.509543 
L 221.828543 406.488675 
L 228.531353 405.315915 
L 229.698381 405.052983 
L 232.593496 404.639804 
L 232.77102 404.598069 
L 236.039649 403.913611 
L 238.432169 403.429482 
L 240.422097 403.091426 
L 240.541937 403.070559 
L 241.768857 402.916138 
L 245.974374 402.185771 
L 246.203088 402.123168 
L 246.865538 401.968748 
L 247.316256 401.851889 
L 248.365806 401.643213 
L 248.830727 401.563916 
L 249.76861 401.380281 
L 256.123451 400.082315 
L 257.406192 399.865292 
L 258.912228 399.53141 
L 260.466153 398.901208 
L 260.71171 398.780175 
L 261.455425 398.462988 
L 263.760633 397.753488 
L 264.094126 397.615762 
L 266.809014 397.002254 
L 266.999372 396.956345 
L 267.592551 396.806098 
L 268.149356 396.626637 
L 274.208667 395.407968 
L 275.9837 395.132515 
L 276.263701 395.094953 
L 276.981483 394.932186 
L 279.176143 394.598304 
L 280.565994 394.377107 
L 280.670373 394.352066 
L 282.464041 394.064093 
L 283.563467 393.855416 
L 284.607361 393.663434 
L 284.6911 393.63422 
L 285.803549 393.404676 
L 286.027477 393.379635 
L 289.583894 392.678483 
L 289.682067 392.653441 
L 290.667439 392.461459 
L 290.992273 392.411377 
L 297.062418 391.180187 
L 297.791 391.034114 
L 298.029044 390.996552 
L 298.690401 390.829611 
L 300.377214 390.483209 
L 301.329136 390.257838 
L 302.685403 389.57338 
L 302.840555 389.448175 
L 303.35453 389.176895 
L 303.477836 389.093425 
L 304.236004 388.855534 
L 304.345962 388.763717 
L 306.605685 387.615997 
L 306.783116 387.507486 
L 308.186109 386.910672 
L 308.309263 386.806334 
L 310.077938 386.196999 
L 310.256911 386.146917 
L 311.271935 385.950761 
L 314.032666 385.370641 
L 314.147243 385.341426 
L 315.525941 384.869818 
L 316.02044 384.744612 
L 317.467676 384.427425 
L 317.685165 384.348128 
L 318.807471 384.093543 
L 319.958022 383.684537 
L 320.797572 383.313094 
L 321.155635 383.158673 
L 321.772809 382.862353 
L 322.778776 382.570206 
L 323.324722 382.344836 
L 323.896564 382.152854 
L 324.128986 382.081904 
L 325.076021 381.823145 
L 325.728733 381.606122 
L 327.223531 381.230505 
L 327.303763 381.209637 
L 328.567768 380.971746 
L 329.481387 380.842367 
L 331.249358 380.596129 
L 331.803724 380.295635 
L 332.07156 380.074438 
L 332.542154 379.477624 
L 332.871368 375.550338 
L 332.956516 369.47786 
L 333.079403 366.502137 
L 333.262636 365.780117 
L 333.373053 365.258426 
L 333.485882 364.878636 
L 333.541942 364.68248 
L 333.902574 363.271829 
L 334.000723 363.100714 
L 334.232153 362.71675 
L 334.263389 362.587371 
L 334.374278 362.282703 
L 334.49368 362.090721 
L 334.692619 361.602419 
L 334.870256 361.11829 
L 335.425395 359.995612 
L 335.64001 359.311154 
L 335.777334 359.148387 
L 335.862733 358.910496 
L 336.025826 358.438887 
L 336.088823 358.192649 
L 336.389201 357.261954 
L 336.917162 355.717749 
L 337.170181 347.028471 
L 337.202947 346.385749 
L 337.327693 345.396623 
L 337.435842 345.09613 
L 337.641844 344.495142 
L 338.218812 343.272299 
L 338.40043 342.946764 
L 338.506748 342.767303 
L 338.634554 342.454289 
L 338.823831 342.099539 
L 339.220438 341.223099 
L 339.352 340.976861 
L 339.438263 340.839135 
L 339.804793 340.142156 
L 339.929049 339.758192 
L 340.009337 339.445177 
L 340.139218 339.186419 
L 341.001167 337.784115 
L 341.288008 337.613 
L 341.599962 337.425192 
L 342.041549 337.09131 
L 342.148865 337.041227 
L 344.258758 336.235737 
L 344.696696 336.08549 
L 347.087086 335.213224 
L 347.925319 335.021241 
L 348.130152 334.921077 
L 348.664851 334.741615 
L 349.06125 334.528765 
L 349.392171 334.374345 
L 349.606586 334.27418 
L 350.375274 334.019595 
L 350.544535 333.952819 
L 351.181044 333.790052 
L 351.747322 333.589722 
L 351.834293 333.564681 
L 352.443469 333.368526 
L 352.996913 333.168196 
L 353.148219 333.084726 
L 353.454176 332.938653 
L 353.598969 332.88857 
L 354.556716 332.546341 
L 356.71772 332.08308 
L 357.576084 331.861883 
L 358.567685 331.565563 
L 360.229407 331.039699 
L 360.987369 330.83937 
L 361.483254 330.718338 
L 362.714675 330.405323 
L 362.845476 330.346894 
L 363.801302 330.071441 
L 364.513247 329.875286 
L 364.672053 329.82103 
L 365.406238 329.616527 
L 365.631819 329.570618 
L 366.156715 329.424545 
L 367.093939 329.190828 
L 368.329458 328.932069 
L 369.180046 328.785996 
L 369.561255 328.706699 
L 370.152708 328.57732 
L 370.259161 328.548105 
L 371.496085 328.314387 
L 371.627302 328.280999 
L 372.148303 328.139099 
L 372.287461 328.093191 
L 373.77517 327.654971 
L 373.938002 327.613235 
L 374.457739 327.437947 
L 376.013046 327.028942 
L 376.130629 326.999727 
L 377.957395 326.436301 
L 378.720949 326.248493 
L 378.805528 326.223452 
L 379.520927 326.039817 
L 385.222498 324.583257 
L 385.531282 324.495613 
L 386.128414 324.337019 
L 390.092111 323.435537 
L 390.250679 323.402149 
L 391.009767 323.218514 
L 392.051088 322.913847 
L 392.189919 322.863764 
L 392.729492 322.680129 
L 393.051509 322.567444 
L 393.625558 322.367115 
L 394.597007 322.058274 
L 394.979926 321.928895 
L 395.894516 321.665963 
L 396.07537 321.615881 
L 400.228615 320.518244 
L 400.839177 320.2887 
L 401.267933 320.1468 
L 401.81581 319.93395 
L 402.02545 319.733621 
L 403.425033 319.35383 
L 404.247384 319.124287 
L 406.098994 318.460696 
L 406.242946 318.32297 
L 407.431987 317.822147 
L 410.765428 316.962401 
L 410.952386 316.933186 
L 416.996168 315.201173 
L 418.554706 314.950762 
L 419.71947 314.683656 
L 419.837672 314.641921 
L 421.235054 314.124404 
L 422.529225 313.323087 
L 422.875063 312.939123 
L 424.394228 311.599422 
L 424.580378 311.378225 
L 424.841027 311.073558 
L 424.966309 310.956699 
L 425.150082 310.752196 
L 425.451273 310.455876 
L 425.587693 310.280588 
L 426.155013 309.746377 
L 426.296953 309.571089 
L 426.606647 309.274769 
L 426.768853 309.132869 
L 426.873426 309.061919 
L 427.105235 308.911672 
L 427.266638 308.807334 
L 428.222857 307.580318 
L 428.448912 307.171312 
L 428.563288 307.012718 
L 428.718944 306.75396 
L 429.284201 305.852479 
L 429.389346 305.689711 
L 429.4815 305.560332 
L 429.705561 305.293226 
L 430.015719 304.900915 
L 430.129476 304.71728 
L 430.514265 304.287407 
L 430.652703 304.153854 
L 430.821007 303.98274 
L 430.963981 303.849187 
L 431.330106 303.456875 
L 431.448819 303.327496 
L 432.993102 301.908498 
L 433.188954 301.74573 
L 433.610248 301.269949 
L 433.746444 301.123875 
L 434.064569 300.72739 
L 434.218641 300.57297 
L 434.329467 300.439417 
L 434.495816 300.222394 
L 434.88271 299.646448 
L 435.007462 299.525415 
L 435.094314 299.383516 
L 435.880793 297.881047 
L 436.012567 297.442827 
L 436.083687 297.108945 
L 436.198232 296.71246 
L 436.330184 295.877755 
L 436.588579 292.363647 
L 436.65781 290.656676 
L 436.937945 278.45329 
L 437.054736 272.213871 
L 437.138581 268.223982 
L 437.311595 262.919432 
L 437.480267 261.237502 
L 437.766297 260.19412 
L 438.108678 258.754254 
L 438.379921 257.744262 
L 439.394046 253.190946 
L 439.476817 252.978097 
L 439.595466 252.427191 
L 440.360261 247.81962 
L 440.465898 247.256194 
L 440.616721 246.58843 
L 440.861418 245.624346 
L 441.015205 245.044226 
L 441.125955 244.464107 
L 441.199576 244.03006 
L 441.321123 243.245437 
L 441.692124 241.296401 
L 441.731107 241.154502 
L 441.879589 240.557688 
L 441.952451 240.298929 
L 442.074457 239.844015 
L 442.386392 238.512661 
L 442.582844 237.886632 
L 443.101495 235.733093 
L 443.361323 234.518598 
L 444.011841 230.532882 
L 444.385691 229.643921 
L 445.494177 227.815917 
L 445.748654 226.664024 
L 445.827744 226.292581 
L 446.066537 225.516305 
L 446.20332 224.919491 
L 446.374458 224.431189 
L 446.507336 224.180777 
L 446.632311 223.976275 
L 446.937556 223.73421 
L 447.095728 223.496319 
L 447.244949 223.350246 
L 447.430004 223.149917 
L 447.562875 222.982976 
L 447.891612 222.465459 
L 448.031369 222.256783 
L 448.160315 222.0648 
L 448.327688 221.893686 
L 448.436573 221.710051 
L 448.655293 221.288525 
L 448.80297 221.154972 
L 449.091853 220.841958 
L 449.427529 220.512249 
L 449.693544 220.090723 
L 450.640099 219.026475 
L 450.8744 218.805278 
L 451.495843 218.367058 
L 451.640419 218.254373 
L 451.870692 218.041523 
L 452.452536 216.576616 
L 453.708686 215.541582 
L 453.878304 215.36212 
L 454.484754 214.648447 
L 454.825745 214.381342 
L 455.248913 214.222748 
L 455.829534 213.792875 
L 456.309544 213.580025 
L 456.527086 213.354655 
L 457.262353 213.079202 
L 457.908972 212.620114 
L 458.202636 212.423959 
L 458.427103 212.302927 
L 458.77252 212.173547 
L 459.112322 212.027474 
L 459.797379 211.777063 
L 459.98416 211.630989 
L 460.341488 211.480742 
L 460.5462 211.443181 
L 460.948308 211.247025 
L 461.071449 211.138513 
L 461.389377 210.971572 
L 461.544272 210.800458 
L 461.859494 210.583435 
L 462.00371 210.525005 
L 462.687492 210.370585 
L 462.779586 210.316329 
L 463.194797 210.153561 
L 463.769339 209.711168 
L 463.967108 209.540053 
L 464.231714 209.327204 
L 464.343809 209.289642 
L 464.701569 209.126874 
L 465.297156 208.868116 
L 465.357637 208.834728 
L 465.681288 208.705348 
L 466.029876 208.479978 
L 466.232025 208.112708 
L 466.641729 207.933246 
L 466.822151 207.79552 
L 467.017912 207.632753 
L 467.342941 207.332259 
L 467.480293 207.161144 
L 467.778695 206.889865 
L 468.081833 206.330613 
L 468.217477 206.151151 
L 468.35395 205.871525 
L 468.507956 205.491735 
L 468.648648 205.203761 
L 469.047062 204.744674 
L 469.139791 204.615294 
L 469.397675 204.331495 
L 469.80773 204.110298 
L 469.933768 204.001786 
L 470.141893 203.818151 
L 470.614467 203.091958 
L 470.773775 202.941711 
L 472.25233 201.151269 
L 472.37036 201.001022 
L 472.527089 200.875816 
L 472.760831 200.575323 
L 472.955543 200.149623 
L 473.004502 199.999376 
L 473.125116 199.844956 
L 473.491261 199.590371 
L 473.616627 199.440124 
L 473.950029 199.218927 
L 474.226925 198.972689 
L 474.332239 198.889219 
L 474.487248 198.738972 
L 474.700047 198.613766 
L 475.001354 198.413437 
L 475.146136 198.200587 
L 475.382866 197.971043 
L 475.598879 197.7415 
L 475.701037 197.595426 
L 476.155588 197.436832 
L 476.944311 196.910968 
L 477.155595 196.739854 
L 477.503043 196.568739 
L 477.720668 196.385104 
L 477.861096 196.151387 
L 479.105488 195.191476 
L 479.337586 194.928544 
L 479.724918 194.749083 
L 480.194851 194.394333 
L 481.140438 193.705701 
L 481.516345 193.551281 
L 481.634393 193.417728 
L 481.79239 193.296696 
L 481.95288 193.150623 
L 482.065193 193.08802 
L 482.312347 192.94612 
L 482.521344 192.712403 
L 482.643696 192.512073 
L 483.196487 192.06968 
L 483.356726 191.952821 
L 483.554865 191.790054 
L 483.677564 191.694063 
L 484.154467 191.493733 
L 484.95577 191.097249 
L 485.080273 191.001257 
L 485.627008 190.663202 
L 485.862297 190.391923 
L 486.581023 189.690771 
L 486.698069 189.457053 
L 486.799314 189.302633 
L 486.918426 189.052222 
L 487.000054 188.847719 
L 487.329154 187.691653 
L 487.425688 187.420373 
L 487.540781 187.240912 
L 488.22622 186.748436 
L 488.481527 186.210051 
L 489.022198 185.755137 
L 489.178294 185.654973 
L 489.478502 185.467164 
L 489.914666 185.158323 
L 490.119555 184.962168 
L 490.275883 184.828615 
L 490.698672 184.507253 
L 490.811174 184.365354 
L 492.408731 183.225981 
L 492.686701 183.071561 
L 492.803348 182.996437 
L 493.308171 182.687597 
L 493.56196 182.516482 
L 494.067258 182.149212 
L 494.301341 182.015659 
L 494.415269 181.773595 
L 494.657019 181.606654 
L 494.786601 181.464754 
L 495.116469 181.23521 
L 495.240846 181.160087 
L 495.452493 180.95141 
L 495.885588 180.06245 
L 496.019371 178.484857 
L 496.202972 177.287056 
L 496.466076 176.840489 
L 496.584042 176.665201 
L 496.728322 176.481566 
L 496.927184 176.151857 
L 497.048179 175.976569 
L 498.68204 173.935716 
L 498.824083 173.731213 
L 499.708517 170.359005 
L 499.953619 169.891571 
L 500.096168 169.561862 
L 500.530145 167.867411 
L 500.697063 167.312332 
L 500.871067 166.686304 
L 501.349929 166.406678 
L 501.857265 165.830731 
L 502.081563 165.597014 
L 502.194832 165.488502 
L 503.048145 164.770656 
L 503.17267 164.674665 
L 503.385891 164.49103 
L 503.72376 164.086198 
L 503.967588 163.819092 
L 504.627922 163.222278 
L 504.871912 162.925958 
L 505.372631 162.516953 
L 505.991 162.045344 
L 506.171262 161.94518 
L 506.241385 161.811627 
L 506.506408 161.306631 
L 506.912704 161.006137 
L 508.189025 160.530355 
L 513.492404 158.714872 
L 513.628098 158.656443 
L 514.178196 158.481154 
L 515.606723 157.275006 
L 515.773246 156.85348 
L 515.946959 156.598895 
L 516.017977 156.102246 
L 516.138732 153.706642 
L 516.298495 150.100717 
L 516.733104 148.982213 
L 516.979837 148.773536 
L 517.186426 148.498084 
L 518.371847 148.164202 
L 518.512033 148.068211 
L 518.774649 147.905443 
L 518.873166 147.859535 
L 519.633952 147.663379 
L 520.299607 147.446356 
L 521.087188 147.287762 
L 521.293025 147.254374 
L 522.085419 147.083259 
L 525.417016 146.273595 
L 525.981492 146.119175 
L 526.818862 145.827028 
L 527.126144 145.559923 
L 527.596488 145.384635 
L 527.72073 145.326205 
L 528.638638 144.92972 
L 528.854665 144.812862 
L 530.250407 144.149271 
L 530.37955 143.978157 
L 530.830496 143.736092 
L 531.075919 143.539937 
L 531.621716 142.959817 
L 531.770625 142.780355 
L 531.889988 142.671844 
L 532.389583 142.396391 
L 532.515003 142.317094 
L 533.016586 141.995733 
L 533.261364 141.841312 
L 533.629675 141.561686 
L 533.738409 141.449001 
L 533.869052 141.252845 
L 534.005316 141.169375 
L 534.305198 140.969046 
L 534.421033 140.881402 
L 534.776773 140.647684 
L 535.140083 140.297108 
L 535.293566 140.184423 
L 535.614133 139.954879 
L 536.357042 139.499965 
L 536.591579 139.3998 
L 536.947324 139.166083 
L 537.319114 138.936539 
L 537.660624 138.757078 
L 537.797572 138.686128 
L 538.113193 138.456584 
L 538.321427 138.235387 
L 539.039894 136.85395 
L 539.345123 136.55763 
L 539.639362 136.361475 
L 539.900738 135.994204 
L 540.227986 135.810569 
L 540.394912 135.722925 
L 540.585815 135.543464 
L 540.875597 134.996732 
L 542.073554 134.116118 
L 542.191185 133.982566 
L 542.373785 133.778063 
L 542.724751 133.515131 
L 542.924598 133.268893 
L 543.106744 133.085258 
L 543.26214 132.897449 
L 543.448481 132.692947 
L 543.588052 132.47175 
L 543.829899 132.071091 
L 544.011046 131.879109 
L 544.155163 131.649565 
L 544.294742 131.424195 
L 544.474863 131.194651 
L 544.796488 130.672961 
L 544.865952 130.547755 
L 545.343672 128.164672 
L 545.422778 124.767423 
L 545.627671 115.794346 
L 546.077273 115.114061 
L 546.326071 114.851129 
L 547.375749 113.932954 
L 547.483283 113.853657 
L 547.736549 113.586551 
L 547.987154 113.315272 
L 548.09473 113.219281 
L 548.50355 112.964696 
L 548.969135 112.643335 
L 549.177783 112.476394 
L 549.388704 112.3178 
L 549.543193 112.159206 
L 549.957083 111.766895 
L 550.108101 111.591607 
L 550.219381 111.483095 
L 550.550082 111.186775 
L 550.696982 111.132519 
L 552.138832 110.059923 
L 553.587539 107.601717 
L 553.96097 107.30957 
L 554.140622 107.163497 
L 554.458972 106.904739 
L 554.609314 106.604245 
L 554.954782 106.245322 
L 555.538931 105.919787 
L 555.678233 105.811275 
L 555.95273 105.656855 
L 556.084291 105.502434 
L 556.261106 105.302105 
L 556.375283 105.147685 
L 556.558129 104.955703 
L 557.771801 103.682778 
L 558.069069 103.52001 
L 558.681195 103.15274 
L 559.112601 102.606008 
L 559.599639 101.308042 
L 559.963096 101.157795 
L 560.204074 100.940772 
L 560.454275 100.727922 
L 562.341245 100.197885 
L 563.93007 100.001729 
L 569.722528 99.296403 
L 572.834798 99.025124 
L 575.7873 98.745498 
L 577.24827 98.616119 
L 579.183353 98.369881 
L 579.535515 98.328146 
L 580.117834 98.253022 
L 581.831053 98.044346 
L 583.302166 97.831496 
L 583.400187 97.806455 
L 584.543805 97.664555 
L 584.993714 97.576911 
L 586.527996 97.33902 
L 588.314725 97.197121 
L 590.262845 96.97175 
L 590.415419 96.946709 
L 592.632957 96.717165 
L 596.12949 95.965931 
L 597.399047 95.773949 
L 597.481216 95.761428 
L 598.951922 95.619528 
L 603.682426 94.726394 
L 603.883922 94.630403 
L 606.008356 93.970986 
L 607.825917 93.799872 
L 610.89874 93.228099 
L 611.015052 93.036117 
L 611.278237 92.748143 
L 611.551679 91.291583 
L 612.327071 90.390102 
L 612.73187 90.223161 
L 613.468786 89.835023 
L 613.593336 89.467753 
L 613.75888 88.474454 
L 613.838131 87.952764 
L 614.001492 87.097191 
L 614.165308 86.466989 
L 614.462129 86.333436 
L 614.704346 86.19571 
L 615.503587 85.866001 
L 615.825389 85.703234 
L 617.460752 84.860182 
L 617.811139 83.528828 
L 618.07828 83.261722 
L 618.232659 82.902799 
L 618.317679 82.606479 
L 618.438308 82.351894 
L 618.601036 82.1933 
L 620.085738 81.03306 
L 620.892134 80.745087 
L 621.426508 80.561452 
L 622.58172 80.177488 
L 623.049626 80.031414 
L 623.169798 79.985505 
L 624.043394 79.7184 
L 624.190823 79.672491 
L 624.567736 79.497203 
L 624.705842 79.28018 
L 625.044227 78.675019 
L 626.233484 77.043171 
L 626.351128 76.94718 
L 626.626186 76.771892 
L 626.750365 76.650859 
L 628.550929 75.811981 
L 629.151163 75.323679 
L 629.35924 75.173432 
L 629.887139 74.726865 
L 630.274408 74.418024 
L 630.568405 74.288644 
L 630.673023 74.238562 
L 630.796403 74.109183 
L 630.950339 73.908854 
L 631.534057 73.69183 
L 631.795998 73.399684 
L 632.235639 73.211875 
L 632.487476 72.990678 
L 633.805836 72.677664 
L 634.785152 72.418906 
L 642.040299 70.181896 
L 642.224192 70.11512 
L 647.205761 68.858889 
L 648.002714 68.691948 
L 648.940362 68.470751 
L 649.630985 68.249555 
L 650.067273 68.116002 
L 650.938674 67.832202 
L 651.363456 67.72369 
L 652.080777 67.552576 
L 652.344044 67.473279 
L 653.059923 67.297991 
L 654.452888 66.880638 
L 654.57798 66.826383 
L 655.213286 66.567624 
L 655.862573 66.371468 
L 656.035217 66.233742 
L 656.203368 66.025066 
L 657.963062 65.261311 
L 658.370042 64.973338 
L 658.476672 64.843959 
L 658.668155 64.651976 
L 660.325107 64.071856 
L 660.912586 63.871527 
L 661.573462 63.683719 
L 661.72283 63.633636 
L 662.556676 63.333143 
L 663.25901 62.815626 
L 663.860527 62.590255 
L 664.188259 62.360711 
L 664.34914 62.076912 
L 664.884973 61.922491 
L 665.232396 61.563568 
L 666.113603 60.328205 
L 666.577496 60.161264 
L 667.102692 59.614532 
L 667.530752 59.247262 
L 668.395058 58.575325 
L 668.599702 58.40421 
L 669.097341 57.686364 
L 669.226974 57.540291 
L 669.312212 57.398391 
L 669.68707 56.860006 
L 669.829747 56.680545 
L 669.965798 56.551165 
L 670.593621 56.146333 
L 671.696748 55.795757 
L 671.829042 55.733155 
L 672.273767 55.499437 
L 672.921148 55.169729 
L 673.400833 54.986094 
L 673.604034 54.852541 
L 674.782094 54.080439 
L 675.017719 53.813333 
L 675.619091 53.491972 
L 675.759856 53.295816 
L 675.932781 53.15809 
L 676.209963 52.93272 
L 676.473156 52.782473 
L 676.715969 52.582144 
L 676.781258 52.532061 
L 677.119208 52.406855 
L 677.830622 52.006197 
L 679.093946 51.851777 
L 679.46 51.830909 
L 679.46 51.830909 
" clip-path="url(#p0851f6286b)" style="fill: none; stroke: #0072b2; stroke-width: 2.5; stroke-linecap: square"/>
   </g>
   <g id="patch_3">
    <path d="M 54.92 454.84 
L 54.92 32.64 
" style="fill: none; stroke: #000000; stroke-width: 0.8; stroke-linejoin: miter; stroke-linecap: square"/>
   </g>
   <g id="patch_4">
    <path d="M 709.2 454.84 
L 709.2 32.64 
" style="fill: none; stroke: #000000; stroke-width: 0.8; stroke-linejoin: miter; stroke-linecap: square"/>
   </g>
   <g id="patch_5">
    <path d="M 54.92 454.84 
L 709.2 454.84 
" style="fill: none; stroke: #000000; stroke-width: 0.8; stroke-linejoin: miter; stroke-linecap: square"/>
   </g>
   <g id="patch_6">
    <path d="M 54.92 32.64 
L 709.2 32.64 
" style="fill: none; stroke: #000000; stroke-width: 0.8; stroke-linejoin: miter; stroke-linecap: square"/>
   </g>
   <g id="text_15">
    <!-- CDF Comparison -->
    <g transform="translate(289.270938 26.64) scale(0.2 -0.2)">
     <defs>
      <path id="DejaVuSans-Bold-43" d="M 4288 256 
Q 3956 84 3597 -3 
Q 3238 -91 2847 -91 
Q 1681 -91 1000 561 
Q 319 1213 319 2328 
Q 319 3447 1000 4098 
Q 1681 4750 2847 4750 
Q 3238 4750 3597 4662 
Q 3956 4575 4288 4403 
L 4288 3438 
Q 3953 3666 3628 3772 
Q 3303 3878 2944 3878 
Q 2300 3878 1931 3465 
Q 1563 3053 1563 2328 
Q 1563 1606 1931 1193 
Q 2300 781 2944 781 
Q 3303 781 3628 887 
Q 3953 994 4288 1222 
L 4288 256 
z
" transform="scale(0.015625)"/>
      <path id="DejaVuSans-Bold-44" d="M 1791 3756 
L 1791 909 
L 2222 909 
Q 2959 909 3348 1275 
Q 3738 1641 3738 2338 
Q 3738 3031 3350 3393 
Q 2963 3756 2222 3756 
L 1791 3756 
z
M 588 4666 
L 1856 4666 
Q 2919 4666 3439 4514 
Q 3959 4363 4331 4000 
Q 4659 3684 4818 3271 
Q 4978 2859 4978 2338 
Q 4978 1809 4818 1395 
Q 4659 981 4331 666 
Q 3956 303 3431 151 
Q 2906 0 1856 0 
L 588 0 
L 588 4666 
z
" transform="scale(0.015625)"/>
      <path id="DejaVuSans-Bold-46" d="M 588 4666 
L 3834 4666 
L 3834 3756 
L 1791 3756 
L 1791 2888 
L 3713 2888 
L 3713 1978 
L 1791 1978 
L 1791 0 
L 588 0 
L 588 4666 
z
" transform="scale(0.015625)"/>
      <path id="DejaVuSans-Bold-20" transform="scale(0.015625)"/>
      <path id="DejaVuSans-Bold-6f" d="M 2203 2784 
Q 1831 2784 1636 2517 
Q 1441 2250 1441 1747 
Q 1441 1244 1636 976 
Q 1831 709 2203 709 
Q 2569 709 2762 976 
Q 2956 1244 2956 1747 
Q 2956 2250 2762 2517 
Q 2569 2784 2203 2784 
z
M 2203 3584 
Q 3106 3584 3614 3096 
Q 4122 2609 4122 1747 
Q 4122 884 3614 396 
Q 3106 -91 2203 -91 
Q 1297 -91 786 396 
Q 275 884 275 1747 
Q 275 2609 786 3096 
Q 1297 3584 2203 3584 
z
" transform="scale(0.015625)"/>
      <path id="DejaVuSans-Bold-6d" d="M 3781 2919 
Q 3994 3244 4286 3414 
Q 4578 3584 4928 3584 
Q 5531 3584 5847 3212 
Q 6163 2841 6163 2131 
L 6163 0 
L 5038 0 
L 5038 1825 
Q 5041 1866 5042 1909 
Q 5044 1953 5044 2034 
Q 5044 2406 4934 2573 
Q 4825 2741 4581 2741 
Q 4263 2741 4089 2478 
Q 3916 2216 3909 1719 
L 3909 0 
L 2784 0 
L 2784 1825 
Q 2784 2406 2684 2573 
Q 2584 2741 2328 2741 
Q 2006 2741 1831 2477 
Q 1656 2213 1656 1722 
L 1656 0 
L 531 0 
L 531 3500 
L 1656 3500 
L 1656 2988 
Q 1863 3284 2130 3434 
Q 2397 3584 2719 3584 
Q 3081 3584 3359 3409 
Q 3638 3234 3781 2919 
z
" transform="scale(0.015625)"/>
      <path id="DejaVuSans-Bold-70" d="M 1656 506 
L 1656 -1331 
L 538 -1331 
L 538 3500 
L 1656 3500 
L 1656 2988 
Q 1888 3294 2169 3439 
Q 2450 3584 2816 3584 
Q 3463 3584 3878 3070 
Q 4294 2556 4294 1747 
Q 4294 938 3878 423 
Q 3463 -91 2816 -91 
Q 2450 -91 2169 54 
Q 1888 200 1656 506 
z
M 2400 2772 
Q 2041 2772 1848 2508 
Q 1656 2244 1656 1747 
Q 1656 1250 1848 986 
Q 2041 722 2400 722 
Q 2759 722 2948 984 
Q 3138 1247 3138 1747 
Q 3138 2247 2948 2509 
Q 2759 2772 2400 2772 
z
" transform="scale(0.015625)"/>
      <path id="DejaVuSans-Bold-61" d="M 2106 1575 
Q 1756 1575 1579 1456 
Q 1403 1338 1403 1106 
Q 1403 894 1545 773 
Q 1688 653 1941 653 
Q 2256 653 2472 879 
Q 2688 1106 2688 1447 
L 2688 1575 
L 2106 1575 
z
M 3816 1997 
L 3816 0 
L 2688 0 
L 2688 519 
Q 2463 200 2181 54 
Q 1900 -91 1497 -91 
Q 953 -91 614 226 
Q 275 544 275 1050 
Q 275 1666 698 1953 
Q 1122 2241 2028 2241 
L 2688 2241 
L 2688 2328 
Q 2688 2594 2478 2717 
Q 2269 2841 1825 2841 
Q 1466 2841 1156 2769 
Q 847 2697 581 2553 
L 581 3406 
Q 941 3494 1303 3539 
Q 1666 3584 2028 3584 
Q 2975 3584 3395 3211 
Q 3816 2838 3816 1997 
z
" transform="scale(0.015625)"/>
      <path id="DejaVuSans-Bold-72" d="M 3138 2547 
Q 2991 2616 2845 2648 
Q 2700 2681 2553 2681 
Q 2122 2681 1889 2404 
Q 1656 2128 1656 1613 
L 1656 0 
L 538 0 
L 538 3500 
L 1656 3500 
L 1656 2925 
Q 1872 3269 2151 3426 
Q 2431 3584 2822 3584 
Q 2878 3584 2943 3579 
Q 3009 3575 3134 3559 
L 3138 2547 
z
" transform="scale(0.015625)"/>
      <path id="DejaVuSans-Bold-69" d="M 538 3500 
L 1656 3500 
L 1656 0 
L 538 0 
L 538 3500 
z
M 538 4863 
L 1656 4863 
L 1656 3950 
L 538 3950 
L 538 4863 
z
" transform="scale(0.015625)"/>
      <path id="DejaVuSans-Bold-73" d="M 3272 3391 
L 3272 2541 
Q 2913 2691 2578 2766 
Q 2244 2841 1947 2841 
Q 1628 2841 1473 2761 
Q 1319 2681 1319 2516 
Q 1319 2381 1436 2309 
Q 1553 2238 1856 2203 
L 2053 2175 
Q 2913 2066 3209 1816 
Q 3506 1566 3506 1031 
Q 3506 472 3093 190 
Q 2681 -91 1863 -91 
Q 1516 -91 1145 -36 
Q 775 19 384 128 
L 384 978 
Q 719 816 1070 734 
Q 1422 653 1784 653 
Q 2113 653 2278 743 
Q 2444 834 2444 1013 
Q 2444 1163 2330 1236 
Q 2216 1309 1875 1350 
L 1678 1375 
Q 931 1469 631 1722 
Q 331 1975 331 2491 
Q 331 3047 712 3315 
Q 1094 3584 1881 3584 
Q 2191 3584 2531 3537 
Q 2872 3491 3272 3391 
z
" transform="scale(0.015625)"/>
      <path id="DejaVuSans-Bold-6e" d="M 4056 2131 
L 4056 0 
L 2931 0 
L 2931 347 
L 2931 1631 
Q 2931 2084 2911 2256 
Q 2891 2428 2841 2509 
Q 2775 2619 2662 2680 
Q 2550 2741 2406 2741 
Q 2056 2741 1856 2470 
Q 1656 2200 1656 1722 
L 1656 0 
L 538 0 
L 538 3500 
L 1656 3500 
L 1656 2988 
Q 1909 3294 2193 3439 
Q 2478 3584 2822 3584 
Q 3428 3584 3742 3212 
Q 4056 2841 4056 2131 
z
" transform="scale(0.015625)"/>
     </defs>
     <use xlink:href="#DejaVuSans-Bold-43"/>
     <use xlink:href="#DejaVuSans-Bold-44" transform="translate(73.388672 0)"/>
     <use xlink:href="#DejaVuSans-Bold-46" transform="translate(156.396484 0)"/>
     <use xlink:href="#DejaVuSans-Bold-20" transform="translate(224.707031 0)"/>
     <use xlink:href="#DejaVuSans-Bold-43" transform="translate(259.521484 0)"/>
     <use xlink:href="#DejaVuSans-Bold-6f" transform="translate(332.910156 0)"/>
     <use xlink:href="#DejaVuSans-Bold-6d" transform="translate(401.611328 0)"/>
     <use xlink:href="#DejaVuSans-Bold-70" transform="translate(505.810547 0)"/>
     <use xlink:href="#DejaVuSans-Bold-61" transform="translate(577.392578 0)"/>
     <use xlink:href="#DejaVuSans-Bold-72" transform="translate(644.873047 0)"/>
     <use xlink:href="#DejaVuSans-Bold-69" transform="translate(694.189453 0)"/>
     <use xlink:href="#DejaVuSans-Bold-73" transform="translate(728.466797 0)"/>
     <use xlink:href="#DejaVuSans-Bold-6f" transform="translate(787.988281 0)"/>
     <use xlink:href="#DejaVuSans-Bold-6e" transform="translate(856.689453 0)"/>
    </g>
   </g>
   <g id="legend_1">
    <g id="patch_7">
     <path d="M 61.92 55.318125 
L 159.505938 55.318125 
Q 161.505938 55.318125 161.505938 53.318125 
L 161.505938 39.64 
Q 161.505938 37.64 159.505938 37.64 
L 61.92 37.64 
Q 59.92 37.64 59.92 39.64 
L 59.92 53.318125 
Q 59.92 55.318125 61.92 55.318125 
z
" style="fill: #ffffff; opacity: 0.8; stroke: #cccccc; stroke-linejoin: miter"/>
    </g>
    <g id="line2d_26">
     <path d="M 63.92 45.738438 
L 73.92 45.738438 
L 83.92 45.738438 
" style="fill: none; stroke: #0072b2; stroke-width: 2.5; stroke-linecap: square"/>
    </g>
    <g id="text_16">
     <!-- lego-loam-v2 -->
     <g transform="translate(91.92 49.238438) scale(0.1 -0.1)">
      <defs>
       <path id="DejaVuSans-6c" d="M 603 4863 
L 1178 4863 
L 1178 0 
L 603 0 
L 603 4863 
z
" transform="scale(0.015625)"/>
       <path id="DejaVuSans-65" d="M 3597 1894 
L 3597 1613 
L 953 1613 
Q 991 1019 1311 708 
Q 1631 397 2203 397 
Q 2534 397 2845 478 
Q 3156 559 3463 722 
L 3463 178 
Q 3153 47 2828 -22 
Q 2503 -91 2169 -91 
Q 1331 -91 842 396 
Q 353 884 353 1716 
Q 353 2575 817 3079 
Q 1281 3584 2069 3584 
Q 2775 3584 3186 3129 
Q 3597 2675 3597 1894 
z
M 3022 2063 
Q 3016 2534 2758 2815 
Q 2500 3097 2075 3097 
Q 1594 3097 1305 2825 
Q 1016 2553 972 2059 
L 3022 2063 
z
" transform="scale(0.015625)"/>
       <path id="DejaVuSans-67" d="M 2906 1791 
Q 2906 2416 2648 2759 
Q 2391 3103 1925 3103 
Q 1463 3103 1205 2759 
Q 947 2416 947 1791 
Q 947 1169 1205 825 
Q 1463 481 1925 481 
Q 2391 481 2648 825 
Q 2906 1169 2906 1791 
z
M 3481 434 
Q 3481 -459 3084 -895 
Q 2688 -1331 1869 -1331 
Q 1566 -1331 1297 -1286 
Q 1028 -1241 775 -1147 
L 775 -588 
Q 1028 -725 1275 -790 
Q 1522 -856 1778 -856 
Q 2344 -856 2625 -561 
Q 2906 -266 2906 331 
L 2906 616 
Q 2728 306 2450 153 
Q 2172 0 1784 0 
Q 1141 0 747 490 
Q 353 981 353 1791 
Q 353 2603 747 3093 
Q 1141 3584 1784 3584 
Q 2172 3584 2450 3431 
Q 2728 3278 2906 2969 
L 2906 3500 
L 3481 3500 
L 3481 434 
z
" transform="scale(0.015625)"/>
       <path id="DejaVuSans-2d" d="M 313 2009 
L 1997 2009 
L 1997 1497 
L 313 1497 
L 313 2009 
z
" transform="scale(0.015625)"/>
       <path id="DejaVuSans-61" d="M 2194 1759 
Q 1497 1759 1228 1600 
Q 959 1441 959 1056 
Q 959 750 1161 570 
Q 1363 391 1709 391 
Q 2188 391 2477 730 
Q 2766 1069 2766 1631 
L 2766 1759 
L 2194 1759 
z
M 3341 1997 
L 3341 0 
L 2766 0 
L 2766 531 
Q 2569 213 2275 61 
Q 1981 -91 1556 -91 
Q 1019 -91 701 211 
Q 384 513 384 1019 
Q 384 1609 779 1909 
Q 1175 2209 1959 2209 
L 2766 2209 
L 2766 2266 
Q 2766 2663 2505 2880 
Q 2244 3097 1772 3097 
Q 1472 3097 1187 3025 
Q 903 2953 641 2809 
L 641 3341 
Q 956 3463 1253 3523 
Q 1550 3584 1831 3584 
Q 2591 3584 2966 3190 
Q 3341 2797 3341 1997 
z
" transform="scale(0.015625)"/>
       <path id="DejaVuSans-76" d="M 191 3500 
L 800 3500 
L 1894 563 
L 2988 3500 
L 3597 3500 
L 2284 0 
L 1503 0 
L 191 3500 
z
" transform="scale(0.015625)"/>
      </defs>
      <use xlink:href="#DejaVuSans-6c"/>
      <use xlink:href="#DejaVuSans-65" transform="translate(27.783203 0)"/>
      <use xlink:href="#DejaVuSans-67" transform="translate(89.306641 0)"/>
      <use xlink:href="#DejaVuSans-6f" transform="translate(152.783203 0)"/>
      <use xlink:href="#DejaVuSans-2d" transform="translate(215.839844 0)"/>
      <use xlink:href="#DejaVuSans-6c" transform="translate(251.923828 0)"/>
      <use xlink:href="#DejaVuSans-6f" transform="translate(279.707031 0)"/>
      <use xlink:href="#DejaVuSans-61" transform="translate(340.888672 0)"/>
      <use xlink:href="#DejaVuSans-6d" transform="translate(402.167969 0)"/>
      <use xlink:href="#DejaVuSans-2d" transform="translate(499.580078 0)"/>
      <use xlink:href="#DejaVuSans-76" transform="translate(533.039062 0)"/>
      <use xlink:href="#DejaVuSans-32" transform="translate(592.21875 0)"/>
     </g>
    </g>
   </g>
  </g>
 </g>
 <defs>
  <clipPath id="p0851f6286b">
   <rect x="54.92" y="32.64" width="654.28" height="422.2"/>
  </clipPath>
 </defs>
</svg>
