<?xml version="1.0" encoding="utf-8" standalone="no"?>
<!DOCTYPE svg PUBLIC "-//W3C//DTD SVG 1.1//EN"
  "http://www.w3.org/Graphics/SVG/1.1/DTD/svg11.dtd">
<svg xmlns:xlink="http://www.w3.org/1999/xlink" width="720pt" height="504pt" viewBox="0 0 720 504" xmlns="http://www.w3.org/2000/svg" version="1.1">
 <metadata>
  <rdf:RDF xmlns:dc="http://purl.org/dc/elements/1.1/" xmlns:cc="http://creativecommons.org/ns#" xmlns:rdf="http://www.w3.org/1999/02/22-rdf-syntax-ns#">
   <cc:Work>
    <dc:type rdf:resource="http://purl.org/dc/dcmitype/StillImage"/>
    <dc:date>2026-01-05T20:59:01.069470</dc:date>
    <dc:format>image/svg+xml</dc:format>
    <dc:creator>
     <cc:Agent>
      <dc:title>Matplotlib v3.10.7, https://matplotlib.org/</dc:title>
     </cc:Agent>
    </dc:creator>
   </cc:Work>
  </rdf:RDF>
 </metadata>
 <defs>
  <style type="text/css">*{stroke-linejoin: round; stroke-linecap: butt}</style>
 </defs>
 <g id="figure_1">
  <g id="patch_1">
   <path d="M 0 504 
L 720 504 
L 720 0 
L 0 0 
z
" style="fill: #ffffff"/>
  </g>
  <g id="axes_1">
   <g id="patch_2">
    <path d="M 54.92 454.84 
L 709.2 454.84 
L 709.2 32.64 
L 54.92 32.64 
z
" style="fill: #ffffff"/>
   </g>
   <g id="matplotlib.axis_1">
    <g id="xtick_1">
     <g id="line2d_1">
      <path d="M 84.443108 454.84 
L 84.443108 32.64 
" clip-path="url(#p0b38740b18)" style="fill: none; stroke-dasharray: 2.96,1.28; stroke-dashoffset: 0; stroke: #b0b0b0; stroke-opacity: 0.3; stroke-width: 0.8"/>
     </g>
     <g id="line2d_2">
      <defs>
       <path id="m3ff1ee11cb" d="M 0 0 
L 0 3.5 
" style="stroke: #000000; stroke-width: 0.8"/>
      </defs>
      <g>
       <use xlink:href="#m3ff1ee11cb" x="84.443108" y="454.84" style="stroke: #000000; stroke-width: 0.8"/>
      </g>
     </g>
     <g id="text_1">
      <!-- 0 -->
      <g transform="translate(81.261858 469.438437) scale(0.1 -0.1)">
       <defs>
        <path id="DejaVuSans-30" d="M 2034 4250 
Q 1547 4250 1301 3770 
Q 1056 3291 1056 2328 
Q 1056 1369 1301 889 
Q 1547 409 2034 409 
Q 2525 409 2770 889 
Q 3016 1369 3016 2328 
Q 3016 3291 2770 3770 
Q 2525 4250 2034 4250 
z
M 2034 4750 
Q 2819 4750 3233 4129 
Q 3647 3509 3647 2328 
Q 3647 1150 3233 529 
Q 2819 -91 2034 -91 
Q 1250 -91 836 529 
Q 422 1150 422 2328 
Q 422 3509 836 4129 
Q 1250 4750 2034 4750 
z
" transform="scale(0.015625)"/>
       </defs>
       <use xlink:href="#DejaVuSans-30"/>
      </g>
     </g>
    </g>
    <g id="xtick_2">
     <g id="line2d_3">
      <path d="M 177.086478 454.84 
L 177.086478 32.64 
" clip-path="url(#p0b38740b18)" style="fill: none; stroke-dasharray: 2.96,1.28; stroke-dashoffset: 0; stroke: #b0b0b0; stroke-opacity: 0.3; stroke-width: 0.8"/>
     </g>
     <g id="line2d_4">
      <g>
       <use xlink:href="#m3ff1ee11cb" x="177.086478" y="454.84" style="stroke: #000000; stroke-width: 0.8"/>
      </g>
     </g>
     <g id="text_2">
      <!-- 5 -->
      <g transform="translate(173.905228 469.438437) scale(0.1 -0.1)">
       <defs>
        <path id="DejaVuSans-35" d="M 691 4666 
L 3169 4666 
L 3169 4134 
L 1269 4134 
L 1269 2991 
Q 1406 3038 1543 3061 
Q 1681 3084 1819 3084 
Q 2600 3084 3056 2656 
Q 3513 2228 3513 1497 
Q 3513 744 3044 326 
Q 2575 -91 1722 -91 
Q 1428 -91 1123 -41 
Q 819 9 494 109 
L 494 744 
Q 775 591 1075 516 
Q 1375 441 1709 441 
Q 2250 441 2565 725 
Q 2881 1009 2881 1497 
Q 2881 1984 2565 2268 
Q 2250 2553 1709 2553 
Q 1456 2553 1204 2497 
Q 953 2441 691 2322 
L 691 4666 
z
" transform="scale(0.015625)"/>
       </defs>
       <use xlink:href="#DejaVuSans-35"/>
      </g>
     </g>
    </g>
    <g id="xtick_3">
     <g id="line2d_5">
      <path d="M 269.729848 454.84 
L 269.729848 32.64 
" clip-path="url(#p0b38740b18)" style="fill: none; stroke-dasharray: 2.96,1.28; stroke-dashoffset: 0; stroke: #b0b0b0; stroke-opacity: 0.3; stroke-width: 0.8"/>
     </g>
     <g id="line2d_6">
      <g>
       <use xlink:href="#m3ff1ee11cb" x="269.729848" y="454.84" style="stroke: #000000; stroke-width: 0.8"/>
      </g>
     </g>
     <g id="text_3">
      <!-- 10 -->
      <g transform="translate(263.367348 469.438437) scale(0.1 -0.1)">
       <defs>
        <path id="DejaVuSans-31" d="M 794 531 
L 1825 531 
L 1825 4091 
L 703 3866 
L 703 4441 
L 1819 4666 
L 2450 4666 
L 2450 531 
L 3481 531 
L 3481 0 
L 794 0 
L 794 531 
z
" transform="scale(0.015625)"/>
       </defs>
       <use xlink:href="#DejaVuSans-31"/>
       <use xlink:href="#DejaVuSans-30" transform="translate(63.623047 0)"/>
      </g>
     </g>
    </g>
    <g id="xtick_4">
     <g id="line2d_7">
      <path d="M 362.373218 454.84 
L 362.373218 32.64 
" clip-path="url(#p0b38740b18)" style="fill: none; stroke-dasharray: 2.96,1.28; stroke-dashoffset: 0; stroke: #b0b0b0; stroke-opacity: 0.3; stroke-width: 0.8"/>
     </g>
     <g id="line2d_8">
      <g>
       <use xlink:href="#m3ff1ee11cb" x="362.373218" y="454.84" style="stroke: #000000; stroke-width: 0.8"/>
      </g>
     </g>
     <g id="text_4">
      <!-- 15 -->
      <g transform="translate(356.010718 469.438437) scale(0.1 -0.1)">
       <use xlink:href="#DejaVuSans-31"/>
       <use xlink:href="#DejaVuSans-35" transform="translate(63.623047 0)"/>
      </g>
     </g>
    </g>
    <g id="xtick_5">
     <g id="line2d_9">
      <path d="M 455.016588 454.84 
L 455.016588 32.64 
" clip-path="url(#p0b38740b18)" style="fill: none; stroke-dasharray: 2.96,1.28; stroke-dashoffset: 0; stroke: #b0b0b0; stroke-opacity: 0.3; stroke-width: 0.8"/>
     </g>
     <g id="line2d_10">
      <g>
       <use xlink:href="#m3ff1ee11cb" x="455.016588" y="454.84" style="stroke: #000000; stroke-width: 0.8"/>
      </g>
     </g>
     <g id="text_5">
      <!-- 20 -->
      <g transform="translate(448.654088 469.438437) scale(0.1 -0.1)">
       <defs>
        <path id="DejaVuSans-32" d="M 1228 531 
L 3431 531 
L 3431 0 
L 469 0 
L 469 531 
Q 828 903 1448 1529 
Q 2069 2156 2228 2338 
Q 2531 2678 2651 2914 
Q 2772 3150 2772 3378 
Q 2772 3750 2511 3984 
Q 2250 4219 1831 4219 
Q 1534 4219 1204 4116 
Q 875 4013 500 3803 
L 500 4441 
Q 881 4594 1212 4672 
Q 1544 4750 1819 4750 
Q 2544 4750 2975 4387 
Q 3406 4025 3406 3419 
Q 3406 3131 3298 2873 
Q 3191 2616 2906 2266 
Q 2828 2175 2409 1742 
Q 1991 1309 1228 531 
z
" transform="scale(0.015625)"/>
       </defs>
       <use xlink:href="#DejaVuSans-32"/>
       <use xlink:href="#DejaVuSans-30" transform="translate(63.623047 0)"/>
      </g>
     </g>
    </g>
    <g id="xtick_6">
     <g id="line2d_11">
      <path d="M 547.659957 454.84 
L 547.659957 32.64 
" clip-path="url(#p0b38740b18)" style="fill: none; stroke-dasharray: 2.96,1.28; stroke-dashoffset: 0; stroke: #b0b0b0; stroke-opacity: 0.3; stroke-width: 0.8"/>
     </g>
     <g id="line2d_12">
      <g>
       <use xlink:href="#m3ff1ee11cb" x="547.659957" y="454.84" style="stroke: #000000; stroke-width: 0.8"/>
      </g>
     </g>
     <g id="text_6">
      <!-- 25 -->
      <g transform="translate(541.297457 469.438437) scale(0.1 -0.1)">
       <use xlink:href="#DejaVuSans-32"/>
       <use xlink:href="#DejaVuSans-35" transform="translate(63.623047 0)"/>
      </g>
     </g>
    </g>
    <g id="xtick_7">
     <g id="line2d_13">
      <path d="M 640.303327 454.84 
L 640.303327 32.64 
" clip-path="url(#p0b38740b18)" style="fill: none; stroke-dasharray: 2.96,1.28; stroke-dashoffset: 0; stroke: #b0b0b0; stroke-opacity: 0.3; stroke-width: 0.8"/>
     </g>
     <g id="line2d_14">
      <g>
       <use xlink:href="#m3ff1ee11cb" x="640.303327" y="454.84" style="stroke: #000000; stroke-width: 0.8"/>
      </g>
     </g>
     <g id="text_7">
      <!-- 30 -->
      <g transform="translate(633.940827 469.438437) scale(0.1 -0.1)">
       <defs>
        <path id="DejaVuSans-33" d="M 2597 2516 
Q 3050 2419 3304 2112 
Q 3559 1806 3559 1356 
Q 3559 666 3084 287 
Q 2609 -91 1734 -91 
Q 1441 -91 1130 -33 
Q 819 25 488 141 
L 488 750 
Q 750 597 1062 519 
Q 1375 441 1716 441 
Q 2309 441 2620 675 
Q 2931 909 2931 1356 
Q 2931 1769 2642 2001 
Q 2353 2234 1838 2234 
L 1294 2234 
L 1294 2753 
L 1863 2753 
Q 2328 2753 2575 2939 
Q 2822 3125 2822 3475 
Q 2822 3834 2567 4026 
Q 2313 4219 1838 4219 
Q 1578 4219 1281 4162 
Q 984 4106 628 3988 
L 628 4550 
Q 988 4650 1302 4700 
Q 1616 4750 1894 4750 
Q 2613 4750 3031 4423 
Q 3450 4097 3450 3541 
Q 3450 3153 3228 2886 
Q 3006 2619 2597 2516 
z
" transform="scale(0.015625)"/>
       </defs>
       <use xlink:href="#DejaVuSans-33"/>
       <use xlink:href="#DejaVuSans-30" transform="translate(63.623047 0)"/>
      </g>
     </g>
    </g>
    <g id="text_8">
     <!-- XY Error [m] -->
     <g transform="translate(326.954688 489.195312) scale(0.18 -0.18)">
      <defs>
       <path id="DejaVuSans-58" d="M 403 4666 
L 1081 4666 
L 2241 2931 
L 3406 4666 
L 4084 4666 
L 2584 2425 
L 4184 0 
L 3506 0 
L 2194 1984 
L 872 0 
L 191 0 
L 1856 2491 
L 403 4666 
z
" transform="scale(0.015625)"/>
       <path id="DejaVuSans-59" d="M -13 4666 
L 666 4666 
L 1959 2747 
L 3244 4666 
L 3922 4666 
L 2272 2222 
L 2272 0 
L 1638 0 
L 1638 2222 
L -13 4666 
z
" transform="scale(0.015625)"/>
       <path id="DejaVuSans-20" transform="scale(0.015625)"/>
       <path id="DejaVuSans-45" d="M 628 4666 
L 3578 4666 
L 3578 4134 
L 1259 4134 
L 1259 2753 
L 3481 2753 
L 3481 2222 
L 1259 2222 
L 1259 531 
L 3634 531 
L 3634 0 
L 628 0 
L 628 4666 
z
" transform="scale(0.015625)"/>
       <path id="DejaVuSans-72" d="M 2631 2963 
Q 2534 3019 2420 3045 
Q 2306 3072 2169 3072 
Q 1681 3072 1420 2755 
Q 1159 2438 1159 1844 
L 1159 0 
L 581 0 
L 581 3500 
L 1159 3500 
L 1159 2956 
Q 1341 3275 1631 3429 
Q 1922 3584 2338 3584 
Q 2397 3584 2469 3576 
Q 2541 3569 2628 3553 
L 2631 2963 
z
" transform="scale(0.015625)"/>
       <path id="DejaVuSans-6f" d="M 1959 3097 
Q 1497 3097 1228 2736 
Q 959 2375 959 1747 
Q 959 1119 1226 758 
Q 1494 397 1959 397 
Q 2419 397 2687 759 
Q 2956 1122 2956 1747 
Q 2956 2369 2687 2733 
Q 2419 3097 1959 3097 
z
M 1959 3584 
Q 2709 3584 3137 3096 
Q 3566 2609 3566 1747 
Q 3566 888 3137 398 
Q 2709 -91 1959 -91 
Q 1206 -91 779 398 
Q 353 888 353 1747 
Q 353 2609 779 3096 
Q 1206 3584 1959 3584 
z
" transform="scale(0.015625)"/>
       <path id="DejaVuSans-5b" d="M 550 4863 
L 1875 4863 
L 1875 4416 
L 1125 4416 
L 1125 -397 
L 1875 -397 
L 1875 -844 
L 550 -844 
L 550 4863 
z
" transform="scale(0.015625)"/>
       <path id="DejaVuSans-6d" d="M 3328 2828 
Q 3544 3216 3844 3400 
Q 4144 3584 4550 3584 
Q 5097 3584 5394 3201 
Q 5691 2819 5691 2113 
L 5691 0 
L 5113 0 
L 5113 2094 
Q 5113 2597 4934 2840 
Q 4756 3084 4391 3084 
Q 3944 3084 3684 2787 
Q 3425 2491 3425 1978 
L 3425 0 
L 2847 0 
L 2847 2094 
Q 2847 2600 2669 2842 
Q 2491 3084 2119 3084 
Q 1678 3084 1418 2786 
Q 1159 2488 1159 1978 
L 1159 0 
L 581 0 
L 581 3500 
L 1159 3500 
L 1159 2956 
Q 1356 3278 1631 3431 
Q 1906 3584 2284 3584 
Q 2666 3584 2933 3390 
Q 3200 3197 3328 2828 
z
" transform="scale(0.015625)"/>
       <path id="DejaVuSans-5d" d="M 1947 4863 
L 1947 -844 
L 622 -844 
L 622 -397 
L 1369 -397 
L 1369 4416 
L 622 4416 
L 622 4863 
L 1947 4863 
z
" transform="scale(0.015625)"/>
      </defs>
      <use xlink:href="#DejaVuSans-58"/>
      <use xlink:href="#DejaVuSans-59" transform="translate(68.505859 0)"/>
      <use xlink:href="#DejaVuSans-20" transform="translate(129.589844 0)"/>
      <use xlink:href="#DejaVuSans-45" transform="translate(161.376953 0)"/>
      <use xlink:href="#DejaVuSans-72" transform="translate(224.560547 0)"/>
      <use xlink:href="#DejaVuSans-72" transform="translate(263.923828 0)"/>
      <use xlink:href="#DejaVuSans-6f" transform="translate(302.787109 0)"/>
      <use xlink:href="#DejaVuSans-72" transform="translate(363.96875 0)"/>
      <use xlink:href="#DejaVuSans-20" transform="translate(405.082031 0)"/>
      <use xlink:href="#DejaVuSans-5b" transform="translate(436.869141 0)"/>
      <use xlink:href="#DejaVuSans-6d" transform="translate(475.882812 0)"/>
      <use xlink:href="#DejaVuSans-5d" transform="translate(573.294922 0)"/>
     </g>
    </g>
   </g>
   <g id="matplotlib.axis_2">
    <g id="ytick_1">
     <g id="line2d_15">
      <path d="M 54.92 435.649091 
L 709.2 435.649091 
" clip-path="url(#p0b38740b18)" style="fill: none; stroke-dasharray: 2.96,1.28; stroke-dashoffset: 0; stroke: #b0b0b0; stroke-opacity: 0.3; stroke-width: 0.8"/>
     </g>
     <g id="line2d_16">
      <defs>
       <path id="m004e8771df" d="M 0 0 
L -3.5 0 
" style="stroke: #000000; stroke-width: 0.8"/>
      </defs>
      <g>
       <use xlink:href="#m004e8771df" x="54.92" y="435.649091" style="stroke: #000000; stroke-width: 0.8"/>
      </g>
     </g>
     <g id="text_9">
      <!-- 0.0 -->
      <g transform="translate(32.016875 439.44831) scale(0.1 -0.1)">
       <defs>
        <path id="DejaVuSans-2e" d="M 684 794 
L 1344 794 
L 1344 0 
L 684 0 
L 684 794 
z
" transform="scale(0.015625)"/>
       </defs>
       <use xlink:href="#DejaVuSans-30"/>
       <use xlink:href="#DejaVuSans-2e" transform="translate(63.623047 0)"/>
       <use xlink:href="#DejaVuSans-30" transform="translate(95.410156 0)"/>
      </g>
     </g>
    </g>
    <g id="ytick_2">
     <g id="line2d_17">
      <path d="M 54.92 358.885455 
L 709.2 358.885455 
" clip-path="url(#p0b38740b18)" style="fill: none; stroke-dasharray: 2.96,1.28; stroke-dashoffset: 0; stroke: #b0b0b0; stroke-opacity: 0.3; stroke-width: 0.8"/>
     </g>
     <g id="line2d_18">
      <g>
       <use xlink:href="#m004e8771df" x="54.92" y="358.885455" style="stroke: #000000; stroke-width: 0.8"/>
      </g>
     </g>
     <g id="text_10">
      <!-- 0.2 -->
      <g transform="translate(32.016875 362.684673) scale(0.1 -0.1)">
       <use xlink:href="#DejaVuSans-30"/>
       <use xlink:href="#DejaVuSans-2e" transform="translate(63.623047 0)"/>
       <use xlink:href="#DejaVuSans-32" transform="translate(95.410156 0)"/>
      </g>
     </g>
    </g>
    <g id="ytick_3">
     <g id="line2d_19">
      <path d="M 54.92 282.121818 
L 709.2 282.121818 
" clip-path="url(#p0b38740b18)" style="fill: none; stroke-dasharray: 2.96,1.28; stroke-dashoffset: 0; stroke: #b0b0b0; stroke-opacity: 0.3; stroke-width: 0.8"/>
     </g>
     <g id="line2d_20">
      <g>
       <use xlink:href="#m004e8771df" x="54.92" y="282.121818" style="stroke: #000000; stroke-width: 0.8"/>
      </g>
     </g>
     <g id="text_11">
      <!-- 0.4 -->
      <g transform="translate(32.016875 285.921037) scale(0.1 -0.1)">
       <defs>
        <path id="DejaVuSans-34" d="M 2419 4116 
L 825 1625 
L 2419 1625 
L 2419 4116 
z
M 2253 4666 
L 3047 4666 
L 3047 1625 
L 3713 1625 
L 3713 1100 
L 3047 1100 
L 3047 0 
L 2419 0 
L 2419 1100 
L 313 1100 
L 313 1709 
L 2253 4666 
z
" transform="scale(0.015625)"/>
       </defs>
       <use xlink:href="#DejaVuSans-30"/>
       <use xlink:href="#DejaVuSans-2e" transform="translate(63.623047 0)"/>
       <use xlink:href="#DejaVuSans-34" transform="translate(95.410156 0)"/>
      </g>
     </g>
    </g>
    <g id="ytick_4">
     <g id="line2d_21">
      <path d="M 54.92 205.358182 
L 709.2 205.358182 
" clip-path="url(#p0b38740b18)" style="fill: none; stroke-dasharray: 2.96,1.28; stroke-dashoffset: 0; stroke: #b0b0b0; stroke-opacity: 0.3; stroke-width: 0.8"/>
     </g>
     <g id="line2d_22">
      <g>
       <use xlink:href="#m004e8771df" x="54.92" y="205.358182" style="stroke: #000000; stroke-width: 0.8"/>
      </g>
     </g>
     <g id="text_12">
      <!-- 0.6 -->
      <g transform="translate(32.016875 209.157401) scale(0.1 -0.1)">
       <defs>
        <path id="DejaVuSans-36" d="M 2113 2584 
Q 1688 2584 1439 2293 
Q 1191 2003 1191 1497 
Q 1191 994 1439 701 
Q 1688 409 2113 409 
Q 2538 409 2786 701 
Q 3034 994 3034 1497 
Q 3034 2003 2786 2293 
Q 2538 2584 2113 2584 
z
M 3366 4563 
L 3366 3988 
Q 3128 4100 2886 4159 
Q 2644 4219 2406 4219 
Q 1781 4219 1451 3797 
Q 1122 3375 1075 2522 
Q 1259 2794 1537 2939 
Q 1816 3084 2150 3084 
Q 2853 3084 3261 2657 
Q 3669 2231 3669 1497 
Q 3669 778 3244 343 
Q 2819 -91 2113 -91 
Q 1303 -91 875 529 
Q 447 1150 447 2328 
Q 447 3434 972 4092 
Q 1497 4750 2381 4750 
Q 2619 4750 2861 4703 
Q 3103 4656 3366 4563 
z
" transform="scale(0.015625)"/>
       </defs>
       <use xlink:href="#DejaVuSans-30"/>
       <use xlink:href="#DejaVuSans-2e" transform="translate(63.623047 0)"/>
       <use xlink:href="#DejaVuSans-36" transform="translate(95.410156 0)"/>
      </g>
     </g>
    </g>
    <g id="ytick_5">
     <g id="line2d_23">
      <path d="M 54.92 128.594545 
L 709.2 128.594545 
" clip-path="url(#p0b38740b18)" style="fill: none; stroke-dasharray: 2.96,1.28; stroke-dashoffset: 0; stroke: #b0b0b0; stroke-opacity: 0.3; stroke-width: 0.8"/>
     </g>
     <g id="line2d_24">
      <g>
       <use xlink:href="#m004e8771df" x="54.92" y="128.594545" style="stroke: #000000; stroke-width: 0.8"/>
      </g>
     </g>
     <g id="text_13">
      <!-- 0.8 -->
      <g transform="translate(32.016875 132.393764) scale(0.1 -0.1)">
       <defs>
        <path id="DejaVuSans-38" d="M 2034 2216 
Q 1584 2216 1326 1975 
Q 1069 1734 1069 1313 
Q 1069 891 1326 650 
Q 1584 409 2034 409 
Q 2484 409 2743 651 
Q 3003 894 3003 1313 
Q 3003 1734 2745 1975 
Q 2488 2216 2034 2216 
z
M 1403 2484 
Q 997 2584 770 2862 
Q 544 3141 544 3541 
Q 544 4100 942 4425 
Q 1341 4750 2034 4750 
Q 2731 4750 3128 4425 
Q 3525 4100 3525 3541 
Q 3525 3141 3298 2862 
Q 3072 2584 2669 2484 
Q 3125 2378 3379 2068 
Q 3634 1759 3634 1313 
Q 3634 634 3220 271 
Q 2806 -91 2034 -91 
Q 1263 -91 848 271 
Q 434 634 434 1313 
Q 434 1759 690 2068 
Q 947 2378 1403 2484 
z
M 1172 3481 
Q 1172 3119 1398 2916 
Q 1625 2713 2034 2713 
Q 2441 2713 2670 2916 
Q 2900 3119 2900 3481 
Q 2900 3844 2670 4047 
Q 2441 4250 2034 4250 
Q 1625 4250 1398 4047 
Q 1172 3844 1172 3481 
z
" transform="scale(0.015625)"/>
       </defs>
       <use xlink:href="#DejaVuSans-30"/>
       <use xlink:href="#DejaVuSans-2e" transform="translate(63.623047 0)"/>
       <use xlink:href="#DejaVuSans-38" transform="translate(95.410156 0)"/>
      </g>
     </g>
    </g>
    <g id="ytick_6">
     <g id="line2d_25">
      <path d="M 54.92 51.830909 
L 709.2 51.830909 
" clip-path="url(#p0b38740b18)" style="fill: none; stroke-dasharray: 2.96,1.28; stroke-dashoffset: 0; stroke: #b0b0b0; stroke-opacity: 0.3; stroke-width: 0.8"/>
     </g>
     <g id="line2d_26">
      <g>
       <use xlink:href="#m004e8771df" x="54.92" y="51.830909" style="stroke: #000000; stroke-width: 0.8"/>
      </g>
     </g>
     <g id="text_14">
      <!-- 1.0 -->
      <g transform="translate(32.016875 55.630128) scale(0.1 -0.1)">
       <use xlink:href="#DejaVuSans-31"/>
       <use xlink:href="#DejaVuSans-2e" transform="translate(63.623047 0)"/>
       <use xlink:href="#DejaVuSans-30" transform="translate(95.410156 0)"/>
      </g>
     </g>
    </g>
    <g id="text_15">
     <!-- CDF -->
     <g transform="translate(24.273438 262.130938) rotate(-90) scale(0.18 -0.18)">
      <defs>
       <path id="DejaVuSans-43" d="M 4122 4306 
L 4122 3641 
Q 3803 3938 3442 4084 
Q 3081 4231 2675 4231 
Q 1875 4231 1450 3742 
Q 1025 3253 1025 2328 
Q 1025 1406 1450 917 
Q 1875 428 2675 428 
Q 3081 428 3442 575 
Q 3803 722 4122 1019 
L 4122 359 
Q 3791 134 3420 21 
Q 3050 -91 2638 -91 
Q 1578 -91 968 557 
Q 359 1206 359 2328 
Q 359 3453 968 4101 
Q 1578 4750 2638 4750 
Q 3056 4750 3426 4639 
Q 3797 4528 4122 4306 
z
" transform="scale(0.015625)"/>
       <path id="DejaVuSans-44" d="M 1259 4147 
L 1259 519 
L 2022 519 
Q 2988 519 3436 956 
Q 3884 1394 3884 2338 
Q 3884 3275 3436 3711 
Q 2988 4147 2022 4147 
L 1259 4147 
z
M 628 4666 
L 1925 4666 
Q 3281 4666 3915 4102 
Q 4550 3538 4550 2338 
Q 4550 1131 3912 565 
Q 3275 0 1925 0 
L 628 0 
L 628 4666 
z
" transform="scale(0.015625)"/>
       <path id="DejaVuSans-46" d="M 628 4666 
L 3309 4666 
L 3309 4134 
L 1259 4134 
L 1259 2759 
L 3109 2759 
L 3109 2228 
L 1259 2228 
L 1259 0 
L 628 0 
L 628 4666 
z
" transform="scale(0.015625)"/>
      </defs>
      <use xlink:href="#DejaVuSans-43"/>
      <use xlink:href="#DejaVuSans-44" transform="translate(69.824219 0)"/>
      <use xlink:href="#DejaVuSans-46" transform="translate(146.826172 0)"/>
     </g>
    </g>
   </g>
   <g id="line2d_27">
    <path d="M 94.632622 435.649091 
L 95.132934 433.838826 
L 95.225162 433.67043 
L 95.578365 432.323256 
L 95.712383 431.144479 
L 96.022466 427.987041 
L 96.146447 426.555669 
L 96.277866 425.124297 
L 96.699634 421.124875 
L 96.786501 420.87228 
L 96.892882 420.324991 
L 97.079976 419.35671 
L 97.238025 418.34633 
L 97.412335 417.925338 
L 97.523971 417.378049 
L 97.699122 416.872859 
L 97.762614 416.662363 
L 97.866223 416.493966 
L 98.652941 412.620842 
L 98.800056 410.852677 
L 99.317911 407.232148 
L 99.434106 406.769057 
L 99.642171 405.548181 
L 99.720195 405.337685 
L 99.808489 404.790395 
L 100.015933 403.822114 
L 100.144785 403.148528 
L 100.275392 402.264445 
L 100.324046 402.01185 
L 100.492415 401.085668 
L 100.539229 400.790974 
L 100.648744 400.369982 
L 100.898371 398.980709 
L 100.961911 398.770213 
L 101.068765 398.349222 
L 101.164106 397.886131 
L 101.316551 397.086246 
L 101.433328 396.37056 
L 101.537427 395.907469 
L 101.638897 395.696973 
L 101.778509 395.065486 
L 101.929894 394.433998 
L 102.00266 394.181403 
L 102.22325 393.381519 
L 102.461478 392.581635 
L 102.576601 392.413238 
L 102.685415 391.992246 
L 103.234752 389.508395 
L 103.358254 388.919006 
L 103.474302 388.413816 
L 103.673903 387.782329 
L 103.79193 387.150841 
L 104.616848 383.909204 
L 104.679204 383.698709 
L 104.790979 383.235618 
L 104.895676 382.772527 
L 105.96579 377.215436 
L 106.161586 375.699865 
L 106.333897 374.899981 
L 106.46205 374.100097 
L 107.616935 368.29041 
L 107.743296 367.574724 
L 108.177152 366.143352 
L 108.316898 365.385567 
L 108.660133 363.785799 
L 108.763483 363.238509 
L 108.826642 362.901716 
L 109.39978 359.61798 
L 109.490132 359.196988 
L 110.924813 355.155468 
L 111.05398 354.608178 
L 111.304897 354.102988 
L 111.486563 353.429401 
L 111.596892 353.092608 
L 111.702562 352.587418 
L 111.915641 351.998029 
L 111.984408 351.703335 
L 112.077306 351.492839 
L 112.303261 350.735054 
L 112.443216 350.271963 
L 112.574623 349.977269 
L 112.660793 349.724674 
L 112.817214 349.472079 
L 112.994317 349.093186 
L 113.347937 348.124905 
L 113.493445 347.577616 
L 113.766475 346.272542 
L 113.923044 345.85155 
L 114.045351 345.430558 
L 114.132149 345.093765 
L 114.9497 341.557434 
L 115.159783 340.71545 
L 115.502174 338.947285 
L 115.57745 338.526293 
L 115.711813 337.515913 
L 115.77849 337.263318 
L 115.908364 336.758128 
L 116.015108 336.295037 
L 116.268182 334.989963 
L 116.41257 334.484773 
L 116.652399 332.842905 
L 116.71444 332.464012 
L 116.826993 331.53783 
L 116.918555 331.243136 
L 118.11452 326.275433 
L 118.371862 325.349251 
L 118.501412 324.970359 
L 119.158381 322.739103 
L 119.274948 322.486508 
L 119.425831 321.812921 
L 119.561838 321.560326 
L 119.672001 321.013036 
L 119.775907 320.634144 
L 119.83859 320.465747 
L 119.950187 320.213152 
L 120.714914 318.27659 
L 120.83499 318.108193 
L 120.94941 317.7714 
L 121.594675 316.592623 
L 121.687937 316.382127 
L 122.006154 315.876937 
L 122.110902 315.624342 
L 122.276118 315.329648 
L 122.708047 314.571863 
L 123.008054 314.19297 
L 123.132979 313.898276 
L 123.20739 313.645681 
L 123.508258 312.6353 
L 123.662876 312.17221 
L 123.781405 311.751218 
L 123.991732 311.035532 
L 124.128687 310.235647 
L 125.204853 306.867713 
L 125.487088 306.488821 
L 125.658525 306.236226 
L 126.179385 305.815234 
L 126.189147 305.773135 
L 126.378745 305.604738 
L 127.268142 304.552259 
L 127.462364 304.383862 
L 127.578849 304.173366 
L 127.790097 303.710275 
L 127.915926 303.289284 
L 128.116489 303.120887 
L 128.447141 302.278903 
L 128.857909 301.731614 
L 129.141038 301.563217 
L 129.302327 301.268523 
L 129.961615 300.594936 
L 131.224953 298.36368 
L 131.401652 298.195283 
L 131.49168 298.068986 
L 131.886828 297.900589 
L 133.206177 296.553415 
L 133.641282 295.879829 
L 133.815237 295.627234 
L 134.986895 294.195862 
L 135.210339 293.522275 
L 135.449586 292.890787 
L 135.593628 292.469795 
L 135.894579 291.627812 
L 136.005442 291.291019 
L 136.128727 291.122622 
L 136.533091 290.364837 
L 136.720998 289.943845 
L 137.039202 289.775448 
L 137.046974 289.733349 
L 137.241728 289.564952 
L 137.653426 288.933465 
L 137.815352 288.765068 
L 138.180271 288.13358 
L 138.437199 287.965184 
L 138.549564 287.712589 
L 138.968842 287.459994 
L 139.153318 287.249498 
L 139.419467 287.039002 
L 139.662624 286.786407 
L 142.410482 284.176258 
L 142.758413 283.965762 
L 143.625377 282.913283 
L 144.35512 281.692407 
L 144.483825 281.481911 
L 144.671416 281.145117 
L 144.836459 280.976721 
L 145.390159 280.387332 
L 147.675024 278.198175 
L 147.77077 278.071878 
L 147.851731 277.777183 
L 147.921224 277.566687 
L 148.053522 277.356192 
L 148.221118 277.019398 
L 148.653181 276.640506 
L 149.065741 276.135315 
L 149.351217 275.966919 
L 149.493939 275.756423 
L 150.202394 275.082836 
L 150.30304 274.914439 
L 150.526228 274.451348 
L 150.65772 273.988258 
L 150.772406 273.735662 
L 151.079233 273.230472 
L 151.227643 273.062076 
L 151.380043 272.767381 
L 151.563306 272.430588 
L 151.647027 272.177993 
L 151.818889 271.7991 
L 152.791925 268.599563 
L 152.898796 268.052274 
L 153.009824 267.841778 
L 153.063587 267.547084 
L 153.226543 266.957695 
L 153.30018 266.620902 
L 153.533614 265.400026 
L 153.649855 265.063232 
L 153.795145 264.810637 
L 154.140329 263.926555 
L 154.270646 263.421364 
L 154.380083 263.168769 
L 154.649893 262.453083 
L 154.747772 262.074191 
L 154.891234 261.905794 
L 155.017881 261.484802 
L 155.18742 261.274307 
L 156.378172 260.348125 
L 156.577956 260.221827 
L 156.766953 259.885034 
L 156.846672 259.632439 
L 157.231448 258.706257 
L 157.33359 258.327364 
L 157.466511 258.116868 
L 158.092637 257.401182 
L 159.2284 254.706835 
L 159.882255 254.412141 
L 160.100186 254.327943 
L 161.014188 253.906951 
L 161.02958 253.864852 
L 162.694025 253.654356 
L 172.919702 252.138785 
L 173.626682 252.012488 
L 177.225417 251.633595 
L 178.57523 251.296802 
L 178.888052 251.212604 
L 181.593592 250.833711 
L 189.777189 249.697033 
L 191.976397 249.402339 
L 192.650479 249.318141 
L 196.325153 248.939248 
L 196.439653 248.897149 
L 200.132186 248.560356 
L 201.378777 248.434058 
L 206.261393 247.970967 
L 206.26953 247.928868 
L 209.10728 247.676273 
L 214.583294 247.213182 
L 225.097337 246.244901 
L 226.700665 246.034405 
L 229.73454 245.823909 
L 233.396987 245.529215 
L 238.111408 245.108223 
L 243.761137 244.687231 
L 249.570938 244.139942 
L 249.599291 244.097843 
L 250.296235 243.929446 
L 250.566289 243.76105 
L 250.626972 243.634752 
L 250.838106 243.466355 
L 250.92963 243.297959 
L 251.426335 243.003264 
L 251.44155 242.961165 
L 253.355018 242.582273 
L 265.301481 241.445595 
L 266.317235 241.361397 
L 269.623421 240.940405 
L 272.217891 240.561512 
L 272.704524 240.393116 
L 277.613031 239.887925 
L 282.199624 239.382735 
L 285.705761 238.877545 
L 285.743895 238.793347 
L 288.115127 238.414454 
L 288.1465 238.372355 
L 289.884273 238.077661 
L 289.928893 238.035562 
L 290.91668 237.782967 
L 291.034565 237.656669 
L 292.711496 237.446173 
L 295.213711 237.193578 
L 298.662504 236.856785 
L 306.409954 235.762206 
L 307.51457 235.59381 
L 309.017565 235.341215 
L 309.816443 234.499231 
L 310.330642 234.288735 
L 310.46841 234.162438 
L 310.836298 233.951942 
L 311.178319 233.573049 
L 311.631205 233.152057 
L 312.207042 232.899462 
L 312.257209 232.815264 
L 312.579965 232.646867 
L 313.093059 232.394272 
L 313.108766 232.352173 
L 317.184699 231.51019 
L 318.684442 231.341793 
L 319.235959 231.173396 
L 322.041329 230.668206 
L 323.985946 230.415611 
L 329.527215 229.615727 
L 329.570152 229.489429 
L 333.59643 228.773743 
L 333.678303 228.689545 
L 337.308968 228.058057 
L 338.142567 227.847561 
L 341.081873 227.342371 
L 341.775282 227.216074 
L 342.349755 227.005578 
L 342.704208 226.921379 
L 343.702718 226.710884 
L 344.672546 226.458289 
L 345.753827 226.247793 
L 349.030045 225.447908 
L 350.880394 225.195313 
L 352.316466 224.85852 
L 352.841211 224.563826 
L 353.035223 224.395429 
L 354.894367 224.016536 
L 358.236152 223.595545 
L 360.222442 223.258751 
L 360.228205 223.216652 
L 364.946282 222.79566 
L 370.829025 222.164173 
L 380.484972 221.658983 
L 383.330976 221.406387 
L 387.275692 221.069594 
L 388.937439 220.816999 
L 401.475473 219.76452 
L 411.224809 219.175131 
L 411.337813 219.133032 
L 419.157653 218.501544 
L 419.357869 218.333148 
L 421.159321 218.038453 
L 421.439557 217.617462 
L 421.531371 217.406966 
L 423.339937 211.260486 
L 423.524642 210.460602 
L 423.617759 210.165908 
L 423.881297 209.155527 
L 424.109067 208.313544 
L 424.334553 207.555759 
L 424.456046 206.840073 
L 424.546148 206.587478 
L 425.159842 205.071907 
L 425.365087 204.693015 
L 425.721027 204.314122 
L 426.154559 202.88275 
L 426.244223 202.672254 
L 426.370024 202.461759 
L 426.54048 202.209164 
L 426.666387 201.830271 
L 427.369117 200.86199 
L 428.095223 199.34642 
L 428.297266 199.135924 
L 428.726818 198.546535 
L 429.373264 198.336039 
L 429.8962 197.999246 
L 430.307425 197.451957 
L 431.307445 196.988866 
L 431.357026 196.862568 
L 431.698831 196.652072 
L 432.383599 196.062684 
L 432.807742 195.431196 
L 432.924676 195.178601 
L 433.321863 194.505014 
L 433.390837 194.336618 
L 433.579337 194.168221 
L 434.122597 193.620932 
L 434.13214 193.494634 
L 434.30575 193.326237 
L 434.468013 193.19994 
L 434.646877 192.989444 
L 434.759956 192.778948 
L 434.853792 192.484254 
L 435.129368 191.810667 
L 435.669657 191.558072 
L 437.218239 191.305477 
L 437.280244 191.221279 
L 437.553805 191.010783 
L 437.773241 190.673989 
L 437.894892 190.421394 
L 438.047905 189.958303 
L 438.248863 189.705708 
L 438.336523 189.368915 
L 438.604174 188.695328 
L 438.705213 188.316436 
L 438.907387 187.853345 
L 439.165397 187.55865 
L 439.573215 186.800865 
L 439.767449 186.211477 
L 439.868327 186.000981 
L 439.953564 185.579989 
L 440.171723 184.906402 
L 440.270803 184.695907 
L 440.372784 184.190716 
L 440.682973 183.601328 
L 440.823407 182.96984 
L 440.982289 182.801444 
L 441.301629 181.791063 
L 441.453003 181.370072 
L 442.210002 179.180915 
L 442.352036 178.92832 
L 442.535193 178.338931 
L 442.695893 178.170534 
L 442.798122 178.044237 
L 443.58871 176.823361 
L 443.699561 176.528667 
L 443.985528 175.85508 
L 444.100964 175.728782 
L 444.215771 175.518286 
L 444.715563 174.760501 
L 444.915903 174.507906 
L 445.401614 173.960617 
L 445.585048 173.79222 
L 445.734879 173.581724 
L 445.806452 173.413328 
L 445.914127 173.244931 
L 446.041971 173.076534 
L 446.422455 172.445047 
L 446.533962 172.108253 
L 446.712351 171.77146 
L 446.960044 171.013675 
L 447.142033 170.424286 
L 447.351991 169.876997 
L 447.490689 169.245509 
L 447.850104 168.19303 
L 448.015593 167.856236 
L 448.211979 167.14055 
L 450.245724 162.509641 
L 450.782732 161.878153 
L 451.078911 161.709757 
L 451.099996 161.625558 
L 451.364138 161.457162 
L 451.868391 160.825674 
L 451.982031 160.657277 
L 453.881709 158.552319 
L 454.381716 158.383922 
L 454.916192 158.047129 
L 455.145069 157.794533 
L 455.481574 157.626137 
L 455.919589 157.373542 
L 456.252822 157.205145 
L 458.546787 155.815872 
L 458.615976 155.731674 
L 458.828471 155.605376 
L 458.931706 155.39488 
L 459.248104 155.184385 
L 459.479388 154.88969 
L 459.621267 154.721294 
L 459.722389 154.552897 
L 460.144998 154.005608 
L 460.282565 153.668814 
L 460.416829 153.500418 
L 460.517089 153.289922 
L 460.623554 153.121525 
L 460.831578 152.826831 
L 460.948692 152.574236 
L 461.04139 152.405839 
L 461.150189 152.153244 
L 461.336271 151.85855 
L 461.402758 151.690153 
L 461.546528 151.563856 
L 461.579542 151.479657 
L 461.745719 151.31126 
L 461.865647 151.142864 
L 461.925191 151.058665 
L 462.294486 150.932368 
L 462.382785 150.80607 
L 462.819364 150.342979 
L 462.893856 150.258781 
L 463.1766 150.048285 
L 463.290878 149.837789 
L 463.490411 149.711492 
L 463.633941 149.543095 
L 463.981703 149.122103 
L 464.904077 148.28012 
L 465.19743 148.111723 
L 465.20972 148.027525 
L 465.76905 147.817029 
L 465.77695 147.690731 
L 466.214563 147.480236 
L 466.396534 147.185541 
L 466.590593 147.017145 
L 466.81492 146.76455 
L 466.822145 146.72245 
L 467.101404 146.511954 
L 467.420543 145.964665 
L 467.482169 145.669971 
L 467.789783 145.459475 
L 468.249231 144.827987 
L 468.349074 144.533293 
L 468.690895 143.859706 
L 469.010529 143.69131 
L 470.084967 141.881045 
L 470.357267 141.670549 
L 470.911468 141.249558 
L 471.440487 140.996963 
L 471.963391 140.491772 
L 472.497382 139.144599 
L 472.710858 138.471012 
L 472.827591 138.092119 
L 473.022772 137.965822 
L 473.136054 137.839524 
L 473.297808 137.629028 
L 473.62586 137.292235 
L 474.769311 137.081739 
L 474.893078 136.997541 
L 475.841692 136.702847 
L 476.065204 136.366053 
L 476.787786 135.987161 
L 477.059705 135.650367 
L 478.025955 135.355673 
L 478.840978 135.103078 
L 478.841159 135.060979 
L 479.657427 134.850483 
L 481.745907 134.092698 
L 483.868851 133.545408 
L 484.241417 133.46121 
L 487.074004 132.871822 
L 487.155216 132.787623 
L 488.433942 132.535028 
L 488.84999 132.45083 
L 491.522123 131.861441 
L 491.819224 131.693045 
L 492.230578 131.566747 
L 492.253567 131.482549 
L 492.781563 131.187855 
L 492.849701 131.061557 
L 494.620733 130.851061 
L 501.600626 129.756483 
L 504.533455 128.8724 
L 510.187594 128.240912 
L 510.341244 128.198813 
L 512.584689 127.946218 
L 512.627165 127.904119 
L 515.311921 127.609425 
L 515.398805 127.567326 
L 517.711584 127.35683 
L 517.719495 127.314731 
L 521.132191 126.977937 
L 522.638104 126.725342 
L 522.646782 126.683243 
L 524.965475 126.472747 
L 531.343518 125.757061 
L 531.424228 125.714962 
L 534.021155 125.420268 
L 537.36775 125.041375 
L 540.528376 124.662482 
L 542.04141 124.451987 
L 542.548868 124.367788 
L 550.655756 123.399507 
L 554.793906 123.020615 
L 554.820562 122.978515 
L 559.390582 122.473325 
L 563.111806 121.841838 
L 563.13401 121.799739 
L 563.589082 121.589243 
L 563.750838 121.462945 
L 564.645934 121.294548 
L 566.20801 121.084053 
L 566.936964 120.999854 
L 568.22035 120.789358 
L 570.293474 120.536763 
L 571.691296 120.326267 
L 577.589286 119.484284 
L 577.66457 119.442185 
L 580.132485 119.147491 
L 583.478055 118.6844 
L 585.492419 118.473904 
L 589.699119 118.095011 
L 590.918735 117.842416 
L 592.284512 117.63192 
L 592.392778 117.547722 
L 593.111105 117.379325 
L 595.989625 116.958333 
L 596.308923 116.747838 
L 596.311975 116.705738 
L 596.733959 116.537342 
L 597.049443 116.326846 
L 597.212033 116.200548 
L 599.643306 115.905854 
L 603.581357 115.400664 
L 607.339668 114.221887 
L 607.38065 114.179788 
L 607.884747 114.011391 
L 608.842795 113.800895 
L 610.984173 113.379903 
L 611.115879 113.337804 
L 612.925554 113.085209 
L 614.531225 112.706317 
L 617.101582 111.822234 
L 617.198701 111.738036 
L 617.649354 111.611738 
L 618.456366 111.401242 
L 618.566014 111.274945 
L 619.847778 110.853953 
L 620.149651 110.685556 
L 621.774422 110.432961 
L 622.539262 109.885672 
L 623.214933 109.675176 
L 623.360516 109.506779 
L 623.589091 109.338383 
L 623.960057 109.001589 
L 624.07934 108.833193 
L 624.163757 108.706895 
L 624.329882 108.538498 
L 624.965313 107.065027 
L 625.044919 106.854531 
L 625.182716 106.265143 
L 625.499673 105.633655 
L 625.686173 105.170564 
L 625.763872 104.87587 
L 625.846778 104.707473 
L 625.994337 104.539077 
L 626.187806 104.244382 
L 626.575019 103.86549 
L 626.875701 103.697093 
L 627.11575 103.486597 
L 627.416739 103.107705 
L 627.57896 102.897209 
L 628.334584 101.550035 
L 628.571741 101.171143 
L 628.702698 101.002746 
L 628.747997 100.918548 
L 629.199383 100.708052 
L 629.5788 100.28706 
L 629.751569 100.118663 
L 630.517548 99.571374 
L 631.618051 99.318779 
L 632.01059 99.066184 
L 632.256373 98.855688 
L 632.769344 98.560994 
L 632.830502 98.476795 
L 633.520846 98.097903 
L 633.810406 97.803209 
L 634.123626 97.592713 
L 634.346165 97.340118 
L 634.43993 97.255919 
L 635.000085 96.834928 
L 635.220235 96.666531 
L 635.44215 96.498134 
L 635.562549 96.329737 
L 635.758133 95.740349 
L 635.768391 95.69825 
L 636.095239 95.487754 
L 636.584221 95.19306 
L 636.872664 95.066762 
L 636.954763 94.856266 
L 637.222551 94.603671 
L 637.417366 94.435275 
L 637.54581 94.266878 
L 637.722447 94.18268 
L 638.382178 93.63539 
L 638.481316 93.551192 
L 639.089731 93.003903 
L 639.220276 92.751308 
L 640.374664 90.435853 
L 640.477576 89.888564 
L 640.564127 89.593869 
L 640.683285 88.667688 
L 640.794273 87.067919 
L 641.240797 83.152696 
L 641.367636 79.995257 
L 641.683676 75.953737 
L 641.835803 75.490646 
L 641.985091 75.322249 
L 642.433683 74.22767 
L 642.617415 72.922596 
L 642.740465 72.249009 
L 643.017437 70.775538 
L 643.244946 70.101951 
L 643.847505 67.407604 
L 643.998159 66.523521 
L 644.375255 64.881653 
L 644.427798 64.629058 
L 644.592148 63.576579 
L 645.487508 60.208645 
L 645.608424 59.703455 
L 646.126445 53.893769 
L 646.557741 52.79919 
L 647.019202 52.504496 
L 647.275245 52.125603 
L 647.457724 51.999306 
L 647.528811 51.873008 
L 647.623986 51.830909 
L 647.623986 51.830909 
" clip-path="url(#p0b38740b18)" style="fill: none; stroke: #0072b2; stroke-width: 2.8; stroke-linecap: square"/>
   </g>
   <g id="line2d_28">
    <path d="M 98.445861 435.649091 
L 98.542483 433.644818 
L 98.594803 427.632001 
L 98.962507 427.130933 
L 99.227098 413.602094 
L 100.31051 412.599957 
L 101.822444 410.595685 
L 102.473021 409.593549 
L 103.103167 409.09248 
L 104.890852 406.086072 
L 105.919822 405.585004 
L 106.871423 404.081799 
L 108.912242 401.576459 
L 109.174838 401.07539 
L 109.646514 400.574322 
L 110.888362 400.073254 
L 112.817308 397.567914 
L 113.619827 397.066845 
L 114.720667 396.565777 
L 118.192171 396.064709 
L 121.236603 394.561505 
L 126.169914 391.555096 
L 127.918851 390.55296 
L 128.615391 390.051892 
L 130.410523 389.049756 
L 131.902047 388.047619 
L 133.918618 387.546551 
L 134.447645 387.045483 
L 140.530299 383.036938 
L 142.172549 382.034802 
L 142.720961 381.533734 
L 144.407465 380.531597 
L 147.355503 378.527325 
L 152.596588 375.520916 
L 155.041069 375.019848 
L 157.334483 373.516644 
L 159.10787 372.514507 
L 160.38582 371.512371 
L 163.541568 369.508099 
L 166.046992 368.004894 
L 168.632864 366.50169 
L 170.943757 364.998486 
L 177.994108 360.488873 
L 180.368094 359.987804 
L 181.892952 358.985668 
L 185.114791 356.981396 
L 187.345957 355.478191 
L 188.130429 354.977123 
L 190.451425 354.476055 
L 193.364137 352.471783 
L 194.15074 351.970714 
L 196.34457 351.469646 
L 200.7098 348.463238 
L 203.08932 347.962169 
L 205.594953 346.458965 
L 209.478672 343.953624 
L 210.880086 342.951488 
L 212.014238 341.949352 
L 214.206737 341.448284 
L 215.770348 340.446148 
L 218.047549 339.94508 
L 219.364071 338.942943 
L 220.693667 337.940807 
L 222.784086 336.437603 
L 223.906765 335.435466 
L 224.722119 334.934398 
L 225.843805 333.932262 
L 227.071944 332.930126 
L 229.110718 332.429058 
L 230.92237 330.925853 
L 234.155965 330.424785 
L 238.272149 327.418376 
L 240.389657 326.917308 
L 244.198955 324.411968 
L 246.498446 323.9109 
L 248.008517 322.908763 
L 250.239887 322.407695 
L 253.735201 319.902355 
L 256.017264 319.401286 
L 256.978894 318.39915 
L 258.278432 317.397014 
L 261.268995 315.392742 
L 263.526294 314.891673 
L 264.999013 313.889537 
L 266.985464 313.388469 
L 267.916599 312.386333 
L 270.518638 310.38206 
L 273.532017 307.87672 
L 276.119375 305.872447 
L 280.390043 302.36497 
L 281.147216 301.863902 
L 282.823667 300.360698 
L 285.1813 298.356425 
L 286.316451 297.354289 
L 288.137117 296.853221 
L 288.661065 296.352153 
L 290.282368 295.851085 
L 290.771971 295.350017 
L 291.087154 294.848948 
L 292.441116 293.846812 
L 293.648325 292.844676 
L 295.42934 291.341472 
L 297.05486 290.840404 
L 298.91988 288.836131 
L 301.140966 288.335063 
L 303.181731 286.33079 
L 305.733044 285.829722 
L 309.144046 284.827586 
L 313.625236 280.819041 
L 314.599934 279.816905 
L 316.459305 279.315837 
L 317.208457 278.3137 
L 318.10363 277.311564 
L 319.774803 276.810496 
L 320.133975 276.309428 
L 320.890924 273.804087 
L 321.343663 272.801951 
L 322.124502 272.300883 
L 322.401267 271.799815 
L 322.439741 271.298747 
L 322.760605 270.797679 
L 323.023929 269.795542 
L 323.600424 268.793406 
L 324.462769 267.79127 
L 325.043372 266.789134 
L 326.363273 266.288066 
L 327.475567 265.285929 
L 327.877335 264.784861 
L 329.180038 264.283793 
L 329.810523 263.782725 
L 330.419081 262.780589 
L 330.520199 262.279521 
L 331.474871 260.776316 
L 332.479321 259.77418 
L 335.746482 255.765635 
L 338.322772 255.264567 
L 338.85744 254.262431 
L 339.236558 253.761362 
L 341.253317 253.260294 
L 341.495253 252.759226 
L 342.261979 252.258158 
L 344.208794 251.75709 
L 344.520883 251.256022 
L 345.299912 250.253886 
L 346.127039 249.251749 
L 347.430145 248.750681 
L 349.58196 248.249613 
L 350.387315 247.247477 
L 351.413682 246.245341 
L 352.501388 244.742136 
L 353.432122 243.238932 
L 353.782054 242.737864 
L 354.506423 242.236796 
L 357.853737 237.727183 
L 359.651702 237.226114 
L 359.993255 236.725046 
L 361.471782 236.223978 
L 362.32261 235.221842 
L 363.646742 234.720774 
L 364.374317 234.219706 
L 364.775034 233.718638 
L 365.863002 233.217569 
L 366.535844 232.215433 
L 367.803839 230.712229 
L 368.264711 230.211161 
L 369.636479 229.710093 
L 369.943158 229.209024 
L 370.980876 228.707956 
L 371.621317 227.70582 
L 372.063655 227.204752 
L 372.787123 226.703684 
L 373.239026 226.202616 
L 374.525263 225.701548 
L 375.113796 224.699411 
L 375.961244 223.697275 
L 378.258081 221.191934 
L 379.013454 220.189798 
L 381.451969 217.684458 
L 383.348493 217.18339 
L 383.758805 216.682321 
L 384.018844 216.181253 
L 385.818991 214.176981 
L 386.608056 213.174845 
L 387.922298 212.673776 
L 389.170134 211.170572 
L 390.619964 210.669504 
L 391.613826 209.667368 
L 394.092311 207.162027 
L 394.963097 206.159891 
L 395.627345 205.658823 
L 397.474299 203.65455 
L 398.758588 203.153482 
L 399.552988 202.151346 
L 400.990903 201.650278 
L 402.617344 199.646005 
L 403.048013 199.144937 
L 405.445823 198.643869 
L 405.683588 198.142801 
L 406.210827 197.641733 
L 407.436611 197.140665 
L 408.260487 196.138528 
L 409.067847 195.136392 
L 411.299342 194.635324 
L 411.80049 194.134256 
L 412.135298 193.633188 
L 413.529052 193.13212 
L 414.527185 192.129983 
L 415.472342 190.626779 
L 417.559246 188.121438 
L 418.950155 187.62037 
L 420.824226 185.11503 
L 421.42806 184.613962 
L 421.802018 184.112893 
L 424.308611 183.611825 
L 424.754721 183.110757 
L 427.354076 182.108621 
L 427.638443 181.607553 
L 428.558271 180.605417 
L 429.381635 179.102212 
L 429.483051 178.601144 
L 429.981 177.599008 
L 430.75098 177.09794 
L 432.04987 175.594735 
L 432.627304 175.093667 
L 432.908119 174.592599 
L 433.515315 174.091531 
L 433.894016 173.590463 
L 434.926408 172.588327 
L 438.227395 171.58619 
L 438.568058 171.085122 
L 438.628304 170.584054 
L 439.502908 170.082986 
L 439.509002 169.581918 
L 439.821945 169.08085 
L 439.976439 168.579782 
L 439.995948 168.078714 
L 440.243842 167.577645 
L 440.661983 167.076577 
L 441.372588 166.575509 
L 442.77858 166.074441 
L 443.122844 163.5691 
L 447.085556 162.566964 
L 448.481428 161.06376 
L 448.809222 160.562692 
L 448.97373 160.061624 
L 450.676198 159.560555 
L 451.410476 159.059487 
L 452.821956 158.558419 
L 454.575613 158.057351 
L 460.746391 157.556283 
L 461.416165 157.055215 
L 462.368334 156.554147 
L 463.573039 155.55201 
L 464.090041 155.050942 
L 464.991903 154.549874 
L 465.664581 154.048806 
L 466.135797 153.547738 
L 466.391844 152.044534 
L 466.676039 149.539193 
L 466.730266 148.537057 
L 467.459321 148.035989 
L 467.816548 147.53492 
L 468.434281 147.033852 
L 471.567755 146.031716 
L 472.419289 145.530648 
L 475.211417 145.02958 
L 478.382687 143.025307 
L 480.414319 142.023171 
L 485.666292 141.522103 
L 485.687577 141.021035 
L 489.400751 140.018899 
L 489.748547 139.517831 
L 491.408979 139.016762 
L 493.594951 138.515694 
L 494.0874 138.014626 
L 495.136336 137.513558 
L 497.308989 136.010354 
L 497.97125 135.509286 
L 502.352386 135.008217 
L 503.009209 134.006081 
L 503.192559 133.003945 
L 503.468002 132.502877 
L 503.87512 132.001809 
L 504.506786 128.9954 
L 505.274934 127.993264 
L 505.501688 127.492196 
L 505.504037 126.991127 
L 505.831909 126.490059 
L 505.99788 125.988991 
L 512.251801 125.487923 
L 513.131998 124.485787 
L 513.812119 123.984719 
L 514.266307 123.483651 
L 515.53055 121.479378 
L 516.41669 120.477242 
L 517.236422 117.971901 
L 517.378956 115.967629 
L 517.843173 115.466561 
L 518.279244 114.464424 
L 518.339624 113.462288 
L 518.596335 112.96122 
L 519.341749 108.952675 
L 523.22388 108.451607 
L 523.487518 107.449471 
L 523.80204 106.948403 
L 527.023534 106.447334 
L 527.875029 105.946266 
L 528.085004 105.445198 
L 530.002129 104.94413 
L 530.877861 103.941994 
L 531.534164 102.939858 
L 533.741701 102.438789 
L 533.815955 101.937721 
L 534.508549 100.935585 
L 535.479526 99.933449 
L 537.747491 99.432381 
L 537.904421 98.931313 
L 539.009284 98.430244 
L 539.468846 97.929176 
L 539.51531 97.428108 
L 539.76003 96.92704 
L 545.193765 96.425972 
L 546.880892 95.924904 
L 547.842273 95.423836 
L 551.896129 93.920631 
L 553.420643 93.419563 
L 554.248298 92.918495 
L 557.112036 91.916359 
L 559.842724 90.914223 
L 560.595737 90.413155 
L 561.955437 89.912086 
L 562.656646 89.411018 
L 563.655503 88.90995 
L 564.881936 87.907814 
L 567.159976 87.406746 
L 570.234875 86.905678 
L 570.868889 86.40461 
L 571.805283 85.402473 
L 573.139147 84.400337 
L 573.659737 83.899269 
L 574.375126 82.897133 
L 575.003759 82.396065 
L 586.46674 81.894996 
L 586.783934 81.393928 
L 587.580593 80.89286 
L 596.789265 80.391792 
L 603.729724 79.890724 
L 604.697028 79.389656 
L 619.551491 78.888588 
L 620.14189 78.38752 
L 621.327271 77.886451 
L 622.895045 76.884315 
L 623.441325 76.383247 
L 624.224595 75.882179 
L 624.675571 75.381111 
L 624.952597 74.880043 
L 626.759814 72.87577 
L 628.954249 72.374702 
L 629.897059 71.372566 
L 630.934404 70.871498 
L 632.01226 69.368293 
L 633.742644 67.865089 
L 634.792069 66.862953 
L 636.875756 66.361885 
L 636.931277 65.860817 
L 637.801474 64.85868 
L 638.997108 63.856544 
L 640.066439 63.355476 
L 645.661691 62.854408 
L 646.820402 62.35334 
L 650.227799 61.852272 
L 654.473942 59.847999 
L 656.349077 58.845863 
L 658.451812 57.843727 
L 668.435269 57.342658 
L 669.619428 56.340522 
L 670.74489 55.338386 
L 671.468368 54.837318 
L 674.266988 54.33625 
L 674.286117 53.835182 
L 674.691961 53.334113 
L 677.47726 52.833045 
L 678.342192 52.331977 
L 679.46 51.830909 
L 679.46 51.830909 
" clip-path="url(#p0b38740b18)" style="fill: none; stroke-dasharray: 10.36,4.48; stroke-dashoffset: 0; stroke: #d55e00; stroke-width: 2.8"/>
   </g>
   <g id="line2d_29">
    <path d="M 84.66 435.649091 
L 85.295778 435.598579 
L 85.932536 435.480718 
L 86.018904 435.451253 
L 86.82878 435.299718 
L 87.498578 434.996647 
L 87.591218 434.929298 
L 88.055873 434.79039 
L 88.350644 434.706204 
L 88.626687 434.579924 
L 88.838863 434.36104 
L 89.068774 434.192667 
L 89.737856 433.447618 
L 90.007257 433.207687 
L 90.150771 433.047733 
L 91.124795 431.991194 
L 91.45442 431.679705 
L 91.897855 431.334541 
L 92.04596 431.183005 
L 92.292051 430.900981 
L 92.581999 430.564236 
L 92.732431 430.345351 
L 92.863945 430.22749 
L 94.751892 428.354344 
L 94.875839 428.004971 
L 95.034304 427.727156 
L 95.288035 427.247294 
L 95.353933 427.104177 
L 95.464403 426.910548 
L 95.767378 426.670617 
L 95.886084 426.544338 
L 96.184831 426.312825 
L 96.328545 426.144452 
L 96.59849 425.879265 
L 97.746728 424.633307 
L 98.308626 424.267097 
L 98.490476 423.968235 
L 98.65898 423.458908 
L 98.730782 423.26107 
L 98.899962 422.920115 
L 99.014497 422.654928 
L 99.137715 422.4613 
L 100.166697 420.655503 
L 100.387188 420.272455 
L 100.596293 419.944128 
L 101.983625 417.4017 
L 102.11336 417.170188 
L 102.350183 416.795559 
L 102.460845 416.513534 
L 102.728345 415.705345 
L 102.808897 415.448577 
L 103.60897 411.904332 
L 103.72866 411.491819 
L 103.935439 410.578397 
L 103.99914 410.414234 
L 104.230376 409.723905 
L 104.297994 409.547114 
L 104.421717 409.037787 
L 104.612764 408.545297 
L 104.844247 407.939155 
L 104.985183 407.53927 
L 105.041369 407.383525 
L 105.193125 406.865779 
L 105.260654 406.61322 
L 105.389048 406.137567 
L 105.46439 405.910264 
L 105.718845 405.156796 
L 105.824275 404.883191 
L 105.957395 404.462259 
L 106.016373 404.27284 
L 106.163687 403.822443 
L 106.224656 403.607767 
L 106.412919 402.610159 
L 106.507061 401.970343 
L 106.617123 401.263178 
L 106.68309 400.808571 
L 107.640772 393.151823 
L 107.698724 392.903473 
L 107.939745 391.548073 
L 107.989704 391.274468 
L 108.110482 390.76935 
L 108.551526 388.643644 
L 108.755038 387.204058 
L 108.878152 386.437962 
L 109.09722 385.246725 
L 109.75084 382.472785 
L 110.793849 374.912851 
L 110.923279 373.927871 
L 110.974941 373.603754 
L 112.511009 361.257826 
L 112.913656 357.890372 
L 113.039825 356.379227 
L 113.095818 355.697318 
L 113.269304 352.313026 
L 113.29618 351.631117 
L 113.755589 339.605097 
L 113.893856 335.096919 
L 114.592137 328.538802 
L 115.534959 321.307195 
L 115.980055 316.95897 
L 116.148402 315.102661 
L 116.268993 313.839866 
L 116.606788 309.920992 
L 116.751858 307.972078 
L 116.884087 305.905303 
L 117.65503 294.531728 
L 117.725197 293.782469 
L 118.403262 283.263385 
L 118.519919 281.596495 
L 118.620284 280.21163 
L 118.787669 278.098553 
L 118.833447 277.513458 
L 118.967397 275.741335 
L 119.396662 270.711201 
L 119.49411 269.574685 
L 120.325417 259.935348 
L 120.371423 259.388137 
L 120.496978 257.738085 
L 120.544603 257.009873 
L 120.681701 254.837865 
L 120.724699 254.122281 
L 121.503834 241.713214 
L 121.637347 239.116065 
L 121.666701 238.610947 
L 121.815061 235.251912 
L 121.962622 229.981846 
L 122.126612 224.526571 
L 122.697276 212.538435 
L 123.023607 194.623581 
L 123.230008 187.236229 
L 123.425025 179.284828 
L 123.457651 178.261964 
L 123.961255 171.207148 
L 124.000823 171.064032 
L 124.0558 170.782007 
L 124.228949 169.877004 
L 124.437483 168.479511 
L 124.523669 167.704996 
L 124.760272 165.625594 
L 125.008551 163.3694 
L 125.155554 161.807743 
L 125.354595 159.463153 
L 125.477412 157.956218 
L 126.924344 136.947515 
L 127.013586 136.126698 
L 127.321946 133.356967 
L 127.422885 132.645592 
L 127.659687 130.890307 
L 127.796393 129.917955 
L 128.036462 128.625694 
L 128.155186 128.276321 
L 128.467156 127.085084 
L 128.809592 125.367683 
L 129.052313 123.961771 
L 129.17719 123.195675 
L 129.379956 122.071787 
L 129.434081 121.777135 
L 129.557601 120.800573 
L 130.003114 117.757237 
L 130.058249 117.353143 
L 130.441277 113.383756 
L 130.56636 111.110725 
L 130.64296 109.591161 
L 130.99054 102.317461 
L 132.333411 92.543426 
L 132.408659 92.328751 
L 133.521765 90.089394 
L 133.677266 89.887347 
L 134.084963 89.50009 
L 134.24713 89.331717 
L 134.406568 89.175972 
L 135.075761 88.889739 
L 136.593068 88.068922 
L 136.694321 87.925805 
L 136.831116 87.757432 
L 137.05527 87.479618 
L 137.389451 87.151291 
L 137.554227 87.016593 
L 137.762688 86.91136 
L 138.389422 86.650382 
L 138.513992 86.570405 
L 138.808333 86.385195 
L 138.960608 86.124217 
L 139.394946 84.175303 
L 139.479506 83.70386 
L 139.687868 80.315359 
L 139.73434 79.267239 
L 139.927594 75.50411 
L 139.991378 74.847456 
L 140.131614 74.08557 
L 140.32567 73.660429 
L 141.716284 71.395816 
L 141.794258 71.227443 
L 142.0839 70.654976 
L 142.170547 70.503441 
L 145.178211 63.469671 
L 145.26594 63.297089 
L 145.383046 63.04453 
L 145.762047 62.177411 
L 145.996136 61.840666 
L 146.12788 61.625991 
L 147.936339 58.738399 
L 148.407765 58.519514 
L 148.528636 58.36377 
L 148.814385 58.085955 
L 149.094262 57.846024 
L 149.292536 57.639767 
L 149.435547 57.492441 
L 149.941843 57.12623 
L 150.059565 56.999951 
L 150.425903 56.536926 
L 150.565633 56.393809 
L 150.939582 56.065482 
L 152.525398 53.935568 
L 152.640938 53.750358 
L 152.746099 53.598822 
L 152.887497 53.342054 
L 152.96112 53.198937 
L 153.742958 52.167654 
L 154.461151 51.868793 
L 155.033071 51.830909 
L 155.033071 51.830909 
" clip-path="url(#p0b38740b18)" style="fill: none; stroke-dasharray: 17.92,4.48,2.8,4.48; stroke-dashoffset: 0; stroke: #009e73; stroke-width: 2.8"/>
   </g>
   <g id="patch_3">
    <path d="M 54.92 454.84 
L 54.92 32.64 
" style="fill: none; stroke: #000000; stroke-width: 0.8; stroke-linejoin: miter; stroke-linecap: square"/>
   </g>
   <g id="patch_4">
    <path d="M 709.2 454.84 
L 709.2 32.64 
" style="fill: none; stroke: #000000; stroke-width: 0.8; stroke-linejoin: miter; stroke-linecap: square"/>
   </g>
   <g id="patch_5">
    <path d="M 54.92 454.84 
L 709.2 454.84 
" style="fill: none; stroke: #000000; stroke-width: 0.8; stroke-linejoin: miter; stroke-linecap: square"/>
   </g>
   <g id="patch_6">
    <path d="M 54.92 32.64 
L 709.2 32.64 
" style="fill: none; stroke: #000000; stroke-width: 0.8; stroke-linejoin: miter; stroke-linecap: square"/>
   </g>
   <g id="text_16">
    <!-- CDF Comparison -->
    <g transform="translate(289.270938 26.64) scale(0.2 -0.2)">
     <defs>
      <path id="DejaVuSans-Bold-43" d="M 4288 256 
Q 3956 84 3597 -3 
Q 3238 -91 2847 -91 
Q 1681 -91 1000 561 
Q 319 1213 319 2328 
Q 319 3447 1000 4098 
Q 1681 4750 2847 4750 
Q 3238 4750 3597 4662 
Q 3956 4575 4288 4403 
L 4288 3438 
Q 3953 3666 3628 3772 
Q 3303 3878 2944 3878 
Q 2300 3878 1931 3465 
Q 1563 3053 1563 2328 
Q 1563 1606 1931 1193 
Q 2300 781 2944 781 
Q 3303 781 3628 887 
Q 3953 994 4288 1222 
L 4288 256 
z
" transform="scale(0.015625)"/>
      <path id="DejaVuSans-Bold-44" d="M 1791 3756 
L 1791 909 
L 2222 909 
Q 2959 909 3348 1275 
Q 3738 1641 3738 2338 
Q 3738 3031 3350 3393 
Q 2963 3756 2222 3756 
L 1791 3756 
z
M 588 4666 
L 1856 4666 
Q 2919 4666 3439 4514 
Q 3959 4363 4331 4000 
Q 4659 3684 4818 3271 
Q 4978 2859 4978 2338 
Q 4978 1809 4818 1395 
Q 4659 981 4331 666 
Q 3956 303 3431 151 
Q 2906 0 1856 0 
L 588 0 
L 588 4666 
z
" transform="scale(0.015625)"/>
      <path id="DejaVuSans-Bold-46" d="M 588 4666 
L 3834 4666 
L 3834 3756 
L 1791 3756 
L 1791 2888 
L 3713 2888 
L 3713 1978 
L 1791 1978 
L 1791 0 
L 588 0 
L 588 4666 
z
" transform="scale(0.015625)"/>
      <path id="DejaVuSans-Bold-20" transform="scale(0.015625)"/>
      <path id="DejaVuSans-Bold-6f" d="M 2203 2784 
Q 1831 2784 1636 2517 
Q 1441 2250 1441 1747 
Q 1441 1244 1636 976 
Q 1831 709 2203 709 
Q 2569 709 2762 976 
Q 2956 1244 2956 1747 
Q 2956 2250 2762 2517 
Q 2569 2784 2203 2784 
z
M 2203 3584 
Q 3106 3584 3614 3096 
Q 4122 2609 4122 1747 
Q 4122 884 3614 396 
Q 3106 -91 2203 -91 
Q 1297 -91 786 396 
Q 275 884 275 1747 
Q 275 2609 786 3096 
Q 1297 3584 2203 3584 
z
" transform="scale(0.015625)"/>
      <path id="DejaVuSans-Bold-6d" d="M 3781 2919 
Q 3994 3244 4286 3414 
Q 4578 3584 4928 3584 
Q 5531 3584 5847 3212 
Q 6163 2841 6163 2131 
L 6163 0 
L 5038 0 
L 5038 1825 
Q 5041 1866 5042 1909 
Q 5044 1953 5044 2034 
Q 5044 2406 4934 2573 
Q 4825 2741 4581 2741 
Q 4263 2741 4089 2478 
Q 3916 2216 3909 1719 
L 3909 0 
L 2784 0 
L 2784 1825 
Q 2784 2406 2684 2573 
Q 2584 2741 2328 2741 
Q 2006 2741 1831 2477 
Q 1656 2213 1656 1722 
L 1656 0 
L 531 0 
L 531 3500 
L 1656 3500 
L 1656 2988 
Q 1863 3284 2130 3434 
Q 2397 3584 2719 3584 
Q 3081 3584 3359 3409 
Q 3638 3234 3781 2919 
z
" transform="scale(0.015625)"/>
      <path id="DejaVuSans-Bold-70" d="M 1656 506 
L 1656 -1331 
L 538 -1331 
L 538 3500 
L 1656 3500 
L 1656 2988 
Q 1888 3294 2169 3439 
Q 2450 3584 2816 3584 
Q 3463 3584 3878 3070 
Q 4294 2556 4294 1747 
Q 4294 938 3878 423 
Q 3463 -91 2816 -91 
Q 2450 -91 2169 54 
Q 1888 200 1656 506 
z
M 2400 2772 
Q 2041 2772 1848 2508 
Q 1656 2244 1656 1747 
Q 1656 1250 1848 986 
Q 2041 722 2400 722 
Q 2759 722 2948 984 
Q 3138 1247 3138 1747 
Q 3138 2247 2948 2509 
Q 2759 2772 2400 2772 
z
" transform="scale(0.015625)"/>
      <path id="DejaVuSans-Bold-61" d="M 2106 1575 
Q 1756 1575 1579 1456 
Q 1403 1338 1403 1106 
Q 1403 894 1545 773 
Q 1688 653 1941 653 
Q 2256 653 2472 879 
Q 2688 1106 2688 1447 
L 2688 1575 
L 2106 1575 
z
M 3816 1997 
L 3816 0 
L 2688 0 
L 2688 519 
Q 2463 200 2181 54 
Q 1900 -91 1497 -91 
Q 953 -91 614 226 
Q 275 544 275 1050 
Q 275 1666 698 1953 
Q 1122 2241 2028 2241 
L 2688 2241 
L 2688 2328 
Q 2688 2594 2478 2717 
Q 2269 2841 1825 2841 
Q 1466 2841 1156 2769 
Q 847 2697 581 2553 
L 581 3406 
Q 941 3494 1303 3539 
Q 1666 3584 2028 3584 
Q 2975 3584 3395 3211 
Q 3816 2838 3816 1997 
z
" transform="scale(0.015625)"/>
      <path id="DejaVuSans-Bold-72" d="M 3138 2547 
Q 2991 2616 2845 2648 
Q 2700 2681 2553 2681 
Q 2122 2681 1889 2404 
Q 1656 2128 1656 1613 
L 1656 0 
L 538 0 
L 538 3500 
L 1656 3500 
L 1656 2925 
Q 1872 3269 2151 3426 
Q 2431 3584 2822 3584 
Q 2878 3584 2943 3579 
Q 3009 3575 3134 3559 
L 3138 2547 
z
" transform="scale(0.015625)"/>
      <path id="DejaVuSans-Bold-69" d="M 538 3500 
L 1656 3500 
L 1656 0 
L 538 0 
L 538 3500 
z
M 538 4863 
L 1656 4863 
L 1656 3950 
L 538 3950 
L 538 4863 
z
" transform="scale(0.015625)"/>
      <path id="DejaVuSans-Bold-73" d="M 3272 3391 
L 3272 2541 
Q 2913 2691 2578 2766 
Q 2244 2841 1947 2841 
Q 1628 2841 1473 2761 
Q 1319 2681 1319 2516 
Q 1319 2381 1436 2309 
Q 1553 2238 1856 2203 
L 2053 2175 
Q 2913 2066 3209 1816 
Q 3506 1566 3506 1031 
Q 3506 472 3093 190 
Q 2681 -91 1863 -91 
Q 1516 -91 1145 -36 
Q 775 19 384 128 
L 384 978 
Q 719 816 1070 734 
Q 1422 653 1784 653 
Q 2113 653 2278 743 
Q 2444 834 2444 1013 
Q 2444 1163 2330 1236 
Q 2216 1309 1875 1350 
L 1678 1375 
Q 931 1469 631 1722 
Q 331 1975 331 2491 
Q 331 3047 712 3315 
Q 1094 3584 1881 3584 
Q 2191 3584 2531 3537 
Q 2872 3491 3272 3391 
z
" transform="scale(0.015625)"/>
      <path id="DejaVuSans-Bold-6e" d="M 4056 2131 
L 4056 0 
L 2931 0 
L 2931 347 
L 2931 1631 
Q 2931 2084 2911 2256 
Q 2891 2428 2841 2509 
Q 2775 2619 2662 2680 
Q 2550 2741 2406 2741 
Q 2056 2741 1856 2470 
Q 1656 2200 1656 1722 
L 1656 0 
L 538 0 
L 538 3500 
L 1656 3500 
L 1656 2988 
Q 1909 3294 2193 3439 
Q 2478 3584 2822 3584 
Q 3428 3584 3742 3212 
Q 4056 2841 4056 2131 
z
" transform="scale(0.015625)"/>
     </defs>
     <use xlink:href="#DejaVuSans-Bold-43"/>
     <use xlink:href="#DejaVuSans-Bold-44" transform="translate(73.388672 0)"/>
     <use xlink:href="#DejaVuSans-Bold-46" transform="translate(156.396484 0)"/>
     <use xlink:href="#DejaVuSans-Bold-20" transform="translate(224.707031 0)"/>
     <use xlink:href="#DejaVuSans-Bold-43" transform="translate(259.521484 0)"/>
     <use xlink:href="#DejaVuSans-Bold-6f" transform="translate(332.910156 0)"/>
     <use xlink:href="#DejaVuSans-Bold-6d" transform="translate(401.611328 0)"/>
     <use xlink:href="#DejaVuSans-Bold-70" transform="translate(505.810547 0)"/>
     <use xlink:href="#DejaVuSans-Bold-61" transform="translate(577.392578 0)"/>
     <use xlink:href="#DejaVuSans-Bold-72" transform="translate(644.873047 0)"/>
     <use xlink:href="#DejaVuSans-Bold-69" transform="translate(694.189453 0)"/>
     <use xlink:href="#DejaVuSans-Bold-73" transform="translate(728.466797 0)"/>
     <use xlink:href="#DejaVuSans-Bold-6f" transform="translate(787.988281 0)"/>
     <use xlink:href="#DejaVuSans-Bold-6e" transform="translate(856.689453 0)"/>
    </g>
   </g>
   <g id="legend_1">
    <g id="patch_7">
     <path d="M 584.656875 447.84 
L 699.4 447.84 
Q 702.2 447.84 702.2 445.04 
L 702.2 384.791875 
Q 702.2 381.991875 699.4 381.991875 
L 584.656875 381.991875 
Q 581.856875 381.991875 581.856875 384.791875 
L 581.856875 445.04 
Q 581.856875 447.84 584.656875 447.84 
z
" style="fill: #ffffff; opacity: 0.95; stroke: #000000; stroke-linejoin: miter"/>
    </g>
    <g id="line2d_30">
     <path d="M 587.456875 393.329687 
L 601.456875 393.329687 
L 615.456875 393.329687 
" style="fill: none; stroke: #0072b2; stroke-width: 2.8; stroke-linecap: square"/>
    </g>
    <g id="text_17">
     <!-- lego-loam -->
     <g transform="translate(626.656875 398.229687) scale(0.14 -0.14)">
      <defs>
       <path id="DejaVuSans-6c" d="M 603 4863 
L 1178 4863 
L 1178 0 
L 603 0 
L 603 4863 
z
" transform="scale(0.015625)"/>
       <path id="DejaVuSans-65" d="M 3597 1894 
L 3597 1613 
L 953 1613 
Q 991 1019 1311 708 
Q 1631 397 2203 397 
Q 2534 397 2845 478 
Q 3156 559 3463 722 
L 3463 178 
Q 3153 47 2828 -22 
Q 2503 -91 2169 -91 
Q 1331 -91 842 396 
Q 353 884 353 1716 
Q 353 2575 817 3079 
Q 1281 3584 2069 3584 
Q 2775 3584 3186 3129 
Q 3597 2675 3597 1894 
z
M 3022 2063 
Q 3016 2534 2758 2815 
Q 2500 3097 2075 3097 
Q 1594 3097 1305 2825 
Q 1016 2553 972 2059 
L 3022 2063 
z
" transform="scale(0.015625)"/>
       <path id="DejaVuSans-67" d="M 2906 1791 
Q 2906 2416 2648 2759 
Q 2391 3103 1925 3103 
Q 1463 3103 1205 2759 
Q 947 2416 947 1791 
Q 947 1169 1205 825 
Q 1463 481 1925 481 
Q 2391 481 2648 825 
Q 2906 1169 2906 1791 
z
M 3481 434 
Q 3481 -459 3084 -895 
Q 2688 -1331 1869 -1331 
Q 1566 -1331 1297 -1286 
Q 1028 -1241 775 -1147 
L 775 -588 
Q 1028 -725 1275 -790 
Q 1522 -856 1778 -856 
Q 2344 -856 2625 -561 
Q 2906 -266 2906 331 
L 2906 616 
Q 2728 306 2450 153 
Q 2172 0 1784 0 
Q 1141 0 747 490 
Q 353 981 353 1791 
Q 353 2603 747 3093 
Q 1141 3584 1784 3584 
Q 2172 3584 2450 3431 
Q 2728 3278 2906 2969 
L 2906 3500 
L 3481 3500 
L 3481 434 
z
" transform="scale(0.015625)"/>
       <path id="DejaVuSans-2d" d="M 313 2009 
L 1997 2009 
L 1997 1497 
L 313 1497 
L 313 2009 
z
" transform="scale(0.015625)"/>
       <path id="DejaVuSans-61" d="M 2194 1759 
Q 1497 1759 1228 1600 
Q 959 1441 959 1056 
Q 959 750 1161 570 
Q 1363 391 1709 391 
Q 2188 391 2477 730 
Q 2766 1069 2766 1631 
L 2766 1759 
L 2194 1759 
z
M 3341 1997 
L 3341 0 
L 2766 0 
L 2766 531 
Q 2569 213 2275 61 
Q 1981 -91 1556 -91 
Q 1019 -91 701 211 
Q 384 513 384 1019 
Q 384 1609 779 1909 
Q 1175 2209 1959 2209 
L 2766 2209 
L 2766 2266 
Q 2766 2663 2505 2880 
Q 2244 3097 1772 3097 
Q 1472 3097 1187 3025 
Q 903 2953 641 2809 
L 641 3341 
Q 956 3463 1253 3523 
Q 1550 3584 1831 3584 
Q 2591 3584 2966 3190 
Q 3341 2797 3341 1997 
z
" transform="scale(0.015625)"/>
      </defs>
      <use xlink:href="#DejaVuSans-6c"/>
      <use xlink:href="#DejaVuSans-65" transform="translate(27.783203 0)"/>
      <use xlink:href="#DejaVuSans-67" transform="translate(89.306641 0)"/>
      <use xlink:href="#DejaVuSans-6f" transform="translate(152.783203 0)"/>
      <use xlink:href="#DejaVuSans-2d" transform="translate(215.839844 0)"/>
      <use xlink:href="#DejaVuSans-6c" transform="translate(251.923828 0)"/>
      <use xlink:href="#DejaVuSans-6f" transform="translate(279.707031 0)"/>
      <use xlink:href="#DejaVuSans-61" transform="translate(340.888672 0)"/>
      <use xlink:href="#DejaVuSans-6d" transform="translate(402.167969 0)"/>
     </g>
    </g>
    <g id="line2d_31">
     <path d="M 587.456875 413.879062 
L 601.456875 413.879062 
L 615.456875 413.879062 
" style="fill: none; stroke-dasharray: 10.36,4.48; stroke-dashoffset: 0; stroke: #d55e00; stroke-width: 2.8"/>
    </g>
    <g id="text_18">
     <!-- fastlio -->
     <g transform="translate(626.656875 418.779062) scale(0.14 -0.14)">
      <defs>
       <path id="DejaVuSans-66" d="M 2375 4863 
L 2375 4384 
L 1825 4384 
Q 1516 4384 1395 4259 
Q 1275 4134 1275 3809 
L 1275 3500 
L 2222 3500 
L 2222 3053 
L 1275 3053 
L 1275 0 
L 697 0 
L 697 3053 
L 147 3053 
L 147 3500 
L 697 3500 
L 697 3744 
Q 697 4328 969 4595 
Q 1241 4863 1831 4863 
L 2375 4863 
z
" transform="scale(0.015625)"/>
       <path id="DejaVuSans-73" d="M 2834 3397 
L 2834 2853 
Q 2591 2978 2328 3040 
Q 2066 3103 1784 3103 
Q 1356 3103 1142 2972 
Q 928 2841 928 2578 
Q 928 2378 1081 2264 
Q 1234 2150 1697 2047 
L 1894 2003 
Q 2506 1872 2764 1633 
Q 3022 1394 3022 966 
Q 3022 478 2636 193 
Q 2250 -91 1575 -91 
Q 1294 -91 989 -36 
Q 684 19 347 128 
L 347 722 
Q 666 556 975 473 
Q 1284 391 1588 391 
Q 1994 391 2212 530 
Q 2431 669 2431 922 
Q 2431 1156 2273 1281 
Q 2116 1406 1581 1522 
L 1381 1569 
Q 847 1681 609 1914 
Q 372 2147 372 2553 
Q 372 3047 722 3315 
Q 1072 3584 1716 3584 
Q 2034 3584 2315 3537 
Q 2597 3491 2834 3397 
z
" transform="scale(0.015625)"/>
       <path id="DejaVuSans-74" d="M 1172 4494 
L 1172 3500 
L 2356 3500 
L 2356 3053 
L 1172 3053 
L 1172 1153 
Q 1172 725 1289 603 
Q 1406 481 1766 481 
L 2356 481 
L 2356 0 
L 1766 0 
Q 1100 0 847 248 
Q 594 497 594 1153 
L 594 3053 
L 172 3053 
L 172 3500 
L 594 3500 
L 594 4494 
L 1172 4494 
z
" transform="scale(0.015625)"/>
       <path id="DejaVuSans-69" d="M 603 3500 
L 1178 3500 
L 1178 0 
L 603 0 
L 603 3500 
z
M 603 4863 
L 1178 4863 
L 1178 4134 
L 603 4134 
L 603 4863 
z
" transform="scale(0.015625)"/>
      </defs>
      <use xlink:href="#DejaVuSans-66"/>
      <use xlink:href="#DejaVuSans-61" transform="translate(35.205078 0)"/>
      <use xlink:href="#DejaVuSans-73" transform="translate(96.484375 0)"/>
      <use xlink:href="#DejaVuSans-74" transform="translate(148.583984 0)"/>
      <use xlink:href="#DejaVuSans-6c" transform="translate(187.792969 0)"/>
      <use xlink:href="#DejaVuSans-69" transform="translate(215.576172 0)"/>
      <use xlink:href="#DejaVuSans-6f" transform="translate(243.359375 0)"/>
     </g>
    </g>
    <g id="line2d_32">
     <path d="M 587.456875 434.428437 
L 601.456875 434.428437 
L 615.456875 434.428437 
" style="fill: none; stroke-dasharray: 17.92,4.48,2.8,4.48; stroke-dashoffset: 0; stroke: #009e73; stroke-width: 2.8"/>
    </g>
    <g id="text_19">
     <!-- dlio -->
     <g transform="translate(626.656875 439.328437) scale(0.14 -0.14)">
      <defs>
       <path id="DejaVuSans-64" d="M 2906 2969 
L 2906 4863 
L 3481 4863 
L 3481 0 
L 2906 0 
L 2906 525 
Q 2725 213 2448 61 
Q 2172 -91 1784 -91 
Q 1150 -91 751 415 
Q 353 922 353 1747 
Q 353 2572 751 3078 
Q 1150 3584 1784 3584 
Q 2172 3584 2448 3432 
Q 2725 3281 2906 2969 
z
M 947 1747 
Q 947 1113 1208 752 
Q 1469 391 1925 391 
Q 2381 391 2643 752 
Q 2906 1113 2906 1747 
Q 2906 2381 2643 2742 
Q 2381 3103 1925 3103 
Q 1469 3103 1208 2742 
Q 947 2381 947 1747 
z
" transform="scale(0.015625)"/>
      </defs>
      <use xlink:href="#DejaVuSans-64"/>
      <use xlink:href="#DejaVuSans-6c" transform="translate(63.476562 0)"/>
      <use xlink:href="#DejaVuSans-69" transform="translate(91.259766 0)"/>
      <use xlink:href="#DejaVuSans-6f" transform="translate(119.042969 0)"/>
     </g>
    </g>
   </g>
  </g>
 </g>
 <defs>
  <clipPath id="p0b38740b18">
   <rect x="54.92" y="32.64" width="654.28" height="422.2"/>
  </clipPath>
 </defs>
</svg>
