<?xml version="1.0" encoding="utf-8" standalone="no"?>
<!DOCTYPE svg PUBLIC "-//W3C//DTD SVG 1.1//EN"
  "http://www.w3.org/Graphics/SVG/1.1/DTD/svg11.dtd">
<svg xmlns:xlink="http://www.w3.org/1999/xlink" width="720pt" height="504pt" viewBox="0 0 720 504" xmlns="http://www.w3.org/2000/svg" version="1.1">
 <metadata>
  <rdf:RDF xmlns:dc="http://purl.org/dc/elements/1.1/" xmlns:cc="http://creativecommons.org/ns#" xmlns:rdf="http://www.w3.org/1999/02/22-rdf-syntax-ns#">
   <cc:Work>
    <dc:type rdf:resource="http://purl.org/dc/dcmitype/StillImage"/>
    <dc:date>2026-01-05T20:59:01.627168</dc:date>
    <dc:format>image/svg+xml</dc:format>
    <dc:creator>
     <cc:Agent>
      <dc:title>Matplotlib v3.10.7, https://matplotlib.org/</dc:title>
     </cc:Agent>
    </dc:creator>
   </cc:Work>
  </rdf:RDF>
 </metadata>
 <defs>
  <style type="text/css">*{stroke-linejoin: round; stroke-linecap: butt}</style>
 </defs>
 <g id="figure_1">
  <g id="patch_1">
   <path d="M 0 504 
L 720 504 
L 720 0 
L 0 0 
z
" style="fill: #ffffff"/>
  </g>
  <g id="axes_1">
   <g id="patch_2">
    <path d="M 70.67 454.84 
L 709.2 454.84 
L 709.2 32.64 
L 70.67 32.64 
z
" style="fill: #ffffff"/>
   </g>
   <g id="patch_3">
    <path d="M 109.426649 454.84 
L 122.91864 454.84 
L 122.91864 405.660996 
L 109.426649 405.660996 
z
" clip-path="url(#p34cdecccea)" style="fill: #0072b2; opacity: 0.35; stroke: #000000; stroke-width: 1.4; stroke-linejoin: miter"/>
   </g>
   <g id="patch_4">
    <path d="M 122.91864 454.84 
L 136.41063 454.84 
L 136.41063 420.624714 
L 122.91864 420.624714 
z
" clip-path="url(#p34cdecccea)" style="fill: #0072b2; opacity: 0.35; stroke: #000000; stroke-width: 1.4; stroke-linejoin: miter"/>
   </g>
   <g id="patch_5">
    <path d="M 136.41063 454.84 
L 149.90262 454.84 
L 149.90262 438.126139 
L 136.41063 438.126139 
z
" clip-path="url(#p34cdecccea)" style="fill: #0072b2; opacity: 0.35; stroke: #000000; stroke-width: 1.4; stroke-linejoin: miter"/>
   </g>
   <g id="patch_6">
    <path d="M 149.90262 454.84 
L 163.394611 454.84 
L 163.394611 443.87244 
L 149.90262 443.87244 
z
" clip-path="url(#p34cdecccea)" style="fill: #0072b2; opacity: 0.35; stroke: #000000; stroke-width: 1.4; stroke-linejoin: miter"/>
   </g>
   <g id="patch_7">
    <path d="M 163.394611 454.84 
L 176.886601 454.84 
L 176.886601 439.701267 
L 163.394611 439.701267 
z
" clip-path="url(#p34cdecccea)" style="fill: #0072b2; opacity: 0.35; stroke: #000000; stroke-width: 1.4; stroke-linejoin: miter"/>
   </g>
   <g id="patch_8">
    <path d="M 176.886601 454.84 
L 190.378591 454.84 
L 190.378591 453.498224 
L 176.886601 453.498224 
z
" clip-path="url(#p34cdecccea)" style="fill: #0072b2; opacity: 0.35; stroke: #000000; stroke-width: 1.4; stroke-linejoin: miter"/>
   </g>
   <g id="patch_9">
    <path d="M 190.378591 454.84 
L 203.870581 454.84 
L 203.870581 453.410717 
L 190.378591 453.410717 
z
" clip-path="url(#p34cdecccea)" style="fill: #0072b2; opacity: 0.35; stroke: #000000; stroke-width: 1.4; stroke-linejoin: miter"/>
   </g>
   <g id="patch_10">
    <path d="M 203.870581 454.84 
L 217.362572 454.84 
L 217.362572 453.848253 
L 203.870581 453.848253 
z
" clip-path="url(#p34cdecccea)" style="fill: #0072b2; opacity: 0.35; stroke: #000000; stroke-width: 1.4; stroke-linejoin: miter"/>
   </g>
   <g id="patch_11">
    <path d="M 217.362572 454.84 
L 230.854562 454.84 
L 230.854562 453.93576 
L 217.362572 453.93576 
z
" clip-path="url(#p34cdecccea)" style="fill: #0072b2; opacity: 0.35; stroke: #000000; stroke-width: 1.4; stroke-linejoin: miter"/>
   </g>
   <g id="patch_12">
    <path d="M 230.854562 454.84 
L 244.346552 454.84 
L 244.346552 454.023267 
L 230.854562 454.023267 
z
" clip-path="url(#p34cdecccea)" style="fill: #0072b2; opacity: 0.35; stroke: #000000; stroke-width: 1.4; stroke-linejoin: miter"/>
   </g>
   <g id="patch_13">
    <path d="M 244.346552 454.84 
L 257.838542 454.84 
L 257.838542 454.023267 
L 244.346552 454.023267 
z
" clip-path="url(#p34cdecccea)" style="fill: #0072b2; opacity: 0.35; stroke: #000000; stroke-width: 1.4; stroke-linejoin: miter"/>
   </g>
   <g id="patch_14">
    <path d="M 257.838542 454.84 
L 271.330533 454.84 
L 271.330533 453.148196 
L 257.838542 453.148196 
z
" clip-path="url(#p34cdecccea)" style="fill: #0072b2; opacity: 0.35; stroke: #000000; stroke-width: 1.4; stroke-linejoin: miter"/>
   </g>
   <g id="patch_15">
    <path d="M 271.330533 454.84 
L 284.822523 454.84 
L 284.822523 453.6149 
L 271.330533 453.6149 
z
" clip-path="url(#p34cdecccea)" style="fill: #0072b2; opacity: 0.35; stroke: #000000; stroke-width: 1.4; stroke-linejoin: miter"/>
   </g>
   <g id="patch_16">
    <path d="M 284.822523 454.84 
L 298.314513 454.84 
L 298.314513 453.556562 
L 284.822523 453.556562 
z
" clip-path="url(#p34cdecccea)" style="fill: #0072b2; opacity: 0.35; stroke: #000000; stroke-width: 1.4; stroke-linejoin: miter"/>
   </g>
   <g id="patch_17">
    <path d="M 298.314513 454.84 
L 311.806503 454.84 
L 311.806503 453.498224 
L 298.314513 453.498224 
z
" clip-path="url(#p34cdecccea)" style="fill: #0072b2; opacity: 0.35; stroke: #000000; stroke-width: 1.4; stroke-linejoin: miter"/>
   </g>
   <g id="patch_18">
    <path d="M 311.806503 454.84 
L 325.298494 454.84 
L 325.298494 451.631405 
L 311.806503 451.631405 
z
" clip-path="url(#p34cdecccea)" style="fill: #0072b2; opacity: 0.35; stroke: #000000; stroke-width: 1.4; stroke-linejoin: miter"/>
   </g>
   <g id="patch_19">
    <path d="M 325.298494 454.84 
L 338.790484 454.84 
L 338.790484 453.235703 
L 325.298494 453.235703 
z
" clip-path="url(#p34cdecccea)" style="fill: #0072b2; opacity: 0.35; stroke: #000000; stroke-width: 1.4; stroke-linejoin: miter"/>
   </g>
   <g id="patch_20">
    <path d="M 338.790484 454.84 
L 352.282474 454.84 
L 352.282474 452.973181 
L 338.790484 452.973181 
z
" clip-path="url(#p34cdecccea)" style="fill: #0072b2; opacity: 0.35; stroke: #000000; stroke-width: 1.4; stroke-linejoin: miter"/>
   </g>
   <g id="patch_21">
    <path d="M 352.282474 454.84 
L 365.774464 454.84 
L 365.774464 452.739829 
L 352.282474 452.739829 
z
" clip-path="url(#p34cdecccea)" style="fill: #0072b2; opacity: 0.35; stroke: #000000; stroke-width: 1.4; stroke-linejoin: miter"/>
   </g>
   <g id="patch_22">
    <path d="M 365.774464 454.84 
L 379.266455 454.84 
L 379.266455 453.731576 
L 365.774464 453.731576 
z
" clip-path="url(#p34cdecccea)" style="fill: #0072b2; opacity: 0.35; stroke: #000000; stroke-width: 1.4; stroke-linejoin: miter"/>
   </g>
   <g id="patch_23">
    <path d="M 379.266455 454.84 
L 392.758445 454.84 
L 392.758445 454.256619 
L 379.266455 454.256619 
z
" clip-path="url(#p34cdecccea)" style="fill: #0072b2; opacity: 0.35; stroke: #000000; stroke-width: 1.4; stroke-linejoin: miter"/>
   </g>
   <g id="patch_24">
    <path d="M 392.758445 454.84 
L 406.250435 454.84 
L 406.250435 453.877422 
L 392.758445 453.877422 
z
" clip-path="url(#p34cdecccea)" style="fill: #0072b2; opacity: 0.35; stroke: #000000; stroke-width: 1.4; stroke-linejoin: miter"/>
   </g>
   <g id="patch_25">
    <path d="M 406.250435 454.84 
L 419.742426 454.84 
L 419.742426 454.256619 
L 406.250435 454.256619 
z
" clip-path="url(#p34cdecccea)" style="fill: #0072b2; opacity: 0.35; stroke: #000000; stroke-width: 1.4; stroke-linejoin: miter"/>
   </g>
   <g id="patch_26">
    <path d="M 419.742426 454.84 
L 433.234416 454.84 
L 433.234416 443.28906 
L 419.742426 443.28906 
z
" clip-path="url(#p34cdecccea)" style="fill: #0072b2; opacity: 0.35; stroke: #000000; stroke-width: 1.4; stroke-linejoin: miter"/>
   </g>
   <g id="patch_27">
    <path d="M 433.234416 454.84 
L 446.726406 454.84 
L 446.726406 442.647341 
L 433.234416 442.647341 
z
" clip-path="url(#p34cdecccea)" style="fill: #0072b2; opacity: 0.35; stroke: #000000; stroke-width: 1.4; stroke-linejoin: miter"/>
   </g>
   <g id="patch_28">
    <path d="M 446.726406 454.84 
L 460.218396 454.84 
L 460.218396 436.638518 
L 446.726406 436.638518 
z
" clip-path="url(#p34cdecccea)" style="fill: #0072b2; opacity: 0.35; stroke: #000000; stroke-width: 1.4; stroke-linejoin: miter"/>
   </g>
   <g id="patch_29">
    <path d="M 460.218396 454.84 
L 473.710387 454.84 
L 473.710387 445.680921 
L 460.218396 445.680921 
z
" clip-path="url(#p34cdecccea)" style="fill: #0072b2; opacity: 0.35; stroke: #000000; stroke-width: 1.4; stroke-linejoin: miter"/>
   </g>
   <g id="patch_30">
    <path d="M 473.710387 454.84 
L 487.202377 454.84 
L 487.202377 447.081035 
L 473.710387 447.081035 
z
" clip-path="url(#p34cdecccea)" style="fill: #0072b2; opacity: 0.35; stroke: #000000; stroke-width: 1.4; stroke-linejoin: miter"/>
   </g>
   <g id="patch_31">
    <path d="M 487.202377 454.84 
L 500.694367 454.84 
L 500.694367 452.477308 
L 487.202377 452.477308 
z
" clip-path="url(#p34cdecccea)" style="fill: #0072b2; opacity: 0.35; stroke: #000000; stroke-width: 1.4; stroke-linejoin: miter"/>
   </g>
   <g id="patch_32">
    <path d="M 500.694367 454.84 
L 514.186357 454.84 
L 514.186357 453.206534 
L 500.694367 453.206534 
z
" clip-path="url(#p34cdecccea)" style="fill: #0072b2; opacity: 0.35; stroke: #000000; stroke-width: 1.4; stroke-linejoin: miter"/>
   </g>
   <g id="patch_33">
    <path d="M 514.186357 454.84 
L 527.678348 454.84 
L 527.678348 453.673238 
L 514.186357 453.673238 
z
" clip-path="url(#p34cdecccea)" style="fill: #0072b2; opacity: 0.35; stroke: #000000; stroke-width: 1.4; stroke-linejoin: miter"/>
   </g>
   <g id="patch_34">
    <path d="M 527.678348 454.84 
L 541.170338 454.84 
L 541.170338 453.731576 
L 527.678348 453.731576 
z
" clip-path="url(#p34cdecccea)" style="fill: #0072b2; opacity: 0.35; stroke: #000000; stroke-width: 1.4; stroke-linejoin: miter"/>
   </g>
   <g id="patch_35">
    <path d="M 541.170338 454.84 
L 554.662328 454.84 
L 554.662328 453.673238 
L 541.170338 453.673238 
z
" clip-path="url(#p34cdecccea)" style="fill: #0072b2; opacity: 0.35; stroke: #000000; stroke-width: 1.4; stroke-linejoin: miter"/>
   </g>
   <g id="patch_36">
    <path d="M 554.662328 454.84 
L 568.154318 454.84 
L 568.154318 453.381548 
L 554.662328 453.381548 
z
" clip-path="url(#p34cdecccea)" style="fill: #0072b2; opacity: 0.35; stroke: #000000; stroke-width: 1.4; stroke-linejoin: miter"/>
   </g>
   <g id="patch_37">
    <path d="M 568.154318 454.84 
L 581.646309 454.84 
L 581.646309 453.527393 
L 568.154318 453.527393 
z
" clip-path="url(#p34cdecccea)" style="fill: #0072b2; opacity: 0.35; stroke: #000000; stroke-width: 1.4; stroke-linejoin: miter"/>
   </g>
   <g id="patch_38">
    <path d="M 581.646309 454.84 
L 595.138299 454.84 
L 595.138299 453.585731 
L 581.646309 453.585731 
z
" clip-path="url(#p34cdecccea)" style="fill: #0072b2; opacity: 0.35; stroke: #000000; stroke-width: 1.4; stroke-linejoin: miter"/>
   </g>
   <g id="patch_39">
    <path d="M 595.138299 454.84 
L 608.630289 454.84 
L 608.630289 452.798167 
L 595.138299 452.798167 
z
" clip-path="url(#p34cdecccea)" style="fill: #0072b2; opacity: 0.35; stroke: #000000; stroke-width: 1.4; stroke-linejoin: miter"/>
   </g>
   <g id="patch_40">
    <path d="M 608.630289 454.84 
L 622.122279 454.84 
L 622.122279 452.185617 
L 608.630289 452.185617 
z
" clip-path="url(#p34cdecccea)" style="fill: #0072b2; opacity: 0.35; stroke: #000000; stroke-width: 1.4; stroke-linejoin: miter"/>
   </g>
   <g id="patch_41">
    <path d="M 622.122279 454.84 
L 635.61427 454.84 
L 635.61427 445.855935 
L 622.122279 445.855935 
z
" clip-path="url(#p34cdecccea)" style="fill: #0072b2; opacity: 0.35; stroke: #000000; stroke-width: 1.4; stroke-linejoin: miter"/>
   </g>
   <g id="patch_42">
    <path d="M 635.61427 454.84 
L 649.10626 454.84 
L 649.10626 422.958238 
L 635.61427 422.958238 
z
" clip-path="url(#p34cdecccea)" style="fill: #0072b2; opacity: 0.35; stroke: #000000; stroke-width: 1.4; stroke-linejoin: miter"/>
   </g>
   <g id="patch_43">
    <path d="M 113.148095 454.84 
L 127.32379 454.84 
L 127.32379 452.593984 
L 113.148095 452.593984 
z
" clip-path="url(#p34cdecccea)" style="fill: #d55e00; opacity: 0.35; stroke-dasharray: 5.18,2.24; stroke-dashoffset: 0; stroke: #000000; stroke-width: 1.4; stroke-linejoin: miter"/>
   </g>
   <g id="patch_44">
    <path d="M 127.32379 454.84 
L 141.499486 454.84 
L 141.499486 454.460802 
L 127.32379 454.460802 
z
" clip-path="url(#p34cdecccea)" style="fill: #d55e00; opacity: 0.35; stroke-dasharray: 5.18,2.24; stroke-dashoffset: 0; stroke: #000000; stroke-width: 1.4; stroke-linejoin: miter"/>
   </g>
   <g id="patch_45">
    <path d="M 141.499486 454.84 
L 155.675181 454.84 
L 155.675181 454.344126 
L 141.499486 454.344126 
z
" clip-path="url(#p34cdecccea)" style="fill: #d55e00; opacity: 0.35; stroke-dasharray: 5.18,2.24; stroke-dashoffset: 0; stroke: #000000; stroke-width: 1.4; stroke-linejoin: miter"/>
   </g>
   <g id="patch_46">
    <path d="M 155.675181 454.84 
L 169.850876 454.84 
L 169.850876 454.344126 
L 155.675181 454.344126 
z
" clip-path="url(#p34cdecccea)" style="fill: #d55e00; opacity: 0.35; stroke-dasharray: 5.18,2.24; stroke-dashoffset: 0; stroke: #000000; stroke-width: 1.4; stroke-linejoin: miter"/>
   </g>
   <g id="patch_47">
    <path d="M 169.850876 454.84 
L 184.026572 454.84 
L 184.026572 454.314957 
L 169.850876 454.314957 
z
" clip-path="url(#p34cdecccea)" style="fill: #d55e00; opacity: 0.35; stroke-dasharray: 5.18,2.24; stroke-dashoffset: 0; stroke: #000000; stroke-width: 1.4; stroke-linejoin: miter"/>
   </g>
   <g id="patch_48">
    <path d="M 184.026572 454.84 
L 198.202267 454.84 
L 198.202267 454.373295 
L 184.026572 454.373295 
z
" clip-path="url(#p34cdecccea)" style="fill: #d55e00; opacity: 0.35; stroke-dasharray: 5.18,2.24; stroke-dashoffset: 0; stroke: #000000; stroke-width: 1.4; stroke-linejoin: miter"/>
   </g>
   <g id="patch_49">
    <path d="M 198.202267 454.84 
L 212.377963 454.84 
L 212.377963 454.373295 
L 198.202267 454.373295 
z
" clip-path="url(#p34cdecccea)" style="fill: #d55e00; opacity: 0.35; stroke-dasharray: 5.18,2.24; stroke-dashoffset: 0; stroke: #000000; stroke-width: 1.4; stroke-linejoin: miter"/>
   </g>
   <g id="patch_50">
    <path d="M 212.377963 454.84 
L 226.553658 454.84 
L 226.553658 454.402464 
L 212.377963 454.402464 
z
" clip-path="url(#p34cdecccea)" style="fill: #d55e00; opacity: 0.35; stroke-dasharray: 5.18,2.24; stroke-dashoffset: 0; stroke: #000000; stroke-width: 1.4; stroke-linejoin: miter"/>
   </g>
   <g id="patch_51">
    <path d="M 226.553658 454.84 
L 240.729353 454.84 
L 240.729353 454.314957 
L 226.553658 454.314957 
z
" clip-path="url(#p34cdecccea)" style="fill: #d55e00; opacity: 0.35; stroke-dasharray: 5.18,2.24; stroke-dashoffset: 0; stroke: #000000; stroke-width: 1.4; stroke-linejoin: miter"/>
   </g>
   <g id="patch_52">
    <path d="M 240.729353 454.84 
L 254.905049 454.84 
L 254.905049 454.402464 
L 240.729353 454.402464 
z
" clip-path="url(#p34cdecccea)" style="fill: #d55e00; opacity: 0.35; stroke-dasharray: 5.18,2.24; stroke-dashoffset: 0; stroke: #000000; stroke-width: 1.4; stroke-linejoin: miter"/>
   </g>
   <g id="patch_53">
    <path d="M 254.905049 454.84 
L 269.080744 454.84 
L 269.080744 454.431633 
L 254.905049 454.431633 
z
" clip-path="url(#p34cdecccea)" style="fill: #d55e00; opacity: 0.35; stroke-dasharray: 5.18,2.24; stroke-dashoffset: 0; stroke: #000000; stroke-width: 1.4; stroke-linejoin: miter"/>
   </g>
   <g id="patch_54">
    <path d="M 269.080744 454.84 
L 283.256439 454.84 
L 283.256439 454.314957 
L 269.080744 454.314957 
z
" clip-path="url(#p34cdecccea)" style="fill: #d55e00; opacity: 0.35; stroke-dasharray: 5.18,2.24; stroke-dashoffset: 0; stroke: #000000; stroke-width: 1.4; stroke-linejoin: miter"/>
   </g>
   <g id="patch_55">
    <path d="M 283.256439 454.84 
L 297.432135 454.84 
L 297.432135 454.169112 
L 283.256439 454.169112 
z
" clip-path="url(#p34cdecccea)" style="fill: #d55e00; opacity: 0.35; stroke-dasharray: 5.18,2.24; stroke-dashoffset: 0; stroke: #000000; stroke-width: 1.4; stroke-linejoin: miter"/>
   </g>
   <g id="patch_56">
    <path d="M 297.432135 454.84 
L 311.60783 454.84 
L 311.60783 454.285788 
L 297.432135 454.285788 
z
" clip-path="url(#p34cdecccea)" style="fill: #d55e00; opacity: 0.35; stroke-dasharray: 5.18,2.24; stroke-dashoffset: 0; stroke: #000000; stroke-width: 1.4; stroke-linejoin: miter"/>
   </g>
   <g id="patch_57">
    <path d="M 311.60783 454.84 
L 325.783525 454.84 
L 325.783525 454.373295 
L 311.60783 454.373295 
z
" clip-path="url(#p34cdecccea)" style="fill: #d55e00; opacity: 0.35; stroke-dasharray: 5.18,2.24; stroke-dashoffset: 0; stroke: #000000; stroke-width: 1.4; stroke-linejoin: miter"/>
   </g>
   <g id="patch_58">
    <path d="M 325.783525 454.84 
L 339.959221 454.84 
L 339.959221 453.789915 
L 325.783525 453.789915 
z
" clip-path="url(#p34cdecccea)" style="fill: #d55e00; opacity: 0.35; stroke-dasharray: 5.18,2.24; stroke-dashoffset: 0; stroke: #000000; stroke-width: 1.4; stroke-linejoin: miter"/>
   </g>
   <g id="patch_59">
    <path d="M 339.959221 454.84 
L 354.134916 454.84 
L 354.134916 454.169112 
L 339.959221 454.169112 
z
" clip-path="url(#p34cdecccea)" style="fill: #d55e00; opacity: 0.35; stroke-dasharray: 5.18,2.24; stroke-dashoffset: 0; stroke: #000000; stroke-width: 1.4; stroke-linejoin: miter"/>
   </g>
   <g id="patch_60">
    <path d="M 354.134916 454.84 
L 368.310611 454.84 
L 368.310611 454.081605 
L 354.134916 454.081605 
z
" clip-path="url(#p34cdecccea)" style="fill: #d55e00; opacity: 0.35; stroke-dasharray: 5.18,2.24; stroke-dashoffset: 0; stroke: #000000; stroke-width: 1.4; stroke-linejoin: miter"/>
   </g>
   <g id="patch_61">
    <path d="M 368.310611 454.84 
L 382.486307 454.84 
L 382.486307 454.198281 
L 368.310611 454.198281 
z
" clip-path="url(#p34cdecccea)" style="fill: #d55e00; opacity: 0.35; stroke-dasharray: 5.18,2.24; stroke-dashoffset: 0; stroke: #000000; stroke-width: 1.4; stroke-linejoin: miter"/>
   </g>
   <g id="patch_62">
    <path d="M 382.486307 454.84 
L 396.662002 454.84 
L 396.662002 453.994098 
L 382.486307 453.994098 
z
" clip-path="url(#p34cdecccea)" style="fill: #d55e00; opacity: 0.35; stroke-dasharray: 5.18,2.24; stroke-dashoffset: 0; stroke: #000000; stroke-width: 1.4; stroke-linejoin: miter"/>
   </g>
   <g id="patch_63">
    <path d="M 396.662002 454.84 
L 410.837697 454.84 
L 410.837697 454.110774 
L 396.662002 454.110774 
z
" clip-path="url(#p34cdecccea)" style="fill: #d55e00; opacity: 0.35; stroke-dasharray: 5.18,2.24; stroke-dashoffset: 0; stroke: #000000; stroke-width: 1.4; stroke-linejoin: miter"/>
   </g>
   <g id="patch_64">
    <path d="M 410.837697 454.84 
L 425.013393 454.84 
L 425.013393 454.198281 
L 410.837697 454.198281 
z
" clip-path="url(#p34cdecccea)" style="fill: #d55e00; opacity: 0.35; stroke-dasharray: 5.18,2.24; stroke-dashoffset: 0; stroke: #000000; stroke-width: 1.4; stroke-linejoin: miter"/>
   </g>
   <g id="patch_65">
    <path d="M 425.013393 454.84 
L 439.189088 454.84 
L 439.189088 454.110774 
L 425.013393 454.110774 
z
" clip-path="url(#p34cdecccea)" style="fill: #d55e00; opacity: 0.35; stroke-dasharray: 5.18,2.24; stroke-dashoffset: 0; stroke: #000000; stroke-width: 1.4; stroke-linejoin: miter"/>
   </g>
   <g id="patch_66">
    <path d="M 439.189088 454.84 
L 453.364783 454.84 
L 453.364783 454.110774 
L 439.189088 454.110774 
z
" clip-path="url(#p34cdecccea)" style="fill: #d55e00; opacity: 0.35; stroke-dasharray: 5.18,2.24; stroke-dashoffset: 0; stroke: #000000; stroke-width: 1.4; stroke-linejoin: miter"/>
   </g>
   <g id="patch_67">
    <path d="M 453.364783 454.84 
L 467.540479 454.84 
L 467.540479 454.489972 
L 453.364783 454.489972 
z
" clip-path="url(#p34cdecccea)" style="fill: #d55e00; opacity: 0.35; stroke-dasharray: 5.18,2.24; stroke-dashoffset: 0; stroke: #000000; stroke-width: 1.4; stroke-linejoin: miter"/>
   </g>
   <g id="patch_68">
    <path d="M 467.540479 454.84 
L 481.716174 454.84 
L 481.716174 454.110774 
L 467.540479 454.110774 
z
" clip-path="url(#p34cdecccea)" style="fill: #d55e00; opacity: 0.35; stroke-dasharray: 5.18,2.24; stroke-dashoffset: 0; stroke: #000000; stroke-width: 1.4; stroke-linejoin: miter"/>
   </g>
   <g id="patch_69">
    <path d="M 481.716174 454.84 
L 495.89187 454.84 
L 495.89187 454.54831 
L 481.716174 454.54831 
z
" clip-path="url(#p34cdecccea)" style="fill: #d55e00; opacity: 0.35; stroke-dasharray: 5.18,2.24; stroke-dashoffset: 0; stroke: #000000; stroke-width: 1.4; stroke-linejoin: miter"/>
   </g>
   <g id="patch_70">
    <path d="M 495.89187 454.84 
L 510.067565 454.84 
L 510.067565 454.198281 
L 495.89187 454.198281 
z
" clip-path="url(#p34cdecccea)" style="fill: #d55e00; opacity: 0.35; stroke-dasharray: 5.18,2.24; stroke-dashoffset: 0; stroke: #000000; stroke-width: 1.4; stroke-linejoin: miter"/>
   </g>
   <g id="patch_71">
    <path d="M 510.067565 454.84 
L 524.24326 454.84 
L 524.24326 453.702407 
L 510.067565 453.702407 
z
" clip-path="url(#p34cdecccea)" style="fill: #d55e00; opacity: 0.35; stroke-dasharray: 5.18,2.24; stroke-dashoffset: 0; stroke: #000000; stroke-width: 1.4; stroke-linejoin: miter"/>
   </g>
   <g id="patch_72">
    <path d="M 524.24326 454.84 
L 538.418956 454.84 
L 538.418956 454.402464 
L 524.24326 454.402464 
z
" clip-path="url(#p34cdecccea)" style="fill: #d55e00; opacity: 0.35; stroke-dasharray: 5.18,2.24; stroke-dashoffset: 0; stroke: #000000; stroke-width: 1.4; stroke-linejoin: miter"/>
   </g>
   <g id="patch_73">
    <path d="M 538.418956 454.84 
L 552.594651 454.84 
L 552.594651 454.489972 
L 538.418956 454.489972 
z
" clip-path="url(#p34cdecccea)" style="fill: #d55e00; opacity: 0.35; stroke-dasharray: 5.18,2.24; stroke-dashoffset: 0; stroke: #000000; stroke-width: 1.4; stroke-linejoin: miter"/>
   </g>
   <g id="patch_74">
    <path d="M 552.594651 454.84 
L 566.770346 454.84 
L 566.770346 454.489972 
L 552.594651 454.489972 
z
" clip-path="url(#p34cdecccea)" style="fill: #d55e00; opacity: 0.35; stroke-dasharray: 5.18,2.24; stroke-dashoffset: 0; stroke: #000000; stroke-width: 1.4; stroke-linejoin: miter"/>
   </g>
   <g id="patch_75">
    <path d="M 566.770346 454.84 
L 580.946042 454.84 
L 580.946042 454.431633 
L 566.770346 454.431633 
z
" clip-path="url(#p34cdecccea)" style="fill: #d55e00; opacity: 0.35; stroke-dasharray: 5.18,2.24; stroke-dashoffset: 0; stroke: #000000; stroke-width: 1.4; stroke-linejoin: miter"/>
   </g>
   <g id="patch_76">
    <path d="M 580.946042 454.84 
L 595.121737 454.84 
L 595.121737 454.752493 
L 580.946042 454.752493 
z
" clip-path="url(#p34cdecccea)" style="fill: #d55e00; opacity: 0.35; stroke-dasharray: 5.18,2.24; stroke-dashoffset: 0; stroke: #000000; stroke-width: 1.4; stroke-linejoin: miter"/>
   </g>
   <g id="patch_77">
    <path d="M 595.121737 454.84 
L 609.297432 454.84 
L 609.297432 454.752493 
L 595.121737 454.752493 
z
" clip-path="url(#p34cdecccea)" style="fill: #d55e00; opacity: 0.35; stroke-dasharray: 5.18,2.24; stroke-dashoffset: 0; stroke: #000000; stroke-width: 1.4; stroke-linejoin: miter"/>
   </g>
   <g id="patch_78">
    <path d="M 609.297432 454.84 
L 623.473128 454.84 
L 623.473128 454.752493 
L 609.297432 454.752493 
z
" clip-path="url(#p34cdecccea)" style="fill: #d55e00; opacity: 0.35; stroke-dasharray: 5.18,2.24; stroke-dashoffset: 0; stroke: #000000; stroke-width: 1.4; stroke-linejoin: miter"/>
   </g>
   <g id="patch_79">
    <path d="M 623.473128 454.84 
L 637.648823 454.84 
L 637.648823 454.198281 
L 623.473128 454.198281 
z
" clip-path="url(#p34cdecccea)" style="fill: #d55e00; opacity: 0.35; stroke-dasharray: 5.18,2.24; stroke-dashoffset: 0; stroke: #000000; stroke-width: 1.4; stroke-linejoin: miter"/>
   </g>
   <g id="patch_80">
    <path d="M 637.648823 454.84 
L 651.824518 454.84 
L 651.824518 454.54831 
L 637.648823 454.54831 
z
" clip-path="url(#p34cdecccea)" style="fill: #d55e00; opacity: 0.35; stroke-dasharray: 5.18,2.24; stroke-dashoffset: 0; stroke: #000000; stroke-width: 1.4; stroke-linejoin: miter"/>
   </g>
   <g id="patch_81">
    <path d="M 651.824518 454.84 
L 666.000214 454.84 
L 666.000214 454.606648 
L 651.824518 454.606648 
z
" clip-path="url(#p34cdecccea)" style="fill: #d55e00; opacity: 0.35; stroke-dasharray: 5.18,2.24; stroke-dashoffset: 0; stroke: #000000; stroke-width: 1.4; stroke-linejoin: miter"/>
   </g>
   <g id="patch_82">
    <path d="M 666.000214 454.84 
L 680.175909 454.84 
L 680.175909 454.489972 
L 666.000214 454.489972 
z
" clip-path="url(#p34cdecccea)" style="fill: #d55e00; opacity: 0.35; stroke-dasharray: 5.18,2.24; stroke-dashoffset: 0; stroke: #000000; stroke-width: 1.4; stroke-linejoin: miter"/>
   </g>
   <g id="patch_83">
    <path d="M 99.694091 454.84 
L 101.411067 454.84 
L 101.411067 453.031519 
L 99.694091 453.031519 
z
" clip-path="url(#p34cdecccea)" style="fill: #009e73; opacity: 0.35; stroke-dasharray: 8.96,2.24,1.4,2.24; stroke-dashoffset: 0; stroke: #000000; stroke-width: 1.4; stroke-linejoin: miter"/>
   </g>
   <g id="patch_84">
    <path d="M 101.411067 454.84 
L 103.128042 454.84 
L 103.128042 450.406306 
L 101.411067 450.406306 
z
" clip-path="url(#p34cdecccea)" style="fill: #009e73; opacity: 0.35; stroke-dasharray: 8.96,2.24,1.4,2.24; stroke-dashoffset: 0; stroke: #000000; stroke-width: 1.4; stroke-linejoin: miter"/>
   </g>
   <g id="patch_85">
    <path d="M 103.128042 454.84 
L 104.845018 454.84 
L 104.845018 444.514159 
L 103.128042 444.514159 
z
" clip-path="url(#p34cdecccea)" style="fill: #009e73; opacity: 0.35; stroke-dasharray: 8.96,2.24,1.4,2.24; stroke-dashoffset: 0; stroke: #000000; stroke-width: 1.4; stroke-linejoin: miter"/>
   </g>
   <g id="patch_86">
    <path d="M 104.845018 454.84 
L 106.561994 454.84 
L 106.561994 442.559833 
L 104.845018 442.559833 
z
" clip-path="url(#p34cdecccea)" style="fill: #009e73; opacity: 0.35; stroke-dasharray: 8.96,2.24,1.4,2.24; stroke-dashoffset: 0; stroke: #000000; stroke-width: 1.4; stroke-linejoin: miter"/>
   </g>
   <g id="patch_87">
    <path d="M 106.561994 454.84 
L 108.27897 454.84 
L 108.27897 442.734848 
L 106.561994 442.734848 
z
" clip-path="url(#p34cdecccea)" style="fill: #009e73; opacity: 0.35; stroke-dasharray: 8.96,2.24,1.4,2.24; stroke-dashoffset: 0; stroke: #000000; stroke-width: 1.4; stroke-linejoin: miter"/>
   </g>
   <g id="patch_88">
    <path d="M 108.27897 454.84 
L 109.995946 454.84 
L 109.995946 438.534506 
L 108.27897 438.534506 
z
" clip-path="url(#p34cdecccea)" style="fill: #009e73; opacity: 0.35; stroke-dasharray: 8.96,2.24,1.4,2.24; stroke-dashoffset: 0; stroke: #000000; stroke-width: 1.4; stroke-linejoin: miter"/>
   </g>
   <g id="patch_89">
    <path d="M 109.995946 454.84 
L 111.712921 454.84 
L 111.712921 441.597255 
L 109.995946 441.597255 
z
" clip-path="url(#p34cdecccea)" style="fill: #009e73; opacity: 0.35; stroke-dasharray: 8.96,2.24,1.4,2.24; stroke-dashoffset: 0; stroke: #000000; stroke-width: 1.4; stroke-linejoin: miter"/>
   </g>
   <g id="patch_90">
    <path d="M 111.712921 454.84 
L 113.429897 454.84 
L 113.429897 439.467915 
L 111.712921 439.467915 
z
" clip-path="url(#p34cdecccea)" style="fill: #009e73; opacity: 0.35; stroke-dasharray: 8.96,2.24,1.4,2.24; stroke-dashoffset: 0; stroke: #000000; stroke-width: 1.4; stroke-linejoin: miter"/>
   </g>
   <g id="patch_91">
    <path d="M 113.429897 454.84 
L 115.146873 454.84 
L 115.146873 432.759036 
L 113.429897 432.759036 
z
" clip-path="url(#p34cdecccea)" style="fill: #009e73; opacity: 0.35; stroke-dasharray: 8.96,2.24,1.4,2.24; stroke-dashoffset: 0; stroke: #000000; stroke-width: 1.4; stroke-linejoin: miter"/>
   </g>
   <g id="patch_92">
    <path d="M 115.146873 454.84 
L 116.863849 454.84 
L 116.863849 432.963219 
L 115.146873 432.963219 
z
" clip-path="url(#p34cdecccea)" style="fill: #009e73; opacity: 0.35; stroke-dasharray: 8.96,2.24,1.4,2.24; stroke-dashoffset: 0; stroke: #000000; stroke-width: 1.4; stroke-linejoin: miter"/>
   </g>
   <g id="patch_93">
    <path d="M 116.863849 454.84 
L 118.580825 454.84 
L 118.580825 409.511309 
L 116.863849 409.511309 
z
" clip-path="url(#p34cdecccea)" style="fill: #009e73; opacity: 0.35; stroke-dasharray: 8.96,2.24,1.4,2.24; stroke-dashoffset: 0; stroke: #000000; stroke-width: 1.4; stroke-linejoin: miter"/>
   </g>
   <g id="patch_94">
    <path d="M 118.580825 454.84 
L 120.2978 454.84 
L 120.2978 417.766148 
L 118.580825 417.766148 
z
" clip-path="url(#p34cdecccea)" style="fill: #009e73; opacity: 0.35; stroke-dasharray: 8.96,2.24,1.4,2.24; stroke-dashoffset: 0; stroke: #000000; stroke-width: 1.4; stroke-linejoin: miter"/>
   </g>
   <g id="patch_95">
    <path d="M 120.2978 454.84 
L 122.014776 454.84 
L 122.014776 378.15459 
L 120.2978 378.15459 
z
" clip-path="url(#p34cdecccea)" style="fill: #009e73; opacity: 0.35; stroke-dasharray: 8.96,2.24,1.4,2.24; stroke-dashoffset: 0; stroke: #000000; stroke-width: 1.4; stroke-linejoin: miter"/>
   </g>
   <g id="patch_96">
    <path d="M 122.014776 454.84 
L 123.731752 454.84 
L 123.731752 388.888797 
L 122.014776 388.888797 
z
" clip-path="url(#p34cdecccea)" style="fill: #009e73; opacity: 0.35; stroke-dasharray: 8.96,2.24,1.4,2.24; stroke-dashoffset: 0; stroke: #000000; stroke-width: 1.4; stroke-linejoin: miter"/>
   </g>
   <g id="patch_97">
    <path d="M 123.731752 454.84 
L 125.448728 454.84 
L 125.448728 375.966912 
L 123.731752 375.966912 
z
" clip-path="url(#p34cdecccea)" style="fill: #009e73; opacity: 0.35; stroke-dasharray: 8.96,2.24,1.4,2.24; stroke-dashoffset: 0; stroke: #000000; stroke-width: 1.4; stroke-linejoin: miter"/>
   </g>
   <g id="patch_98">
    <path d="M 125.448728 454.84 
L 127.165704 454.84 
L 127.165704 357.036204 
L 125.448728 357.036204 
z
" clip-path="url(#p34cdecccea)" style="fill: #009e73; opacity: 0.35; stroke-dasharray: 8.96,2.24,1.4,2.24; stroke-dashoffset: 0; stroke: #000000; stroke-width: 1.4; stroke-linejoin: miter"/>
   </g>
   <g id="patch_99">
    <path d="M 127.165704 454.84 
L 128.882679 454.84 
L 128.882679 245.027084 
L 127.165704 245.027084 
z
" clip-path="url(#p34cdecccea)" style="fill: #009e73; opacity: 0.35; stroke-dasharray: 8.96,2.24,1.4,2.24; stroke-dashoffset: 0; stroke: #000000; stroke-width: 1.4; stroke-linejoin: miter"/>
   </g>
   <g id="patch_100">
    <path d="M 128.882679 454.84 
L 130.599655 454.84 
L 130.599655 348.052139 
L 128.882679 348.052139 
z
" clip-path="url(#p34cdecccea)" style="fill: #009e73; opacity: 0.35; stroke-dasharray: 8.96,2.24,1.4,2.24; stroke-dashoffset: 0; stroke: #000000; stroke-width: 1.4; stroke-linejoin: miter"/>
   </g>
   <g id="patch_101">
    <path d="M 130.599655 454.84 
L 132.316631 454.84 
L 132.316631 282.742655 
L 130.599655 282.742655 
z
" clip-path="url(#p34cdecccea)" style="fill: #009e73; opacity: 0.35; stroke-dasharray: 8.96,2.24,1.4,2.24; stroke-dashoffset: 0; stroke: #000000; stroke-width: 1.4; stroke-linejoin: miter"/>
   </g>
   <g id="patch_102">
    <path d="M 132.316631 454.84 
L 134.033607 454.84 
L 134.033607 296.131245 
L 132.316631 296.131245 
z
" clip-path="url(#p34cdecccea)" style="fill: #009e73; opacity: 0.35; stroke-dasharray: 8.96,2.24,1.4,2.24; stroke-dashoffset: 0; stroke: #000000; stroke-width: 1.4; stroke-linejoin: miter"/>
   </g>
   <g id="patch_103">
    <path d="M 134.033607 454.84 
L 135.750583 454.84 
L 135.750583 275.917099 
L 134.033607 275.917099 
z
" clip-path="url(#p34cdecccea)" style="fill: #009e73; opacity: 0.35; stroke-dasharray: 8.96,2.24,1.4,2.24; stroke-dashoffset: 0; stroke: #000000; stroke-width: 1.4; stroke-linejoin: miter"/>
   </g>
   <g id="patch_104">
    <path d="M 135.750583 454.84 
L 137.467558 454.84 
L 137.467558 52.744762 
L 135.750583 52.744762 
z
" clip-path="url(#p34cdecccea)" style="fill: #009e73; opacity: 0.35; stroke-dasharray: 8.96,2.24,1.4,2.24; stroke-dashoffset: 0; stroke: #000000; stroke-width: 1.4; stroke-linejoin: miter"/>
   </g>
   <g id="patch_105">
    <path d="M 137.467558 454.84 
L 139.184534 454.84 
L 139.184534 319.641492 
L 137.467558 319.641492 
z
" clip-path="url(#p34cdecccea)" style="fill: #009e73; opacity: 0.35; stroke-dasharray: 8.96,2.24,1.4,2.24; stroke-dashoffset: 0; stroke: #000000; stroke-width: 1.4; stroke-linejoin: miter"/>
   </g>
   <g id="patch_106">
    <path d="M 139.184534 454.84 
L 140.90151 454.84 
L 140.90151 283.763571 
L 139.184534 283.763571 
z
" clip-path="url(#p34cdecccea)" style="fill: #009e73; opacity: 0.35; stroke-dasharray: 8.96,2.24,1.4,2.24; stroke-dashoffset: 0; stroke: #000000; stroke-width: 1.4; stroke-linejoin: miter"/>
   </g>
   <g id="patch_107">
    <path d="M 140.90151 454.84 
L 142.618486 454.84 
L 142.618486 376.783645 
L 140.90151 376.783645 
z
" clip-path="url(#p34cdecccea)" style="fill: #009e73; opacity: 0.35; stroke-dasharray: 8.96,2.24,1.4,2.24; stroke-dashoffset: 0; stroke: #000000; stroke-width: 1.4; stroke-linejoin: miter"/>
   </g>
   <g id="patch_108">
    <path d="M 142.618486 454.84 
L 144.335462 454.84 
L 144.335462 370.774822 
L 142.618486 370.774822 
z
" clip-path="url(#p34cdecccea)" style="fill: #009e73; opacity: 0.35; stroke-dasharray: 8.96,2.24,1.4,2.24; stroke-dashoffset: 0; stroke: #000000; stroke-width: 1.4; stroke-linejoin: miter"/>
   </g>
   <g id="patch_109">
    <path d="M 144.335462 454.84 
L 146.052437 454.84 
L 146.052437 311.970034 
L 144.335462 311.970034 
z
" clip-path="url(#p34cdecccea)" style="fill: #009e73; opacity: 0.35; stroke-dasharray: 8.96,2.24,1.4,2.24; stroke-dashoffset: 0; stroke: #000000; stroke-width: 1.4; stroke-linejoin: miter"/>
   </g>
   <g id="patch_110">
    <path d="M 146.052437 454.84 
L 147.769413 454.84 
L 147.769413 428.179496 
L 146.052437 428.179496 
z
" clip-path="url(#p34cdecccea)" style="fill: #009e73; opacity: 0.35; stroke-dasharray: 8.96,2.24,1.4,2.24; stroke-dashoffset: 0; stroke: #000000; stroke-width: 1.4; stroke-linejoin: miter"/>
   </g>
   <g id="patch_111">
    <path d="M 147.769413 454.84 
L 149.486389 454.84 
L 149.486389 447.897768 
L 147.769413 447.897768 
z
" clip-path="url(#p34cdecccea)" style="fill: #009e73; opacity: 0.35; stroke-dasharray: 8.96,2.24,1.4,2.24; stroke-dashoffset: 0; stroke: #000000; stroke-width: 1.4; stroke-linejoin: miter"/>
   </g>
   <g id="patch_112">
    <path d="M 149.486389 454.84 
L 151.203365 454.84 
L 151.203365 444.397483 
L 149.486389 444.397483 
z
" clip-path="url(#p34cdecccea)" style="fill: #009e73; opacity: 0.35; stroke-dasharray: 8.96,2.24,1.4,2.24; stroke-dashoffset: 0; stroke: #000000; stroke-width: 1.4; stroke-linejoin: miter"/>
   </g>
   <g id="patch_113">
    <path d="M 151.203365 454.84 
L 152.92034 454.84 
L 152.92034 440.488832 
L 151.203365 440.488832 
z
" clip-path="url(#p34cdecccea)" style="fill: #009e73; opacity: 0.35; stroke-dasharray: 8.96,2.24,1.4,2.24; stroke-dashoffset: 0; stroke: #000000; stroke-width: 1.4; stroke-linejoin: miter"/>
   </g>
   <g id="patch_114">
    <path d="M 152.92034 454.84 
L 154.637316 454.84 
L 154.637316 368.353792 
L 152.92034 368.353792 
z
" clip-path="url(#p34cdecccea)" style="fill: #009e73; opacity: 0.35; stroke-dasharray: 8.96,2.24,1.4,2.24; stroke-dashoffset: 0; stroke: #000000; stroke-width: 1.4; stroke-linejoin: miter"/>
   </g>
   <g id="patch_115">
    <path d="M 154.637316 454.84 
L 156.354292 454.84 
L 156.354292 430.717203 
L 154.637316 430.717203 
z
" clip-path="url(#p34cdecccea)" style="fill: #009e73; opacity: 0.35; stroke-dasharray: 8.96,2.24,1.4,2.24; stroke-dashoffset: 0; stroke: #000000; stroke-width: 1.4; stroke-linejoin: miter"/>
   </g>
   <g id="patch_116">
    <path d="M 156.354292 454.84 
L 158.071268 454.84 
L 158.071268 426.050156 
L 156.354292 426.050156 
z
" clip-path="url(#p34cdecccea)" style="fill: #009e73; opacity: 0.35; stroke-dasharray: 8.96,2.24,1.4,2.24; stroke-dashoffset: 0; stroke: #000000; stroke-width: 1.4; stroke-linejoin: miter"/>
   </g>
   <g id="patch_117">
    <path d="M 158.071268 454.84 
L 159.788244 454.84 
L 159.788244 430.425512 
L 158.071268 430.425512 
z
" clip-path="url(#p34cdecccea)" style="fill: #009e73; opacity: 0.35; stroke-dasharray: 8.96,2.24,1.4,2.24; stroke-dashoffset: 0; stroke: #000000; stroke-width: 1.4; stroke-linejoin: miter"/>
   </g>
   <g id="patch_118">
    <path d="M 159.788244 454.84 
L 161.505219 454.84 
L 161.505219 436.317659 
L 159.788244 436.317659 
z
" clip-path="url(#p34cdecccea)" style="fill: #009e73; opacity: 0.35; stroke-dasharray: 8.96,2.24,1.4,2.24; stroke-dashoffset: 0; stroke: #000000; stroke-width: 1.4; stroke-linejoin: miter"/>
   </g>
   <g id="patch_119">
    <path d="M 161.505219 454.84 
L 163.222195 454.84 
L 163.222195 444.660004 
L 161.505219 444.660004 
z
" clip-path="url(#p34cdecccea)" style="fill: #009e73; opacity: 0.35; stroke-dasharray: 8.96,2.24,1.4,2.24; stroke-dashoffset: 0; stroke: #000000; stroke-width: 1.4; stroke-linejoin: miter"/>
   </g>
   <g id="patch_120">
    <path d="M 163.222195 454.84 
L 164.939171 454.84 
L 164.939171 442.034791 
L 163.222195 442.034791 
z
" clip-path="url(#p34cdecccea)" style="fill: #009e73; opacity: 0.35; stroke-dasharray: 8.96,2.24,1.4,2.24; stroke-dashoffset: 0; stroke: #000000; stroke-width: 1.4; stroke-linejoin: miter"/>
   </g>
   <g id="patch_121">
    <path d="M 164.939171 454.84 
L 166.656147 454.84 
L 166.656147 435.646771 
L 164.939171 435.646771 
z
" clip-path="url(#p34cdecccea)" style="fill: #009e73; opacity: 0.35; stroke-dasharray: 8.96,2.24,1.4,2.24; stroke-dashoffset: 0; stroke: #000000; stroke-width: 1.4; stroke-linejoin: miter"/>
   </g>
   <g id="patch_122">
    <path d="M 166.656147 454.84 
L 168.373123 454.84 
L 168.373123 449.239544 
L 166.656147 449.239544 
z
" clip-path="url(#p34cdecccea)" style="fill: #009e73; opacity: 0.35; stroke-dasharray: 8.96,2.24,1.4,2.24; stroke-dashoffset: 0; stroke: #000000; stroke-width: 1.4; stroke-linejoin: miter"/>
   </g>
   <g id="matplotlib.axis_1">
    <g id="xtick_1">
     <g id="line2d_1">
      <path d="M 99.48242 454.84 
L 99.48242 32.64 
" clip-path="url(#p34cdecccea)" style="fill: none; stroke-dasharray: 2.96,1.28; stroke-dashoffset: 0; stroke: #b0b0b0; stroke-opacity: 0.3; stroke-width: 0.8"/>
     </g>
     <g id="line2d_2">
      <defs>
       <path id="m007f5286aa" d="M 0 0 
L 0 3.5 
" style="stroke: #000000; stroke-width: 0.8"/>
      </defs>
      <g>
       <use xlink:href="#m007f5286aa" x="99.48242" y="454.84" style="stroke: #000000; stroke-width: 0.8"/>
      </g>
     </g>
     <g id="text_1">
      <!-- 0 -->
      <g transform="translate(96.30117 469.438437) scale(0.1 -0.1)">
       <defs>
        <path id="DejaVuSans-30" d="M 2034 4250 
Q 1547 4250 1301 3770 
Q 1056 3291 1056 2328 
Q 1056 1369 1301 889 
Q 1547 409 2034 409 
Q 2525 409 2770 889 
Q 3016 1369 3016 2328 
Q 3016 3291 2770 3770 
Q 2525 4250 2034 4250 
z
M 2034 4750 
Q 2819 4750 3233 4129 
Q 3647 3509 3647 2328 
Q 3647 1150 3233 529 
Q 2819 -91 2034 -91 
Q 1250 -91 836 529 
Q 422 1150 422 2328 
Q 422 3509 836 4129 
Q 1250 4750 2034 4750 
z
" transform="scale(0.015625)"/>
       </defs>
       <use xlink:href="#DejaVuSans-30"/>
      </g>
     </g>
    </g>
    <g id="xtick_2">
     <g id="line2d_3">
      <path d="M 189.895654 454.84 
L 189.895654 32.64 
" clip-path="url(#p34cdecccea)" style="fill: none; stroke-dasharray: 2.96,1.28; stroke-dashoffset: 0; stroke: #b0b0b0; stroke-opacity: 0.3; stroke-width: 0.8"/>
     </g>
     <g id="line2d_4">
      <g>
       <use xlink:href="#m007f5286aa" x="189.895654" y="454.84" style="stroke: #000000; stroke-width: 0.8"/>
      </g>
     </g>
     <g id="text_2">
      <!-- 5 -->
      <g transform="translate(186.714404 469.438437) scale(0.1 -0.1)">
       <defs>
        <path id="DejaVuSans-35" d="M 691 4666 
L 3169 4666 
L 3169 4134 
L 1269 4134 
L 1269 2991 
Q 1406 3038 1543 3061 
Q 1681 3084 1819 3084 
Q 2600 3084 3056 2656 
Q 3513 2228 3513 1497 
Q 3513 744 3044 326 
Q 2575 -91 1722 -91 
Q 1428 -91 1123 -41 
Q 819 9 494 109 
L 494 744 
Q 775 591 1075 516 
Q 1375 441 1709 441 
Q 2250 441 2565 725 
Q 2881 1009 2881 1497 
Q 2881 1984 2565 2268 
Q 2250 2553 1709 2553 
Q 1456 2553 1204 2497 
Q 953 2441 691 2322 
L 691 4666 
z
" transform="scale(0.015625)"/>
       </defs>
       <use xlink:href="#DejaVuSans-35"/>
      </g>
     </g>
    </g>
    <g id="xtick_3">
     <g id="line2d_5">
      <path d="M 280.308889 454.84 
L 280.308889 32.64 
" clip-path="url(#p34cdecccea)" style="fill: none; stroke-dasharray: 2.96,1.28; stroke-dashoffset: 0; stroke: #b0b0b0; stroke-opacity: 0.3; stroke-width: 0.8"/>
     </g>
     <g id="line2d_6">
      <g>
       <use xlink:href="#m007f5286aa" x="280.308889" y="454.84" style="stroke: #000000; stroke-width: 0.8"/>
      </g>
     </g>
     <g id="text_3">
      <!-- 10 -->
      <g transform="translate(273.946389 469.438437) scale(0.1 -0.1)">
       <defs>
        <path id="DejaVuSans-31" d="M 794 531 
L 1825 531 
L 1825 4091 
L 703 3866 
L 703 4441 
L 1819 4666 
L 2450 4666 
L 2450 531 
L 3481 531 
L 3481 0 
L 794 0 
L 794 531 
z
" transform="scale(0.015625)"/>
       </defs>
       <use xlink:href="#DejaVuSans-31"/>
       <use xlink:href="#DejaVuSans-30" transform="translate(63.623047 0)"/>
      </g>
     </g>
    </g>
    <g id="xtick_4">
     <g id="line2d_7">
      <path d="M 370.722123 454.84 
L 370.722123 32.64 
" clip-path="url(#p34cdecccea)" style="fill: none; stroke-dasharray: 2.96,1.28; stroke-dashoffset: 0; stroke: #b0b0b0; stroke-opacity: 0.3; stroke-width: 0.8"/>
     </g>
     <g id="line2d_8">
      <g>
       <use xlink:href="#m007f5286aa" x="370.722123" y="454.84" style="stroke: #000000; stroke-width: 0.8"/>
      </g>
     </g>
     <g id="text_4">
      <!-- 15 -->
      <g transform="translate(364.359623 469.438437) scale(0.1 -0.1)">
       <use xlink:href="#DejaVuSans-31"/>
       <use xlink:href="#DejaVuSans-35" transform="translate(63.623047 0)"/>
      </g>
     </g>
    </g>
    <g id="xtick_5">
     <g id="line2d_9">
      <path d="M 461.135357 454.84 
L 461.135357 32.64 
" clip-path="url(#p34cdecccea)" style="fill: none; stroke-dasharray: 2.96,1.28; stroke-dashoffset: 0; stroke: #b0b0b0; stroke-opacity: 0.3; stroke-width: 0.8"/>
     </g>
     <g id="line2d_10">
      <g>
       <use xlink:href="#m007f5286aa" x="461.135357" y="454.84" style="stroke: #000000; stroke-width: 0.8"/>
      </g>
     </g>
     <g id="text_5">
      <!-- 20 -->
      <g transform="translate(454.772857 469.438437) scale(0.1 -0.1)">
       <defs>
        <path id="DejaVuSans-32" d="M 1228 531 
L 3431 531 
L 3431 0 
L 469 0 
L 469 531 
Q 828 903 1448 1529 
Q 2069 2156 2228 2338 
Q 2531 2678 2651 2914 
Q 2772 3150 2772 3378 
Q 2772 3750 2511 3984 
Q 2250 4219 1831 4219 
Q 1534 4219 1204 4116 
Q 875 4013 500 3803 
L 500 4441 
Q 881 4594 1212 4672 
Q 1544 4750 1819 4750 
Q 2544 4750 2975 4387 
Q 3406 4025 3406 3419 
Q 3406 3131 3298 2873 
Q 3191 2616 2906 2266 
Q 2828 2175 2409 1742 
Q 1991 1309 1228 531 
z
" transform="scale(0.015625)"/>
       </defs>
       <use xlink:href="#DejaVuSans-32"/>
       <use xlink:href="#DejaVuSans-30" transform="translate(63.623047 0)"/>
      </g>
     </g>
    </g>
    <g id="xtick_6">
     <g id="line2d_11">
      <path d="M 551.548592 454.84 
L 551.548592 32.64 
" clip-path="url(#p34cdecccea)" style="fill: none; stroke-dasharray: 2.96,1.28; stroke-dashoffset: 0; stroke: #b0b0b0; stroke-opacity: 0.3; stroke-width: 0.8"/>
     </g>
     <g id="line2d_12">
      <g>
       <use xlink:href="#m007f5286aa" x="551.548592" y="454.84" style="stroke: #000000; stroke-width: 0.8"/>
      </g>
     </g>
     <g id="text_6">
      <!-- 25 -->
      <g transform="translate(545.186092 469.438437) scale(0.1 -0.1)">
       <use xlink:href="#DejaVuSans-32"/>
       <use xlink:href="#DejaVuSans-35" transform="translate(63.623047 0)"/>
      </g>
     </g>
    </g>
    <g id="xtick_7">
     <g id="line2d_13">
      <path d="M 641.961826 454.84 
L 641.961826 32.64 
" clip-path="url(#p34cdecccea)" style="fill: none; stroke-dasharray: 2.96,1.28; stroke-dashoffset: 0; stroke: #b0b0b0; stroke-opacity: 0.3; stroke-width: 0.8"/>
     </g>
     <g id="line2d_14">
      <g>
       <use xlink:href="#m007f5286aa" x="641.961826" y="454.84" style="stroke: #000000; stroke-width: 0.8"/>
      </g>
     </g>
     <g id="text_7">
      <!-- 30 -->
      <g transform="translate(635.599326 469.438437) scale(0.1 -0.1)">
       <defs>
        <path id="DejaVuSans-33" d="M 2597 2516 
Q 3050 2419 3304 2112 
Q 3559 1806 3559 1356 
Q 3559 666 3084 287 
Q 2609 -91 1734 -91 
Q 1441 -91 1130 -33 
Q 819 25 488 141 
L 488 750 
Q 750 597 1062 519 
Q 1375 441 1716 441 
Q 2309 441 2620 675 
Q 2931 909 2931 1356 
Q 2931 1769 2642 2001 
Q 2353 2234 1838 2234 
L 1294 2234 
L 1294 2753 
L 1863 2753 
Q 2328 2753 2575 2939 
Q 2822 3125 2822 3475 
Q 2822 3834 2567 4026 
Q 2313 4219 1838 4219 
Q 1578 4219 1281 4162 
Q 984 4106 628 3988 
L 628 4550 
Q 988 4650 1302 4700 
Q 1616 4750 1894 4750 
Q 2613 4750 3031 4423 
Q 3450 4097 3450 3541 
Q 3450 3153 3228 2886 
Q 3006 2619 2597 2516 
z
" transform="scale(0.015625)"/>
       </defs>
       <use xlink:href="#DejaVuSans-33"/>
       <use xlink:href="#DejaVuSans-30" transform="translate(63.623047 0)"/>
      </g>
     </g>
    </g>
    <g id="text_8">
     <!-- XY Error [m] -->
     <g transform="translate(334.829688 489.195312) scale(0.18 -0.18)">
      <defs>
       <path id="DejaVuSans-58" d="M 403 4666 
L 1081 4666 
L 2241 2931 
L 3406 4666 
L 4084 4666 
L 2584 2425 
L 4184 0 
L 3506 0 
L 2194 1984 
L 872 0 
L 191 0 
L 1856 2491 
L 403 4666 
z
" transform="scale(0.015625)"/>
       <path id="DejaVuSans-59" d="M -13 4666 
L 666 4666 
L 1959 2747 
L 3244 4666 
L 3922 4666 
L 2272 2222 
L 2272 0 
L 1638 0 
L 1638 2222 
L -13 4666 
z
" transform="scale(0.015625)"/>
       <path id="DejaVuSans-20" transform="scale(0.015625)"/>
       <path id="DejaVuSans-45" d="M 628 4666 
L 3578 4666 
L 3578 4134 
L 1259 4134 
L 1259 2753 
L 3481 2753 
L 3481 2222 
L 1259 2222 
L 1259 531 
L 3634 531 
L 3634 0 
L 628 0 
L 628 4666 
z
" transform="scale(0.015625)"/>
       <path id="DejaVuSans-72" d="M 2631 2963 
Q 2534 3019 2420 3045 
Q 2306 3072 2169 3072 
Q 1681 3072 1420 2755 
Q 1159 2438 1159 1844 
L 1159 0 
L 581 0 
L 581 3500 
L 1159 3500 
L 1159 2956 
Q 1341 3275 1631 3429 
Q 1922 3584 2338 3584 
Q 2397 3584 2469 3576 
Q 2541 3569 2628 3553 
L 2631 2963 
z
" transform="scale(0.015625)"/>
       <path id="DejaVuSans-6f" d="M 1959 3097 
Q 1497 3097 1228 2736 
Q 959 2375 959 1747 
Q 959 1119 1226 758 
Q 1494 397 1959 397 
Q 2419 397 2687 759 
Q 2956 1122 2956 1747 
Q 2956 2369 2687 2733 
Q 2419 3097 1959 3097 
z
M 1959 3584 
Q 2709 3584 3137 3096 
Q 3566 2609 3566 1747 
Q 3566 888 3137 398 
Q 2709 -91 1959 -91 
Q 1206 -91 779 398 
Q 353 888 353 1747 
Q 353 2609 779 3096 
Q 1206 3584 1959 3584 
z
" transform="scale(0.015625)"/>
       <path id="DejaVuSans-5b" d="M 550 4863 
L 1875 4863 
L 1875 4416 
L 1125 4416 
L 1125 -397 
L 1875 -397 
L 1875 -844 
L 550 -844 
L 550 4863 
z
" transform="scale(0.015625)"/>
       <path id="DejaVuSans-6d" d="M 3328 2828 
Q 3544 3216 3844 3400 
Q 4144 3584 4550 3584 
Q 5097 3584 5394 3201 
Q 5691 2819 5691 2113 
L 5691 0 
L 5113 0 
L 5113 2094 
Q 5113 2597 4934 2840 
Q 4756 3084 4391 3084 
Q 3944 3084 3684 2787 
Q 3425 2491 3425 1978 
L 3425 0 
L 2847 0 
L 2847 2094 
Q 2847 2600 2669 2842 
Q 2491 3084 2119 3084 
Q 1678 3084 1418 2786 
Q 1159 2488 1159 1978 
L 1159 0 
L 581 0 
L 581 3500 
L 1159 3500 
L 1159 2956 
Q 1356 3278 1631 3431 
Q 1906 3584 2284 3584 
Q 2666 3584 2933 3390 
Q 3200 3197 3328 2828 
z
" transform="scale(0.015625)"/>
       <path id="DejaVuSans-5d" d="M 1947 4863 
L 1947 -844 
L 622 -844 
L 622 -397 
L 1369 -397 
L 1369 4416 
L 622 4416 
L 622 4863 
L 1947 4863 
z
" transform="scale(0.015625)"/>
      </defs>
      <use xlink:href="#DejaVuSans-58"/>
      <use xlink:href="#DejaVuSans-59" transform="translate(68.505859 0)"/>
      <use xlink:href="#DejaVuSans-20" transform="translate(129.589844 0)"/>
      <use xlink:href="#DejaVuSans-45" transform="translate(161.376953 0)"/>
      <use xlink:href="#DejaVuSans-72" transform="translate(224.560547 0)"/>
      <use xlink:href="#DejaVuSans-72" transform="translate(263.923828 0)"/>
      <use xlink:href="#DejaVuSans-6f" transform="translate(302.787109 0)"/>
      <use xlink:href="#DejaVuSans-72" transform="translate(363.96875 0)"/>
      <use xlink:href="#DejaVuSans-20" transform="translate(405.082031 0)"/>
      <use xlink:href="#DejaVuSans-5b" transform="translate(436.869141 0)"/>
      <use xlink:href="#DejaVuSans-6d" transform="translate(475.882812 0)"/>
      <use xlink:href="#DejaVuSans-5d" transform="translate(573.294922 0)"/>
     </g>
    </g>
   </g>
   <g id="matplotlib.axis_2">
    <g id="ytick_1">
     <g id="line2d_15">
      <path d="M 70.67 454.84 
L 709.2 454.84 
" clip-path="url(#p34cdecccea)" style="fill: none; stroke-dasharray: 2.96,1.28; stroke-dashoffset: 0; stroke: #b0b0b0; stroke-opacity: 0.3; stroke-width: 0.8"/>
     </g>
     <g id="line2d_16">
      <defs>
       <path id="m6106e815c6" d="M 0 0 
L -3.5 0 
" style="stroke: #000000; stroke-width: 0.8"/>
      </defs>
      <g>
       <use xlink:href="#m6106e815c6" x="70.67" y="454.84" style="stroke: #000000; stroke-width: 0.8"/>
      </g>
     </g>
     <g id="text_9">
      <!-- 0 -->
      <g transform="translate(57.3075 458.639219) scale(0.1 -0.1)">
       <use xlink:href="#DejaVuSans-30"/>
      </g>
     </g>
    </g>
    <g id="ytick_2">
     <g id="line2d_17">
      <path d="M 70.67 396.501917 
L 709.2 396.501917 
" clip-path="url(#p34cdecccea)" style="fill: none; stroke-dasharray: 2.96,1.28; stroke-dashoffset: 0; stroke: #b0b0b0; stroke-opacity: 0.3; stroke-width: 0.8"/>
     </g>
     <g id="line2d_18">
      <g>
       <use xlink:href="#m6106e815c6" x="70.67" y="396.501917" style="stroke: #000000; stroke-width: 0.8"/>
      </g>
     </g>
     <g id="text_10">
      <!-- 2000 -->
      <g transform="translate(38.22 400.301136) scale(0.1 -0.1)">
       <use xlink:href="#DejaVuSans-32"/>
       <use xlink:href="#DejaVuSans-30" transform="translate(63.623047 0)"/>
       <use xlink:href="#DejaVuSans-30" transform="translate(127.246094 0)"/>
       <use xlink:href="#DejaVuSans-30" transform="translate(190.869141 0)"/>
      </g>
     </g>
    </g>
    <g id="ytick_3">
     <g id="line2d_19">
      <path d="M 70.67 338.163834 
L 709.2 338.163834 
" clip-path="url(#p34cdecccea)" style="fill: none; stroke-dasharray: 2.96,1.28; stroke-dashoffset: 0; stroke: #b0b0b0; stroke-opacity: 0.3; stroke-width: 0.8"/>
     </g>
     <g id="line2d_20">
      <g>
       <use xlink:href="#m6106e815c6" x="70.67" y="338.163834" style="stroke: #000000; stroke-width: 0.8"/>
      </g>
     </g>
     <g id="text_11">
      <!-- 4000 -->
      <g transform="translate(38.22 341.963052) scale(0.1 -0.1)">
       <defs>
        <path id="DejaVuSans-34" d="M 2419 4116 
L 825 1625 
L 2419 1625 
L 2419 4116 
z
M 2253 4666 
L 3047 4666 
L 3047 1625 
L 3713 1625 
L 3713 1100 
L 3047 1100 
L 3047 0 
L 2419 0 
L 2419 1100 
L 313 1100 
L 313 1709 
L 2253 4666 
z
" transform="scale(0.015625)"/>
       </defs>
       <use xlink:href="#DejaVuSans-34"/>
       <use xlink:href="#DejaVuSans-30" transform="translate(63.623047 0)"/>
       <use xlink:href="#DejaVuSans-30" transform="translate(127.246094 0)"/>
       <use xlink:href="#DejaVuSans-30" transform="translate(190.869141 0)"/>
      </g>
     </g>
    </g>
    <g id="ytick_4">
     <g id="line2d_21">
      <path d="M 70.67 279.825751 
L 709.2 279.825751 
" clip-path="url(#p34cdecccea)" style="fill: none; stroke-dasharray: 2.96,1.28; stroke-dashoffset: 0; stroke: #b0b0b0; stroke-opacity: 0.3; stroke-width: 0.8"/>
     </g>
     <g id="line2d_22">
      <g>
       <use xlink:href="#m6106e815c6" x="70.67" y="279.825751" style="stroke: #000000; stroke-width: 0.8"/>
      </g>
     </g>
     <g id="text_12">
      <!-- 6000 -->
      <g transform="translate(38.22 283.624969) scale(0.1 -0.1)">
       <defs>
        <path id="DejaVuSans-36" d="M 2113 2584 
Q 1688 2584 1439 2293 
Q 1191 2003 1191 1497 
Q 1191 994 1439 701 
Q 1688 409 2113 409 
Q 2538 409 2786 701 
Q 3034 994 3034 1497 
Q 3034 2003 2786 2293 
Q 2538 2584 2113 2584 
z
M 3366 4563 
L 3366 3988 
Q 3128 4100 2886 4159 
Q 2644 4219 2406 4219 
Q 1781 4219 1451 3797 
Q 1122 3375 1075 2522 
Q 1259 2794 1537 2939 
Q 1816 3084 2150 3084 
Q 2853 3084 3261 2657 
Q 3669 2231 3669 1497 
Q 3669 778 3244 343 
Q 2819 -91 2113 -91 
Q 1303 -91 875 529 
Q 447 1150 447 2328 
Q 447 3434 972 4092 
Q 1497 4750 2381 4750 
Q 2619 4750 2861 4703 
Q 3103 4656 3366 4563 
z
" transform="scale(0.015625)"/>
       </defs>
       <use xlink:href="#DejaVuSans-36"/>
       <use xlink:href="#DejaVuSans-30" transform="translate(63.623047 0)"/>
       <use xlink:href="#DejaVuSans-30" transform="translate(127.246094 0)"/>
       <use xlink:href="#DejaVuSans-30" transform="translate(190.869141 0)"/>
      </g>
     </g>
    </g>
    <g id="ytick_5">
     <g id="line2d_23">
      <path d="M 70.67 221.487667 
L 709.2 221.487667 
" clip-path="url(#p34cdecccea)" style="fill: none; stroke-dasharray: 2.96,1.28; stroke-dashoffset: 0; stroke: #b0b0b0; stroke-opacity: 0.3; stroke-width: 0.8"/>
     </g>
     <g id="line2d_24">
      <g>
       <use xlink:href="#m6106e815c6" x="70.67" y="221.487667" style="stroke: #000000; stroke-width: 0.8"/>
      </g>
     </g>
     <g id="text_13">
      <!-- 8000 -->
      <g transform="translate(38.22 225.286886) scale(0.1 -0.1)">
       <defs>
        <path id="DejaVuSans-38" d="M 2034 2216 
Q 1584 2216 1326 1975 
Q 1069 1734 1069 1313 
Q 1069 891 1326 650 
Q 1584 409 2034 409 
Q 2484 409 2743 651 
Q 3003 894 3003 1313 
Q 3003 1734 2745 1975 
Q 2488 2216 2034 2216 
z
M 1403 2484 
Q 997 2584 770 2862 
Q 544 3141 544 3541 
Q 544 4100 942 4425 
Q 1341 4750 2034 4750 
Q 2731 4750 3128 4425 
Q 3525 4100 3525 3541 
Q 3525 3141 3298 2862 
Q 3072 2584 2669 2484 
Q 3125 2378 3379 2068 
Q 3634 1759 3634 1313 
Q 3634 634 3220 271 
Q 2806 -91 2034 -91 
Q 1263 -91 848 271 
Q 434 634 434 1313 
Q 434 1759 690 2068 
Q 947 2378 1403 2484 
z
M 1172 3481 
Q 1172 3119 1398 2916 
Q 1625 2713 2034 2713 
Q 2441 2713 2670 2916 
Q 2900 3119 2900 3481 
Q 2900 3844 2670 4047 
Q 2441 4250 2034 4250 
Q 1625 4250 1398 4047 
Q 1172 3844 1172 3481 
z
" transform="scale(0.015625)"/>
       </defs>
       <use xlink:href="#DejaVuSans-38"/>
       <use xlink:href="#DejaVuSans-30" transform="translate(63.623047 0)"/>
       <use xlink:href="#DejaVuSans-30" transform="translate(127.246094 0)"/>
       <use xlink:href="#DejaVuSans-30" transform="translate(190.869141 0)"/>
      </g>
     </g>
    </g>
    <g id="ytick_6">
     <g id="line2d_25">
      <path d="M 70.67 163.149584 
L 709.2 163.149584 
" clip-path="url(#p34cdecccea)" style="fill: none; stroke-dasharray: 2.96,1.28; stroke-dashoffset: 0; stroke: #b0b0b0; stroke-opacity: 0.3; stroke-width: 0.8"/>
     </g>
     <g id="line2d_26">
      <g>
       <use xlink:href="#m6106e815c6" x="70.67" y="163.149584" style="stroke: #000000; stroke-width: 0.8"/>
      </g>
     </g>
     <g id="text_14">
      <!-- 10000 -->
      <g transform="translate(31.8575 166.948803) scale(0.1 -0.1)">
       <use xlink:href="#DejaVuSans-31"/>
       <use xlink:href="#DejaVuSans-30" transform="translate(63.623047 0)"/>
       <use xlink:href="#DejaVuSans-30" transform="translate(127.246094 0)"/>
       <use xlink:href="#DejaVuSans-30" transform="translate(190.869141 0)"/>
       <use xlink:href="#DejaVuSans-30" transform="translate(254.492188 0)"/>
      </g>
     </g>
    </g>
    <g id="ytick_7">
     <g id="line2d_27">
      <path d="M 70.67 104.811501 
L 709.2 104.811501 
" clip-path="url(#p34cdecccea)" style="fill: none; stroke-dasharray: 2.96,1.28; stroke-dashoffset: 0; stroke: #b0b0b0; stroke-opacity: 0.3; stroke-width: 0.8"/>
     </g>
     <g id="line2d_28">
      <g>
       <use xlink:href="#m6106e815c6" x="70.67" y="104.811501" style="stroke: #000000; stroke-width: 0.8"/>
      </g>
     </g>
     <g id="text_15">
      <!-- 12000 -->
      <g transform="translate(31.8575 108.61072) scale(0.1 -0.1)">
       <use xlink:href="#DejaVuSans-31"/>
       <use xlink:href="#DejaVuSans-32" transform="translate(63.623047 0)"/>
       <use xlink:href="#DejaVuSans-30" transform="translate(127.246094 0)"/>
       <use xlink:href="#DejaVuSans-30" transform="translate(190.869141 0)"/>
       <use xlink:href="#DejaVuSans-30" transform="translate(254.492188 0)"/>
      </g>
     </g>
    </g>
    <g id="ytick_8">
     <g id="line2d_29">
      <path d="M 70.67 46.473418 
L 709.2 46.473418 
" clip-path="url(#p34cdecccea)" style="fill: none; stroke-dasharray: 2.96,1.28; stroke-dashoffset: 0; stroke: #b0b0b0; stroke-opacity: 0.3; stroke-width: 0.8"/>
     </g>
     <g id="line2d_30">
      <g>
       <use xlink:href="#m6106e815c6" x="70.67" y="46.473418" style="stroke: #000000; stroke-width: 0.8"/>
      </g>
     </g>
     <g id="text_16">
      <!-- 14000 -->
      <g transform="translate(31.8575 50.272637) scale(0.1 -0.1)">
       <use xlink:href="#DejaVuSans-31"/>
       <use xlink:href="#DejaVuSans-34" transform="translate(63.623047 0)"/>
       <use xlink:href="#DejaVuSans-30" transform="translate(127.246094 0)"/>
       <use xlink:href="#DejaVuSans-30" transform="translate(190.869141 0)"/>
       <use xlink:href="#DejaVuSans-30" transform="translate(254.492188 0)"/>
      </g>
     </g>
    </g>
    <g id="text_17">
     <!-- Count -->
     <g transform="translate(24.114063 270.467188) rotate(-90) scale(0.18 -0.18)">
      <defs>
       <path id="DejaVuSans-43" d="M 4122 4306 
L 4122 3641 
Q 3803 3938 3442 4084 
Q 3081 4231 2675 4231 
Q 1875 4231 1450 3742 
Q 1025 3253 1025 2328 
Q 1025 1406 1450 917 
Q 1875 428 2675 428 
Q 3081 428 3442 575 
Q 3803 722 4122 1019 
L 4122 359 
Q 3791 134 3420 21 
Q 3050 -91 2638 -91 
Q 1578 -91 968 557 
Q 359 1206 359 2328 
Q 359 3453 968 4101 
Q 1578 4750 2638 4750 
Q 3056 4750 3426 4639 
Q 3797 4528 4122 4306 
z
" transform="scale(0.015625)"/>
       <path id="DejaVuSans-75" d="M 544 1381 
L 544 3500 
L 1119 3500 
L 1119 1403 
Q 1119 906 1312 657 
Q 1506 409 1894 409 
Q 2359 409 2629 706 
Q 2900 1003 2900 1516 
L 2900 3500 
L 3475 3500 
L 3475 0 
L 2900 0 
L 2900 538 
Q 2691 219 2414 64 
Q 2138 -91 1772 -91 
Q 1169 -91 856 284 
Q 544 659 544 1381 
z
M 1991 3584 
L 1991 3584 
z
" transform="scale(0.015625)"/>
       <path id="DejaVuSans-6e" d="M 3513 2113 
L 3513 0 
L 2938 0 
L 2938 2094 
Q 2938 2591 2744 2837 
Q 2550 3084 2163 3084 
Q 1697 3084 1428 2787 
Q 1159 2491 1159 1978 
L 1159 0 
L 581 0 
L 581 3500 
L 1159 3500 
L 1159 2956 
Q 1366 3272 1645 3428 
Q 1925 3584 2291 3584 
Q 2894 3584 3203 3211 
Q 3513 2838 3513 2113 
z
" transform="scale(0.015625)"/>
       <path id="DejaVuSans-74" d="M 1172 4494 
L 1172 3500 
L 2356 3500 
L 2356 3053 
L 1172 3053 
L 1172 1153 
Q 1172 725 1289 603 
Q 1406 481 1766 481 
L 2356 481 
L 2356 0 
L 1766 0 
Q 1100 0 847 248 
Q 594 497 594 1153 
L 594 3053 
L 172 3053 
L 172 3500 
L 594 3500 
L 594 4494 
L 1172 4494 
z
" transform="scale(0.015625)"/>
      </defs>
      <use xlink:href="#DejaVuSans-43"/>
      <use xlink:href="#DejaVuSans-6f" transform="translate(69.824219 0)"/>
      <use xlink:href="#DejaVuSans-75" transform="translate(131.005859 0)"/>
      <use xlink:href="#DejaVuSans-6e" transform="translate(194.384766 0)"/>
      <use xlink:href="#DejaVuSans-74" transform="translate(257.763672 0)"/>
     </g>
    </g>
   </g>
   <g id="patch_123">
    <path d="M 70.67 454.84 
L 70.67 32.64 
" style="fill: none; stroke: #000000; stroke-width: 0.8; stroke-linejoin: miter; stroke-linecap: square"/>
   </g>
   <g id="patch_124">
    <path d="M 709.2 454.84 
L 709.2 32.64 
" style="fill: none; stroke: #000000; stroke-width: 0.8; stroke-linejoin: miter; stroke-linecap: square"/>
   </g>
   <g id="patch_125">
    <path d="M 70.67 454.84 
L 709.2 454.84 
" style="fill: none; stroke: #000000; stroke-width: 0.8; stroke-linejoin: miter; stroke-linecap: square"/>
   </g>
   <g id="patch_126">
    <path d="M 70.67 32.64 
L 709.2 32.64 
" style="fill: none; stroke: #000000; stroke-width: 0.8; stroke-linejoin: miter; stroke-linecap: square"/>
   </g>
   <g id="text_18">
    <!-- Histogram Comparison -->
    <g transform="translate(260.961563 26.64) scale(0.2 -0.2)">
     <defs>
      <path id="DejaVuSans-Bold-48" d="M 588 4666 
L 1791 4666 
L 1791 2888 
L 3566 2888 
L 3566 4666 
L 4769 4666 
L 4769 0 
L 3566 0 
L 3566 1978 
L 1791 1978 
L 1791 0 
L 588 0 
L 588 4666 
z
" transform="scale(0.015625)"/>
      <path id="DejaVuSans-Bold-69" d="M 538 3500 
L 1656 3500 
L 1656 0 
L 538 0 
L 538 3500 
z
M 538 4863 
L 1656 4863 
L 1656 3950 
L 538 3950 
L 538 4863 
z
" transform="scale(0.015625)"/>
      <path id="DejaVuSans-Bold-73" d="M 3272 3391 
L 3272 2541 
Q 2913 2691 2578 2766 
Q 2244 2841 1947 2841 
Q 1628 2841 1473 2761 
Q 1319 2681 1319 2516 
Q 1319 2381 1436 2309 
Q 1553 2238 1856 2203 
L 2053 2175 
Q 2913 2066 3209 1816 
Q 3506 1566 3506 1031 
Q 3506 472 3093 190 
Q 2681 -91 1863 -91 
Q 1516 -91 1145 -36 
Q 775 19 384 128 
L 384 978 
Q 719 816 1070 734 
Q 1422 653 1784 653 
Q 2113 653 2278 743 
Q 2444 834 2444 1013 
Q 2444 1163 2330 1236 
Q 2216 1309 1875 1350 
L 1678 1375 
Q 931 1469 631 1722 
Q 331 1975 331 2491 
Q 331 3047 712 3315 
Q 1094 3584 1881 3584 
Q 2191 3584 2531 3537 
Q 2872 3491 3272 3391 
z
" transform="scale(0.015625)"/>
      <path id="DejaVuSans-Bold-74" d="M 1759 4494 
L 1759 3500 
L 2913 3500 
L 2913 2700 
L 1759 2700 
L 1759 1216 
Q 1759 972 1856 886 
Q 1953 800 2241 800 
L 2816 800 
L 2816 0 
L 1856 0 
Q 1194 0 917 276 
Q 641 553 641 1216 
L 641 2700 
L 84 2700 
L 84 3500 
L 641 3500 
L 641 4494 
L 1759 4494 
z
" transform="scale(0.015625)"/>
      <path id="DejaVuSans-Bold-6f" d="M 2203 2784 
Q 1831 2784 1636 2517 
Q 1441 2250 1441 1747 
Q 1441 1244 1636 976 
Q 1831 709 2203 709 
Q 2569 709 2762 976 
Q 2956 1244 2956 1747 
Q 2956 2250 2762 2517 
Q 2569 2784 2203 2784 
z
M 2203 3584 
Q 3106 3584 3614 3096 
Q 4122 2609 4122 1747 
Q 4122 884 3614 396 
Q 3106 -91 2203 -91 
Q 1297 -91 786 396 
Q 275 884 275 1747 
Q 275 2609 786 3096 
Q 1297 3584 2203 3584 
z
" transform="scale(0.015625)"/>
      <path id="DejaVuSans-Bold-67" d="M 2919 594 
Q 2688 288 2409 144 
Q 2131 0 1766 0 
Q 1125 0 706 504 
Q 288 1009 288 1791 
Q 288 2575 706 3076 
Q 1125 3578 1766 3578 
Q 2131 3578 2409 3434 
Q 2688 3291 2919 2981 
L 2919 3500 
L 4044 3500 
L 4044 353 
Q 4044 -491 3511 -936 
Q 2978 -1381 1966 -1381 
Q 1638 -1381 1331 -1331 
Q 1025 -1281 716 -1178 
L 716 -306 
Q 1009 -475 1290 -558 
Q 1572 -641 1856 -641 
Q 2406 -641 2662 -400 
Q 2919 -159 2919 353 
L 2919 594 
z
M 2181 2772 
Q 1834 2772 1640 2515 
Q 1447 2259 1447 1791 
Q 1447 1309 1634 1061 
Q 1822 813 2181 813 
Q 2531 813 2725 1069 
Q 2919 1325 2919 1791 
Q 2919 2259 2725 2515 
Q 2531 2772 2181 2772 
z
" transform="scale(0.015625)"/>
      <path id="DejaVuSans-Bold-72" d="M 3138 2547 
Q 2991 2616 2845 2648 
Q 2700 2681 2553 2681 
Q 2122 2681 1889 2404 
Q 1656 2128 1656 1613 
L 1656 0 
L 538 0 
L 538 3500 
L 1656 3500 
L 1656 2925 
Q 1872 3269 2151 3426 
Q 2431 3584 2822 3584 
Q 2878 3584 2943 3579 
Q 3009 3575 3134 3559 
L 3138 2547 
z
" transform="scale(0.015625)"/>
      <path id="DejaVuSans-Bold-61" d="M 2106 1575 
Q 1756 1575 1579 1456 
Q 1403 1338 1403 1106 
Q 1403 894 1545 773 
Q 1688 653 1941 653 
Q 2256 653 2472 879 
Q 2688 1106 2688 1447 
L 2688 1575 
L 2106 1575 
z
M 3816 1997 
L 3816 0 
L 2688 0 
L 2688 519 
Q 2463 200 2181 54 
Q 1900 -91 1497 -91 
Q 953 -91 614 226 
Q 275 544 275 1050 
Q 275 1666 698 1953 
Q 1122 2241 2028 2241 
L 2688 2241 
L 2688 2328 
Q 2688 2594 2478 2717 
Q 2269 2841 1825 2841 
Q 1466 2841 1156 2769 
Q 847 2697 581 2553 
L 581 3406 
Q 941 3494 1303 3539 
Q 1666 3584 2028 3584 
Q 2975 3584 3395 3211 
Q 3816 2838 3816 1997 
z
" transform="scale(0.015625)"/>
      <path id="DejaVuSans-Bold-6d" d="M 3781 2919 
Q 3994 3244 4286 3414 
Q 4578 3584 4928 3584 
Q 5531 3584 5847 3212 
Q 6163 2841 6163 2131 
L 6163 0 
L 5038 0 
L 5038 1825 
Q 5041 1866 5042 1909 
Q 5044 1953 5044 2034 
Q 5044 2406 4934 2573 
Q 4825 2741 4581 2741 
Q 4263 2741 4089 2478 
Q 3916 2216 3909 1719 
L 3909 0 
L 2784 0 
L 2784 1825 
Q 2784 2406 2684 2573 
Q 2584 2741 2328 2741 
Q 2006 2741 1831 2477 
Q 1656 2213 1656 1722 
L 1656 0 
L 531 0 
L 531 3500 
L 1656 3500 
L 1656 2988 
Q 1863 3284 2130 3434 
Q 2397 3584 2719 3584 
Q 3081 3584 3359 3409 
Q 3638 3234 3781 2919 
z
" transform="scale(0.015625)"/>
      <path id="DejaVuSans-Bold-20" transform="scale(0.015625)"/>
      <path id="DejaVuSans-Bold-43" d="M 4288 256 
Q 3956 84 3597 -3 
Q 3238 -91 2847 -91 
Q 1681 -91 1000 561 
Q 319 1213 319 2328 
Q 319 3447 1000 4098 
Q 1681 4750 2847 4750 
Q 3238 4750 3597 4662 
Q 3956 4575 4288 4403 
L 4288 3438 
Q 3953 3666 3628 3772 
Q 3303 3878 2944 3878 
Q 2300 3878 1931 3465 
Q 1563 3053 1563 2328 
Q 1563 1606 1931 1193 
Q 2300 781 2944 781 
Q 3303 781 3628 887 
Q 3953 994 4288 1222 
L 4288 256 
z
" transform="scale(0.015625)"/>
      <path id="DejaVuSans-Bold-70" d="M 1656 506 
L 1656 -1331 
L 538 -1331 
L 538 3500 
L 1656 3500 
L 1656 2988 
Q 1888 3294 2169 3439 
Q 2450 3584 2816 3584 
Q 3463 3584 3878 3070 
Q 4294 2556 4294 1747 
Q 4294 938 3878 423 
Q 3463 -91 2816 -91 
Q 2450 -91 2169 54 
Q 1888 200 1656 506 
z
M 2400 2772 
Q 2041 2772 1848 2508 
Q 1656 2244 1656 1747 
Q 1656 1250 1848 986 
Q 2041 722 2400 722 
Q 2759 722 2948 984 
Q 3138 1247 3138 1747 
Q 3138 2247 2948 2509 
Q 2759 2772 2400 2772 
z
" transform="scale(0.015625)"/>
      <path id="DejaVuSans-Bold-6e" d="M 4056 2131 
L 4056 0 
L 2931 0 
L 2931 347 
L 2931 1631 
Q 2931 2084 2911 2256 
Q 2891 2428 2841 2509 
Q 2775 2619 2662 2680 
Q 2550 2741 2406 2741 
Q 2056 2741 1856 2470 
Q 1656 2200 1656 1722 
L 1656 0 
L 538 0 
L 538 3500 
L 1656 3500 
L 1656 2988 
Q 1909 3294 2193 3439 
Q 2478 3584 2822 3584 
Q 3428 3584 3742 3212 
Q 4056 2841 4056 2131 
z
" transform="scale(0.015625)"/>
     </defs>
     <use xlink:href="#DejaVuSans-Bold-48"/>
     <use xlink:href="#DejaVuSans-Bold-69" transform="translate(83.691406 0)"/>
     <use xlink:href="#DejaVuSans-Bold-73" transform="translate(117.96875 0)"/>
     <use xlink:href="#DejaVuSans-Bold-74" transform="translate(177.490234 0)"/>
     <use xlink:href="#DejaVuSans-Bold-6f" transform="translate(225.292969 0)"/>
     <use xlink:href="#DejaVuSans-Bold-67" transform="translate(293.994141 0)"/>
     <use xlink:href="#DejaVuSans-Bold-72" transform="translate(365.576172 0)"/>
     <use xlink:href="#DejaVuSans-Bold-61" transform="translate(414.892578 0)"/>
     <use xlink:href="#DejaVuSans-Bold-6d" transform="translate(482.373047 0)"/>
     <use xlink:href="#DejaVuSans-Bold-20" transform="translate(586.572266 0)"/>
     <use xlink:href="#DejaVuSans-Bold-43" transform="translate(621.386719 0)"/>
     <use xlink:href="#DejaVuSans-Bold-6f" transform="translate(694.775391 0)"/>
     <use xlink:href="#DejaVuSans-Bold-6d" transform="translate(763.476562 0)"/>
     <use xlink:href="#DejaVuSans-Bold-70" transform="translate(867.675781 0)"/>
     <use xlink:href="#DejaVuSans-Bold-61" transform="translate(939.257812 0)"/>
     <use xlink:href="#DejaVuSans-Bold-72" transform="translate(1006.738281 0)"/>
     <use xlink:href="#DejaVuSans-Bold-69" transform="translate(1056.054688 0)"/>
     <use xlink:href="#DejaVuSans-Bold-73" transform="translate(1090.332031 0)"/>
     <use xlink:href="#DejaVuSans-Bold-6f" transform="translate(1149.853516 0)"/>
     <use xlink:href="#DejaVuSans-Bold-6e" transform="translate(1218.554688 0)"/>
    </g>
   </g>
   <g id="legend_1">
    <g id="patch_127">
     <path d="M 584.656875 105.488125 
L 699.4 105.488125 
Q 702.2 105.488125 702.2 102.688125 
L 702.2 42.44 
Q 702.2 39.64 699.4 39.64 
L 584.656875 39.64 
Q 581.856875 39.64 581.856875 42.44 
L 581.856875 102.688125 
Q 581.856875 105.488125 584.656875 105.488125 
z
" style="fill: #ffffff; opacity: 0.95; stroke: #000000; stroke-linejoin: miter"/>
    </g>
    <g id="patch_128">
     <path d="M 587.456875 55.877813 
L 615.456875 55.877813 
L 615.456875 46.077813 
L 587.456875 46.077813 
z
" style="fill: #0072b2; opacity: 0.35; stroke: #000000; stroke-width: 1.4; stroke-linejoin: miter"/>
    </g>
    <g id="text_19">
     <!-- lego-loam -->
     <g transform="translate(626.656875 55.877813) scale(0.14 -0.14)">
      <defs>
       <path id="DejaVuSans-6c" d="M 603 4863 
L 1178 4863 
L 1178 0 
L 603 0 
L 603 4863 
z
" transform="scale(0.015625)"/>
       <path id="DejaVuSans-65" d="M 3597 1894 
L 3597 1613 
L 953 1613 
Q 991 1019 1311 708 
Q 1631 397 2203 397 
Q 2534 397 2845 478 
Q 3156 559 3463 722 
L 3463 178 
Q 3153 47 2828 -22 
Q 2503 -91 2169 -91 
Q 1331 -91 842 396 
Q 353 884 353 1716 
Q 353 2575 817 3079 
Q 1281 3584 2069 3584 
Q 2775 3584 3186 3129 
Q 3597 2675 3597 1894 
z
M 3022 2063 
Q 3016 2534 2758 2815 
Q 2500 3097 2075 3097 
Q 1594 3097 1305 2825 
Q 1016 2553 972 2059 
L 3022 2063 
z
" transform="scale(0.015625)"/>
       <path id="DejaVuSans-67" d="M 2906 1791 
Q 2906 2416 2648 2759 
Q 2391 3103 1925 3103 
Q 1463 3103 1205 2759 
Q 947 2416 947 1791 
Q 947 1169 1205 825 
Q 1463 481 1925 481 
Q 2391 481 2648 825 
Q 2906 1169 2906 1791 
z
M 3481 434 
Q 3481 -459 3084 -895 
Q 2688 -1331 1869 -1331 
Q 1566 -1331 1297 -1286 
Q 1028 -1241 775 -1147 
L 775 -588 
Q 1028 -725 1275 -790 
Q 1522 -856 1778 -856 
Q 2344 -856 2625 -561 
Q 2906 -266 2906 331 
L 2906 616 
Q 2728 306 2450 153 
Q 2172 0 1784 0 
Q 1141 0 747 490 
Q 353 981 353 1791 
Q 353 2603 747 3093 
Q 1141 3584 1784 3584 
Q 2172 3584 2450 3431 
Q 2728 3278 2906 2969 
L 2906 3500 
L 3481 3500 
L 3481 434 
z
" transform="scale(0.015625)"/>
       <path id="DejaVuSans-2d" d="M 313 2009 
L 1997 2009 
L 1997 1497 
L 313 1497 
L 313 2009 
z
" transform="scale(0.015625)"/>
       <path id="DejaVuSans-61" d="M 2194 1759 
Q 1497 1759 1228 1600 
Q 959 1441 959 1056 
Q 959 750 1161 570 
Q 1363 391 1709 391 
Q 2188 391 2477 730 
Q 2766 1069 2766 1631 
L 2766 1759 
L 2194 1759 
z
M 3341 1997 
L 3341 0 
L 2766 0 
L 2766 531 
Q 2569 213 2275 61 
Q 1981 -91 1556 -91 
Q 1019 -91 701 211 
Q 384 513 384 1019 
Q 384 1609 779 1909 
Q 1175 2209 1959 2209 
L 2766 2209 
L 2766 2266 
Q 2766 2663 2505 2880 
Q 2244 3097 1772 3097 
Q 1472 3097 1187 3025 
Q 903 2953 641 2809 
L 641 3341 
Q 956 3463 1253 3523 
Q 1550 3584 1831 3584 
Q 2591 3584 2966 3190 
Q 3341 2797 3341 1997 
z
" transform="scale(0.015625)"/>
      </defs>
      <use xlink:href="#DejaVuSans-6c"/>
      <use xlink:href="#DejaVuSans-65" transform="translate(27.783203 0)"/>
      <use xlink:href="#DejaVuSans-67" transform="translate(89.306641 0)"/>
      <use xlink:href="#DejaVuSans-6f" transform="translate(152.783203 0)"/>
      <use xlink:href="#DejaVuSans-2d" transform="translate(215.839844 0)"/>
      <use xlink:href="#DejaVuSans-6c" transform="translate(251.923828 0)"/>
      <use xlink:href="#DejaVuSans-6f" transform="translate(279.707031 0)"/>
      <use xlink:href="#DejaVuSans-61" transform="translate(340.888672 0)"/>
      <use xlink:href="#DejaVuSans-6d" transform="translate(402.167969 0)"/>
     </g>
    </g>
    <g id="patch_129">
     <path d="M 587.456875 76.427188 
L 615.456875 76.427188 
L 615.456875 66.627188 
L 587.456875 66.627188 
z
" style="fill: #d55e00; opacity: 0.35; stroke-dasharray: 5.18,2.24; stroke-dashoffset: 0; stroke: #000000; stroke-width: 1.4; stroke-linejoin: miter"/>
    </g>
    <g id="text_20">
     <!-- fastlio -->
     <g transform="translate(626.656875 76.427188) scale(0.14 -0.14)">
      <defs>
       <path id="DejaVuSans-66" d="M 2375 4863 
L 2375 4384 
L 1825 4384 
Q 1516 4384 1395 4259 
Q 1275 4134 1275 3809 
L 1275 3500 
L 2222 3500 
L 2222 3053 
L 1275 3053 
L 1275 0 
L 697 0 
L 697 3053 
L 147 3053 
L 147 3500 
L 697 3500 
L 697 3744 
Q 697 4328 969 4595 
Q 1241 4863 1831 4863 
L 2375 4863 
z
" transform="scale(0.015625)"/>
       <path id="DejaVuSans-73" d="M 2834 3397 
L 2834 2853 
Q 2591 2978 2328 3040 
Q 2066 3103 1784 3103 
Q 1356 3103 1142 2972 
Q 928 2841 928 2578 
Q 928 2378 1081 2264 
Q 1234 2150 1697 2047 
L 1894 2003 
Q 2506 1872 2764 1633 
Q 3022 1394 3022 966 
Q 3022 478 2636 193 
Q 2250 -91 1575 -91 
Q 1294 -91 989 -36 
Q 684 19 347 128 
L 347 722 
Q 666 556 975 473 
Q 1284 391 1588 391 
Q 1994 391 2212 530 
Q 2431 669 2431 922 
Q 2431 1156 2273 1281 
Q 2116 1406 1581 1522 
L 1381 1569 
Q 847 1681 609 1914 
Q 372 2147 372 2553 
Q 372 3047 722 3315 
Q 1072 3584 1716 3584 
Q 2034 3584 2315 3537 
Q 2597 3491 2834 3397 
z
" transform="scale(0.015625)"/>
       <path id="DejaVuSans-69" d="M 603 3500 
L 1178 3500 
L 1178 0 
L 603 0 
L 603 3500 
z
M 603 4863 
L 1178 4863 
L 1178 4134 
L 603 4134 
L 603 4863 
z
" transform="scale(0.015625)"/>
      </defs>
      <use xlink:href="#DejaVuSans-66"/>
      <use xlink:href="#DejaVuSans-61" transform="translate(35.205078 0)"/>
      <use xlink:href="#DejaVuSans-73" transform="translate(96.484375 0)"/>
      <use xlink:href="#DejaVuSans-74" transform="translate(148.583984 0)"/>
      <use xlink:href="#DejaVuSans-6c" transform="translate(187.792969 0)"/>
      <use xlink:href="#DejaVuSans-69" transform="translate(215.576172 0)"/>
      <use xlink:href="#DejaVuSans-6f" transform="translate(243.359375 0)"/>
     </g>
    </g>
    <g id="patch_130">
     <path d="M 587.456875 96.976562 
L 615.456875 96.976562 
L 615.456875 87.176563 
L 587.456875 87.176563 
z
" style="fill: #009e73; opacity: 0.35; stroke-dasharray: 8.96,2.24,1.4,2.24; stroke-dashoffset: 0; stroke: #000000; stroke-width: 1.4; stroke-linejoin: miter"/>
    </g>
    <g id="text_21">
     <!-- dlio -->
     <g transform="translate(626.656875 96.976562) scale(0.14 -0.14)">
      <defs>
       <path id="DejaVuSans-64" d="M 2906 2969 
L 2906 4863 
L 3481 4863 
L 3481 0 
L 2906 0 
L 2906 525 
Q 2725 213 2448 61 
Q 2172 -91 1784 -91 
Q 1150 -91 751 415 
Q 353 922 353 1747 
Q 353 2572 751 3078 
Q 1150 3584 1784 3584 
Q 2172 3584 2448 3432 
Q 2725 3281 2906 2969 
z
M 947 1747 
Q 947 1113 1208 752 
Q 1469 391 1925 391 
Q 2381 391 2643 752 
Q 2906 1113 2906 1747 
Q 2906 2381 2643 2742 
Q 2381 3103 1925 3103 
Q 1469 3103 1208 2742 
Q 947 2381 947 1747 
z
" transform="scale(0.015625)"/>
      </defs>
      <use xlink:href="#DejaVuSans-64"/>
      <use xlink:href="#DejaVuSans-6c" transform="translate(63.476562 0)"/>
      <use xlink:href="#DejaVuSans-69" transform="translate(91.259766 0)"/>
      <use xlink:href="#DejaVuSans-6f" transform="translate(119.042969 0)"/>
     </g>
    </g>
   </g>
  </g>
 </g>
 <defs>
  <clipPath id="p34cdecccea">
   <rect x="70.67" y="32.64" width="638.53" height="422.2"/>
  </clipPath>
 </defs>
</svg>
