<?xml version="1.0" encoding="utf-8" standalone="no"?>
<!DOCTYPE svg PUBLIC "-//W3C//DTD SVG 1.1//EN"
  "http://www.w3.org/Graphics/SVG/1.1/DTD/svg11.dtd">
<svg xmlns:xlink="http://www.w3.org/1999/xlink" width="720pt" height="504pt" viewBox="0 0 720 504" xmlns="http://www.w3.org/2000/svg" version="1.1">
 <metadata>
  <rdf:RDF xmlns:dc="http://purl.org/dc/elements/1.1/" xmlns:cc="http://creativecommons.org/ns#" xmlns:rdf="http://www.w3.org/1999/02/22-rdf-syntax-ns#">
   <cc:Work>
    <dc:type rdf:resource="http://purl.org/dc/dcmitype/StillImage"/>
    <dc:date>2025-12-18T17:44:34.112743</dc:date>
    <dc:format>image/svg+xml</dc:format>
    <dc:creator>
     <cc:Agent>
      <dc:title>Matplotlib v3.10.7, https://matplotlib.org/</dc:title>
     </cc:Agent>
    </dc:creator>
   </cc:Work>
  </rdf:RDF>
 </metadata>
 <defs>
  <style type="text/css">*{stroke-linejoin: round; stroke-linecap: butt}</style>
 </defs>
 <g id="figure_1">
  <g id="patch_1">
   <path d="M 0 504 
L 720 504 
L 720 0 
L 0 0 
z
" style="fill: #ffffff"/>
  </g>
  <g id="axes_1">
   <g id="patch_2">
    <path d="M 54.92 454.84 
L 709.2 454.84 
L 709.2 32.64 
L 54.92 32.64 
z
" style="fill: #ffffff"/>
   </g>
   <g id="matplotlib.axis_1">
    <g id="xtick_1">
     <g id="line2d_1">
      <path d="M 84.450483 454.84 
L 84.450483 32.64 
" clip-path="url(#pfc9c950f28)" style="fill: none; stroke-dasharray: 2.96,1.28; stroke-dashoffset: 0; stroke: #b0b0b0; stroke-opacity: 0.3; stroke-width: 0.8"/>
     </g>
     <g id="line2d_2">
      <defs>
       <path id="m5582d5925e" d="M 0 0 
L 0 3.5 
" style="stroke: #000000; stroke-width: 0.8"/>
      </defs>
      <g>
       <use xlink:href="#m5582d5925e" x="84.450483" y="454.84" style="stroke: #000000; stroke-width: 0.8"/>
      </g>
     </g>
     <g id="text_1">
      <!-- 0 -->
      <g transform="translate(81.269233 469.438437) scale(0.1 -0.1)">
       <defs>
        <path id="DejaVuSans-30" d="M 2034 4250 
Q 1547 4250 1301 3770 
Q 1056 3291 1056 2328 
Q 1056 1369 1301 889 
Q 1547 409 2034 409 
Q 2525 409 2770 889 
Q 3016 1369 3016 2328 
Q 3016 3291 2770 3770 
Q 2525 4250 2034 4250 
z
M 2034 4750 
Q 2819 4750 3233 4129 
Q 3647 3509 3647 2328 
Q 3647 1150 3233 529 
Q 2819 -91 2034 -91 
Q 1250 -91 836 529 
Q 422 1150 422 2328 
Q 422 3509 836 4129 
Q 1250 4750 2034 4750 
z
" transform="scale(0.015625)"/>
       </defs>
       <use xlink:href="#DejaVuSans-30"/>
      </g>
     </g>
    </g>
    <g id="xtick_2">
     <g id="line2d_3">
      <path d="M 228.364652 454.84 
L 228.364652 32.64 
" clip-path="url(#pfc9c950f28)" style="fill: none; stroke-dasharray: 2.96,1.28; stroke-dashoffset: 0; stroke: #b0b0b0; stroke-opacity: 0.3; stroke-width: 0.8"/>
     </g>
     <g id="line2d_4">
      <g>
       <use xlink:href="#m5582d5925e" x="228.364652" y="454.84" style="stroke: #000000; stroke-width: 0.8"/>
      </g>
     </g>
     <g id="text_2">
      <!-- 10 -->
      <g transform="translate(222.002152 469.438437) scale(0.1 -0.1)">
       <defs>
        <path id="DejaVuSans-31" d="M 794 531 
L 1825 531 
L 1825 4091 
L 703 3866 
L 703 4441 
L 1819 4666 
L 2450 4666 
L 2450 531 
L 3481 531 
L 3481 0 
L 794 0 
L 794 531 
z
" transform="scale(0.015625)"/>
       </defs>
       <use xlink:href="#DejaVuSans-31"/>
       <use xlink:href="#DejaVuSans-30" transform="translate(63.623047 0)"/>
      </g>
     </g>
    </g>
    <g id="xtick_3">
     <g id="line2d_5">
      <path d="M 372.27882 454.84 
L 372.27882 32.64 
" clip-path="url(#pfc9c950f28)" style="fill: none; stroke-dasharray: 2.96,1.28; stroke-dashoffset: 0; stroke: #b0b0b0; stroke-opacity: 0.3; stroke-width: 0.8"/>
     </g>
     <g id="line2d_6">
      <g>
       <use xlink:href="#m5582d5925e" x="372.27882" y="454.84" style="stroke: #000000; stroke-width: 0.8"/>
      </g>
     </g>
     <g id="text_3">
      <!-- 20 -->
      <g transform="translate(365.91632 469.438437) scale(0.1 -0.1)">
       <defs>
        <path id="DejaVuSans-32" d="M 1228 531 
L 3431 531 
L 3431 0 
L 469 0 
L 469 531 
Q 828 903 1448 1529 
Q 2069 2156 2228 2338 
Q 2531 2678 2651 2914 
Q 2772 3150 2772 3378 
Q 2772 3750 2511 3984 
Q 2250 4219 1831 4219 
Q 1534 4219 1204 4116 
Q 875 4013 500 3803 
L 500 4441 
Q 881 4594 1212 4672 
Q 1544 4750 1819 4750 
Q 2544 4750 2975 4387 
Q 3406 4025 3406 3419 
Q 3406 3131 3298 2873 
Q 3191 2616 2906 2266 
Q 2828 2175 2409 1742 
Q 1991 1309 1228 531 
z
" transform="scale(0.015625)"/>
       </defs>
       <use xlink:href="#DejaVuSans-32"/>
       <use xlink:href="#DejaVuSans-30" transform="translate(63.623047 0)"/>
      </g>
     </g>
    </g>
    <g id="xtick_4">
     <g id="line2d_7">
      <path d="M 516.192989 454.84 
L 516.192989 32.64 
" clip-path="url(#pfc9c950f28)" style="fill: none; stroke-dasharray: 2.96,1.28; stroke-dashoffset: 0; stroke: #b0b0b0; stroke-opacity: 0.3; stroke-width: 0.8"/>
     </g>
     <g id="line2d_8">
      <g>
       <use xlink:href="#m5582d5925e" x="516.192989" y="454.84" style="stroke: #000000; stroke-width: 0.8"/>
      </g>
     </g>
     <g id="text_4">
      <!-- 30 -->
      <g transform="translate(509.830489 469.438437) scale(0.1 -0.1)">
       <defs>
        <path id="DejaVuSans-33" d="M 2597 2516 
Q 3050 2419 3304 2112 
Q 3559 1806 3559 1356 
Q 3559 666 3084 287 
Q 2609 -91 1734 -91 
Q 1441 -91 1130 -33 
Q 819 25 488 141 
L 488 750 
Q 750 597 1062 519 
Q 1375 441 1716 441 
Q 2309 441 2620 675 
Q 2931 909 2931 1356 
Q 2931 1769 2642 2001 
Q 2353 2234 1838 2234 
L 1294 2234 
L 1294 2753 
L 1863 2753 
Q 2328 2753 2575 2939 
Q 2822 3125 2822 3475 
Q 2822 3834 2567 4026 
Q 2313 4219 1838 4219 
Q 1578 4219 1281 4162 
Q 984 4106 628 3988 
L 628 4550 
Q 988 4650 1302 4700 
Q 1616 4750 1894 4750 
Q 2613 4750 3031 4423 
Q 3450 4097 3450 3541 
Q 3450 3153 3228 2886 
Q 3006 2619 2597 2516 
z
" transform="scale(0.015625)"/>
       </defs>
       <use xlink:href="#DejaVuSans-33"/>
       <use xlink:href="#DejaVuSans-30" transform="translate(63.623047 0)"/>
      </g>
     </g>
    </g>
    <g id="xtick_5">
     <g id="line2d_9">
      <path d="M 660.107157 454.84 
L 660.107157 32.64 
" clip-path="url(#pfc9c950f28)" style="fill: none; stroke-dasharray: 2.96,1.28; stroke-dashoffset: 0; stroke: #b0b0b0; stroke-opacity: 0.3; stroke-width: 0.8"/>
     </g>
     <g id="line2d_10">
      <g>
       <use xlink:href="#m5582d5925e" x="660.107157" y="454.84" style="stroke: #000000; stroke-width: 0.8"/>
      </g>
     </g>
     <g id="text_5">
      <!-- 40 -->
      <g transform="translate(653.744657 469.438437) scale(0.1 -0.1)">
       <defs>
        <path id="DejaVuSans-34" d="M 2419 4116 
L 825 1625 
L 2419 1625 
L 2419 4116 
z
M 2253 4666 
L 3047 4666 
L 3047 1625 
L 3713 1625 
L 3713 1100 
L 3047 1100 
L 3047 0 
L 2419 0 
L 2419 1100 
L 313 1100 
L 313 1709 
L 2253 4666 
z
" transform="scale(0.015625)"/>
       </defs>
       <use xlink:href="#DejaVuSans-34"/>
       <use xlink:href="#DejaVuSans-30" transform="translate(63.623047 0)"/>
      </g>
     </g>
    </g>
    <g id="text_6">
     <!-- XY Error [m] -->
     <g transform="translate(326.954688 489.195312) scale(0.18 -0.18)">
      <defs>
       <path id="DejaVuSans-58" d="M 403 4666 
L 1081 4666 
L 2241 2931 
L 3406 4666 
L 4084 4666 
L 2584 2425 
L 4184 0 
L 3506 0 
L 2194 1984 
L 872 0 
L 191 0 
L 1856 2491 
L 403 4666 
z
" transform="scale(0.015625)"/>
       <path id="DejaVuSans-59" d="M -13 4666 
L 666 4666 
L 1959 2747 
L 3244 4666 
L 3922 4666 
L 2272 2222 
L 2272 0 
L 1638 0 
L 1638 2222 
L -13 4666 
z
" transform="scale(0.015625)"/>
       <path id="DejaVuSans-20" transform="scale(0.015625)"/>
       <path id="DejaVuSans-45" d="M 628 4666 
L 3578 4666 
L 3578 4134 
L 1259 4134 
L 1259 2753 
L 3481 2753 
L 3481 2222 
L 1259 2222 
L 1259 531 
L 3634 531 
L 3634 0 
L 628 0 
L 628 4666 
z
" transform="scale(0.015625)"/>
       <path id="DejaVuSans-72" d="M 2631 2963 
Q 2534 3019 2420 3045 
Q 2306 3072 2169 3072 
Q 1681 3072 1420 2755 
Q 1159 2438 1159 1844 
L 1159 0 
L 581 0 
L 581 3500 
L 1159 3500 
L 1159 2956 
Q 1341 3275 1631 3429 
Q 1922 3584 2338 3584 
Q 2397 3584 2469 3576 
Q 2541 3569 2628 3553 
L 2631 2963 
z
" transform="scale(0.015625)"/>
       <path id="DejaVuSans-6f" d="M 1959 3097 
Q 1497 3097 1228 2736 
Q 959 2375 959 1747 
Q 959 1119 1226 758 
Q 1494 397 1959 397 
Q 2419 397 2687 759 
Q 2956 1122 2956 1747 
Q 2956 2369 2687 2733 
Q 2419 3097 1959 3097 
z
M 1959 3584 
Q 2709 3584 3137 3096 
Q 3566 2609 3566 1747 
Q 3566 888 3137 398 
Q 2709 -91 1959 -91 
Q 1206 -91 779 398 
Q 353 888 353 1747 
Q 353 2609 779 3096 
Q 1206 3584 1959 3584 
z
" transform="scale(0.015625)"/>
       <path id="DejaVuSans-5b" d="M 550 4863 
L 1875 4863 
L 1875 4416 
L 1125 4416 
L 1125 -397 
L 1875 -397 
L 1875 -844 
L 550 -844 
L 550 4863 
z
" transform="scale(0.015625)"/>
       <path id="DejaVuSans-6d" d="M 3328 2828 
Q 3544 3216 3844 3400 
Q 4144 3584 4550 3584 
Q 5097 3584 5394 3201 
Q 5691 2819 5691 2113 
L 5691 0 
L 5113 0 
L 5113 2094 
Q 5113 2597 4934 2840 
Q 4756 3084 4391 3084 
Q 3944 3084 3684 2787 
Q 3425 2491 3425 1978 
L 3425 0 
L 2847 0 
L 2847 2094 
Q 2847 2600 2669 2842 
Q 2491 3084 2119 3084 
Q 1678 3084 1418 2786 
Q 1159 2488 1159 1978 
L 1159 0 
L 581 0 
L 581 3500 
L 1159 3500 
L 1159 2956 
Q 1356 3278 1631 3431 
Q 1906 3584 2284 3584 
Q 2666 3584 2933 3390 
Q 3200 3197 3328 2828 
z
" transform="scale(0.015625)"/>
       <path id="DejaVuSans-5d" d="M 1947 4863 
L 1947 -844 
L 622 -844 
L 622 -397 
L 1369 -397 
L 1369 4416 
L 622 4416 
L 622 4863 
L 1947 4863 
z
" transform="scale(0.015625)"/>
      </defs>
      <use xlink:href="#DejaVuSans-58"/>
      <use xlink:href="#DejaVuSans-59" transform="translate(68.505859 0)"/>
      <use xlink:href="#DejaVuSans-20" transform="translate(129.589844 0)"/>
      <use xlink:href="#DejaVuSans-45" transform="translate(161.376953 0)"/>
      <use xlink:href="#DejaVuSans-72" transform="translate(224.560547 0)"/>
      <use xlink:href="#DejaVuSans-72" transform="translate(263.923828 0)"/>
      <use xlink:href="#DejaVuSans-6f" transform="translate(302.787109 0)"/>
      <use xlink:href="#DejaVuSans-72" transform="translate(363.96875 0)"/>
      <use xlink:href="#DejaVuSans-20" transform="translate(405.082031 0)"/>
      <use xlink:href="#DejaVuSans-5b" transform="translate(436.869141 0)"/>
      <use xlink:href="#DejaVuSans-6d" transform="translate(475.882812 0)"/>
      <use xlink:href="#DejaVuSans-5d" transform="translate(573.294922 0)"/>
     </g>
    </g>
   </g>
   <g id="matplotlib.axis_2">
    <g id="ytick_1">
     <g id="line2d_11">
      <path d="M 54.92 435.649091 
L 709.2 435.649091 
" clip-path="url(#pfc9c950f28)" style="fill: none; stroke-dasharray: 2.96,1.28; stroke-dashoffset: 0; stroke: #b0b0b0; stroke-opacity: 0.3; stroke-width: 0.8"/>
     </g>
     <g id="line2d_12">
      <defs>
       <path id="m83d3a60321" d="M 0 0 
L -3.5 0 
" style="stroke: #000000; stroke-width: 0.8"/>
      </defs>
      <g>
       <use xlink:href="#m83d3a60321" x="54.92" y="435.649091" style="stroke: #000000; stroke-width: 0.8"/>
      </g>
     </g>
     <g id="text_7">
      <!-- 0.0 -->
      <g transform="translate(32.016875 439.44831) scale(0.1 -0.1)">
       <defs>
        <path id="DejaVuSans-2e" d="M 684 794 
L 1344 794 
L 1344 0 
L 684 0 
L 684 794 
z
" transform="scale(0.015625)"/>
       </defs>
       <use xlink:href="#DejaVuSans-30"/>
       <use xlink:href="#DejaVuSans-2e" transform="translate(63.623047 0)"/>
       <use xlink:href="#DejaVuSans-30" transform="translate(95.410156 0)"/>
      </g>
     </g>
    </g>
    <g id="ytick_2">
     <g id="line2d_13">
      <path d="M 54.92 358.885455 
L 709.2 358.885455 
" clip-path="url(#pfc9c950f28)" style="fill: none; stroke-dasharray: 2.96,1.28; stroke-dashoffset: 0; stroke: #b0b0b0; stroke-opacity: 0.3; stroke-width: 0.8"/>
     </g>
     <g id="line2d_14">
      <g>
       <use xlink:href="#m83d3a60321" x="54.92" y="358.885455" style="stroke: #000000; stroke-width: 0.8"/>
      </g>
     </g>
     <g id="text_8">
      <!-- 0.2 -->
      <g transform="translate(32.016875 362.684673) scale(0.1 -0.1)">
       <use xlink:href="#DejaVuSans-30"/>
       <use xlink:href="#DejaVuSans-2e" transform="translate(63.623047 0)"/>
       <use xlink:href="#DejaVuSans-32" transform="translate(95.410156 0)"/>
      </g>
     </g>
    </g>
    <g id="ytick_3">
     <g id="line2d_15">
      <path d="M 54.92 282.121818 
L 709.2 282.121818 
" clip-path="url(#pfc9c950f28)" style="fill: none; stroke-dasharray: 2.96,1.28; stroke-dashoffset: 0; stroke: #b0b0b0; stroke-opacity: 0.3; stroke-width: 0.8"/>
     </g>
     <g id="line2d_16">
      <g>
       <use xlink:href="#m83d3a60321" x="54.92" y="282.121818" style="stroke: #000000; stroke-width: 0.8"/>
      </g>
     </g>
     <g id="text_9">
      <!-- 0.4 -->
      <g transform="translate(32.016875 285.921037) scale(0.1 -0.1)">
       <use xlink:href="#DejaVuSans-30"/>
       <use xlink:href="#DejaVuSans-2e" transform="translate(63.623047 0)"/>
       <use xlink:href="#DejaVuSans-34" transform="translate(95.410156 0)"/>
      </g>
     </g>
    </g>
    <g id="ytick_4">
     <g id="line2d_17">
      <path d="M 54.92 205.358182 
L 709.2 205.358182 
" clip-path="url(#pfc9c950f28)" style="fill: none; stroke-dasharray: 2.96,1.28; stroke-dashoffset: 0; stroke: #b0b0b0; stroke-opacity: 0.3; stroke-width: 0.8"/>
     </g>
     <g id="line2d_18">
      <g>
       <use xlink:href="#m83d3a60321" x="54.92" y="205.358182" style="stroke: #000000; stroke-width: 0.8"/>
      </g>
     </g>
     <g id="text_10">
      <!-- 0.6 -->
      <g transform="translate(32.016875 209.157401) scale(0.1 -0.1)">
       <defs>
        <path id="DejaVuSans-36" d="M 2113 2584 
Q 1688 2584 1439 2293 
Q 1191 2003 1191 1497 
Q 1191 994 1439 701 
Q 1688 409 2113 409 
Q 2538 409 2786 701 
Q 3034 994 3034 1497 
Q 3034 2003 2786 2293 
Q 2538 2584 2113 2584 
z
M 3366 4563 
L 3366 3988 
Q 3128 4100 2886 4159 
Q 2644 4219 2406 4219 
Q 1781 4219 1451 3797 
Q 1122 3375 1075 2522 
Q 1259 2794 1537 2939 
Q 1816 3084 2150 3084 
Q 2853 3084 3261 2657 
Q 3669 2231 3669 1497 
Q 3669 778 3244 343 
Q 2819 -91 2113 -91 
Q 1303 -91 875 529 
Q 447 1150 447 2328 
Q 447 3434 972 4092 
Q 1497 4750 2381 4750 
Q 2619 4750 2861 4703 
Q 3103 4656 3366 4563 
z
" transform="scale(0.015625)"/>
       </defs>
       <use xlink:href="#DejaVuSans-30"/>
       <use xlink:href="#DejaVuSans-2e" transform="translate(63.623047 0)"/>
       <use xlink:href="#DejaVuSans-36" transform="translate(95.410156 0)"/>
      </g>
     </g>
    </g>
    <g id="ytick_5">
     <g id="line2d_19">
      <path d="M 54.92 128.594545 
L 709.2 128.594545 
" clip-path="url(#pfc9c950f28)" style="fill: none; stroke-dasharray: 2.96,1.28; stroke-dashoffset: 0; stroke: #b0b0b0; stroke-opacity: 0.3; stroke-width: 0.8"/>
     </g>
     <g id="line2d_20">
      <g>
       <use xlink:href="#m83d3a60321" x="54.92" y="128.594545" style="stroke: #000000; stroke-width: 0.8"/>
      </g>
     </g>
     <g id="text_11">
      <!-- 0.8 -->
      <g transform="translate(32.016875 132.393764) scale(0.1 -0.1)">
       <defs>
        <path id="DejaVuSans-38" d="M 2034 2216 
Q 1584 2216 1326 1975 
Q 1069 1734 1069 1313 
Q 1069 891 1326 650 
Q 1584 409 2034 409 
Q 2484 409 2743 651 
Q 3003 894 3003 1313 
Q 3003 1734 2745 1975 
Q 2488 2216 2034 2216 
z
M 1403 2484 
Q 997 2584 770 2862 
Q 544 3141 544 3541 
Q 544 4100 942 4425 
Q 1341 4750 2034 4750 
Q 2731 4750 3128 4425 
Q 3525 4100 3525 3541 
Q 3525 3141 3298 2862 
Q 3072 2584 2669 2484 
Q 3125 2378 3379 2068 
Q 3634 1759 3634 1313 
Q 3634 634 3220 271 
Q 2806 -91 2034 -91 
Q 1263 -91 848 271 
Q 434 634 434 1313 
Q 434 1759 690 2068 
Q 947 2378 1403 2484 
z
M 1172 3481 
Q 1172 3119 1398 2916 
Q 1625 2713 2034 2713 
Q 2441 2713 2670 2916 
Q 2900 3119 2900 3481 
Q 2900 3844 2670 4047 
Q 2441 4250 2034 4250 
Q 1625 4250 1398 4047 
Q 1172 3844 1172 3481 
z
" transform="scale(0.015625)"/>
       </defs>
       <use xlink:href="#DejaVuSans-30"/>
       <use xlink:href="#DejaVuSans-2e" transform="translate(63.623047 0)"/>
       <use xlink:href="#DejaVuSans-38" transform="translate(95.410156 0)"/>
      </g>
     </g>
    </g>
    <g id="ytick_6">
     <g id="line2d_21">
      <path d="M 54.92 51.830909 
L 709.2 51.830909 
" clip-path="url(#pfc9c950f28)" style="fill: none; stroke-dasharray: 2.96,1.28; stroke-dashoffset: 0; stroke: #b0b0b0; stroke-opacity: 0.3; stroke-width: 0.8"/>
     </g>
     <g id="line2d_22">
      <g>
       <use xlink:href="#m83d3a60321" x="54.92" y="51.830909" style="stroke: #000000; stroke-width: 0.8"/>
      </g>
     </g>
     <g id="text_12">
      <!-- 1.0 -->
      <g transform="translate(32.016875 55.630128) scale(0.1 -0.1)">
       <use xlink:href="#DejaVuSans-31"/>
       <use xlink:href="#DejaVuSans-2e" transform="translate(63.623047 0)"/>
       <use xlink:href="#DejaVuSans-30" transform="translate(95.410156 0)"/>
      </g>
     </g>
    </g>
    <g id="text_13">
     <!-- CDF -->
     <g transform="translate(24.273438 262.130938) rotate(-90) scale(0.18 -0.18)">
      <defs>
       <path id="DejaVuSans-43" d="M 4122 4306 
L 4122 3641 
Q 3803 3938 3442 4084 
Q 3081 4231 2675 4231 
Q 1875 4231 1450 3742 
Q 1025 3253 1025 2328 
Q 1025 1406 1450 917 
Q 1875 428 2675 428 
Q 3081 428 3442 575 
Q 3803 722 4122 1019 
L 4122 359 
Q 3791 134 3420 21 
Q 3050 -91 2638 -91 
Q 1578 -91 968 557 
Q 359 1206 359 2328 
Q 359 3453 968 4101 
Q 1578 4750 2638 4750 
Q 3056 4750 3426 4639 
Q 3797 4528 4122 4306 
z
" transform="scale(0.015625)"/>
       <path id="DejaVuSans-44" d="M 1259 4147 
L 1259 519 
L 2022 519 
Q 2988 519 3436 956 
Q 3884 1394 3884 2338 
Q 3884 3275 3436 3711 
Q 2988 4147 2022 4147 
L 1259 4147 
z
M 628 4666 
L 1925 4666 
Q 3281 4666 3915 4102 
Q 4550 3538 4550 2338 
Q 4550 1131 3912 565 
Q 3275 0 1925 0 
L 628 0 
L 628 4666 
z
" transform="scale(0.015625)"/>
       <path id="DejaVuSans-46" d="M 628 4666 
L 3309 4666 
L 3309 4134 
L 1259 4134 
L 1259 2759 
L 3109 2759 
L 3109 2228 
L 1259 2228 
L 1259 0 
L 628 0 
L 628 4666 
z
" transform="scale(0.015625)"/>
      </defs>
      <use xlink:href="#DejaVuSans-43"/>
      <use xlink:href="#DejaVuSans-44" transform="translate(69.824219 0)"/>
      <use xlink:href="#DejaVuSans-46" transform="translate(146.826172 0)"/>
     </g>
    </g>
   </g>
   <g id="line2d_23">
    <path d="M 92.694053 435.649091 
L 92.792978 435.590662 
L 93.228355 435.469629 
L 93.341694 435.390332 
L 93.541883 435.164962 
L 93.774259 434.789345 
L 93.853672 434.555627 
L 93.979434 434.175837 
L 94.085714 433.65832 
L 94.228748 433.032291 
L 94.301152 432.585724 
L 94.431065 431.780234 
L 94.463602 431.584078 
L 95.027706 428.387158 
L 95.06725 428.191003 
L 95.317889 427.05163 
L 95.433891 426.500725 
L 96.114541 423.24955 
L 96.307524 423.045047 
L 96.588345 422.869759 
L 97.74361 422.31468 
L 97.893106 422.08931 
L 98.016308 421.901501 
L 98.164263 421.667784 
L 99.425008 419.581022 
L 100.476294 419.468336 
L 102.136134 419.226272 
L 102.384071 418.89239 
L 102.599215 418.704581 
L 103.326051 418.591896 
L 103.538891 418.404088 
L 104.085238 418.166197 
L 106.195697 417.627812 
L 106.395952 417.523474 
L 107.35313 417.177071 
L 107.769519 417.014304 
L 108.048499 416.85571 
L 109.760533 416.254722 
L 110.325991 416.021005 
L 110.986555 415.716338 
L 111.890865 415.411671 
L 112.621116 414.902501 
L 113.262247 414.643742 
L 113.745933 414.301513 
L 117.096568 413.099538 
L 117.347846 412.999373 
L 120.261397 412.051983 
L 120.863129 411.784878 
L 122.262115 411.288228 
L 122.911122 411.067032 
L 124.139714 410.691414 
L 124.588302 410.403441 
L 125.389169 410.198938 
L 126.008113 409.827495 
L 126.567671 409.693942 
L 127.280108 409.426836 
L 127.773002 409.27659 
L 128.368517 409.047046 
L 128.808231 408.934361 
L 129.695884 408.667255 
L 130.194013 408.500314 
L 130.917927 408.283291 
L 131.445162 408.091309 
L 132.088203 407.945235 
L 132.375299 407.794988 
L 132.75418 407.632221 
L 133.937276 407.260777 
L 137.815473 406.789169 
L 140.015395 405.224097 
L 140.297621 405.048809 
L 140.860055 404.70658 
L 141.659391 404.539639 
L 141.84537 404.472863 
L 143.943845 404.026296 
L 144.838604 403.825966 
L 145.002135 403.780058 
L 145.446527 403.592249 
L 145.798252 403.112294 
L 146.00593 402.916138 
L 146.0924 402.786759 
L 146.216277 402.603124 
L 146.533975 402.285936 
L 146.817586 402.135689 
L 147.256318 401.72251 
L 150.228885 400.904499 
L 154.337387 400.599832 
L 154.485408 400.583138 
L 178.714158 399.752607 
L 180.099317 399.518889 
L 180.266767 399.097363 
L 180.43419 398.504723 
L 180.558089 398.183361 
L 180.682841 397.407086 
L 180.777585 395.524826 
L 180.938803 385.358121 
L 180.97744 382.549339 
L 181.112236 375.404265 
L 181.630459 371.88181 
L 182.036713 370.562976 
L 182.211256 369.260836 
L 182.305805 368.559684 
L 182.417935 368.029647 
L 183.220292 364.957933 
L 183.431513 364.223392 
L 184.204273 363.764305 
L 184.751753 363.530587 
L 185.086964 363.192532 
L 185.237399 363.088194 
L 186.280597 362.57485 
L 186.437738 362.516421 
L 186.725756 362.416256 
L 187.242023 362.266009 
L 187.410862 362.199233 
L 187.68965 362.074027 
L 187.825336 361.936301 
L 190.049376 360.625814 
L 190.162102 360.488088 
L 190.60289 360.321147 
L 192.185102 359.57826 
L 192.301935 359.44888 
L 192.453499 359.315328 
L 192.575777 359.210989 
L 193.011461 359.039875 
L 193.16743 358.964752 
L 193.58697 358.747728 
L 193.731488 358.455582 
L 193.900901 358.20517 
L 194.033066 357.925544 
L 194.255314 356.944766 
L 194.441023 355.751138 
L 194.694095 354.494907 
L 194.967245 353.964869 
L 195.097592 353.818796 
L 195.349027 353.39727 
L 195.543564 353.125991 
L 195.686608 352.946529 
L 196.174904 352.395624 
L 196.824054 351.894801 
L 196.983208 351.757075 
L 197.455518 351.352243 
L 198.347682 350.492497 
L 198.484034 350.050103 
L 198.594524 349.641098 
L 198.801081 349.261307 
L 198.896737 349.127754 
L 199.368681 348.593543 
L 199.59385 348.434949 
L 199.702939 348.293049 
L 200.106856 347.9383 
L 200.279877 347.813094 
L 200.913426 347.525121 
L 201.384548 347.379047 
L 203.017861 346.235502 
L 203.197026 345.634514 
L 203.519338 344.687124 
L 204.177912 344.023534 
L 204.552092 343.819031 
L 204.686966 343.664611 
L 205.010129 343.334902 
L 205.126336 343.197176 
L 205.331342 342.892509 
L 205.554843 342.529412 
L 205.737054 342.320736 
L 205.976423 342.153795 
L 212.228243 339.662201 
L 212.84568 339.516127 
L 213.638872 339.240675 
L 214.982343 338.919313 
L 215.574402 338.314152 
L 216.094619 337.567091 
L 216.421529 336.59466 
L 216.813976 336.398504 
L 217.042806 336.289993 
L 217.547641 336.006193 
L 217.664755 335.939417 
L 218.522161 335.313388 
L 218.710198 334.992027 
L 218.906447 334.862647 
L 219.334263 334.290875 
L 219.726163 334.057157 
L 220.164764 333.831787 
L 220.689768 333.68154 
L 221.533564 333.435302 
L 223.342162 332.717456 
L 223.532439 332.608944 
L 223.829538 332.442003 
L 224.920892 331.899445 
L 225.472643 331.732504 
L 226.515559 331.319325 
L 226.973264 331.060567 
L 227.124216 330.864411 
L 227.564277 330.000491 
L 227.781655 329.558098 
L 229.848863 328.001373 
L 230.093424 327.859473 
L 231.387292 327.212577 
L 232.013619 326.932951 
L 234.436662 325.943826 
L 234.974698 325.413788 
L 235.31202 325.255194 
L 235.604584 325.02565 
L 235.849248 324.253548 
L 236.063705 323.965575 
L 236.169953 323.85289 
L 236.300542 323.715163 
L 236.478388 323.435537 
L 236.56534 323.297811 
L 236.680401 323.197646 
L 236.980791 322.851244 
L 237.120571 322.592485 
L 237.429906 322.362942 
L 239.316601 321.244437 
L 239.501654 321.090017 
L 239.729472 320.914729 
L 239.856301 320.847952 
L 240.958869 320.351303 
L 241.061069 320.276179 
L 242.562517 319.533292 
L 242.744656 319.437301 
L 243.525908 318.585902 
L 243.663909 318.418961 
L 243.815074 318.289582 
L 244.174403 317.964047 
L 244.454638 317.696941 
L 244.699562 317.500785 
L 245.040562 317.342192 
L 245.192996 317.250374 
L 245.485166 317.104301 
L 245.692853 316.941533 
L 245.931749 316.766245 
L 246.059947 316.649386 
L 246.404075 316.42819 
L 246.586915 316.336372 
L 247.170858 316.094308 
L 247.442032 315.873111 
L 248.076092 315.380635 
L 249.190395 314.779647 
L 250.005768 313.815563 
L 251.383841 313.252138 
L 252.490597 312.688712 
L 253.385321 312.409086 
L 253.522496 312.187889 
L 253.703328 312.054336 
L 253.948989 311.791404 
L 254.013692 311.653678 
L 254.125144 311.378225 
L 254.370011 311.173722 
L 254.438642 311.015128 
L 254.573596 310.539347 
L 254.766608 308.765599 
L 254.984471 308.22304 
L 255.398756 307.964282 
L 255.511095 307.864117 
L 255.86962 307.542756 
L 256.183143 307.425897 
L 256.650948 307.238089 
L 257.664501 306.603713 
L 257.727768 306.420078 
L 257.765675 306.127931 
L 257.973423 304.304101 
L 258.256196 303.235679 
L 258.586327 302.630518 
L 258.721952 302.3968 
L 258.821658 302.246553 
L 259.398831 301.178131 
L 260.298251 298.189888 
L 260.678104 297.747494 
L 260.829512 297.513777 
L 261.653998 296.679072 
L 262.316779 296.399446 
L 262.467754 296.282587 
L 262.642536 296.140687 
L 262.847905 296.015481 
L 263.099089 295.844367 
L 264.15494 295.264247 
L 264.488344 295.126521 
L 265.718449 294.070619 
L 265.882611 293.920372 
L 267.243608 293.469631 
L 267.411163 293.394508 
L 268.27604 293.081494 
L 268.610368 292.86447 
L 270.005393 292.225921 
L 270.340419 292.092368 
L 271.11185 291.637454 
L 272.041911 290.610767 
L 272.149418 290.285232 
L 272.450058 289.838665 
L 272.806369 282.52665 
L 272.862826 282.071736 
L 272.991628 281.683598 
L 275.208462 280.848893 
L 275.961174 280.711167 
L 276.095273 280.661085 
L 277.280705 280.327203 
L 277.684888 280.231212 
L 280.292555 279.697 
L 282.158229 279.037584 
L 283.146783 278.787172 
L 283.38501 278.703702 
L 286.196344 278.019244 
L 287.8481 277.384868 
L 288.548068 277.192886 
L 289.704628 276.78388 
L 290.447809 276.596072 
L 291.360505 276.153678 
L 291.482667 276.061861 
L 292.278046 275.631988 
L 296.856892 273.899975 
L 297.479694 273.741381 
L 298.081309 273.461755 
L 298.220408 273.332376 
L 299.359774 272.760603 
L 299.532819 272.681306 
L 299.960718 272.510191 
L 300.064615 272.455935 
L 300.354787 272.309862 
L 300.55419 272.234739 
L 300.913679 272.080318 
L 301.017354 272.030236 
L 301.791942 271.721395 
L 301.910386 271.662966 
L 302.320029 271.512719 
L 305.236309 270.210579 
L 305.997593 269.697236 
L 306.506775 269.551162 
L 307.335337 269.229801 
L 310.174411 268.098776 
L 310.391555 267.944355 
L 310.686874 267.777414 
L 310.962456 267.664729 
L 311.683074 267.506135 
L 311.824667 267.4644 
L 313.271411 267.113824 
L 314.355563 266.404325 
L 314.546349 266.187302 
L 314.722365 266.028708 
L 314.901333 265.78247 
L 315.335321 265.594661 
L 315.551178 265.473629 
L 315.832784 265.319208 
L 315.943229 265.235738 
L 317.168559 264.292521 
L 317.471608 264.075498 
L 317.58501 263.954466 
L 317.674706 263.795872 
L 317.935693 262.744144 
L 318.105537 262.531294 
L 318.315222 261.92196 
L 318.474148 261.579731 
L 318.840705 260.937008 
L 319.230227 259.993791 
L 319.286788 259.626521 
L 319.552445 258.72504 
L 319.997901 258.21587 
L 320.52224 257.781823 
L 321.829656 257.477156 
L 322.131977 257.402032 
L 322.749449 257.239265 
L 322.891135 257.159968 
L 323.450867 256.905383 
L 324.088848 256.692533 
L 324.249018 256.558981 
L 324.527948 256.083199 
L 324.645413 255.820267 
L 324.815411 255.523946 
L 325.00513 255.352832 
L 325.647587 255.010603 
L 325.806238 254.956347 
L 326.410476 254.468045 
L 327.192726 254.159204 
L 327.526481 253.996436 
L 328.613667 253.520655 
L 329.812738 253.182599 
L 329.870733 253.161732 
L 330.256043 253.032352 
L 330.709756 252.894626 
L 332.118382 252.54405 
L 332.833169 252.310333 
L 333.504261 252.160086 
L 336.671607 251.137572 
L 336.851818 250.924722 
L 337.126102 250.665964 
L 337.303102 250.536585 
L 337.453737 250.4239 
L 337.718856 250.240264 
L 338.076251 250.006547 
L 338.497724 249.822912 
L 339.222217 249.614236 
L 339.924535 249.34713 
L 340.231563 249.217751 
L 340.610626 249.029942 
L 341.37066 248.604243 
L 341.492357 248.554161 
L 344.547698 247.552515 
L 344.697284 247.510779 
L 345.618131 247.210286 
L 345.843826 247.130989 
L 346.509568 246.976568 
L 348.299557 246.383928 
L 348.412395 246.338019 
L 348.97392 245.891452 
L 349.19782 245.703643 
L 349.62521 245.382282 
L 349.752295 245.26125 
L 350.453985 244.843897 
L 352.493786 244.297166 
L 352.981616 244.17196 
L 356.870751 243.333081 
L 358.656215 243.028414 
L 359.630421 242.665317 
L 360.057888 242.427427 
L 361.39701 241.463342 
L 362.012733 238.65456 
L 362.177102 238.504313 
L 362.284928 238.316505 
L 362.752118 238.016011 
L 362.870607 237.953408 
L 364.243462 237.310685 
L 364.399444 237.252256 
L 364.605206 237.147918 
L 364.936574 236.947589 
L 365.451657 236.697177 
L 367.396187 236.021066 
L 367.730302 235.895861 
L 368.824406 235.386691 
L 369.100628 235.194709 
L 371.221889 233.70476 
L 371.361715 233.504431 
L 372.00469 232.6739 
L 372.149393 232.536173 
L 372.494386 232.047871 
L 372.629114 231.784939 
L 373.209726 231.405148 
L 373.48436 231.263248 
L 373.737185 231.07544 
L 373.970662 230.921019 
L 374.366763 230.662261 
L 374.635578 230.520361 
L 374.951872 230.294991 
L 375.128474 230.027885 
L 375.296402 229.68983 
L 375.754505 228.850951 
L 377.00739 227.548812 
L 377.418176 227.35683 
L 377.561489 227.302574 
L 378.153756 227.081377 
L 378.307384 226.93113 
L 378.923245 226.171549 
L 379.076041 226.033822 
L 379.688914 225.512132 
L 380.254784 225.295108 
L 382.245664 224.201645 
L 382.57114 223.913672 
L 382.883983 223.746731 
L 383.023808 223.638219 
L 384.367984 223.496319 
L 384.902626 223.400328 
L 386.271513 223.195826 
L 386.524909 223.129049 
L 387.939864 222.770126 
L 388.650122 222.669961 
L 390.365025 222.519715 
L 392.14223 222.311038 
L 400.778619 221.885339 
L 403.149947 221.747613 
L 405.065986 221.509722 
L 406.514383 221.276004 
L 409.066352 220.353655 
L 412.489551 220.094897 
L 412.925705 219.927956 
L 413.068455 219.79023 
L 413.321226 219.656677 
L 413.697493 219.418786 
L 413.826152 219.331142 
L 413.960861 219.201763 
L 414.080632 218.759369 
L 414.525395 218.563213 
L 414.842509 217.811979 
L 415.006965 216.618351 
L 415.125406 216.105007 
L 415.379846 215.821208 
L 415.51291 215.696002 
L 415.602245 215.495673 
L 415.816251 214.986503 
L 415.969488 214.281177 
L 416.172621 212.611767 
L 416.36571 211.025828 
L 416.481855 210.804631 
L 418.952151 207.2154 
L 419.077197 206.610239 
L 419.166436 206.280531 
L 419.378146 204.65703 
L 419.558227 203.914142 
L 419.905461 202.975099 
L 420.156782 202.6913 
L 420.292082 199.089548 
L 420.521776 188.889454 
L 422.108683 187.357771 
L 422.560173 186.794345 
L 422.851677 186.53976 
L 423.008284 186.343604 
L 423.181845 186.126581 
L 423.457351 185.617411 
L 423.554955 185.467164 
L 424.17404 183.505607 
L 424.250368 183.34284 
L 424.409683 183.038173 
L 424.783248 182.458053 
L 425.09694 181.723513 
L 425.244443 181.289466 
L 425.363079 180.901328 
L 425.506319 180.692652 
L 425.651663 180.538232 
L 425.796652 180.392158 
L 425.947102 180.008194 
L 426.372158 178.868822 
L 426.485884 178.539113 
L 426.535178 178.367999 
L 428.024256 174.787115 
L 428.154378 174.628521 
L 429.204083 173.72704 
L 429.35888 173.572619 
L 429.503532 173.401505 
L 429.720496 173.07597 
L 430.023579 172.821385 
L 430.217338 172.587667 
L 431.381159 171.118587 
L 431.753871 170.776358 
L 433.097473 168.910792 
L 433.555272 168.334846 
L 433.692123 168.030179 
L 433.803697 167.838196 
L 433.965747 167.420844 
L 434.035246 166.736386 
L 434.146629 166.389983 
L 434.169468 166.177134 
L 434.281418 165.747261 
L 434.358869 165.505196 
L 434.481068 164.925076 
L 434.738817 164.499377 
L 434.864895 164.253139 
L 435.452912 162.942652 
L 436.237338 162.487738 
L 436.385697 162.375053 
L 436.604829 162.208112 
L 436.842923 162.011956 
L 437.168798 161.723983 
L 437.280734 161.548695 
L 438.219804 160.463579 
L 438.330729 160.388455 
L 438.73835 159.971103 
L 438.966502 159.703997 
L 439.568093 159.052927 
L 439.963582 158.844251 
L 440.202545 158.773301 
L 440.772429 158.598013 
L 440.893894 158.560451 
L 441.581053 158.330908 
L 441.693144 158.280825 
L 442.014758 158.113884 
L 443.050255 157.279179 
L 443.216051 157.153974 
L 443.969957 156.548813 
L 444.118893 156.41526 
L 444.239595 156.310922 
L 444.494024 156.164848 
L 444.710939 156.002081 
L 446.60893 154.9587 
L 446.765771 154.808453 
L 447.608904 154.616471 
L 447.774601 154.562215 
L 448.286954 154.366059 
L 449.980111 153.510487 
L 454.114289 152.805161 
L 455.277663 152.659088 
L 455.731757 152.592311 
L 461.94449 151.774301 
L 463.251956 151.628227 
L 467.482062 151.073148 
L 469.49504 150.918728 
L 469.765727 150.889513 
L 492.649202 148.631637 
L 493.524614 148.543993 
L 495.375656 148.385399 
L 500.563985 147.997261 
L 503.458913 147.838667 
L 509.335848 147.204291 
L 509.88062 147.120821 
L 520.326646 146.169257 
L 522.448255 146.010663 
L 529.326092 145.388808 
L 530.029422 145.28447 
L 534.23784 144.746085 
L 534.465926 144.696003 
L 535.208634 144.524889 
L 535.424737 144.466459 
L 535.736041 144.211874 
L 535.911146 144.099189 
L 536.158057 143.919727 
L 537.111059 143.385516 
L 537.346681 143.226922 
L 537.63769 142.913908 
L 537.84287 142.734447 
L 537.954644 142.592547 
L 538.085777 142.433953 
L 538.294618 141.883048 
L 538.880049 141.294581 
L 538.999891 141.12764 
L 540.877603 138.444063 
L 541.23155 138.018364 
L 541.38731 137.659441 
L 542.197751 136.987503 
L 542.397599 136.837256 
L 542.50885 136.749612 
L 542.979978 136.515895 
L 543.202407 136.465813 
L 543.904577 136.33226 
L 546.510173 135.585199 
L 547.155693 135.39739 
L 547.985499 135.222102 
L 549.069221 134.904915 
L 549.209102 134.833965 
L 550.430612 134.303927 
L 550.550356 134.245498 
L 552.544928 133.515131 
L 552.651485 133.465049 
L 553.868715 133.126993 
L 553.972289 133.110299 
L 554.565512 132.918317 
L 554.691428 132.889102 
L 555.988173 132.455056 
L 556.351864 132.313156 
L 561.011637 130.564449 
L 561.646164 130.347426 
L 561.754373 130.326558 
L 562.353207 130.184658 
L 568.118442 128.807395 
L 569.210115 128.636281 
L 571.751231 128.035293 
L 571.890473 127.964343 
L 572.268208 127.814096 
L 573.107212 127.46352 
L 573.269241 127.405091 
L 574.554166 126.975218 
L 577.015035 126.382577 
L 577.694773 126.223984 
L 579.862333 125.581261 
L 580.362732 125.439361 
L 581.38607 125.205644 
L 581.501739 125.159735 
L 582.270716 124.951059 
L 582.517886 124.855067 
L 586.449972 123.995321 
L 587.286231 123.870116 
L 587.416931 123.820033 
L 588.584026 123.59049 
L 589.784592 123.37764 
L 592.288506 122.926899 
L 592.799058 122.81004 
L 593.50419 122.668141 
L 595.898406 122.254962 
L 599.417034 121.557983 
L 601.642265 121.207407 
L 603.129119 120.961169 
L 604.087322 120.83179 
L 606.201844 120.32262 
L 606.425362 120.247496 
L 607.228588 119.830144 
L 607.562799 119.621468 
L 607.897475 119.38775 
L 608.019666 119.329321 
L 608.195683 119.195768 
L 608.277306 119.108124 
L 608.748914 118.957877 
L 608.871858 118.916142 
L 610.544092 118.44036 
L 611.186803 118.302634 
L 611.374015 118.227511 
L 611.855194 118.098131 
L 613.298404 117.743382 
L 613.45662 117.709994 
L 614.897893 117.363591 
L 615.669719 117.021362 
L 616.758151 116.612357 
L 616.880225 116.566448 
L 617.483616 116.366119 
L 617.614938 116.32021 
L 617.905041 116.224219 
L 618.760267 115.815213 
L 618.912613 115.619058 
L 620.281571 115.193358 
L 620.395257 114.997203 
L 620.733221 114.855303 
L 621.094666 114.746791 
L 621.598597 114.609065 
L 621.958169 114.396215 
L 622.252876 114.250142 
L 622.579564 114.024771 
L 622.721128 113.782707 
L 623.536428 113.206761 
L 624.146955 112.534823 
L 624.46245 112.38875 
L 624.658954 112.305279 
L 625.267186 112.096603 
L 625.793851 111.929662 
L 625.940015 111.871233 
L 626.603285 111.658383 
L 628.613851 110.652564 
L 629.062549 110.510664 
L 629.206516 110.381284 
L 629.354904 110.155914 
L 629.961956 109.809512 
L 630.091154 109.650918 
L 630.303027 109.500671 
L 630.803176 109.254433 
L 631.483399 108.511545 
L 631.603588 108.382166 
L 632.344382 107.80622 
L 632.681642 107.681014 
L 633.49304 107.43895 
L 633.840367 107.288703 
L 634.165404 107.109241 
L 634.386247 107.021597 
L 635.239741 106.762839 
L 635.979237 106.620939 
L 636.640104 106.374701 
L 636.794221 106.307925 
L 637.428552 106.061687 
L 637.599157 105.999084 
L 637.958627 105.861357 
L 638.729781 105.635987 
L 639.047755 105.573384 
L 639.449468 105.460699 
L 640.544997 105.151858 
L 640.981431 104.997438 
L 641.318726 104.863885 
L 641.870493 104.684424 
L 643.144519 104.216989 
L 644.228597 103.929016 
L 644.386974 103.862239 
L 646.695493 103.044228 
L 646.847221 102.923196 
L 647.359793 102.543405 
L 647.535352 102.368117 
L 647.851613 102.080144 
L 647.970949 101.967459 
L 648.151967 101.808865 
L 648.46982 101.516718 
L 648.626543 101.378992 
L 650.99905 100.45247 
L 651.561575 100.256314 
L 652.568441 99.826441 
L 652.829212 99.676194 
L 652.940356 99.617765 
L 655.652304 98.06104 
L 655.926055 97.844017 
L 656.128882 97.689596 
L 656.287195 97.576911 
L 656.469941 97.447532 
L 656.598134 97.33902 
L 656.871671 97.188773 
L 657.17309 97.009312 
L 657.313542 96.913321 
L 658.20688 96.500142 
L 658.317753 96.433366 
L 659.263921 95.765602 
L 661.104078 94.964285 
L 661.268655 94.8516 
L 662.875566 93.524419 
L 663.035685 86.466989 
L 663.225713 84.192418 
L 663.419017 83.662381 
L 663.759229 82.748379 
L 663.975261 82.497967 
L 664.296366 81.446239 
L 664.463137 80.836904 
L 664.501353 80.586493 
L 665.02994 78.775183 
L 665.601612 78.362004 
L 665.718762 78.245146 
L 665.9018 78.03647 
L 666.089221 77.90709 
L 666.506699 77.569035 
L 666.833963 77.410441 
L 666.952266 77.322797 
L 668.244652 76.091607 
L 668.421573 75.753552 
L 668.613504 75.423843 
L 668.698151 75.252729 
L 668.905659 74.793641 
L 669.80845 73.733566 
L 670.754934 72.999025 
L 670.913145 72.782002 
L 671.135798 72.539938 
L 671.377807 72.256138 
L 671.490011 72.026594 
L 671.621167 71.897215 
L 671.741901 71.746968 
L 671.812098 71.550812 
L 671.968089 70.807925 
L 672.016374 70.661852 
L 672.160521 70.265367 
L 672.198411 70.094252 
L 672.314419 69.74785 
L 672.382185 69.589256 
L 672.886397 68.612651 
L 673.063095 68.483272 
L 673.56756 67.961581 
L 674.011543 67.481626 
L 674.12936 67.3439 
L 674.278465 67.143571 
L 674.39842 66.97663 
L 675.723012 66.096016 
L 677.170809 65.607714 
L 677.466636 65.119411 
L 677.52925 62.811452 
L 677.714328 52.736564 
L 677.833557 52.523714 
L 678.36116 52.36512 
L 678.52516 52.164791 
L 679.065428 52.027065 
L 679.255361 51.889338 
L 679.341227 51.835083 
L 679.46 51.830909 
L 679.46 51.830909 
" clip-path="url(#pfc9c950f28)" style="fill: none; stroke: #0072b2; stroke-width: 2.5; stroke-linecap: square"/>
   </g>
   <g id="line2d_24">
    <path d="M 84.66 435.649091 
L 85.191326 435.599009 
L 85.642486 435.48215 
L 86.525543 435.190003 
L 86.65144 435.148268 
L 87.312563 434.872815 
L 87.841363 434.551454 
L 88.67712 433.637452 
L 88.800355 433.537288 
L 88.920236 433.403735 
L 89.179461 433.178364 
L 89.390178 432.886218 
L 89.921563 432.293577 
L 90.080366 432.160024 
L 90.569886 431.69259 
L 90.753023 431.458872 
L 90.941542 431.137511 
L 91.059833 431.003958 
L 91.19533 430.882926 
L 91.336468 430.703464 
L 91.717683 430.386276 
L 91.856698 430.210988 
L 91.984617 430.052395 
L 92.215338 429.722686 
L 92.409034 429.459754 
L 92.493493 429.296987 
L 92.620785 428.913022 
L 92.715564 428.729387 
L 92.846735 428.387158 
L 92.928367 428.224391 
L 93.213262 427.836253 
L 94.055686 426.943119 
L 94.166459 426.805392 
L 94.433018 426.525766 
L 94.656941 426.17519 
L 94.854695 425.970688 
L 94.978792 425.853829 
L 95.306126 425.611764 
L 95.835413 424.084254 
L 98.451087 417.849009 
L 98.639433 417.097774 
L 98.677558 416.92666 
L 98.77367 416.463399 
L 99.064737 414.685477 
L 99.116662 414.418372 
L 99.2423 413.487676 
L 99.358317 413.003547 
L 99.524768 411.918431 
L 99.680743 411.192237 
L 99.865038 410.299103 
L 99.918069 410.031997 
L 100.362119 408.299985 
L 100.460754 407.945235 
L 100.759649 406.576319 
L 100.817169 406.334255 
L 100.987254 405.520417 
L 101.486356 403.112294 
L 101.699889 401.317678 
L 102.895903 389.765362 
L 102.920923 389.594248 
L 103.27984 386.313858 
L 103.760291 382.173721 
L 103.898798 381.309802 
L 104.130669 379.694648 
L 104.16549 379.373286 
L 104.313404 377.887512 
L 104.406924 376.948469 
L 104.561404 375.345835 
L 104.648445 374.294107 
L 105.604542 363.45129 
L 105.690268 362.591544 
L 105.811402 361.076555 
L 106.060977 358.355417 
L 106.713361 350.646917 
L 106.853096 347.120289 
L 106.920616 344.845718 
L 107.604226 326.949645 
L 107.688338 326.027296 
L 107.813418 324.867056 
L 107.852309 324.566562 
L 108.106942 322.246083 
L 108.212967 321.265305 
L 108.381527 319.804571 
L 108.47864 318.840487 
L 109.479759 305.652149 
L 110.111342 293.690828 
L 110.153046 293.031411 
L 110.319759 290.623288 
L 110.459823 288.469749 
L 110.618154 284.813741 
L 111.606444 268.662202 
L 111.63533 268.240676 
L 113.021675 244.727039 
L 113.33111 237.573618 
L 113.355438 237.006018 
L 113.484404 233.153855 
L 113.558007 229.877638 
L 113.686902 223.709169 
L 113.899986 218.158381 
L 114.163782 210.875581 
L 115.05087 170.713755 
L 115.203045 169.753844 
L 115.404151 168.393275 
L 115.473726 167.758899 
L 115.594893 166.239737 
L 115.747471 164.524418 
L 115.908976 162.696414 
L 116.378097 155.847661 
L 116.555066 152.909499 
L 116.647502 150.927075 
L 117.004077 143.197708 
L 117.3058 137.112709 
L 117.386032 136.040113 
L 117.50614 134.207936 
L 117.559362 133.56104 
L 117.726781 131.520186 
L 117.811581 130.73139 
L 118.005869 128.974336 
L 118.115145 128.026946 
L 119.538074 118.598954 
L 120.108782 113.594898 
L 120.313847 108.423901 
L 120.611783 100.544287 
L 120.761907 99.06686 
L 121.167428 94.776476 
L 121.201805 94.576147 
L 121.401083 92.998555 
L 121.469405 92.439303 
L 121.59834 91.483565 
L 121.642409 91.279063 
L 122.50363 87.49785 
L 123.92765 84.684894 
L 124.222137 84.309277 
L 125.393938 81.533883 
L 125.710813 80.824384 
L 126.330924 79.217577 
L 126.529478 78.470516 
L 126.978338 75.970575 
L 127.103901 75.148391 
L 127.171638 74.747732 
L 127.346174 70.928957 
L 127.521096 65.507549 
L 127.537339 65.131932 
L 127.773916 63.379051 
L 127.840459 63.070211 
L 128.084551 61.839021 
L 128.132053 61.576089 
L 128.312265 60.520187 
L 128.592559 58.708877 
L 129.000328 56.058689 
L 129.045137 55.770716 
L 129.236877 54.885929 
L 129.591218 53.629698 
L 131.127984 51.864297 
L 131.271561 51.830909 
L 131.271561 51.830909 
" clip-path="url(#pfc9c950f28)" style="fill: none; stroke: #d55e00; stroke-width: 2.5; stroke-linecap: square"/>
   </g>
   <g id="line2d_25">
    <path d="M 85.483694 435.649091 
L 85.799276 435.490497 
L 85.918866 435.457109 
L 88.503067 434.780998 
L 91.289409 434.292695 
L 91.967784 434.150796 
L 92.772623 434.021416 
L 93.375205 433.866996 
L 95.23284 433.29105 
L 95.51497 432.210107 
L 95.629365 431.684243 
L 95.835972 431.400443 
L 96.363722 431.279411 
L 96.741579 431.079082 
L 96.892417 431.008132 
L 97.126438 430.832844 
L 98.162443 429.948056 
L 98.270697 429.918842 
L 98.485423 429.789462 
L 98.932455 429.309507 
L 99.455326 429.167607 
L 99.734736 428.733561 
L 100.059112 428.587487 
L 100.835542 428.299514 
L 101.472623 428.086664 
L 102.038688 427.936418 
L 102.170515 427.890509 
L 103.325131 427.11006 
L 103.478421 426.872169 
L 103.706973 426.730269 
L 103.916039 426.655146 
L 104.2684 426.596716 
L 104.446583 426.471511 
L 104.621761 426.392214 
L 105.230237 426.296222 
L 105.986321 426.16267 
L 106.33936 425.862176 
L 107.12835 425.640979 
L 109.508349 425.394741 
L 110.15094 425.173544 
L 110.269521 425.056686 
L 110.394611 424.989909 
L 110.482856 424.969042 
L 110.826928 424.843836 
L 111.408891 424.639333 
L 111.544256 424.597598 
L 111.954332 424.439004 
L 112.64288 424.26789 
L 113.333803 424.084254 
L 113.673278 423.988263 
L 114.640831 423.792108 
L 115.016759 423.754546 
L 118.560325 423.399796 
L 119.790765 423.26207 
L 123.186081 422.807156 
L 125.275459 422.569265 
L 125.664346 422.515009 
L 126.98059 422.360589 
L 127.832194 422.201995 
L 129.771393 421.826378 
L 131.199037 421.692825 
L 134.392377 421.413199 
L 134.505217 421.400678 
L 146.904037 419.91073 
L 147.039695 419.722921 
L 147.172471 419.47251 
L 147.483116 419.130281 
L 147.595404 419.013422 
L 147.759246 418.846481 
L 147.946609 418.654499 
L 148.157161 418.45417 
L 148.258565 418.328964 
L 148.459521 418.153676 
L 148.61707 418.057685 
L 148.844001 417.915785 
L 148.982218 417.840662 
L 149.268254 417.694588 
L 149.770961 417.394095 
L 149.957074 417.323145 
L 151.028942 416.743025 
L 151.181993 416.63034 
L 156.4092 414.53523 
L 156.670509 414.414198 
L 157.759303 414.042755 
L 160.690941 412.256486 
L 161.010854 412.127107 
L 161.195041 412.064504 
L 161.730861 411.860001 
L 161.881291 411.801572 
L 162.248611 411.659672 
L 162.368933 411.605416 
L 162.855778 411.438475 
L 163.085112 411.32579 
L 163.648333 411.092073 
L 163.79073 411.02947 
L 164.21431 410.824967 
L 164.368716 410.741497 
L 165.520415 410.215633 
L 166.947333 409.622992 
L 167.709971 409.405969 
L 168.450188 409.105475 
L 168.974264 408.946881 
L 169.2059 408.825849 
L 169.986597 408.612999 
L 170.13707 408.550396 
L 171.127792 408.27077 
L 171.572915 408.11635 
L 172.957305 407.715691 
L 173.081509 407.669783 
L 175.697607 407.089663 
L 175.840386 407.072969 
L 176.505028 406.922722 
L 176.725417 406.860119 
L 177.508707 406.634748 
L 180.780187 405.850126 
L 180.864704 405.812564 
L 181.460242 405.658144 
L 181.557914 405.64145 
L 182.601514 405.311741 
L 182.715749 405.249138 
L 186.511431 404.297575 
L 186.657052 404.251666 
L 187.775763 403.859355 
L 188.842848 403.508779 
L 190.538058 403.120641 
L 190.84118 403.058038 
L 192.692988 402.699115 
L 203.537818 399.280998 
L 203.919441 399.026413 
L 204.151082 398.892861 
L 204.26252 398.805217 
L 204.621146 398.571499 
L 205.140166 398.316914 
L 205.493246 398.175014 
L 206.230686 397.816091 
L 206.46778 397.690885 
L 207.478721 397.340309 
L 208.057243 397.135807 
L 208.600772 396.947998 
L 208.719194 396.868701 
L 209.214892 396.672545 
L 211.404905 396.013129 
L 218.045807 394.306157 
L 218.913848 394.089134 
L 231.729298 390.257838 
L 232.649263 389.56086 
L 232.765661 389.43148 
L 232.949601 389.272887 
L 233.107483 389.160201 
L 235.004935 387.941532 
L 235.150274 387.795459 
L 235.481096 387.474097 
L 235.900937 387.211165 
L 236.013926 387.140215 
L 236.328085 386.977448 
L 236.46124 386.789639 
L 236.639073 386.635219 
L 237.14623 386.464105 
L 237.288129 386.414022 
L 237.589887 386.255428 
L 237.822795 386.130223 
L 238.591229 385.904852 
L 238.808926 385.858943 
L 239.624989 385.600185 
L 239.745921 385.55845 
L 240.465057 385.299691 
L 240.86632 385.095188 
L 241.225344 384.9199 
L 241.311743 384.869818 
L 241.645517 384.744612 
L 242.62236 384.427425 
L 242.797382 384.339781 
L 243.791101 383.993378 
L 243.9591 383.926602 
L 244.186167 383.776355 
L 244.308125 383.680364 
L 245.027931 383.212929 
L 245.214391 383.066856 
L 245.448633 382.920782 
L 245.8802 382.732974 
L 246.365702 382.486736 
L 246.495161 382.403265 
L 246.713668 382.248845 
L 246.926556 382.169548 
L 247.587528 381.914963 
L 247.795865 381.806451 
L 248.454186 381.522652 
L 248.623604 381.464222 
L 249.161692 381.255546 
L 249.305139 381.20129 
L 250.27173 380.946705 
L 251.990373 380.587782 
L 252.23142 380.462576 
L 252.495117 380.057744 
L 252.637241 379.832374 
L 252.943024 378.509367 
L 253.008284 376.305746 
L 253.220378 366.143214 
L 253.905796 362.750138 
L 253.956068 362.624933 
L 254.073813 362.161671 
L 254.188316 361.873698 
L 254.306925 361.301925 
L 254.424841 360.955523 
L 254.558771 360.646682 
L 254.657398 360.433832 
L 254.746597 359.983091 
L 254.967867 359.190122 
L 255.010376 358.985619 
L 255.208141 358.06327 
L 255.274764 357.817032 
L 255.510682 356.802866 
L 255.561796 356.648445 
L 255.765312 355.333785 
L 255.839365 351.448234 
L 255.993355 345.54687 
L 256.219778 344.595307 
L 256.281752 344.361589 
L 256.468036 343.777296 
L 256.68814 343.088664 
L 256.779028 342.888335 
L 257.058177 342.011895 
L 257.445111 340.864176 
L 257.687587 340.221453 
L 257.836164 339.449351 
L 258.384369 337.913494 
L 258.670031 337.679776 
L 258.805256 337.479447 
L 259.012755 337.31668 
L 260.1762 336.469454 
L 260.638581 336.273299 
L 264.299137 334.282528 
L 264.717757 334.082198 
L 265.265795 333.852655 
L 265.519718 333.694061 
L 266.180025 333.418608 
L 266.357657 333.305923 
L 266.771306 333.047164 
L 266.932552 332.926132 
L 267.2724 332.738323 
L 267.410867 332.621465 
L 269.414012 331.995436 
L 269.596651 331.899445 
L 270.183273 331.661554 
L 270.301847 331.611472 
L 270.835178 331.336019 
L 270.955154 331.260896 
L 271.376009 331.093955 
L 271.557284 331.010484 
L 272.657669 330.597305 
L 273.620916 330.184126 
L 274.072172 330.000491 
L 274.462437 329.829377 
L 275.131809 329.570618 
L 275.531749 329.403677 
L 279.269128 328.239264 
L 284.961211 325.860355 
L 285.652577 325.664199 
L 285.774126 325.634985 
L 286.3586 325.447176 
L 287.038518 325.230153 
L 287.729322 324.904618 
L 287.858263 324.837842 
L 288.098819 324.712636 
L 288.391124 324.562389 
L 289.320963 324.190945 
L 289.434814 324.136689 
L 289.979613 323.986443 
L 292.73441 323.014011 
L 292.821166 322.97645 
L 293.145349 322.822029 
L 293.514715 322.613353 
L 293.811234 322.463106 
L 293.963735 322.404677 
L 294.317642 322.237736 
L 294.858213 321.974804 
L 294.999968 321.908027 
L 297.468932 321.035761 
L 298.0004 320.889687 
L 298.148788 320.831258 
L 298.286575 320.710226 
L 300.801214 319.28288 
L 301.243669 319.099245 
L 301.356112 319.061684 
L 301.786432 318.865528 
L 302.093478 318.69024 
L 302.392412 318.519125 
L 302.534131 318.33549 
L 302.67171 318.143508 
L 303.018012 317.947353 
L 303.128382 317.880576 
L 304.06903 317.563388 
L 304.441631 317.417315 
L 304.87325 317.2462 
L 304.990395 317.204465 
L 305.629556 316.945707 
L 305.979566 316.799633 
L 307.066717 316.415669 
L 307.549032 316.14439 
L 307.925276 315.956581 
L 310.090864 315.138571 
L 310.961707 314.925721 
L 312.453094 314.24961 
L 312.561218 314.17866 
L 312.944474 313.95329 
L 313.058456 313.907381 
L 313.37327 313.586019 
L 313.676398 313.097717 
L 313.777276 312.926603 
L 314.009192 312.626109 
L 314.181928 312.442474 
L 314.350135 312.217103 
L 314.518263 311.995907 
L 314.79658 311.591075 
L 314.93241 311.353184 
L 315.130324 311.023475 
L 315.248368 310.852361 
L 316.704024 308.840722 
L 317.073099 308.323205 
L 317.487612 307.296518 
L 317.562949 307.079495 
L 317.689376 306.791522 
L 317.755728 306.628754 
L 319.823687 302.9644 
L 319.952246 302.818326 
L 320.198156 302.430188 
L 321.194831 300.948587 
L 321.397955 300.631399 
L 321.536016 300.364294 
L 321.72219 299.99285 
L 321.86424 299.70905 
L 321.979312 299.475333 
L 322.447347 298.25249 
L 322.607826 297.643156 
L 322.667113 297.209109 
L 323.107383 289.037348 
L 323.59882 261.588078 
L 323.821957 260.169079 
L 323.937513 259.526356 
L 324.450523 256.396213 
L 324.571986 255.61159 
L 324.631316 255.190065 
L 324.767616 254.221807 
L 324.932585 253.149211 
L 325.02954 252.619173 
L 325.155858 251.66761 
L 325.521179 248.166023 
L 325.564077 247.857182 
L 325.710131 246.834668 
L 325.93749 245.457405 
L 326.089499 244.459933 
L 326.139174 244.021713 
L 326.260996 242.773829 
L 326.404867 241.659498 
L 327.827985 232.523653 
L 327.93915 231.083787 
L 327.995193 230.741558 
L 328.228873 229.727391 
L 328.341625 229.535409 
L 328.46383 229.25161 
L 328.56074 229.126404 
L 328.67316 228.901034 
L 328.768598 228.767481 
L 328.884379 228.475334 
L 329.804874 223.976275 
L 330.012657 223.725863 
L 330.130374 223.492146 
L 330.716998 222.319385 
L 331.013903 221.722571 
L 331.072967 221.559804 
L 331.477074 220.812743 
L 331.680282 220.53729 
L 331.829466 220.153326 
L 333.398221 217.674253 
L 333.533119 217.014836 
L 333.67781 216.651739 
L 334.469881 215.87129 
L 334.615861 215.437244 
L 334.730691 215.29117 
L 334.909094 215.028238 
L 335.023827 214.873818 
L 335.150331 214.560803 
L 335.273937 214.427251 
L 335.561784 214.281177 
L 335.836335 214.018245 
L 336.041478 213.772007 
L 336.355531 213.521596 
L 336.568552 213.31292 
L 336.82716 213.154326 
L 336.939156 213.125111 
L 337.024123 212.983211 
L 337.148543 212.912261 
L 337.323199 212.7328 
L 337.578391 212.444826 
L 338.127292 212.098424 
L 339.489795 211.188596 
L 339.635146 211.067563 
L 339.800929 210.888102 
L 340.002248 210.675252 
L 340.944313 210.195297 
L 342.300873 208.980801 
L 342.783264 208.651093 
L 344.389484 206.101069 
L 344.55244 205.600246 
L 344.879323 204.773888 
L 345.002761 204.58608 
L 345.114055 204.398271 
L 345.406371 204.14786 
L 345.541127 203.997613 
L 345.682501 203.788937 
L 345.846488 203.363237 
L 346.405646 202.520185 
L 346.61979 202.157089 
L 346.877413 201.760604 
L 346.988141 201.53106 
L 347.462757 200.479332 
L 347.582606 200.128756 
L 347.760783 199.744791 
L 347.923647 199.598718 
L 350.051766 197.169727 
L 350.218392 196.969398 
L 351.263843 195.78829 
L 351.589371 195.500317 
L 351.88002 194.928544 
L 352.147172 194.744909 
L 352.391382 194.48615 
L 354.052974 192.658147 
L 354.266493 192.336785 
L 354.924348 191.610592 
L 355.154214 191.477039 
L 355.552406 191.19324 
L 355.835377 190.888572 
L 355.947379 190.775887 
L 356.181407 190.600599 
L 356.310515 190.354361 
L 356.726452 189.903621 
L 356.944158 189.244204 
L 357.241394 187.866941 
L 357.380571 187.311862 
L 357.47572 187.165788 
L 357.841087 186.802692 
L 357.945644 186.619057 
L 358.244114 185.963813 
L 358.503494 185.684187 
L 358.634362 185.546461 
L 358.959981 185.2251 
L 359.074642 185.108241 
L 359.207655 184.907912 
L 359.321943 184.745144 
L 359.505004 184.561509 
L 359.615827 184.390395 
L 359.963276 183.897919 
L 360.536731 183.347014 
L 360.649496 183.238502 
L 360.917111 183.042346 
L 361.038326 182.887926 
L 361.353924 182.641688 
L 361.529417 182.449706 
L 361.63593 182.311979 
L 361.803575 182.157559 
L 361.991517 181.986445 
L 362.198399 181.627521 
L 362.318302 181.456407 
L 362.756944 180.959758 
L 362.867772 180.742734 
L 363.011694 180.379638 
L 363.466335 176.769539 
L 364.060958 175.404796 
L 364.215881 175.150211 
L 364.473165 174.524183 
L 364.601497 174.328027 
L 364.717717 174.152739 
L 364.911635 173.96493 
L 365.047196 173.676957 
L 365.163626 172.942417 
L 365.285329 172.220397 
L 365.436904 171.323089 
L 366.117302 168.20964 
L 366.245897 167.679603 
L 366.286899 167.437538 
L 366.579225 166.523536 
L 366.789471 166.344075 
L 367.56427 165.171314 
L 367.730876 165.01272 
L 367.855586 164.8583 
L 368.093215 164.520244 
L 368.182104 164.361651 
L 368.523051 163.781531 
L 368.661591 163.489384 
L 368.814587 163.318269 
L 370.117728 161.465225 
L 370.487513 161.01031 
L 371.066297 160.655561 
L 371.423452 160.467752 
L 371.521343 160.413496 
L 371.89511 160.221514 
L 372.028294 160.138044 
L 372.565482 159.900153 
L 372.672441 159.83755 
L 373.730127 159.378462 
L 375.422966 158.460287 
L 375.95745 157.896861 
L 376.234617 157.633929 
L 376.315968 157.416906 
L 376.664965 155.655678 
L 376.79115 150.856125 
L 376.99731 149.170021 
L 377.139892 148.957172 
L 377.647779 148.418787 
L 379.528238 147.446356 
L 380.059833 147.287762 
L 380.235515 147.2502 
L 381.538447 146.803633 
L 381.766674 146.707642 
L 382.340413 146.507313 
L 383.305672 146.152563 
L 384.124142 145.572443 
L 384.243943 145.455584 
L 385.028979 145.050753 
L 385.146217 144.938067 
L 386.24475 144.149271 
L 386.368415 143.957289 
L 387.248727 142.847132 
L 387.362481 142.663497 
L 387.675211 142.438126 
L 387.802165 142.296226 
L 388.028542 142.108418 
L 388.66407 141.290407 
L 388.779208 141.169375 
L 388.982004 140.964872 
L 389.113318 140.85636 
L 389.257295 140.693593 
L 389.385869 140.597602 
L 389.660476 140.167729 
L 389.821002 140.017482 
L 389.939595 139.925665 
L 390.27632 139.587609 
L 390.627497 139.274595 
L 391.116107 138.819681 
L 391.351107 138.669434 
L 391.735066 138.189478 
L 391.807461 138.01419 
L 392.408562 136.549283 
L 392.534065 136.419904 
L 392.686828 136.207054 
L 393.139614 135.647802 
L 393.314137 135.134458 
L 393.76016 134.633635 
L 393.930828 134.483389 
L 394.719295 133.440007 
L 394.808049 133.256372 
L 394.92328 133.076911 
L 395.013144 132.92249 
L 396.279045 129.967635 
L 396.496403 123.607184 
L 396.616113 115.852775 
L 396.733634 115.422902 
L 396.825061 115.264308 
L 396.96728 115.055632 
L 397.123165 114.788526 
L 397.299 114.517247 
L 397.454204 114.350306 
L 397.830099 113.895392 
L 398.019569 113.665848 
L 398.164347 113.411263 
L 398.316104 113.202587 
L 398.429883 113.056514 
L 398.735874 112.801929 
L 398.844885 112.676723 
L 400.56733 110.560746 
L 400.740546 110.397979 
L 400.97115 110.13922 
L 401.100412 109.880462 
L 401.178251 109.705174 
L 401.345635 109.283648 
L 401.41844 109.129227 
L 401.845328 107.764485 
L 402.59617 106.875524 
L 402.759227 106.437304 
L 403.822459 105.26037 
L 403.964698 105.022479 
L 404.098139 104.801282 
L 404.373864 104.358889 
L 404.651621 103.853892 
L 404.900858 103.620175 
L 405.265556 103.315507 
L 405.695463 102.739561 
L 405.840478 101.733742 
L 406.073244 101.283001 
L 406.454933 100.999201 
L 406.603055 100.757137 
L 407.792528 100.227099 
L 413.193105 99.258842 
L 415.401835 98.958348 
L 415.691777 98.92496 
L 420.042092 98.211287 
L 420.394418 98.157031 
L 421.338513 97.998437 
L 422.494218 97.739679 
L 422.614454 97.706291 
L 423.492216 97.485094 
L 423.902026 97.380756 
L 425.332388 97.226335 
L 425.955868 97.121997 
L 427.391028 96.896627 
L 431.221839 95.853246 
L 435.664583 94.814038 
L 437.242523 94.008548 
L 439.227245 93.670492 
L 439.686717 93.591195 
L 440.611277 93.319916 
L 440.848779 92.965167 
L 440.933041 92.785705 
L 441.342557 90.978569 
L 441.466954 90.611299 
L 441.644201 90.390102 
L 441.925117 90.218988 
L 442.116633 90.102129 
L 442.340303 89.9018 
L 442.455103 89.605479 
L 442.647595 88.148919 
L 442.743909 87.589667 
L 442.88496 86.466989 
L 443.085305 86.333436 
L 443.293809 86.170669 
L 444.15512 85.573855 
L 444.397764 85.398567 
L 445.163376 84.651506 
L 445.247301 84.15903 
L 445.521558 83.265896 
L 445.569421 83.073914 
L 446.085696 81.880286 
L 446.290658 81.68413 
L 446.418216 81.500495 
L 447.190069 80.853599 
L 448.250115 80.348602 
L 448.854035 80.043935 
L 449.129649 79.897861 
L 449.603121 79.693359 
L 450.144274 78.91291 
L 451.314979 76.742677 
L 451.629944 76.534001 
L 451.945532 76.342019 
L 452.502632 76.016484 
L 452.668737 75.720163 
L 453.150236 75.160911 
L 453.269014 75.031532 
L 453.402543 74.864591 
L 453.669132 74.488974 
L 454.099794 74.150918 
L 454.31141 73.842077 
L 454.574968 73.708525 
L 454.67331 73.579145 
L 454.916941 73.353775 
L 455.083597 73.207702 
L 455.457268 72.911381 
L 455.926016 72.74444 
L 456.125726 72.681838 
L 456.927825 72.360476 
L 457.917376 71.888868 
L 458.247342 71.738621 
L 460.408037 70.84966 
L 460.536773 70.762016 
L 460.819454 70.599249 
L 460.977371 70.515778 
L 461.342588 70.353011 
L 462.539344 69.806279 
L 462.899989 69.660206 
L 470.184142 66.813862 
L 470.396205 66.667789 
L 470.802479 66.475807 
L 471.155728 66.192007 
L 471.267965 66.016719 
L 472.147502 65.628581 
L 472.26301 65.553458 
L 472.789518 64.873173 
L 472.892934 64.664497 
L 473.694799 64.309747 
L 475.55785 63.316449 
L 475.694883 63.066037 
L 475.801744 62.982567 
L 476.214264 62.694593 
L 476.331274 62.636164 
L 476.641859 62.423314 
L 476.753966 62.081085 
L 476.967934 61.989268 
L 477.200837 61.839021 
L 477.321329 61.651212 
L 477.908192 60.344899 
L 478.253388 60.177958 
L 478.93403 59.205527 
L 479.032712 59.071974 
L 479.304708 58.742266 
L 479.464122 58.596192 
L 480.284284 56.985212 
L 480.423187 56.764015 
L 481.013686 56.125466 
L 482.143652 55.470222 
L 482.260672 55.357537 
L 482.608288 55.127993 
L 482.761071 55.061217 
L 482.957199 54.894276 
L 483.104795 54.76907 
L 483.213076 54.581262 
L 483.306601 54.506138 
L 483.511895 54.376759 
L 483.634442 54.284942 
L 484.643669 53.074619 
L 484.766876 52.920199 
L 485.287784 52.461111 
L 485.457646 52.302517 
L 485.582539 52.110535 
L 485.96481 51.964462 
L 486.95705 51.830909 
L 486.95705 51.830909 
" clip-path="url(#pfc9c950f28)" style="fill: none; stroke: #009e73; stroke-width: 2.5; stroke-linecap: square"/>
   </g>
   <g id="patch_3">
    <path d="M 54.92 454.84 
L 54.92 32.64 
" style="fill: none; stroke: #000000; stroke-width: 0.8; stroke-linejoin: miter; stroke-linecap: square"/>
   </g>
   <g id="patch_4">
    <path d="M 709.2 454.84 
L 709.2 32.64 
" style="fill: none; stroke: #000000; stroke-width: 0.8; stroke-linejoin: miter; stroke-linecap: square"/>
   </g>
   <g id="patch_5">
    <path d="M 54.92 454.84 
L 709.2 454.84 
" style="fill: none; stroke: #000000; stroke-width: 0.8; stroke-linejoin: miter; stroke-linecap: square"/>
   </g>
   <g id="patch_6">
    <path d="M 54.92 32.64 
L 709.2 32.64 
" style="fill: none; stroke: #000000; stroke-width: 0.8; stroke-linejoin: miter; stroke-linecap: square"/>
   </g>
   <g id="text_14">
    <!-- CDF Comparison -->
    <g transform="translate(289.270938 26.64) scale(0.2 -0.2)">
     <defs>
      <path id="DejaVuSans-Bold-43" d="M 4288 256 
Q 3956 84 3597 -3 
Q 3238 -91 2847 -91 
Q 1681 -91 1000 561 
Q 319 1213 319 2328 
Q 319 3447 1000 4098 
Q 1681 4750 2847 4750 
Q 3238 4750 3597 4662 
Q 3956 4575 4288 4403 
L 4288 3438 
Q 3953 3666 3628 3772 
Q 3303 3878 2944 3878 
Q 2300 3878 1931 3465 
Q 1563 3053 1563 2328 
Q 1563 1606 1931 1193 
Q 2300 781 2944 781 
Q 3303 781 3628 887 
Q 3953 994 4288 1222 
L 4288 256 
z
" transform="scale(0.015625)"/>
      <path id="DejaVuSans-Bold-44" d="M 1791 3756 
L 1791 909 
L 2222 909 
Q 2959 909 3348 1275 
Q 3738 1641 3738 2338 
Q 3738 3031 3350 3393 
Q 2963 3756 2222 3756 
L 1791 3756 
z
M 588 4666 
L 1856 4666 
Q 2919 4666 3439 4514 
Q 3959 4363 4331 4000 
Q 4659 3684 4818 3271 
Q 4978 2859 4978 2338 
Q 4978 1809 4818 1395 
Q 4659 981 4331 666 
Q 3956 303 3431 151 
Q 2906 0 1856 0 
L 588 0 
L 588 4666 
z
" transform="scale(0.015625)"/>
      <path id="DejaVuSans-Bold-46" d="M 588 4666 
L 3834 4666 
L 3834 3756 
L 1791 3756 
L 1791 2888 
L 3713 2888 
L 3713 1978 
L 1791 1978 
L 1791 0 
L 588 0 
L 588 4666 
z
" transform="scale(0.015625)"/>
      <path id="DejaVuSans-Bold-20" transform="scale(0.015625)"/>
      <path id="DejaVuSans-Bold-6f" d="M 2203 2784 
Q 1831 2784 1636 2517 
Q 1441 2250 1441 1747 
Q 1441 1244 1636 976 
Q 1831 709 2203 709 
Q 2569 709 2762 976 
Q 2956 1244 2956 1747 
Q 2956 2250 2762 2517 
Q 2569 2784 2203 2784 
z
M 2203 3584 
Q 3106 3584 3614 3096 
Q 4122 2609 4122 1747 
Q 4122 884 3614 396 
Q 3106 -91 2203 -91 
Q 1297 -91 786 396 
Q 275 884 275 1747 
Q 275 2609 786 3096 
Q 1297 3584 2203 3584 
z
" transform="scale(0.015625)"/>
      <path id="DejaVuSans-Bold-6d" d="M 3781 2919 
Q 3994 3244 4286 3414 
Q 4578 3584 4928 3584 
Q 5531 3584 5847 3212 
Q 6163 2841 6163 2131 
L 6163 0 
L 5038 0 
L 5038 1825 
Q 5041 1866 5042 1909 
Q 5044 1953 5044 2034 
Q 5044 2406 4934 2573 
Q 4825 2741 4581 2741 
Q 4263 2741 4089 2478 
Q 3916 2216 3909 1719 
L 3909 0 
L 2784 0 
L 2784 1825 
Q 2784 2406 2684 2573 
Q 2584 2741 2328 2741 
Q 2006 2741 1831 2477 
Q 1656 2213 1656 1722 
L 1656 0 
L 531 0 
L 531 3500 
L 1656 3500 
L 1656 2988 
Q 1863 3284 2130 3434 
Q 2397 3584 2719 3584 
Q 3081 3584 3359 3409 
Q 3638 3234 3781 2919 
z
" transform="scale(0.015625)"/>
      <path id="DejaVuSans-Bold-70" d="M 1656 506 
L 1656 -1331 
L 538 -1331 
L 538 3500 
L 1656 3500 
L 1656 2988 
Q 1888 3294 2169 3439 
Q 2450 3584 2816 3584 
Q 3463 3584 3878 3070 
Q 4294 2556 4294 1747 
Q 4294 938 3878 423 
Q 3463 -91 2816 -91 
Q 2450 -91 2169 54 
Q 1888 200 1656 506 
z
M 2400 2772 
Q 2041 2772 1848 2508 
Q 1656 2244 1656 1747 
Q 1656 1250 1848 986 
Q 2041 722 2400 722 
Q 2759 722 2948 984 
Q 3138 1247 3138 1747 
Q 3138 2247 2948 2509 
Q 2759 2772 2400 2772 
z
" transform="scale(0.015625)"/>
      <path id="DejaVuSans-Bold-61" d="M 2106 1575 
Q 1756 1575 1579 1456 
Q 1403 1338 1403 1106 
Q 1403 894 1545 773 
Q 1688 653 1941 653 
Q 2256 653 2472 879 
Q 2688 1106 2688 1447 
L 2688 1575 
L 2106 1575 
z
M 3816 1997 
L 3816 0 
L 2688 0 
L 2688 519 
Q 2463 200 2181 54 
Q 1900 -91 1497 -91 
Q 953 -91 614 226 
Q 275 544 275 1050 
Q 275 1666 698 1953 
Q 1122 2241 2028 2241 
L 2688 2241 
L 2688 2328 
Q 2688 2594 2478 2717 
Q 2269 2841 1825 2841 
Q 1466 2841 1156 2769 
Q 847 2697 581 2553 
L 581 3406 
Q 941 3494 1303 3539 
Q 1666 3584 2028 3584 
Q 2975 3584 3395 3211 
Q 3816 2838 3816 1997 
z
" transform="scale(0.015625)"/>
      <path id="DejaVuSans-Bold-72" d="M 3138 2547 
Q 2991 2616 2845 2648 
Q 2700 2681 2553 2681 
Q 2122 2681 1889 2404 
Q 1656 2128 1656 1613 
L 1656 0 
L 538 0 
L 538 3500 
L 1656 3500 
L 1656 2925 
Q 1872 3269 2151 3426 
Q 2431 3584 2822 3584 
Q 2878 3584 2943 3579 
Q 3009 3575 3134 3559 
L 3138 2547 
z
" transform="scale(0.015625)"/>
      <path id="DejaVuSans-Bold-69" d="M 538 3500 
L 1656 3500 
L 1656 0 
L 538 0 
L 538 3500 
z
M 538 4863 
L 1656 4863 
L 1656 3950 
L 538 3950 
L 538 4863 
z
" transform="scale(0.015625)"/>
      <path id="DejaVuSans-Bold-73" d="M 3272 3391 
L 3272 2541 
Q 2913 2691 2578 2766 
Q 2244 2841 1947 2841 
Q 1628 2841 1473 2761 
Q 1319 2681 1319 2516 
Q 1319 2381 1436 2309 
Q 1553 2238 1856 2203 
L 2053 2175 
Q 2913 2066 3209 1816 
Q 3506 1566 3506 1031 
Q 3506 472 3093 190 
Q 2681 -91 1863 -91 
Q 1516 -91 1145 -36 
Q 775 19 384 128 
L 384 978 
Q 719 816 1070 734 
Q 1422 653 1784 653 
Q 2113 653 2278 743 
Q 2444 834 2444 1013 
Q 2444 1163 2330 1236 
Q 2216 1309 1875 1350 
L 1678 1375 
Q 931 1469 631 1722 
Q 331 1975 331 2491 
Q 331 3047 712 3315 
Q 1094 3584 1881 3584 
Q 2191 3584 2531 3537 
Q 2872 3491 3272 3391 
z
" transform="scale(0.015625)"/>
      <path id="DejaVuSans-Bold-6e" d="M 4056 2131 
L 4056 0 
L 2931 0 
L 2931 347 
L 2931 1631 
Q 2931 2084 2911 2256 
Q 2891 2428 2841 2509 
Q 2775 2619 2662 2680 
Q 2550 2741 2406 2741 
Q 2056 2741 1856 2470 
Q 1656 2200 1656 1722 
L 1656 0 
L 538 0 
L 538 3500 
L 1656 3500 
L 1656 2988 
Q 1909 3294 2193 3439 
Q 2478 3584 2822 3584 
Q 3428 3584 3742 3212 
Q 4056 2841 4056 2131 
z
" transform="scale(0.015625)"/>
     </defs>
     <use xlink:href="#DejaVuSans-Bold-43"/>
     <use xlink:href="#DejaVuSans-Bold-44" transform="translate(73.388672 0)"/>
     <use xlink:href="#DejaVuSans-Bold-46" transform="translate(156.396484 0)"/>
     <use xlink:href="#DejaVuSans-Bold-20" transform="translate(224.707031 0)"/>
     <use xlink:href="#DejaVuSans-Bold-43" transform="translate(259.521484 0)"/>
     <use xlink:href="#DejaVuSans-Bold-6f" transform="translate(332.910156 0)"/>
     <use xlink:href="#DejaVuSans-Bold-6d" transform="translate(401.611328 0)"/>
     <use xlink:href="#DejaVuSans-Bold-70" transform="translate(505.810547 0)"/>
     <use xlink:href="#DejaVuSans-Bold-61" transform="translate(577.392578 0)"/>
     <use xlink:href="#DejaVuSans-Bold-72" transform="translate(644.873047 0)"/>
     <use xlink:href="#DejaVuSans-Bold-69" transform="translate(694.189453 0)"/>
     <use xlink:href="#DejaVuSans-Bold-73" transform="translate(728.466797 0)"/>
     <use xlink:href="#DejaVuSans-Bold-6f" transform="translate(787.988281 0)"/>
     <use xlink:href="#DejaVuSans-Bold-6e" transform="translate(856.689453 0)"/>
    </g>
   </g>
   <g id="legend_1">
    <g id="patch_7">
     <path d="M 489.14375 449.84 
L 702.2 449.84 
Q 704.2 449.84 704.2 447.84 
L 704.2 404.249375 
Q 704.2 402.249375 702.2 402.249375 
L 489.14375 402.249375 
Q 487.14375 402.249375 487.14375 404.249375 
L 487.14375 447.84 
Q 487.14375 449.84 489.14375 449.84 
z
" style="fill: #ffffff; opacity: 0.8; stroke: #cccccc; stroke-linejoin: miter"/>
    </g>
    <g id="line2d_26">
     <path d="M 491.14375 410.347812 
L 501.14375 410.347812 
L 511.14375 410.347812 
" style="fill: none; stroke: #0072b2; stroke-width: 2.5; stroke-linecap: square"/>
    </g>
    <g id="text_15">
     <!-- 2025-12-16_19-06_fastlio_odometry -->
     <g transform="translate(519.14375 413.847812) scale(0.1 -0.1)">
      <defs>
       <path id="DejaVuSans-35" d="M 691 4666 
L 3169 4666 
L 3169 4134 
L 1269 4134 
L 1269 2991 
Q 1406 3038 1543 3061 
Q 1681 3084 1819 3084 
Q 2600 3084 3056 2656 
Q 3513 2228 3513 1497 
Q 3513 744 3044 326 
Q 2575 -91 1722 -91 
Q 1428 -91 1123 -41 
Q 819 9 494 109 
L 494 744 
Q 775 591 1075 516 
Q 1375 441 1709 441 
Q 2250 441 2565 725 
Q 2881 1009 2881 1497 
Q 2881 1984 2565 2268 
Q 2250 2553 1709 2553 
Q 1456 2553 1204 2497 
Q 953 2441 691 2322 
L 691 4666 
z
" transform="scale(0.015625)"/>
       <path id="DejaVuSans-2d" d="M 313 2009 
L 1997 2009 
L 1997 1497 
L 313 1497 
L 313 2009 
z
" transform="scale(0.015625)"/>
       <path id="DejaVuSans-5f" d="M 3263 -1063 
L 3263 -1509 
L -63 -1509 
L -63 -1063 
L 3263 -1063 
z
" transform="scale(0.015625)"/>
       <path id="DejaVuSans-39" d="M 703 97 
L 703 672 
Q 941 559 1184 500 
Q 1428 441 1663 441 
Q 2288 441 2617 861 
Q 2947 1281 2994 2138 
Q 2813 1869 2534 1725 
Q 2256 1581 1919 1581 
Q 1219 1581 811 2004 
Q 403 2428 403 3163 
Q 403 3881 828 4315 
Q 1253 4750 1959 4750 
Q 2769 4750 3195 4129 
Q 3622 3509 3622 2328 
Q 3622 1225 3098 567 
Q 2575 -91 1691 -91 
Q 1453 -91 1209 -44 
Q 966 3 703 97 
z
M 1959 2075 
Q 2384 2075 2632 2365 
Q 2881 2656 2881 3163 
Q 2881 3666 2632 3958 
Q 2384 4250 1959 4250 
Q 1534 4250 1286 3958 
Q 1038 3666 1038 3163 
Q 1038 2656 1286 2365 
Q 1534 2075 1959 2075 
z
" transform="scale(0.015625)"/>
       <path id="DejaVuSans-66" d="M 2375 4863 
L 2375 4384 
L 1825 4384 
Q 1516 4384 1395 4259 
Q 1275 4134 1275 3809 
L 1275 3500 
L 2222 3500 
L 2222 3053 
L 1275 3053 
L 1275 0 
L 697 0 
L 697 3053 
L 147 3053 
L 147 3500 
L 697 3500 
L 697 3744 
Q 697 4328 969 4595 
Q 1241 4863 1831 4863 
L 2375 4863 
z
" transform="scale(0.015625)"/>
       <path id="DejaVuSans-61" d="M 2194 1759 
Q 1497 1759 1228 1600 
Q 959 1441 959 1056 
Q 959 750 1161 570 
Q 1363 391 1709 391 
Q 2188 391 2477 730 
Q 2766 1069 2766 1631 
L 2766 1759 
L 2194 1759 
z
M 3341 1997 
L 3341 0 
L 2766 0 
L 2766 531 
Q 2569 213 2275 61 
Q 1981 -91 1556 -91 
Q 1019 -91 701 211 
Q 384 513 384 1019 
Q 384 1609 779 1909 
Q 1175 2209 1959 2209 
L 2766 2209 
L 2766 2266 
Q 2766 2663 2505 2880 
Q 2244 3097 1772 3097 
Q 1472 3097 1187 3025 
Q 903 2953 641 2809 
L 641 3341 
Q 956 3463 1253 3523 
Q 1550 3584 1831 3584 
Q 2591 3584 2966 3190 
Q 3341 2797 3341 1997 
z
" transform="scale(0.015625)"/>
       <path id="DejaVuSans-73" d="M 2834 3397 
L 2834 2853 
Q 2591 2978 2328 3040 
Q 2066 3103 1784 3103 
Q 1356 3103 1142 2972 
Q 928 2841 928 2578 
Q 928 2378 1081 2264 
Q 1234 2150 1697 2047 
L 1894 2003 
Q 2506 1872 2764 1633 
Q 3022 1394 3022 966 
Q 3022 478 2636 193 
Q 2250 -91 1575 -91 
Q 1294 -91 989 -36 
Q 684 19 347 128 
L 347 722 
Q 666 556 975 473 
Q 1284 391 1588 391 
Q 1994 391 2212 530 
Q 2431 669 2431 922 
Q 2431 1156 2273 1281 
Q 2116 1406 1581 1522 
L 1381 1569 
Q 847 1681 609 1914 
Q 372 2147 372 2553 
Q 372 3047 722 3315 
Q 1072 3584 1716 3584 
Q 2034 3584 2315 3537 
Q 2597 3491 2834 3397 
z
" transform="scale(0.015625)"/>
       <path id="DejaVuSans-74" d="M 1172 4494 
L 1172 3500 
L 2356 3500 
L 2356 3053 
L 1172 3053 
L 1172 1153 
Q 1172 725 1289 603 
Q 1406 481 1766 481 
L 2356 481 
L 2356 0 
L 1766 0 
Q 1100 0 847 248 
Q 594 497 594 1153 
L 594 3053 
L 172 3053 
L 172 3500 
L 594 3500 
L 594 4494 
L 1172 4494 
z
" transform="scale(0.015625)"/>
       <path id="DejaVuSans-6c" d="M 603 4863 
L 1178 4863 
L 1178 0 
L 603 0 
L 603 4863 
z
" transform="scale(0.015625)"/>
       <path id="DejaVuSans-69" d="M 603 3500 
L 1178 3500 
L 1178 0 
L 603 0 
L 603 3500 
z
M 603 4863 
L 1178 4863 
L 1178 4134 
L 603 4134 
L 603 4863 
z
" transform="scale(0.015625)"/>
       <path id="DejaVuSans-64" d="M 2906 2969 
L 2906 4863 
L 3481 4863 
L 3481 0 
L 2906 0 
L 2906 525 
Q 2725 213 2448 61 
Q 2172 -91 1784 -91 
Q 1150 -91 751 415 
Q 353 922 353 1747 
Q 353 2572 751 3078 
Q 1150 3584 1784 3584 
Q 2172 3584 2448 3432 
Q 2725 3281 2906 2969 
z
M 947 1747 
Q 947 1113 1208 752 
Q 1469 391 1925 391 
Q 2381 391 2643 752 
Q 2906 1113 2906 1747 
Q 2906 2381 2643 2742 
Q 2381 3103 1925 3103 
Q 1469 3103 1208 2742 
Q 947 2381 947 1747 
z
" transform="scale(0.015625)"/>
       <path id="DejaVuSans-65" d="M 3597 1894 
L 3597 1613 
L 953 1613 
Q 991 1019 1311 708 
Q 1631 397 2203 397 
Q 2534 397 2845 478 
Q 3156 559 3463 722 
L 3463 178 
Q 3153 47 2828 -22 
Q 2503 -91 2169 -91 
Q 1331 -91 842 396 
Q 353 884 353 1716 
Q 353 2575 817 3079 
Q 1281 3584 2069 3584 
Q 2775 3584 3186 3129 
Q 3597 2675 3597 1894 
z
M 3022 2063 
Q 3016 2534 2758 2815 
Q 2500 3097 2075 3097 
Q 1594 3097 1305 2825 
Q 1016 2553 972 2059 
L 3022 2063 
z
" transform="scale(0.015625)"/>
       <path id="DejaVuSans-79" d="M 2059 -325 
Q 1816 -950 1584 -1140 
Q 1353 -1331 966 -1331 
L 506 -1331 
L 506 -850 
L 844 -850 
Q 1081 -850 1212 -737 
Q 1344 -625 1503 -206 
L 1606 56 
L 191 3500 
L 800 3500 
L 1894 763 
L 2988 3500 
L 3597 3500 
L 2059 -325 
z
" transform="scale(0.015625)"/>
      </defs>
      <use xlink:href="#DejaVuSans-32"/>
      <use xlink:href="#DejaVuSans-30" transform="translate(63.623047 0)"/>
      <use xlink:href="#DejaVuSans-32" transform="translate(127.246094 0)"/>
      <use xlink:href="#DejaVuSans-35" transform="translate(190.869141 0)"/>
      <use xlink:href="#DejaVuSans-2d" transform="translate(254.492188 0)"/>
      <use xlink:href="#DejaVuSans-31" transform="translate(290.576172 0)"/>
      <use xlink:href="#DejaVuSans-32" transform="translate(354.199219 0)"/>
      <use xlink:href="#DejaVuSans-2d" transform="translate(417.822266 0)"/>
      <use xlink:href="#DejaVuSans-31" transform="translate(453.90625 0)"/>
      <use xlink:href="#DejaVuSans-36" transform="translate(517.529297 0)"/>
      <use xlink:href="#DejaVuSans-5f" transform="translate(581.152344 0)"/>
      <use xlink:href="#DejaVuSans-31" transform="translate(631.152344 0)"/>
      <use xlink:href="#DejaVuSans-39" transform="translate(694.775391 0)"/>
      <use xlink:href="#DejaVuSans-2d" transform="translate(758.398438 0)"/>
      <use xlink:href="#DejaVuSans-30" transform="translate(794.482422 0)"/>
      <use xlink:href="#DejaVuSans-36" transform="translate(858.105469 0)"/>
      <use xlink:href="#DejaVuSans-5f" transform="translate(921.728516 0)"/>
      <use xlink:href="#DejaVuSans-66" transform="translate(971.728516 0)"/>
      <use xlink:href="#DejaVuSans-61" transform="translate(1006.933594 0)"/>
      <use xlink:href="#DejaVuSans-73" transform="translate(1068.212891 0)"/>
      <use xlink:href="#DejaVuSans-74" transform="translate(1120.3125 0)"/>
      <use xlink:href="#DejaVuSans-6c" transform="translate(1159.521484 0)"/>
      <use xlink:href="#DejaVuSans-69" transform="translate(1187.304688 0)"/>
      <use xlink:href="#DejaVuSans-6f" transform="translate(1215.087891 0)"/>
      <use xlink:href="#DejaVuSans-5f" transform="translate(1276.269531 0)"/>
      <use xlink:href="#DejaVuSans-6f" transform="translate(1326.269531 0)"/>
      <use xlink:href="#DejaVuSans-64" transform="translate(1387.451172 0)"/>
      <use xlink:href="#DejaVuSans-6f" transform="translate(1450.927734 0)"/>
      <use xlink:href="#DejaVuSans-6d" transform="translate(1512.109375 0)"/>
      <use xlink:href="#DejaVuSans-65" transform="translate(1609.521484 0)"/>
      <use xlink:href="#DejaVuSans-74" transform="translate(1671.044922 0)"/>
      <use xlink:href="#DejaVuSans-72" transform="translate(1710.253906 0)"/>
      <use xlink:href="#DejaVuSans-79" transform="translate(1751.367188 0)"/>
     </g>
    </g>
    <g id="line2d_27">
     <path d="M 491.14375 425.304062 
L 501.14375 425.304062 
L 511.14375 425.304062 
" style="fill: none; stroke: #d55e00; stroke-width: 2.5; stroke-linecap: square"/>
    </g>
    <g id="text_16">
     <!-- dlio_v3 -->
     <g transform="translate(519.14375 428.804062) scale(0.1 -0.1)">
      <defs>
       <path id="DejaVuSans-76" d="M 191 3500 
L 800 3500 
L 1894 563 
L 2988 3500 
L 3597 3500 
L 2284 0 
L 1503 0 
L 191 3500 
z
" transform="scale(0.015625)"/>
      </defs>
      <use xlink:href="#DejaVuSans-64"/>
      <use xlink:href="#DejaVuSans-6c" transform="translate(63.476562 0)"/>
      <use xlink:href="#DejaVuSans-69" transform="translate(91.259766 0)"/>
      <use xlink:href="#DejaVuSans-6f" transform="translate(119.042969 0)"/>
      <use xlink:href="#DejaVuSans-5f" transform="translate(180.224609 0)"/>
      <use xlink:href="#DejaVuSans-76" transform="translate(230.224609 0)"/>
      <use xlink:href="#DejaVuSans-33" transform="translate(289.404297 0)"/>
     </g>
    </g>
    <g id="line2d_28">
     <path d="M 491.14375 440.260312 
L 501.14375 440.260312 
L 511.14375 440.260312 
" style="fill: none; stroke: #009e73; stroke-width: 2.5; stroke-linecap: square"/>
    </g>
    <g id="text_17">
     <!-- lego-loam-v2 -->
     <g transform="translate(519.14375 443.760312) scale(0.1 -0.1)">
      <defs>
       <path id="DejaVuSans-67" d="M 2906 1791 
Q 2906 2416 2648 2759 
Q 2391 3103 1925 3103 
Q 1463 3103 1205 2759 
Q 947 2416 947 1791 
Q 947 1169 1205 825 
Q 1463 481 1925 481 
Q 2391 481 2648 825 
Q 2906 1169 2906 1791 
z
M 3481 434 
Q 3481 -459 3084 -895 
Q 2688 -1331 1869 -1331 
Q 1566 -1331 1297 -1286 
Q 1028 -1241 775 -1147 
L 775 -588 
Q 1028 -725 1275 -790 
Q 1522 -856 1778 -856 
Q 2344 -856 2625 -561 
Q 2906 -266 2906 331 
L 2906 616 
Q 2728 306 2450 153 
Q 2172 0 1784 0 
Q 1141 0 747 490 
Q 353 981 353 1791 
Q 353 2603 747 3093 
Q 1141 3584 1784 3584 
Q 2172 3584 2450 3431 
Q 2728 3278 2906 2969 
L 2906 3500 
L 3481 3500 
L 3481 434 
z
" transform="scale(0.015625)"/>
      </defs>
      <use xlink:href="#DejaVuSans-6c"/>
      <use xlink:href="#DejaVuSans-65" transform="translate(27.783203 0)"/>
      <use xlink:href="#DejaVuSans-67" transform="translate(89.306641 0)"/>
      <use xlink:href="#DejaVuSans-6f" transform="translate(152.783203 0)"/>
      <use xlink:href="#DejaVuSans-2d" transform="translate(215.839844 0)"/>
      <use xlink:href="#DejaVuSans-6c" transform="translate(251.923828 0)"/>
      <use xlink:href="#DejaVuSans-6f" transform="translate(279.707031 0)"/>
      <use xlink:href="#DejaVuSans-61" transform="translate(340.888672 0)"/>
      <use xlink:href="#DejaVuSans-6d" transform="translate(402.167969 0)"/>
      <use xlink:href="#DejaVuSans-2d" transform="translate(499.580078 0)"/>
      <use xlink:href="#DejaVuSans-76" transform="translate(533.039062 0)"/>
      <use xlink:href="#DejaVuSans-32" transform="translate(592.21875 0)"/>
     </g>
    </g>
   </g>
  </g>
 </g>
 <defs>
  <clipPath id="pfc9c950f28">
   <rect x="54.92" y="32.64" width="654.28" height="422.2"/>
  </clipPath>
 </defs>
</svg>
