<?xml version="1.0" encoding="utf-8" standalone="no"?>
<!DOCTYPE svg PUBLIC "-//W3C//DTD SVG 1.1//EN"
  "http://www.w3.org/Graphics/SVG/1.1/DTD/svg11.dtd">
<svg xmlns:xlink="http://www.w3.org/1999/xlink" width="864pt" height="504pt" viewBox="0 0 864 504" xmlns="http://www.w3.org/2000/svg" version="1.1">
 <metadata>
  <rdf:RDF xmlns:dc="http://purl.org/dc/elements/1.1/" xmlns:cc="http://creativecommons.org/ns#" xmlns:rdf="http://www.w3.org/1999/02/22-rdf-syntax-ns#">
   <cc:Work>
    <dc:type rdf:resource="http://purl.org/dc/dcmitype/StillImage"/>
    <dc:date>2025-12-18T17:44:35.167411</dc:date>
    <dc:format>image/svg+xml</dc:format>
    <dc:creator>
     <cc:Agent>
      <dc:title>Matplotlib v3.10.7, https://matplotlib.org/</dc:title>
     </cc:Agent>
    </dc:creator>
   </cc:Work>
  </rdf:RDF>
 </metadata>
 <defs>
  <style type="text/css">*{stroke-linejoin: round; stroke-linecap: butt}</style>
 </defs>
 <g id="figure_1">
  <g id="patch_1">
   <path d="M 0 504 
L 864 504 
L 864 0 
L 0 0 
z
" style="fill: #ffffff"/>
  </g>
  <g id="axes_1">
   <g id="patch_2">
    <path d="M 44.57 476.01875 
L 853.2 476.01875 
L 853.2 26.88 
L 44.57 26.88 
z
" style="fill: #ffffff"/>
   </g>
   <g id="FillBetweenPolyCollection_1">
    <defs>
     <path id="mbdd5c9e34b" d="M 190.525066 -53.911725 
L 141.769409 -53.911725 
L 139.419391 -57.98034 
L 138.833762 -62.048955 
L 139.77331 -66.11757 
L 141.668283 -70.186185 
L 143.878864 -74.254799 
L 145.880579 -78.323414 
L 147.273216 -82.392029 
L 147.650195 -86.460644 
L 146.475703 -90.529259 
L 143.134342 -94.597874 
L 137.219619 -98.666489 
L 128.945933 -102.735104 
L 119.410712 -106.803719 
L 110.441931 -110.872334 
L 103.995739 -114.940949 
L 101.384479 -119.009564 
L 102.765699 -123.078179 
L 107.167189 -127.146793 
L 112.980804 -131.215408 
L 118.60071 -135.284023 
L 122.880569 -139.352638 
L 125.280396 -143.421253 
L 125.7804 -147.489868 
L 124.720774 -151.558483 
L 122.677029 -155.627098 
L 120.379687 -159.695713 
L 118.620651 -163.764328 
L 118.097696 -167.832943 
L 119.215967 -171.901558 
L 121.932537 -175.970173 
L 125.740538 -180.038787 
L 129.829938 -184.107402 
L 133.370702 -188.176017 
L 135.799357 -192.244632 
L 136.988274 -196.313247 
L 137.233113 -200.381862 
L 137.074381 -204.450477 
L 137.037755 -208.519092 
L 137.409476 -212.587707 
L 138.144724 -216.656322 
L 138.942993 -220.724937 
L 139.443896 -224.793552 
L 139.441117 -228.862167 
L 139.007271 -232.930781 
L 138.463316 -236.999396 
L 138.190756 -241.068011 
L 138.353809 -245.136626 
L 138.656052 -249.205241 
L 138.278388 -253.273856 
L 136.10297 -257.342471 
L 131.207647 -261.411086 
L 123.450241 -265.479701 
L 113.840414 -269.548316 
L 104.427731 -273.616931 
L 97.658094 -277.685546 
L 95.462797 -281.754161 
L 98.532291 -285.822775 
L 106.134804 -289.89139 
L 116.521573 -293.960005 
L 127.645528 -298.02862 
L 137.816654 -302.097235 
L 146.046341 -306.16585 
L 152.052336 -310.234465 
L 156.049927 -314.30308 
L 158.486967 -318.371695 
L 159.829106 -322.44031 
L 160.43256 -326.508925 
L 160.496576 -330.57754 
L 160.074093 -334.646155 
L 159.124537 -338.714769 
L 157.598083 -342.783384 
L 155.532379 -346.851999 
L 153.123649 -350.920614 
L 150.726278 -354.989229 
L 148.761156 -359.057844 
L 147.56798 -363.126459 
L 147.280196 -367.195074 
L 147.792228 -371.263689 
L 148.828606 -375.332304 
L 150.061366 -379.400919 
L 151.204862 -383.469534 
L 152.051616 -387.538149 
L 152.462561 -391.606763 
L 152.349574 -395.675378 
L 151.675855 -399.743993 
L 150.468479 -403.812608 
L 148.814317 -407.881223 
L 146.812947 -411.949838 
L 144.489756 -416.018453 
L 141.714974 -420.087068 
L 138.203211 -424.155683 
L 133.652207 -428.224298 
L 128.005593 -432.292913 
L 121.720845 -436.361528 
L 115.860869 -440.430143 
L 111.875792 -444.498758 
L 111.104961 -448.567372 
L 114.217074 -452.635987 
L 120.883371 -456.704602 
L 211.411105 -456.704602 
L 211.411105 -456.704602 
L 218.077401 -452.635987 
L 221.189515 -448.567372 
L 220.418684 -444.498758 
L 216.433606 -440.430143 
L 210.573631 -436.361528 
L 204.288883 -432.292913 
L 198.642268 -428.224298 
L 194.091265 -424.155683 
L 190.579501 -420.087068 
L 187.804719 -416.018453 
L 185.481528 -411.949838 
L 183.480158 -407.881223 
L 181.825996 -403.812608 
L 180.618621 -399.743993 
L 179.944901 -395.675378 
L 179.831914 -391.606763 
L 180.242859 -387.538149 
L 181.089613 -383.469534 
L 182.23311 -379.400919 
L 183.46587 -375.332304 
L 184.502247 -371.263689 
L 185.01428 -367.195074 
L 184.726495 -363.126459 
L 183.53332 -359.057844 
L 181.568198 -354.989229 
L 179.170826 -350.920614 
L 176.762097 -346.851999 
L 174.696392 -342.783384 
L 173.169939 -338.714769 
L 172.220383 -334.646155 
L 171.7979 -330.57754 
L 171.861916 -326.508925 
L 172.46537 -322.44031 
L 173.807508 -318.371695 
L 176.244549 -314.30308 
L 180.242139 -310.234465 
L 186.248135 -306.16585 
L 194.477821 -302.097235 
L 204.648948 -298.02862 
L 215.772902 -293.960005 
L 226.159671 -289.89139 
L 233.762184 -285.822775 
L 236.831678 -281.754161 
L 234.636382 -277.685546 
L 227.866744 -273.616931 
L 218.454062 -269.548316 
L 208.844235 -265.479701 
L 201.086828 -261.411086 
L 196.191506 -257.342471 
L 194.016087 -253.273856 
L 193.638423 -249.205241 
L 193.940666 -245.136626 
L 194.10372 -241.068011 
L 193.83116 -236.999396 
L 193.287205 -232.930781 
L 192.853359 -228.862167 
L 192.850579 -224.793552 
L 193.351482 -220.724937 
L 194.149752 -216.656322 
L 194.885 -212.587707 
L 195.25672 -208.519092 
L 195.220094 -204.450477 
L 195.061362 -200.381862 
L 195.306201 -196.313247 
L 196.495118 -192.244632 
L 198.923773 -188.176017 
L 202.464537 -184.107402 
L 206.553938 -180.038787 
L 210.361939 -175.970173 
L 213.078509 -171.901558 
L 214.19678 -167.832943 
L 213.673825 -163.764328 
L 211.914788 -159.695713 
L 209.617447 -155.627098 
L 207.573701 -151.558483 
L 206.514076 -147.489868 
L 207.01408 -143.421253 
L 209.413906 -139.352638 
L 213.693766 -135.284023 
L 219.313671 -131.215408 
L 225.127287 -127.146793 
L 229.528777 -123.078179 
L 230.909996 -119.009564 
L 228.298737 -114.940949 
L 221.852545 -110.872334 
L 212.883763 -106.803719 
L 203.348542 -102.735104 
L 195.074856 -98.666489 
L 189.160134 -94.597874 
L 185.818773 -90.529259 
L 184.644281 -86.460644 
L 185.021259 -82.392029 
L 186.413896 -78.323414 
L 188.415612 -74.254799 
L 190.626193 -70.186185 
L 192.521166 -66.11757 
L 193.460713 -62.048955 
L 192.875085 -57.98034 
L 190.525066 -53.911725 
z
" style="stroke: #000000; stroke-opacity: 0.8"/>
    </defs>
    <g clip-path="url(#p3f15e9a5c3)">
     <use xlink:href="#mbdd5c9e34b" x="0" y="504" style="fill: #4477aa; fill-opacity: 0.8; stroke: #000000; stroke-opacity: 0.8"/>
    </g>
   </g>
   <g id="FillBetweenPolyCollection_2">
    <defs>
     <path id="md38fff29f6" d="M 449.079642 -48.396648 
L 448.690358 -48.396648 
L 448.545283 -48.719851 
L 448.372516 -49.043054 
L 448.189149 -49.366257 
L 447.990765 -49.68946 
L 447.745746 -50.012663 
L 447.432589 -50.335866 
L 447.092498 -50.659068 
L 446.813208 -50.982271 
L 446.647617 -51.305474 
L 446.575001 -51.628677 
L 446.536651 -51.95188 
L 446.484839 -52.275083 
L 446.394037 -52.598286 
L 446.233185 -52.921489 
L 445.981989 -53.244692 
L 445.719905 -53.567895 
L 445.616242 -53.891098 
L 445.743472 -54.214301 
L 445.961445 -54.537504 
L 446.04035 -54.860707 
L 445.837353 -55.18391 
L 445.370675 -55.507113 
L 444.813038 -55.830316 
L 444.365328 -56.153519 
L 444.059442 -56.476722 
L 443.721144 -56.799925 
L 443.117192 -57.123128 
L 442.103571 -57.446331 
L 440.750302 -57.769534 
L 439.425721 -58.092737 
L 438.595471 -58.41594 
L 438.340817 -58.739143 
L 438.133526 -59.062346 
L 437.216804 -59.385548 
L 435.275303 -59.708751 
L 432.808836 -60.031954 
L 430.785707 -60.355157 
L 429.793653 -60.67836 
L 429.58872 -61.001563 
L 429.437941 -61.324766 
L 428.731945 -61.647969 
L 427.367411 -61.971172 
L 425.578356 -62.294375 
L 423.229428 -62.617578 
L 419.62563 -62.940781 
L 414.838415 -63.263984 
L 411.066859 -63.587187 
L 411.054891 -63.91039 
L 414.602877 -64.233593 
L 418.31985 -64.556796 
L 419.264793 -64.879999 
L 417.383853 -65.203202 
L 414.522182 -65.526405 
L 412.458961 -65.849608 
L 411.916958 -66.172811 
L 412.42525 -66.496014 
L 412.570687 -66.819217 
L 410.603141 -67.14242 
L 405.229294 -67.465623 
L 396.346331 -67.788826 
L 385.867715 -68.112029 
L 378.200559 -68.435231 
L 378.403634 -68.758434 
L 387.549573 -69.081637 
L 400.334507 -69.40484 
L 409.664631 -69.728043 
L 413.251096 -70.051246 
L 414.220333 -70.374449 
L 416.505528 -70.697652 
L 421.137086 -71.020855 
L 426.286832 -71.344058 
L 429.46857 -71.667261 
L 429.315281 -71.990464 
L 426.255194 -72.313667 
L 422.578048 -72.63687 
L 421.332936 -72.960073 
L 423.966707 -73.283276 
L 429.22012 -73.606479 
L 434.75172 -73.929682 
L 439.119271 -74.252885 
L 442.043829 -74.576088 
L 443.740646 -74.899291 
L 444.486008 -75.222494 
L 444.537515 -75.545697 
L 444.128505 -75.8689 
L 443.313975 -76.192103 
L 441.73195 -76.515306 
L 438.765749 -76.838509 
L 434.472095 -77.161712 
L 430.434862 -77.484914 
L 428.862558 -77.808117 
L 430.411579 -78.13132 
L 433.751414 -78.454523 
L 437.352015 -78.777726 
L 440.595445 -79.100929 
L 443.314661 -79.424132 
L 445.377552 -79.747335 
L 446.799728 -80.070538 
L 447.741865 -80.393741 
L 450.028135 -80.393741 
L 450.028135 -80.393741 
L 450.970272 -80.070538 
L 452.392448 -79.747335 
L 454.455339 -79.424132 
L 457.174555 -79.100929 
L 460.417985 -78.777726 
L 464.018586 -78.454523 
L 467.358421 -78.13132 
L 468.907442 -77.808117 
L 467.335138 -77.484914 
L 463.297905 -77.161712 
L 459.004251 -76.838509 
L 456.03805 -76.515306 
L 454.456025 -76.192103 
L 453.641495 -75.8689 
L 453.232485 -75.545697 
L 453.283992 -75.222494 
L 454.029354 -74.899291 
L 455.726171 -74.576088 
L 458.650729 -74.252885 
L 463.01828 -73.929682 
L 468.54988 -73.606479 
L 473.803293 -73.283276 
L 476.437064 -72.960073 
L 475.191952 -72.63687 
L 471.514806 -72.313667 
L 468.454719 -71.990464 
L 468.30143 -71.667261 
L 471.483168 -71.344058 
L 476.632914 -71.020855 
L 481.264472 -70.697652 
L 483.549667 -70.374449 
L 484.518904 -70.051246 
L 488.105369 -69.728043 
L 497.435493 -69.40484 
L 510.220427 -69.081637 
L 519.366366 -68.758434 
L 519.569441 -68.435231 
L 511.902285 -68.112029 
L 501.423669 -67.788826 
L 492.540706 -67.465623 
L 487.166859 -67.14242 
L 485.199313 -66.819217 
L 485.34475 -66.496014 
L 485.853042 -66.172811 
L 485.311039 -65.849608 
L 483.247818 -65.526405 
L 480.386147 -65.203202 
L 478.505207 -64.879999 
L 479.45015 -64.556796 
L 483.167123 -64.233593 
L 486.715109 -63.91039 
L 486.703141 -63.587187 
L 482.931585 -63.263984 
L 478.14437 -62.940781 
L 474.540572 -62.617578 
L 472.191644 -62.294375 
L 470.402589 -61.971172 
L 469.038055 -61.647969 
L 468.332059 -61.324766 
L 468.18128 -61.001563 
L 467.976347 -60.67836 
L 466.984293 -60.355157 
L 464.961164 -60.031954 
L 462.494697 -59.708751 
L 460.553196 -59.385548 
L 459.636474 -59.062346 
L 459.429183 -58.739143 
L 459.174529 -58.41594 
L 458.344279 -58.092737 
L 457.019698 -57.769534 
L 455.666429 -57.446331 
L 454.652808 -57.123128 
L 454.048856 -56.799925 
L 453.710558 -56.476722 
L 453.404672 -56.153519 
L 452.956962 -55.830316 
L 452.399325 -55.507113 
L 451.932647 -55.18391 
L 451.72965 -54.860707 
L 451.808555 -54.537504 
L 452.026528 -54.214301 
L 452.153758 -53.891098 
L 452.050095 -53.567895 
L 451.788011 -53.244692 
L 451.536815 -52.921489 
L 451.375963 -52.598286 
L 451.285161 -52.275083 
L 451.233349 -51.95188 
L 451.194999 -51.628677 
L 451.122383 -51.305474 
L 450.956792 -50.982271 
L 450.677502 -50.659068 
L 450.337411 -50.335866 
L 450.024254 -50.012663 
L 449.779235 -49.68946 
L 449.580851 -49.366257 
L 449.397484 -49.043054 
L 449.224717 -48.719851 
L 449.079642 -48.396648 
z
" style="stroke: #000000; stroke-opacity: 0.8"/>
    </defs>
    <g clip-path="url(#p3f15e9a5c3)">
     <use xlink:href="#md38fff29f6" x="0" y="504" style="fill: #4477aa; fill-opacity: 0.8; stroke: #000000; stroke-opacity: 0.8"/>
    </g>
   </g>
   <g id="FillBetweenPolyCollection_3">
    <defs>
     <path id="m4c38ddc3dc" d="M 734.890918 -48.962083 
L 728.354606 -48.962083 
L 726.791715 -51.745885 
L 725.414982 -54.529688 
L 724.655535 -57.31349 
L 724.721614 -60.097293 
L 725.476565 -62.881095 
L 726.559553 -65.664898 
L 727.615753 -68.4487 
L 728.43865 -71.232503 
L 728.971376 -74.016305 
L 729.23137 -76.800107 
L 729.225969 -79.58391 
L 728.911328 -82.367712 
L 728.235935 -85.151515 
L 727.245336 -87.935317 
L 726.14123 -90.71912 
L 725.209059 -93.502922 
L 724.668041 -96.286725 
L 724.581711 -99.070527 
L 724.878518 -101.85433 
L 725.413887 -104.638132 
L 726.017165 -107.421934 
L 726.53372 -110.205737 
L 726.868783 -112.989539 
L 727.002511 -115.773342 
L 726.961495 -118.557144 
L 726.782702 -121.340947 
L 726.513455 -124.124749 
L 726.237054 -126.908552 
L 726.065837 -129.692354 
L 726.072793 -132.476157 
L 726.215285 -135.259959 
L 726.334287 -138.043762 
L 726.241727 -140.827564 
L 725.818298 -143.611366 
L 725.015885 -146.395169 
L 723.692317 -149.178971 
L 721.346187 -151.962774 
L 717.110335 -154.746576 
L 710.466764 -157.530379 
L 702.461095 -160.314181 
L 696.059224 -163.097984 
L 694.488967 -165.881786 
L 698.668694 -168.665589 
L 706.40942 -171.449391 
L 714.268986 -174.233194 
L 719.962219 -177.016996 
L 723.120463 -179.800798 
L 724.480376 -182.584601 
L 724.877283 -185.368403 
L 724.81373 -188.152206 
L 724.45308 -190.936008 
L 723.638719 -193.719811 
L 721.741461 -196.503613 
L 717.473421 -199.287416 
L 709.168531 -202.071218 
L 696.050067 -204.855021 
L 680.071961 -207.638823 
L 666.420925 -210.422626 
L 660.938322 -213.206428 
L 665.857859 -215.99023 
L 677.974464 -218.774033 
L 691.246322 -221.557835 
L 701.045016 -224.341638 
L 706.093767 -227.12544 
L 707.433517 -229.909243 
L 706.62752 -232.693045 
L 704.97702 -235.476848 
L 703.58152 -238.26065 
L 703.29968 -241.044453 
L 704.394059 -243.828255 
L 706.347903 -246.612057 
L 708.089285 -249.39586 
L 708.441756 -252.179662 
L 706.755118 -254.963465 
L 703.619302 -257.747267 
L 700.975373 -260.53107 
L 701.029779 -263.314872 
L 704.657426 -266.098675 
L 710.790778 -268.882477 
L 717.317153 -271.66628 
L 722.481944 -274.450082 
L 725.588673 -277.233885 
L 726.767107 -280.017687 
L 726.385929 -282.801489 
L 724.722667 -285.585292 
L 722.082976 -288.369094 
L 719.094616 -291.152897 
L 716.710159 -293.936699 
L 715.758528 -296.720502 
L 716.423848 -299.504304 
L 718.144202 -302.288107 
L 719.981788 -305.071909 
L 721.128332 -307.855712 
L 721.258555 -310.639514 
L 720.651733 -313.423317 
L 720.060748 -316.207119 
L 720.316805 -318.990921 
L 721.822284 -321.774724 
L 724.287655 -324.558526 
L 738.957869 -324.558526 
L 738.957869 -324.558526 
L 741.423241 -321.774724 
L 742.928719 -318.990921 
L 743.184777 -316.207119 
L 742.593791 -313.423317 
L 741.986969 -310.639514 
L 742.117193 -307.855712 
L 743.263736 -305.071909 
L 745.101322 -302.288107 
L 746.821677 -299.504304 
L 747.486996 -296.720502 
L 746.535366 -293.936699 
L 744.150909 -291.152897 
L 741.162549 -288.369094 
L 738.522857 -285.585292 
L 736.859595 -282.801489 
L 736.478418 -280.017687 
L 737.656852 -277.233885 
L 740.76358 -274.450082 
L 745.928371 -271.66628 
L 752.454746 -268.882477 
L 758.588098 -266.098675 
L 762.215746 -263.314872 
L 762.270151 -260.53107 
L 759.626222 -257.747267 
L 756.490407 -254.963465 
L 754.803768 -252.179662 
L 755.15624 -249.39586 
L 756.897621 -246.612057 
L 758.851465 -243.828255 
L 759.945845 -241.044453 
L 759.664005 -238.26065 
L 758.268505 -235.476848 
L 756.618005 -232.693045 
L 755.812007 -229.909243 
L 757.151758 -227.12544 
L 762.200508 -224.341638 
L 771.999203 -221.557835 
L 785.27106 -218.774033 
L 797.387665 -215.99023 
L 802.307203 -213.206428 
L 796.8246 -210.422626 
L 783.173564 -207.638823 
L 767.195457 -204.855021 
L 754.076994 -202.071218 
L 745.772103 -199.287416 
L 741.504064 -196.503613 
L 739.606805 -193.719811 
L 738.792445 -190.936008 
L 738.431794 -188.152206 
L 738.368241 -185.368403 
L 738.765148 -182.584601 
L 740.125062 -179.800798 
L 743.283306 -177.016996 
L 748.976539 -174.233194 
L 756.836105 -171.449391 
L 764.576831 -168.665589 
L 768.756558 -165.881786 
L 767.186301 -163.097984 
L 760.784429 -160.314181 
L 752.778761 -157.530379 
L 746.135189 -154.746576 
L 741.899338 -151.962774 
L 739.553208 -149.178971 
L 738.229639 -146.395169 
L 737.427227 -143.611366 
L 737.003798 -140.827564 
L 736.911237 -138.043762 
L 737.030239 -135.259959 
L 737.172732 -132.476157 
L 737.179687 -129.692354 
L 737.00847 -126.908552 
L 736.73207 -124.124749 
L 736.462823 -121.340947 
L 736.284029 -118.557144 
L 736.243013 -115.773342 
L 736.376741 -112.989539 
L 736.711805 -110.205737 
L 737.228359 -107.421934 
L 737.831638 -104.638132 
L 738.367006 -101.85433 
L 738.663813 -99.070527 
L 738.577484 -96.286725 
L 738.036466 -93.502922 
L 737.104294 -90.71912 
L 736.000189 -87.935317 
L 735.009589 -85.151515 
L 734.334196 -82.367712 
L 734.019556 -79.58391 
L 734.014154 -76.800107 
L 734.274148 -74.016305 
L 734.806874 -71.232503 
L 735.629772 -68.4487 
L 736.685972 -65.664898 
L 737.76896 -62.881095 
L 738.52391 -60.097293 
L 738.58999 -57.31349 
L 737.830543 -54.529688 
L 736.45381 -51.745885 
L 734.890918 -48.962083 
z
" style="stroke: #000000; stroke-opacity: 0.8"/>
    </defs>
    <g clip-path="url(#p3f15e9a5c3)">
     <use xlink:href="#m4c38ddc3dc" x="0" y="504" style="fill: #4477aa; fill-opacity: 0.8; stroke: #000000; stroke-opacity: 0.8"/>
    </g>
   </g>
   <g id="matplotlib.axis_1">
    <g id="xtick_1">
     <g id="line2d_1">
      <path d="M 166.147238 476.01875 
L 166.147238 26.88 
" clip-path="url(#p3f15e9a5c3)" style="fill: none; stroke-dasharray: 2.96,1.28; stroke-dashoffset: 0; stroke: #b0b0b0; stroke-opacity: 0.3; stroke-width: 0.8"/>
     </g>
     <g id="line2d_2">
      <defs>
       <path id="mf65349e35e" d="M 0 0 
L 0 3.5 
" style="stroke: #000000; stroke-width: 0.8"/>
      </defs>
      <g>
       <use xlink:href="#mf65349e35e" x="166.147238" y="476.01875" style="stroke: #000000; stroke-width: 0.8"/>
      </g>
     </g>
     <g id="text_1">
      <!-- 2025-12-16_19-06_fastlio_odometry -->
      <g transform="translate(75.619113 490.617188) scale(0.1 -0.1)">
       <defs>
        <path id="DejaVuSans-32" d="M 1228 531 
L 3431 531 
L 3431 0 
L 469 0 
L 469 531 
Q 828 903 1448 1529 
Q 2069 2156 2228 2338 
Q 2531 2678 2651 2914 
Q 2772 3150 2772 3378 
Q 2772 3750 2511 3984 
Q 2250 4219 1831 4219 
Q 1534 4219 1204 4116 
Q 875 4013 500 3803 
L 500 4441 
Q 881 4594 1212 4672 
Q 1544 4750 1819 4750 
Q 2544 4750 2975 4387 
Q 3406 4025 3406 3419 
Q 3406 3131 3298 2873 
Q 3191 2616 2906 2266 
Q 2828 2175 2409 1742 
Q 1991 1309 1228 531 
z
" transform="scale(0.015625)"/>
        <path id="DejaVuSans-30" d="M 2034 4250 
Q 1547 4250 1301 3770 
Q 1056 3291 1056 2328 
Q 1056 1369 1301 889 
Q 1547 409 2034 409 
Q 2525 409 2770 889 
Q 3016 1369 3016 2328 
Q 3016 3291 2770 3770 
Q 2525 4250 2034 4250 
z
M 2034 4750 
Q 2819 4750 3233 4129 
Q 3647 3509 3647 2328 
Q 3647 1150 3233 529 
Q 2819 -91 2034 -91 
Q 1250 -91 836 529 
Q 422 1150 422 2328 
Q 422 3509 836 4129 
Q 1250 4750 2034 4750 
z
" transform="scale(0.015625)"/>
        <path id="DejaVuSans-35" d="M 691 4666 
L 3169 4666 
L 3169 4134 
L 1269 4134 
L 1269 2991 
Q 1406 3038 1543 3061 
Q 1681 3084 1819 3084 
Q 2600 3084 3056 2656 
Q 3513 2228 3513 1497 
Q 3513 744 3044 326 
Q 2575 -91 1722 -91 
Q 1428 -91 1123 -41 
Q 819 9 494 109 
L 494 744 
Q 775 591 1075 516 
Q 1375 441 1709 441 
Q 2250 441 2565 725 
Q 2881 1009 2881 1497 
Q 2881 1984 2565 2268 
Q 2250 2553 1709 2553 
Q 1456 2553 1204 2497 
Q 953 2441 691 2322 
L 691 4666 
z
" transform="scale(0.015625)"/>
        <path id="DejaVuSans-2d" d="M 313 2009 
L 1997 2009 
L 1997 1497 
L 313 1497 
L 313 2009 
z
" transform="scale(0.015625)"/>
        <path id="DejaVuSans-31" d="M 794 531 
L 1825 531 
L 1825 4091 
L 703 3866 
L 703 4441 
L 1819 4666 
L 2450 4666 
L 2450 531 
L 3481 531 
L 3481 0 
L 794 0 
L 794 531 
z
" transform="scale(0.015625)"/>
        <path id="DejaVuSans-36" d="M 2113 2584 
Q 1688 2584 1439 2293 
Q 1191 2003 1191 1497 
Q 1191 994 1439 701 
Q 1688 409 2113 409 
Q 2538 409 2786 701 
Q 3034 994 3034 1497 
Q 3034 2003 2786 2293 
Q 2538 2584 2113 2584 
z
M 3366 4563 
L 3366 3988 
Q 3128 4100 2886 4159 
Q 2644 4219 2406 4219 
Q 1781 4219 1451 3797 
Q 1122 3375 1075 2522 
Q 1259 2794 1537 2939 
Q 1816 3084 2150 3084 
Q 2853 3084 3261 2657 
Q 3669 2231 3669 1497 
Q 3669 778 3244 343 
Q 2819 -91 2113 -91 
Q 1303 -91 875 529 
Q 447 1150 447 2328 
Q 447 3434 972 4092 
Q 1497 4750 2381 4750 
Q 2619 4750 2861 4703 
Q 3103 4656 3366 4563 
z
" transform="scale(0.015625)"/>
        <path id="DejaVuSans-5f" d="M 3263 -1063 
L 3263 -1509 
L -63 -1509 
L -63 -1063 
L 3263 -1063 
z
" transform="scale(0.015625)"/>
        <path id="DejaVuSans-39" d="M 703 97 
L 703 672 
Q 941 559 1184 500 
Q 1428 441 1663 441 
Q 2288 441 2617 861 
Q 2947 1281 2994 2138 
Q 2813 1869 2534 1725 
Q 2256 1581 1919 1581 
Q 1219 1581 811 2004 
Q 403 2428 403 3163 
Q 403 3881 828 4315 
Q 1253 4750 1959 4750 
Q 2769 4750 3195 4129 
Q 3622 3509 3622 2328 
Q 3622 1225 3098 567 
Q 2575 -91 1691 -91 
Q 1453 -91 1209 -44 
Q 966 3 703 97 
z
M 1959 2075 
Q 2384 2075 2632 2365 
Q 2881 2656 2881 3163 
Q 2881 3666 2632 3958 
Q 2384 4250 1959 4250 
Q 1534 4250 1286 3958 
Q 1038 3666 1038 3163 
Q 1038 2656 1286 2365 
Q 1534 2075 1959 2075 
z
" transform="scale(0.015625)"/>
        <path id="DejaVuSans-66" d="M 2375 4863 
L 2375 4384 
L 1825 4384 
Q 1516 4384 1395 4259 
Q 1275 4134 1275 3809 
L 1275 3500 
L 2222 3500 
L 2222 3053 
L 1275 3053 
L 1275 0 
L 697 0 
L 697 3053 
L 147 3053 
L 147 3500 
L 697 3500 
L 697 3744 
Q 697 4328 969 4595 
Q 1241 4863 1831 4863 
L 2375 4863 
z
" transform="scale(0.015625)"/>
        <path id="DejaVuSans-61" d="M 2194 1759 
Q 1497 1759 1228 1600 
Q 959 1441 959 1056 
Q 959 750 1161 570 
Q 1363 391 1709 391 
Q 2188 391 2477 730 
Q 2766 1069 2766 1631 
L 2766 1759 
L 2194 1759 
z
M 3341 1997 
L 3341 0 
L 2766 0 
L 2766 531 
Q 2569 213 2275 61 
Q 1981 -91 1556 -91 
Q 1019 -91 701 211 
Q 384 513 384 1019 
Q 384 1609 779 1909 
Q 1175 2209 1959 2209 
L 2766 2209 
L 2766 2266 
Q 2766 2663 2505 2880 
Q 2244 3097 1772 3097 
Q 1472 3097 1187 3025 
Q 903 2953 641 2809 
L 641 3341 
Q 956 3463 1253 3523 
Q 1550 3584 1831 3584 
Q 2591 3584 2966 3190 
Q 3341 2797 3341 1997 
z
" transform="scale(0.015625)"/>
        <path id="DejaVuSans-73" d="M 2834 3397 
L 2834 2853 
Q 2591 2978 2328 3040 
Q 2066 3103 1784 3103 
Q 1356 3103 1142 2972 
Q 928 2841 928 2578 
Q 928 2378 1081 2264 
Q 1234 2150 1697 2047 
L 1894 2003 
Q 2506 1872 2764 1633 
Q 3022 1394 3022 966 
Q 3022 478 2636 193 
Q 2250 -91 1575 -91 
Q 1294 -91 989 -36 
Q 684 19 347 128 
L 347 722 
Q 666 556 975 473 
Q 1284 391 1588 391 
Q 1994 391 2212 530 
Q 2431 669 2431 922 
Q 2431 1156 2273 1281 
Q 2116 1406 1581 1522 
L 1381 1569 
Q 847 1681 609 1914 
Q 372 2147 372 2553 
Q 372 3047 722 3315 
Q 1072 3584 1716 3584 
Q 2034 3584 2315 3537 
Q 2597 3491 2834 3397 
z
" transform="scale(0.015625)"/>
        <path id="DejaVuSans-74" d="M 1172 4494 
L 1172 3500 
L 2356 3500 
L 2356 3053 
L 1172 3053 
L 1172 1153 
Q 1172 725 1289 603 
Q 1406 481 1766 481 
L 2356 481 
L 2356 0 
L 1766 0 
Q 1100 0 847 248 
Q 594 497 594 1153 
L 594 3053 
L 172 3053 
L 172 3500 
L 594 3500 
L 594 4494 
L 1172 4494 
z
" transform="scale(0.015625)"/>
        <path id="DejaVuSans-6c" d="M 603 4863 
L 1178 4863 
L 1178 0 
L 603 0 
L 603 4863 
z
" transform="scale(0.015625)"/>
        <path id="DejaVuSans-69" d="M 603 3500 
L 1178 3500 
L 1178 0 
L 603 0 
L 603 3500 
z
M 603 4863 
L 1178 4863 
L 1178 4134 
L 603 4134 
L 603 4863 
z
" transform="scale(0.015625)"/>
        <path id="DejaVuSans-6f" d="M 1959 3097 
Q 1497 3097 1228 2736 
Q 959 2375 959 1747 
Q 959 1119 1226 758 
Q 1494 397 1959 397 
Q 2419 397 2687 759 
Q 2956 1122 2956 1747 
Q 2956 2369 2687 2733 
Q 2419 3097 1959 3097 
z
M 1959 3584 
Q 2709 3584 3137 3096 
Q 3566 2609 3566 1747 
Q 3566 888 3137 398 
Q 2709 -91 1959 -91 
Q 1206 -91 779 398 
Q 353 888 353 1747 
Q 353 2609 779 3096 
Q 1206 3584 1959 3584 
z
" transform="scale(0.015625)"/>
        <path id="DejaVuSans-64" d="M 2906 2969 
L 2906 4863 
L 3481 4863 
L 3481 0 
L 2906 0 
L 2906 525 
Q 2725 213 2448 61 
Q 2172 -91 1784 -91 
Q 1150 -91 751 415 
Q 353 922 353 1747 
Q 353 2572 751 3078 
Q 1150 3584 1784 3584 
Q 2172 3584 2448 3432 
Q 2725 3281 2906 2969 
z
M 947 1747 
Q 947 1113 1208 752 
Q 1469 391 1925 391 
Q 2381 391 2643 752 
Q 2906 1113 2906 1747 
Q 2906 2381 2643 2742 
Q 2381 3103 1925 3103 
Q 1469 3103 1208 2742 
Q 947 2381 947 1747 
z
" transform="scale(0.015625)"/>
        <path id="DejaVuSans-6d" d="M 3328 2828 
Q 3544 3216 3844 3400 
Q 4144 3584 4550 3584 
Q 5097 3584 5394 3201 
Q 5691 2819 5691 2113 
L 5691 0 
L 5113 0 
L 5113 2094 
Q 5113 2597 4934 2840 
Q 4756 3084 4391 3084 
Q 3944 3084 3684 2787 
Q 3425 2491 3425 1978 
L 3425 0 
L 2847 0 
L 2847 2094 
Q 2847 2600 2669 2842 
Q 2491 3084 2119 3084 
Q 1678 3084 1418 2786 
Q 1159 2488 1159 1978 
L 1159 0 
L 581 0 
L 581 3500 
L 1159 3500 
L 1159 2956 
Q 1356 3278 1631 3431 
Q 1906 3584 2284 3584 
Q 2666 3584 2933 3390 
Q 3200 3197 3328 2828 
z
" transform="scale(0.015625)"/>
        <path id="DejaVuSans-65" d="M 3597 1894 
L 3597 1613 
L 953 1613 
Q 991 1019 1311 708 
Q 1631 397 2203 397 
Q 2534 397 2845 478 
Q 3156 559 3463 722 
L 3463 178 
Q 3153 47 2828 -22 
Q 2503 -91 2169 -91 
Q 1331 -91 842 396 
Q 353 884 353 1716 
Q 353 2575 817 3079 
Q 1281 3584 2069 3584 
Q 2775 3584 3186 3129 
Q 3597 2675 3597 1894 
z
M 3022 2063 
Q 3016 2534 2758 2815 
Q 2500 3097 2075 3097 
Q 1594 3097 1305 2825 
Q 1016 2553 972 2059 
L 3022 2063 
z
" transform="scale(0.015625)"/>
        <path id="DejaVuSans-72" d="M 2631 2963 
Q 2534 3019 2420 3045 
Q 2306 3072 2169 3072 
Q 1681 3072 1420 2755 
Q 1159 2438 1159 1844 
L 1159 0 
L 581 0 
L 581 3500 
L 1159 3500 
L 1159 2956 
Q 1341 3275 1631 3429 
Q 1922 3584 2338 3584 
Q 2397 3584 2469 3576 
Q 2541 3569 2628 3553 
L 2631 2963 
z
" transform="scale(0.015625)"/>
        <path id="DejaVuSans-79" d="M 2059 -325 
Q 1816 -950 1584 -1140 
Q 1353 -1331 966 -1331 
L 506 -1331 
L 506 -850 
L 844 -850 
Q 1081 -850 1212 -737 
Q 1344 -625 1503 -206 
L 1606 56 
L 191 3500 
L 800 3500 
L 1894 763 
L 2988 3500 
L 3597 3500 
L 2059 -325 
z
" transform="scale(0.015625)"/>
       </defs>
       <use xlink:href="#DejaVuSans-32"/>
       <use xlink:href="#DejaVuSans-30" transform="translate(63.623047 0)"/>
       <use xlink:href="#DejaVuSans-32" transform="translate(127.246094 0)"/>
       <use xlink:href="#DejaVuSans-35" transform="translate(190.869141 0)"/>
       <use xlink:href="#DejaVuSans-2d" transform="translate(254.492188 0)"/>
       <use xlink:href="#DejaVuSans-31" transform="translate(290.576172 0)"/>
       <use xlink:href="#DejaVuSans-32" transform="translate(354.199219 0)"/>
       <use xlink:href="#DejaVuSans-2d" transform="translate(417.822266 0)"/>
       <use xlink:href="#DejaVuSans-31" transform="translate(453.90625 0)"/>
       <use xlink:href="#DejaVuSans-36" transform="translate(517.529297 0)"/>
       <use xlink:href="#DejaVuSans-5f" transform="translate(581.152344 0)"/>
       <use xlink:href="#DejaVuSans-31" transform="translate(631.152344 0)"/>
       <use xlink:href="#DejaVuSans-39" transform="translate(694.775391 0)"/>
       <use xlink:href="#DejaVuSans-2d" transform="translate(758.398438 0)"/>
       <use xlink:href="#DejaVuSans-30" transform="translate(794.482422 0)"/>
       <use xlink:href="#DejaVuSans-36" transform="translate(858.105469 0)"/>
       <use xlink:href="#DejaVuSans-5f" transform="translate(921.728516 0)"/>
       <use xlink:href="#DejaVuSans-66" transform="translate(971.728516 0)"/>
       <use xlink:href="#DejaVuSans-61" transform="translate(1006.933594 0)"/>
       <use xlink:href="#DejaVuSans-73" transform="translate(1068.212891 0)"/>
       <use xlink:href="#DejaVuSans-74" transform="translate(1120.3125 0)"/>
       <use xlink:href="#DejaVuSans-6c" transform="translate(1159.521484 0)"/>
       <use xlink:href="#DejaVuSans-69" transform="translate(1187.304688 0)"/>
       <use xlink:href="#DejaVuSans-6f" transform="translate(1215.087891 0)"/>
       <use xlink:href="#DejaVuSans-5f" transform="translate(1276.269531 0)"/>
       <use xlink:href="#DejaVuSans-6f" transform="translate(1326.269531 0)"/>
       <use xlink:href="#DejaVuSans-64" transform="translate(1387.451172 0)"/>
       <use xlink:href="#DejaVuSans-6f" transform="translate(1450.927734 0)"/>
       <use xlink:href="#DejaVuSans-6d" transform="translate(1512.109375 0)"/>
       <use xlink:href="#DejaVuSans-65" transform="translate(1609.521484 0)"/>
       <use xlink:href="#DejaVuSans-74" transform="translate(1671.044922 0)"/>
       <use xlink:href="#DejaVuSans-72" transform="translate(1710.253906 0)"/>
       <use xlink:href="#DejaVuSans-79" transform="translate(1751.367188 0)"/>
      </g>
     </g>
    </g>
    <g id="xtick_2">
     <g id="line2d_3">
      <path d="M 448.885 476.01875 
L 448.885 26.88 
" clip-path="url(#p3f15e9a5c3)" style="fill: none; stroke-dasharray: 2.96,1.28; stroke-dashoffset: 0; stroke: #b0b0b0; stroke-opacity: 0.3; stroke-width: 0.8"/>
     </g>
     <g id="line2d_4">
      <g>
       <use xlink:href="#mf65349e35e" x="448.885" y="476.01875" style="stroke: #000000; stroke-width: 0.8"/>
      </g>
     </g>
     <g id="text_2">
      <!-- dlio_v3 -->
      <g transform="translate(431.232656 490.617188) scale(0.1 -0.1)">
       <defs>
        <path id="DejaVuSans-76" d="M 191 3500 
L 800 3500 
L 1894 563 
L 2988 3500 
L 3597 3500 
L 2284 0 
L 1503 0 
L 191 3500 
z
" transform="scale(0.015625)"/>
        <path id="DejaVuSans-33" d="M 2597 2516 
Q 3050 2419 3304 2112 
Q 3559 1806 3559 1356 
Q 3559 666 3084 287 
Q 2609 -91 1734 -91 
Q 1441 -91 1130 -33 
Q 819 25 488 141 
L 488 750 
Q 750 597 1062 519 
Q 1375 441 1716 441 
Q 2309 441 2620 675 
Q 2931 909 2931 1356 
Q 2931 1769 2642 2001 
Q 2353 2234 1838 2234 
L 1294 2234 
L 1294 2753 
L 1863 2753 
Q 2328 2753 2575 2939 
Q 2822 3125 2822 3475 
Q 2822 3834 2567 4026 
Q 2313 4219 1838 4219 
Q 1578 4219 1281 4162 
Q 984 4106 628 3988 
L 628 4550 
Q 988 4650 1302 4700 
Q 1616 4750 1894 4750 
Q 2613 4750 3031 4423 
Q 3450 4097 3450 3541 
Q 3450 3153 3228 2886 
Q 3006 2619 2597 2516 
z
" transform="scale(0.015625)"/>
       </defs>
       <use xlink:href="#DejaVuSans-64"/>
       <use xlink:href="#DejaVuSans-6c" transform="translate(63.476562 0)"/>
       <use xlink:href="#DejaVuSans-69" transform="translate(91.259766 0)"/>
       <use xlink:href="#DejaVuSans-6f" transform="translate(119.042969 0)"/>
       <use xlink:href="#DejaVuSans-5f" transform="translate(180.224609 0)"/>
       <use xlink:href="#DejaVuSans-76" transform="translate(230.224609 0)"/>
       <use xlink:href="#DejaVuSans-33" transform="translate(289.404297 0)"/>
      </g>
     </g>
    </g>
    <g id="xtick_3">
     <g id="line2d_5">
      <path d="M 731.622762 476.01875 
L 731.622762 26.88 
" clip-path="url(#p3f15e9a5c3)" style="fill: none; stroke-dasharray: 2.96,1.28; stroke-dashoffset: 0; stroke: #b0b0b0; stroke-opacity: 0.3; stroke-width: 0.8"/>
     </g>
     <g id="line2d_6">
      <g>
       <use xlink:href="#mf65349e35e" x="731.622762" y="476.01875" style="stroke: #000000; stroke-width: 0.8"/>
      </g>
     </g>
     <g id="text_3">
      <!-- lego-loam-v2 -->
      <g transform="translate(698.829793 490.617188) scale(0.1 -0.1)">
       <defs>
        <path id="DejaVuSans-67" d="M 2906 1791 
Q 2906 2416 2648 2759 
Q 2391 3103 1925 3103 
Q 1463 3103 1205 2759 
Q 947 2416 947 1791 
Q 947 1169 1205 825 
Q 1463 481 1925 481 
Q 2391 481 2648 825 
Q 2906 1169 2906 1791 
z
M 3481 434 
Q 3481 -459 3084 -895 
Q 2688 -1331 1869 -1331 
Q 1566 -1331 1297 -1286 
Q 1028 -1241 775 -1147 
L 775 -588 
Q 1028 -725 1275 -790 
Q 1522 -856 1778 -856 
Q 2344 -856 2625 -561 
Q 2906 -266 2906 331 
L 2906 616 
Q 2728 306 2450 153 
Q 2172 0 1784 0 
Q 1141 0 747 490 
Q 353 981 353 1791 
Q 353 2603 747 3093 
Q 1141 3584 1784 3584 
Q 2172 3584 2450 3431 
Q 2728 3278 2906 2969 
L 2906 3500 
L 3481 3500 
L 3481 434 
z
" transform="scale(0.015625)"/>
       </defs>
       <use xlink:href="#DejaVuSans-6c"/>
       <use xlink:href="#DejaVuSans-65" transform="translate(27.783203 0)"/>
       <use xlink:href="#DejaVuSans-67" transform="translate(89.306641 0)"/>
       <use xlink:href="#DejaVuSans-6f" transform="translate(152.783203 0)"/>
       <use xlink:href="#DejaVuSans-2d" transform="translate(215.839844 0)"/>
       <use xlink:href="#DejaVuSans-6c" transform="translate(251.923828 0)"/>
       <use xlink:href="#DejaVuSans-6f" transform="translate(279.707031 0)"/>
       <use xlink:href="#DejaVuSans-61" transform="translate(340.888672 0)"/>
       <use xlink:href="#DejaVuSans-6d" transform="translate(402.167969 0)"/>
       <use xlink:href="#DejaVuSans-2d" transform="translate(499.580078 0)"/>
       <use xlink:href="#DejaVuSans-76" transform="translate(533.039062 0)"/>
       <use xlink:href="#DejaVuSans-32" transform="translate(592.21875 0)"/>
      </g>
     </g>
    </g>
   </g>
   <g id="matplotlib.axis_2">
    <g id="ytick_1">
     <g id="line2d_7">
      <path d="M 44.57 455.747178 
L 853.2 455.747178 
" clip-path="url(#p3f15e9a5c3)" style="fill: none; stroke-dasharray: 2.96,1.28; stroke-dashoffset: 0; stroke: #b0b0b0; stroke-opacity: 0.3; stroke-width: 0.8"/>
     </g>
     <g id="line2d_8">
      <defs>
       <path id="me3f6a44b36" d="M 0 0 
L -3.5 0 
" style="stroke: #000000; stroke-width: 0.8"/>
      </defs>
      <g>
       <use xlink:href="#me3f6a44b36" x="44.57" y="455.747178" style="stroke: #000000; stroke-width: 0.8"/>
      </g>
     </g>
     <g id="text_4">
      <!-- 0 -->
      <g transform="translate(31.2075 459.546397) scale(0.1 -0.1)">
       <use xlink:href="#DejaVuSans-30"/>
      </g>
     </g>
    </g>
    <g id="ytick_2">
     <g id="line2d_9">
      <path d="M 44.57 356.955484 
L 853.2 356.955484 
" clip-path="url(#p3f15e9a5c3)" style="fill: none; stroke-dasharray: 2.96,1.28; stroke-dashoffset: 0; stroke: #b0b0b0; stroke-opacity: 0.3; stroke-width: 0.8"/>
     </g>
     <g id="line2d_10">
      <g>
       <use xlink:href="#me3f6a44b36" x="44.57" y="356.955484" style="stroke: #000000; stroke-width: 0.8"/>
      </g>
     </g>
     <g id="text_5">
      <!-- 10 -->
      <g transform="translate(24.845 360.754702) scale(0.1 -0.1)">
       <use xlink:href="#DejaVuSans-31"/>
       <use xlink:href="#DejaVuSans-30" transform="translate(63.623047 0)"/>
      </g>
     </g>
    </g>
    <g id="ytick_3">
     <g id="line2d_11">
      <path d="M 44.57 258.163789 
L 853.2 258.163789 
" clip-path="url(#p3f15e9a5c3)" style="fill: none; stroke-dasharray: 2.96,1.28; stroke-dashoffset: 0; stroke: #b0b0b0; stroke-opacity: 0.3; stroke-width: 0.8"/>
     </g>
     <g id="line2d_12">
      <g>
       <use xlink:href="#me3f6a44b36" x="44.57" y="258.163789" style="stroke: #000000; stroke-width: 0.8"/>
      </g>
     </g>
     <g id="text_6">
      <!-- 20 -->
      <g transform="translate(24.845 261.963008) scale(0.1 -0.1)">
       <use xlink:href="#DejaVuSans-32"/>
       <use xlink:href="#DejaVuSans-30" transform="translate(63.623047 0)"/>
      </g>
     </g>
    </g>
    <g id="ytick_4">
     <g id="line2d_13">
      <path d="M 44.57 159.372095 
L 853.2 159.372095 
" clip-path="url(#p3f15e9a5c3)" style="fill: none; stroke-dasharray: 2.96,1.28; stroke-dashoffset: 0; stroke: #b0b0b0; stroke-opacity: 0.3; stroke-width: 0.8"/>
     </g>
     <g id="line2d_14">
      <g>
       <use xlink:href="#me3f6a44b36" x="44.57" y="159.372095" style="stroke: #000000; stroke-width: 0.8"/>
      </g>
     </g>
     <g id="text_7">
      <!-- 30 -->
      <g transform="translate(24.845 163.171314) scale(0.1 -0.1)">
       <use xlink:href="#DejaVuSans-33"/>
       <use xlink:href="#DejaVuSans-30" transform="translate(63.623047 0)"/>
      </g>
     </g>
    </g>
    <g id="ytick_5">
     <g id="line2d_15">
      <path d="M 44.57 60.580401 
L 853.2 60.580401 
" clip-path="url(#p3f15e9a5c3)" style="fill: none; stroke-dasharray: 2.96,1.28; stroke-dashoffset: 0; stroke: #b0b0b0; stroke-opacity: 0.3; stroke-width: 0.8"/>
     </g>
     <g id="line2d_16">
      <g>
       <use xlink:href="#me3f6a44b36" x="44.57" y="60.580401" style="stroke: #000000; stroke-width: 0.8"/>
      </g>
     </g>
     <g id="text_8">
      <!-- 40 -->
      <g transform="translate(24.845 64.379619) scale(0.1 -0.1)">
       <defs>
        <path id="DejaVuSans-34" d="M 2419 4116 
L 825 1625 
L 2419 1625 
L 2419 4116 
z
M 2253 4666 
L 3047 4666 
L 3047 1625 
L 3713 1625 
L 3713 1100 
L 3047 1100 
L 3047 0 
L 2419 0 
L 2419 1100 
L 313 1100 
L 313 1709 
L 2253 4666 
z
" transform="scale(0.015625)"/>
       </defs>
       <use xlink:href="#DejaVuSans-34"/>
       <use xlink:href="#DejaVuSans-30" transform="translate(63.623047 0)"/>
      </g>
     </g>
    </g>
    <g id="text_9">
     <!-- XY Error [m] -->
     <g transform="translate(18.765312 282.063437) rotate(-90) scale(0.1 -0.1)">
      <defs>
       <path id="DejaVuSans-58" d="M 403 4666 
L 1081 4666 
L 2241 2931 
L 3406 4666 
L 4084 4666 
L 2584 2425 
L 4184 0 
L 3506 0 
L 2194 1984 
L 872 0 
L 191 0 
L 1856 2491 
L 403 4666 
z
" transform="scale(0.015625)"/>
       <path id="DejaVuSans-59" d="M -13 4666 
L 666 4666 
L 1959 2747 
L 3244 4666 
L 3922 4666 
L 2272 2222 
L 2272 0 
L 1638 0 
L 1638 2222 
L -13 4666 
z
" transform="scale(0.015625)"/>
       <path id="DejaVuSans-20" transform="scale(0.015625)"/>
       <path id="DejaVuSans-45" d="M 628 4666 
L 3578 4666 
L 3578 4134 
L 1259 4134 
L 1259 2753 
L 3481 2753 
L 3481 2222 
L 1259 2222 
L 1259 531 
L 3634 531 
L 3634 0 
L 628 0 
L 628 4666 
z
" transform="scale(0.015625)"/>
       <path id="DejaVuSans-5b" d="M 550 4863 
L 1875 4863 
L 1875 4416 
L 1125 4416 
L 1125 -397 
L 1875 -397 
L 1875 -844 
L 550 -844 
L 550 4863 
z
" transform="scale(0.015625)"/>
       <path id="DejaVuSans-5d" d="M 1947 4863 
L 1947 -844 
L 622 -844 
L 622 -397 
L 1369 -397 
L 1369 4416 
L 622 4416 
L 622 4863 
L 1947 4863 
z
" transform="scale(0.015625)"/>
      </defs>
      <use xlink:href="#DejaVuSans-58"/>
      <use xlink:href="#DejaVuSans-59" transform="translate(68.505859 0)"/>
      <use xlink:href="#DejaVuSans-20" transform="translate(129.589844 0)"/>
      <use xlink:href="#DejaVuSans-45" transform="translate(161.376953 0)"/>
      <use xlink:href="#DejaVuSans-72" transform="translate(224.560547 0)"/>
      <use xlink:href="#DejaVuSans-72" transform="translate(263.923828 0)"/>
      <use xlink:href="#DejaVuSans-6f" transform="translate(302.787109 0)"/>
      <use xlink:href="#DejaVuSans-72" transform="translate(363.96875 0)"/>
      <use xlink:href="#DejaVuSans-20" transform="translate(405.082031 0)"/>
      <use xlink:href="#DejaVuSans-5b" transform="translate(436.869141 0)"/>
      <use xlink:href="#DejaVuSans-6d" transform="translate(475.882812 0)"/>
      <use xlink:href="#DejaVuSans-5d" transform="translate(573.294922 0)"/>
     </g>
    </g>
   </g>
   <g id="LineCollection_1">
    <path d="M 130.805017 47.295398 
L 201.489458 47.295398 
" clip-path="url(#p3f15e9a5c3)" style="fill: none; stroke: #1f77b4; stroke-width: 1.5"/>
    <path d="M 413.54278 423.606259 
L 484.22722 423.606259 
" clip-path="url(#p3f15e9a5c3)" style="fill: none; stroke: #1f77b4; stroke-width: 1.5"/>
    <path d="M 696.280542 179.441474 
L 766.964983 179.441474 
" clip-path="url(#p3f15e9a5c3)" style="fill: none; stroke: #1f77b4; stroke-width: 1.5"/>
   </g>
   <g id="LineCollection_2">
    <path d="M 130.805017 450.088275 
L 201.489458 450.088275 
" clip-path="url(#p3f15e9a5c3)" style="fill: none; stroke: #1f77b4; stroke-width: 1.5"/>
    <path d="M 413.54278 455.603352 
L 484.22722 455.603352 
" clip-path="url(#p3f15e9a5c3)" style="fill: none; stroke: #1f77b4; stroke-width: 1.5"/>
    <path d="M 696.280542 455.037917 
L 766.964983 455.037917 
" clip-path="url(#p3f15e9a5c3)" style="fill: none; stroke: #1f77b4; stroke-width: 1.5"/>
   </g>
   <g id="LineCollection_3">
    <path d="M 166.147238 450.088275 
L 166.147238 47.295398 
" clip-path="url(#p3f15e9a5c3)" style="fill: none; stroke: #1f77b4; stroke-width: 1.5"/>
    <path d="M 448.885 455.603352 
L 448.885 423.606259 
" clip-path="url(#p3f15e9a5c3)" style="fill: none; stroke: #1f77b4; stroke-width: 1.5"/>
    <path d="M 731.622762 455.037917 
L 731.622762 179.441474 
" clip-path="url(#p3f15e9a5c3)" style="fill: none; stroke: #1f77b4; stroke-width: 1.5"/>
   </g>
   <g id="LineCollection_4">
    <path d="M 81.325909 368.092775 
L 250.968566 368.092775 
" clip-path="url(#p3f15e9a5c3)" style="fill: none; stroke: #0000ff; stroke-width: 1.5"/>
   </g>
   <g id="LineCollection_5">
    <path d="M 81.325909 269.963172 
L 250.968566 269.963172 
" clip-path="url(#p3f15e9a5c3)" style="fill: none; stroke: #0000ff; stroke-width: 1.5"/>
   </g>
   <g id="LineCollection_6">
    <path d="M 81.325909 167.237465 
L 250.968566 167.237465 
" clip-path="url(#p3f15e9a5c3)" style="fill: none; stroke: #0000ff; stroke-width: 1.5"/>
   </g>
   <g id="LineCollection_7">
    <path d="M 364.063671 440.196907 
L 533.706329 440.196907 
" clip-path="url(#p3f15e9a5c3)" style="fill: none; stroke: #0000ff; stroke-width: 1.5"/>
   </g>
   <g id="LineCollection_8">
    <path d="M 364.063671 436.098883 
L 533.706329 436.098883 
" clip-path="url(#p3f15e9a5c3)" style="fill: none; stroke: #0000ff; stroke-width: 1.5"/>
   </g>
   <g id="LineCollection_9">
    <path d="M 364.063671 433.550416 
L 533.706329 433.550416 
" clip-path="url(#p3f15e9a5c3)" style="fill: none; stroke: #0000ff; stroke-width: 1.5"/>
   </g>
   <g id="LineCollection_10">
    <path d="M 646.801434 336.749554 
L 816.444091 336.749554 
" clip-path="url(#p3f15e9a5c3)" style="fill: none; stroke: #0000ff; stroke-width: 1.5"/>
   </g>
   <g id="LineCollection_11">
    <path d="M 646.801434 289.819201 
L 816.444091 289.819201 
" clip-path="url(#p3f15e9a5c3)" style="fill: none; stroke: #0000ff; stroke-width: 1.5"/>
   </g>
   <g id="LineCollection_12">
    <path d="M 646.801434 253.726197 
L 816.444091 253.726197 
" clip-path="url(#p3f15e9a5c3)" style="fill: none; stroke: #0000ff; stroke-width: 1.5"/>
   </g>
   <g id="patch_3">
    <path d="M 44.57 476.01875 
L 44.57 26.88 
" style="fill: none; stroke: #000000; stroke-width: 0.8; stroke-linejoin: miter; stroke-linecap: square"/>
   </g>
   <g id="patch_4">
    <path d="M 853.2 476.01875 
L 853.2 26.88 
" style="fill: none; stroke: #000000; stroke-width: 0.8; stroke-linejoin: miter; stroke-linecap: square"/>
   </g>
   <g id="patch_5">
    <path d="M 44.57 476.01875 
L 853.2 476.01875 
" style="fill: none; stroke: #000000; stroke-width: 0.8; stroke-linejoin: miter; stroke-linecap: square"/>
   </g>
   <g id="patch_6">
    <path d="M 44.57 26.88 
L 853.2 26.88 
" style="fill: none; stroke: #000000; stroke-width: 0.8; stroke-linejoin: miter; stroke-linecap: square"/>
   </g>
   <g id="text_10">
    <!-- Violin Plot Comparison -->
    <g transform="translate(381.395312 20.88) scale(0.12 -0.12)">
     <defs>
      <path id="DejaVuSans-56" d="M 1831 0 
L 50 4666 
L 709 4666 
L 2188 738 
L 3669 4666 
L 4325 4666 
L 2547 0 
L 1831 0 
z
" transform="scale(0.015625)"/>
      <path id="DejaVuSans-6e" d="M 3513 2113 
L 3513 0 
L 2938 0 
L 2938 2094 
Q 2938 2591 2744 2837 
Q 2550 3084 2163 3084 
Q 1697 3084 1428 2787 
Q 1159 2491 1159 1978 
L 1159 0 
L 581 0 
L 581 3500 
L 1159 3500 
L 1159 2956 
Q 1366 3272 1645 3428 
Q 1925 3584 2291 3584 
Q 2894 3584 3203 3211 
Q 3513 2838 3513 2113 
z
" transform="scale(0.015625)"/>
      <path id="DejaVuSans-50" d="M 1259 4147 
L 1259 2394 
L 2053 2394 
Q 2494 2394 2734 2622 
Q 2975 2850 2975 3272 
Q 2975 3691 2734 3919 
Q 2494 4147 2053 4147 
L 1259 4147 
z
M 628 4666 
L 2053 4666 
Q 2838 4666 3239 4311 
Q 3641 3956 3641 3272 
Q 3641 2581 3239 2228 
Q 2838 1875 2053 1875 
L 1259 1875 
L 1259 0 
L 628 0 
L 628 4666 
z
" transform="scale(0.015625)"/>
      <path id="DejaVuSans-43" d="M 4122 4306 
L 4122 3641 
Q 3803 3938 3442 4084 
Q 3081 4231 2675 4231 
Q 1875 4231 1450 3742 
Q 1025 3253 1025 2328 
Q 1025 1406 1450 917 
Q 1875 428 2675 428 
Q 3081 428 3442 575 
Q 3803 722 4122 1019 
L 4122 359 
Q 3791 134 3420 21 
Q 3050 -91 2638 -91 
Q 1578 -91 968 557 
Q 359 1206 359 2328 
Q 359 3453 968 4101 
Q 1578 4750 2638 4750 
Q 3056 4750 3426 4639 
Q 3797 4528 4122 4306 
z
" transform="scale(0.015625)"/>
      <path id="DejaVuSans-70" d="M 1159 525 
L 1159 -1331 
L 581 -1331 
L 581 3500 
L 1159 3500 
L 1159 2969 
Q 1341 3281 1617 3432 
Q 1894 3584 2278 3584 
Q 2916 3584 3314 3078 
Q 3713 2572 3713 1747 
Q 3713 922 3314 415 
Q 2916 -91 2278 -91 
Q 1894 -91 1617 61 
Q 1341 213 1159 525 
z
M 3116 1747 
Q 3116 2381 2855 2742 
Q 2594 3103 2138 3103 
Q 1681 3103 1420 2742 
Q 1159 2381 1159 1747 
Q 1159 1113 1420 752 
Q 1681 391 2138 391 
Q 2594 391 2855 752 
Q 3116 1113 3116 1747 
z
" transform="scale(0.015625)"/>
     </defs>
     <use xlink:href="#DejaVuSans-56"/>
     <use xlink:href="#DejaVuSans-69" transform="translate(66.158203 0)"/>
     <use xlink:href="#DejaVuSans-6f" transform="translate(93.941406 0)"/>
     <use xlink:href="#DejaVuSans-6c" transform="translate(155.123047 0)"/>
     <use xlink:href="#DejaVuSans-69" transform="translate(182.90625 0)"/>
     <use xlink:href="#DejaVuSans-6e" transform="translate(210.689453 0)"/>
     <use xlink:href="#DejaVuSans-20" transform="translate(274.068359 0)"/>
     <use xlink:href="#DejaVuSans-50" transform="translate(305.855469 0)"/>
     <use xlink:href="#DejaVuSans-6c" transform="translate(366.158203 0)"/>
     <use xlink:href="#DejaVuSans-6f" transform="translate(393.941406 0)"/>
     <use xlink:href="#DejaVuSans-74" transform="translate(455.123047 0)"/>
     <use xlink:href="#DejaVuSans-20" transform="translate(494.332031 0)"/>
     <use xlink:href="#DejaVuSans-43" transform="translate(526.119141 0)"/>
     <use xlink:href="#DejaVuSans-6f" transform="translate(595.943359 0)"/>
     <use xlink:href="#DejaVuSans-6d" transform="translate(657.125 0)"/>
     <use xlink:href="#DejaVuSans-70" transform="translate(754.537109 0)"/>
     <use xlink:href="#DejaVuSans-61" transform="translate(818.013672 0)"/>
     <use xlink:href="#DejaVuSans-72" transform="translate(879.292969 0)"/>
     <use xlink:href="#DejaVuSans-69" transform="translate(920.40625 0)"/>
     <use xlink:href="#DejaVuSans-73" transform="translate(948.189453 0)"/>
     <use xlink:href="#DejaVuSans-6f" transform="translate(1000.289062 0)"/>
     <use xlink:href="#DejaVuSans-6e" transform="translate(1061.470703 0)"/>
    </g>
   </g>
  </g>
 </g>
 <defs>
  <clipPath id="p3f15e9a5c3">
   <rect x="44.57" y="26.88" width="808.63" height="449.13875"/>
  </clipPath>
 </defs>
</svg>
